<svg width="378" height="378" xmlns="http://www.w3.org/2000/svg" xmlns:xlink="http://www.w3.org/1999/xlink" overflow="hidden"><defs><clipPath id="clip0"><rect x="166" y="20" width="378" height="378"/></clipPath><clipPath id="clip1"><rect x="166" y="21" width="377" height="376"/></clipPath><clipPath id="clip2"><rect x="166" y="21" width="377" height="376"/></clipPath><clipPath id="clip3"><rect x="166" y="21" width="377" height="376"/></clipPath></defs><g clip-path="url(#clip0)" transform="translate(-166 -20)"><path d="M0 0 63.869 3.19024" stroke="#0F0F0F" stroke-width="1.33333" stroke-miterlimit="8" fill="none" fill-rule="evenodd" transform="matrix(1 0 0 -1 243.5 148.69)"/><path d="M0 0 42.5998 9.1874" stroke="#0F0F0F" stroke-width="1.33333" stroke-miterlimit="8" fill="none" fill-rule="evenodd" transform="matrix(1 0 0 -1 307.5 145.687)"/><path d="M234.5 178.5 288.307 191.217" stroke="#0F0F0F" stroke-width="1.33333" stroke-miterlimit="8" fill="none" fill-rule="evenodd"/><path d="M0 0 61.433 10.0061" stroke="#0F0F0F" stroke-width="1.33333" stroke-miterlimit="8" fill="none" fill-rule="evenodd" transform="matrix(1 0 0 -1 288.5 192.506)"/><path d="M348.5 181.5 398.161 186.69" stroke="#0F0F0F" stroke-width="1.33333" stroke-miterlimit="8" fill="none" fill-rule="evenodd"/><path d="M0 0 18.1479 47.2082" stroke="#0F0F0F" stroke-width="1.33333" stroke-miterlimit="8" fill="none" fill-rule="evenodd" transform="matrix(-1 0 0 1 307.648 145.5)"/><path d="M0 0 0.840105 46.2709" stroke="#0F0F0F" stroke-width="1.33333" stroke-miterlimit="8" fill="none" fill-rule="evenodd" transform="matrix(-1 0 0 1 349.34 135.5)"/><path d="M349.5 136.5 383.87 139.409" stroke="#0F0F0F" stroke-width="1.33333" stroke-miterlimit="8" fill="none" fill-rule="evenodd"/><path d="M301.5 101.5 307.621 145.518" stroke="#0F0F0F" stroke-width="1.33333" stroke-miterlimit="8" fill="none" fill-rule="evenodd"/><path d="M0 0 35.3987 4.37354" stroke="#0F0F0F" stroke-width="1.33333" stroke-miterlimit="8" fill="none" fill-rule="evenodd" transform="matrix(-1 0 0 1 300.899 101.5)"/><path d="M0 0 22.3496 43.3432" stroke="#0F0F0F" stroke-width="1.33333" stroke-miterlimit="8" fill="none" fill-rule="evenodd" transform="matrix(1 0 0 -1 243.5 148.843)"/><path d="M300.5 101.5 347.818 112.39" stroke="#0F0F0F" stroke-width="1.33333" stroke-miterlimit="8" fill="none" fill-rule="evenodd"/><path d="M348.5 111.5 349.82 135.936" stroke="#0F0F0F" stroke-width="1.33333" stroke-miterlimit="8" fill="none" fill-rule="evenodd"/><path d="M348.5 111.5 373.125 121.131" stroke="#0F0F0F" stroke-width="1.33333" stroke-miterlimit="8" fill="none" fill-rule="evenodd"/><path d="M372.5 121.5 384.036 139.449" stroke="#0F0F0F" stroke-width="1.33333" stroke-miterlimit="8" fill="none" fill-rule="evenodd"/><path d="M384.5 138.5 398.268 187.584" stroke="#0F0F0F" stroke-width="1.33333" stroke-miterlimit="8" fill="none" fill-rule="evenodd"/><path d="M0 0 51.4051 10.0907" stroke="#0F0F0F" stroke-width="1.33333" stroke-miterlimit="8" fill="none" fill-rule="evenodd" transform="matrix(1 0 0 -1 303.5 237.591)"/><path d="M348.5 182.5 355.059 227.633" stroke="#0F0F0F" stroke-width="1.33333" stroke-miterlimit="8" fill="none" fill-rule="evenodd"/><path d="M289.5 191.5 304.082 237.713" stroke="#0F0F0F" stroke-width="1.33333" stroke-miterlimit="8" fill="none" fill-rule="evenodd"/><path d="M234.5 214.5 303.838 238.636" stroke="#0F0F0F" stroke-width="1.33333" stroke-miterlimit="8" fill="none" fill-rule="evenodd"/><path d="M0 0 0.263202 35.8074" stroke="#0F0F0F" stroke-width="1.33333" stroke-miterlimit="8" fill="none" fill-rule="evenodd" transform="matrix(-1 0 0 1 234.763 178.5)"/><path d="M0 0 12.2423 27.9043" stroke="#0F0F0F" stroke-width="1.33333" stroke-miterlimit="8" fill="none" fill-rule="evenodd" transform="matrix(-1 0 0 1 397.742 186.5)"/><path d="M0 0 30.4578 11.9436" stroke="#0F0F0F" stroke-width="1.33333" stroke-miterlimit="8" fill="none" fill-rule="evenodd" transform="matrix(-1 0 0 1 385.958 214.5)"/><path d="M0 0 8.77165 31.0542" stroke="#0F0F0F" stroke-width="1.33333" stroke-miterlimit="8" fill="none" fill-rule="evenodd" transform="matrix(-1 0 0 1 243.272 147.5)"/><path d="M230 213.5C230 211.015 232.015 209 234.5 209 236.985 209 239 211.015 239 213.5 239 215.985 236.985 218 234.5 218 232.015 218 230 215.985 230 213.5Z" fill="#0F0F0F" fill-rule="evenodd"/><path d="M298 236.5C298 234.015 300.015 232 302.5 232 304.985 232 307 234.015 307 236.5 307 238.985 304.985 241 302.5 241 300.015 241 298 238.985 298 236.5Z" fill="#0F0F0F" fill-rule="evenodd"/><path d="M230 178.5C230 176.015 232.015 174 234.5 174 236.985 174 239 176.015 239 178.5 239 180.985 236.985 183 234.5 183 232.015 183 230 180.985 230 178.5Z" fill="#0F0F0F" fill-rule="evenodd"/><path d="M238 148.5C238 146.015 240.015 144 242.5 144 244.985 144 247 146.015 247 148.5 247 150.985 244.985 153 242.5 153 240.015 153 238 150.985 238 148.5Z" fill="#0F0F0F" fill-rule="evenodd"/><path d="M261 105.5C261 103.015 263.015 101 265.5 101 267.985 101 270 103.015 270 105.5 270 107.985 267.985 110 265.5 110 263.015 110 261 107.985 261 105.5Z" fill="#0F0F0F" fill-rule="evenodd"/><path d="M295 100C295 97.7909 297.015 96 299.5 96 301.985 96 304 97.7909 304 100 304 102.209 301.985 104 299.5 104 297.015 104 295 102.209 295 100Z" fill="#0F0F0F" fill-rule="evenodd"/><path d="M302 145.5C302 143.015 304.015 141 306.5 141 308.985 141 311 143.015 311 145.5 311 147.985 308.985 150 306.5 150 304.015 150 302 147.985 302 145.5Z" fill="#0F0F0F" fill-rule="evenodd"/><path d="M284 191.5C284 189.015 286.015 187 288.5 187 290.985 187 293 189.015 293 191.5 293 193.985 290.985 196 288.5 196 286.015 196 284 193.985 284 191.5Z" fill="#0F0F0F" fill-rule="evenodd"/><path d="M344 181.5C344 179.015 345.791 177 348 177 350.209 177 352 179.015 352 181.5 352 183.985 350.209 186 348 186 345.791 186 344 183.985 344 181.5Z" fill="#0F0F0F" fill-rule="evenodd"/><path d="M350 226.5C350 224.015 351.791 222 354 222 356.209 222 358 224.015 358 226.5 358 228.985 356.209 231 354 231 351.791 231 350 228.985 350 226.5Z" fill="#0F0F0F" fill-rule="evenodd"/><path d="M381 215.5C381 213.015 383.015 211 385.5 211 387.985 211 390 213.015 390 215.5 390 217.985 387.985 220 385.5 220 383.015 220 381 217.985 381 215.5Z" fill="#0F0F0F" fill-rule="evenodd"/><path d="M393 185.5C393 183.015 395.015 181 397.5 181 399.985 181 402 183.015 402 185.5 402 187.985 399.985 190 397.5 190 395.015 190 393 187.985 393 185.5Z" fill="#0F0F0F" fill-rule="evenodd"/><path d="M345 136.5C345 134.015 347.015 132 349.5 132 351.985 132 354 134.015 354 136.5 354 138.985 351.985 141 349.5 141 347.015 141 345 138.985 345 136.5Z" fill="#0F0F0F" fill-rule="evenodd"/><path d="M344 111.5C344 109.015 345.791 107 348 107 350.209 107 352 109.015 352 111.5 352 113.985 350.209 116 348 116 345.791 116 344 113.985 344 111.5Z" fill="#0F0F0F" fill-rule="evenodd"/><path d="M368 119.5C368 117.015 369.791 115 372 115 374.209 115 376 117.015 376 119.5 376 121.985 374.209 124 372 124 369.791 124 368 121.985 368 119.5Z" fill="#0F0F0F" fill-rule="evenodd"/><path d="M378 138.5C378 136.015 380.015 134 382.5 134 384.985 134 387 136.015 387 138.5 387 140.985 384.985 143 382.5 143 380.015 143 378 140.985 378 138.5Z" fill="#0F0F0F" fill-rule="evenodd"/><g clip-path="url(#clip1)"><g clip-path="url(#clip2)"><g clip-path="url(#clip3)"><path d="M279.258 242.442C270.642 233.825 256.542 234.217 245.967 242.442L229.517 225.992C272.208 179.775 269.467 108.1 223.25 65.4083 177.033 22.7167 105.75 25.85 63.0583 72.0667 20.3667 118.283 23.5 189.958 69.325 232.65 113.192 273.383 180.95 272.992 224.425 231.867L240.875 248.317C237.35 252.625 235.392 258.108 234.608 263.592 233.825 270.25 236.175 276.908 240.875 281.608L296.1 336.833C300.408 340.75 305.892 343.1 311.767 343.1 319.6 343.1 326.65 339.967 332.133 334.483 337.225 329.783 340.358 323.125 340.75 316.075 341.533 309.417 339.183 302.758 334.483 298.058L279.258 242.442ZM72.0667 223.642C30.9417 182.517 30.9417 115.542 72.0667 74.025 113.192 32.5083 180.167 32.9 221.683 74.025 263.2 115.15 262.808 182.125 221.683 223.642 201.708 243.617 175.075 254.583 146.875 254.583 119.067 254.583 92.0417 243.617 72.0667 223.642ZM326.258 328.217C318.817 335.658 307.458 336.833 301.192 330.567L246.358 275.733C243.225 272.6 242.05 268.292 242.442 263.983 242.833 258.892 245.183 254.192 249.1 250.667 253.017 246.75 258.5 244.4 263.983 244.008 267.9 244.008 271.425 245.183 274.167 247.925L329 303.15C332.133 306.283 333.308 310.592 332.917 314.9 332.133 319.992 330.175 324.692 326.258 328.217 326.258 328.217 326.258 328.217 326.258 328.217Z" transform="matrix(1.00266 0 0 1 166 21)"/></g></g></g></g></svg>