<svg width="1298" height="350" xmlns="http://www.w3.org/2000/svg" xmlns:xlink="http://www.w3.org/1999/xlink" overflow="hidden"><defs><clipPath id="clip0"><rect x="55" y="352" width="1298" height="350"/></clipPath></defs><g clip-path="url(#clip0)" transform="translate(-55 -352)"><path d="M68.3818 493.125C76.8992 463.731 87.3975 394.591 117.11 377.617 146.822 360.642 211 377.617 246.654 391.279 282.309 404.941 320.737 433.094 331.037 459.591 341.337 486.087 333.81 528.109 308.456 550.259 283.101 572.408 219.319 591.866 178.911 592.487 138.502 593.108 84.2282 570.752 66.0048 553.985 47.7814 537.217 59.8644 522.52 68.3818 493.125Z" stroke="#0F0F0F" stroke-linejoin="round" stroke-miterlimit="10" fill="#F2F2F2" fill-rule="evenodd"/><text fill="#0F0F0F" font-family="Cambria Math,Cambria Math_MSFontService,sans-serif" font-weight="400" font-size="16" transform="translate(519.771 548)">Î©<tspan font-size="12" x="10.8333" y="4">(</tspan><tspan font-size="12" x="15.6666" y="4">e</tspan><tspan font-size="12" x="22.1666" y="4">=</tspan><tspan font-size="12" x="30.6666" y="4">1</tspan><tspan font-size="12" x="37.5" y="4">)</tspan><tspan font-size="21" x="-424.246" y="13">Î©</tspan></text><path d="M0 0 104 5.19475" stroke="#0F0F0F" stroke-width="1.33333" stroke-miterlimit="8" fill="none" fill-rule="evenodd" transform="matrix(1 0 0 -1 513.5 443.695)"/><path d="M0 0 69.3667 14.9601" stroke="#0F0F0F" stroke-width="1.33333" stroke-miterlimit="8" fill="none" fill-rule="evenodd" transform="matrix(1 0 0 -1 617.5 438.46)"/><path d="M499.5 492.5 587.117 513.208" stroke="#0F0F0F" stroke-width="1.33333" stroke-miterlimit="8" fill="none" fill-rule="evenodd"/><path d="M0 0 100.033 16.2933" stroke="#0F0F0F" stroke-width="1.33333" stroke-miterlimit="8" fill="none" fill-rule="evenodd" transform="matrix(1 0 0 -1 587.5 514.793)"/><path d="M684.5 497.5 765.365 505.951" stroke="#0F0F0F" stroke-width="1.33333" stroke-miterlimit="8" fill="none" fill-rule="evenodd"/><path d="M0 0 29.551 76.8707" stroke="#0F0F0F" stroke-width="1.33333" stroke-miterlimit="8" fill="none" fill-rule="evenodd" transform="matrix(-1 0 0 1 618.051 438.5)"/><path d="M0 0 1.36798 75.3445" stroke="#0F0F0F" stroke-width="1.33333" stroke-miterlimit="8" fill="none" fill-rule="evenodd" transform="matrix(-1 0 0 1 686.868 422.5)"/><path d="M687.5 422.5 743.467 427.237" stroke="#0F0F0F" stroke-width="1.33333" stroke-miterlimit="8" fill="none" fill-rule="evenodd"/><path d="M607.5 366.5 617.467 438.176" stroke="#0F0F0F" stroke-width="1.33333" stroke-miterlimit="8" fill="none" fill-rule="evenodd"/><path d="M0 0 57.6409 7.12157" stroke="#0F0F0F" stroke-width="1.33333" stroke-miterlimit="8" fill="none" fill-rule="evenodd" transform="matrix(-1 0 0 1 608.141 366.5)"/><path d="M0 0 36.3925 70.5772" stroke="#0F0F0F" stroke-width="1.33333" stroke-miterlimit="8" fill="none" fill-rule="evenodd" transform="matrix(1 0 0 -1 513.5 443.077)"/><path d="M607.5 365.5 684.55 383.232" stroke="#0F0F0F" stroke-width="1.33333" stroke-miterlimit="8" fill="none" fill-rule="evenodd"/><path d="M685.5 382.5 687.649 422.291" stroke="#0F0F0F" stroke-width="1.33333" stroke-miterlimit="8" fill="none" fill-rule="evenodd"/><path d="M685.5 382.5 725.598 398.182" stroke="#0F0F0F" stroke-width="1.33333" stroke-miterlimit="8" fill="none" fill-rule="evenodd"/><path d="M724.5 398.5 743.285 427.727" stroke="#0F0F0F" stroke-width="1.33333" stroke-miterlimit="8" fill="none" fill-rule="evenodd"/><path d="M743.5 426.5 765.918 506.424" stroke="#0F0F0F" stroke-width="1.33333" stroke-miterlimit="8" fill="none" fill-rule="evenodd"/><path d="M0 0 83.7048 16.4311" stroke="#0F0F0F" stroke-width="1.33333" stroke-miterlimit="8" fill="none" fill-rule="evenodd" transform="matrix(1 0 0 -1 612.5 588.931)"/><path d="M685.5 498.5 696.181 571.992" stroke="#0F0F0F" stroke-width="1.33333" stroke-miterlimit="8" fill="none" fill-rule="evenodd"/><path d="M588.5 513.5 612.244 588.75" stroke="#0F0F0F" stroke-width="1.33333" stroke-miterlimit="8" fill="none" fill-rule="evenodd"/><path d="M499.5 550.5 612.405 589.802" stroke="#0F0F0F" stroke-width="1.33333" stroke-miterlimit="8" fill="none" fill-rule="evenodd"/><path d="M0 0 0.428661 58.3062" stroke="#0F0F0F" stroke-width="1.33333" stroke-miterlimit="8" fill="none" fill-rule="evenodd" transform="matrix(-1 0 0 1 499.929 492.5)"/><path d="M0 0 19.9346 45.4375" stroke="#0F0F0F" stroke-width="1.33333" stroke-miterlimit="8" fill="none" fill-rule="evenodd" transform="matrix(-1 0 0 1 765.435 504.5)"/><path d="M0 0 49.5955 19.4482" stroke="#0F0F0F" stroke-width="1.33333" stroke-miterlimit="8" fill="none" fill-rule="evenodd" transform="matrix(-1 0 0 1 746.096 551.5)"/><path d="M0 0 14.2831 50.5665" stroke="#0F0F0F" stroke-width="1.33333" stroke-miterlimit="8" fill="none" fill-rule="evenodd" transform="matrix(-1 0 0 1 513.783 442.5)"/><text fill="#0F0F0F" font-family="Arial,Arial_MSFontService,sans-serif" font-weight="400" font-size="16" transform="translate(98.198 642)">r<tspan font-size="16" x="5.33334" y="0">egion</tspan><tspan font-size="16" x="48.6667" y="0">of a solid </tspan><tspan font-size="16" x="117" y="0">body</tspan><tspan font-size="16" x="711.293" y="46">= </tspan>numeric<tspan font-size="16" x="786.293" y="46">region</tspan><tspan font-size="16" x="834.96" y="46">of a solid </tspan>body<tspan font-family="Cambria Math,Cambria Math_MSFontService,sans-serif" font-size="16" x="520.605" y="-75">Î©</tspan><tspan font-family="Cambria Math,Cambria Math_MSFontService,sans-serif" font-size="12" x="531.439" y="-71">(</tspan><tspan font-family="Cambria Math,Cambria Math_MSFontService,sans-serif" font-size="12" x="536.272" y="-71">e</tspan><tspan font-family="Cambria Math,Cambria Math_MSFontService,sans-serif" font-size="12" x="542.772" y="-71">=</tspan><tspan font-family="Cambria Math,Cambria Math_MSFontService,sans-serif" font-size="12" x="551.272" y="-71">2</tspan><tspan font-family="Cambria Math,Cambria Math_MSFontService,sans-serif" font-size="12" x="558.105" y="-71">)</tspan><tspan font-family="Cambria Math,Cambria Math_MSFontService,sans-serif" font-size="16" x="601.386" y="-103">Î©</tspan><tspan font-family="Cambria Math,Cambria Math_MSFontService,sans-serif" font-size="12" x="612.22" y="-99">(</tspan><tspan font-family="Cambria Math,Cambria Math_MSFontService,sans-serif" font-size="12" x="617.053" y="-99">e</tspan><tspan font-family="Cambria Math,Cambria Math_MSFontService,sans-serif" font-size="12" x="623.553" y="-99">=</tspan><tspan font-family="Cambria Math,Cambria Math_MSFontService,sans-serif" font-size="12" x="632.053" y="-99">3</tspan><tspan font-family="Cambria Math,Cambria Math_MSFontService,sans-serif" font-size="12" x="638.886" y="-99">)</tspan><tspan font-family="Cambria Math,Cambria Math_MSFontService,sans-serif" font-size="16" x="435.077" y="-153">Î©</tspan><tspan font-family="Cambria Math,Cambria Math_MSFontService,sans-serif" font-size="12" x="445.911" y="-150">(</tspan><tspan font-family="Cambria Math,Cambria Math_MSFontService,sans-serif" font-size="12" x="450.744" y="-150">e</tspan><tspan font-family="Cambria Math,Cambria Math_MSFontService,sans-serif" font-size="12" x="457.244" y="-150">=</tspan><tspan font-family="Cambria Math,Cambria Math_MSFontService,sans-serif" font-size="12" x="465.744" y="-150">4</tspan><tspan font-family="Cambria Math,Cambria Math_MSFontService,sans-serif" font-size="12" x="472.577" y="-150">)</tspan><tspan font-family="Cambria Math,Cambria Math_MSFontService,sans-serif" font-size="16" x="521.537" y="-152">Î©</tspan><tspan font-family="Cambria Math,Cambria Math_MSFontService,sans-serif" font-size="12" x="532.37" y="-148">(</tspan><tspan font-family="Cambria Math,Cambria Math_MSFontService,sans-serif" font-size="12" x="537.204" y="-148">e</tspan><tspan font-family="Cambria Math,Cambria Math_MSFontService,sans-serif" font-size="12" x="543.704" y="-148">=</tspan><tspan font-family="Cambria Math,Cambria Math_MSFontService,sans-serif" font-size="12" x="552.204" y="-148">5</tspan><tspan font-family="Cambria Math,Cambria Math_MSFontService,sans-serif" font-size="12" x="559.037" y="-148">)</tspan><tspan font-family="Cambria Math,Cambria Math_MSFontService,sans-serif" font-size="16" x="610.939" y="-152">Î©</tspan><tspan font-family="Cambria Math,Cambria Math_MSFontService,sans-serif" font-size="12" x="621.772" y="-148">(</tspan><tspan font-family="Cambria Math,Cambria Math_MSFontService,sans-serif" font-size="12" x="626.606" y="-148">e</tspan><tspan font-family="Cambria Math,Cambria Math_MSFontService,sans-serif" font-size="12" x="633.106" y="-148">=</tspan><tspan font-family="Cambria Math,Cambria Math_MSFontService,sans-serif" font-size="12" x="641.606" y="-148">6</tspan><tspan font-family="Cambria Math,Cambria Math_MSFontService,sans-serif" font-size="12" x="648.439" y="-148">)</tspan><tspan font-family="Cambria Math,Cambria Math_MSFontService,sans-serif" font-size="16" x="447.005" y="-214">Î©</tspan><tspan font-family="Cambria Math,Cambria Math_MSFontService,sans-serif" font-size="12" x="457.838" y="-211">(</tspan><tspan font-family="Cambria Math,Cambria Math_MSFontService,sans-serif" font-size="12" x="462.671" y="-211">e</tspan><tspan font-family="Cambria Math,Cambria Math_MSFontService,sans-serif" font-size="12" x="469.171" y="-211">=</tspan><tspan font-family="Cambria Math,Cambria Math_MSFontService,sans-serif" font-size="12" x="477.671" y="-211">7</tspan><tspan font-family="Cambria Math,Cambria Math_MSFontService,sans-serif" font-size="12" x="484.505" y="-211">)</tspan><tspan font-family="Cambria Math,Cambria Math_MSFontService,sans-serif" font-size="16" x="526.824" y="-224">Î©</tspan><tspan font-family="Cambria Math,Cambria Math_MSFontService,sans-serif" font-size="12" x="537.657" y="-221">(</tspan><tspan font-family="Cambria Math,Cambria Math_MSFontService,sans-serif" font-size="12" x="542.49" y="-221">e</tspan><tspan font-family="Cambria Math,Cambria Math_MSFontService,sans-serif" font-size="12" x="548.99" y="-221">=</tspan><tspan font-family="Cambria Math,Cambria Math_MSFontService,sans-serif" font-size="12" x="557.49" y="-221">8</tspan><tspan font-family="Cambria Math,Cambria Math_MSFontService,sans-serif" font-size="12" x="564.324" y="-221">)</tspan><tspan font-family="Cambria Math,Cambria Math_MSFontService,sans-serif" font-size="16" x="591.213" y="-228">Î©</tspan><tspan font-family="Cambria Math,Cambria Math_MSFontService,sans-serif" font-size="12" x="602.046" y="-224">(</tspan><tspan font-family="Cambria Math,Cambria Math_MSFontService,sans-serif" font-size="12" x="606.879" y="-224">e</tspan><tspan font-family="Cambria Math,Cambria Math_MSFontService,sans-serif" font-size="12" x="613.379" y="-224">=</tspan><tspan font-family="Cambria Math,Cambria Math_MSFontService,sans-serif" font-size="12" x="621.879" y="-224">9</tspan><tspan font-family="Cambria Math,Cambria Math_MSFontService,sans-serif" font-size="12" x="628.379" y="-224">)</tspan></text><path d="M493 549.5C493 545.358 496.134 542 500 542 503.866 542 507 545.358 507 549.5 507 553.642 503.866 557 500 557 496.134 557 493 553.642 493 549.5Z" fill="#0F0F0F" fill-rule="evenodd"/><path d="M603 587.5C603 583.358 606.134 580 610 580 613.866 580 617 583.358 617 587.5 617 591.642 613.866 595 610 595 606.134 595 603 591.642 603 587.5Z" fill="#0F0F0F" fill-rule="evenodd"/><path d="M493 492.5C493 488.358 496.134 485 500 485 503.866 485 507 488.358 507 492.5 507 496.642 503.866 500 500 500 496.134 500 493 496.642 493 492.5Z" fill="#0F0F0F" fill-rule="evenodd"/><path d="M505 444C505 440.134 508.358 437 512.5 437 516.642 437 520 440.134 520 444 520 447.866 516.642 451 512.5 451 508.358 451 505 447.866 505 444Z" fill="#0F0F0F" fill-rule="evenodd"/><path d="M543 374C543 370.134 546.134 367 550 367 553.866 367 557 370.134 557 374 557 377.866 553.866 381 550 381 546.134 381 543 377.866 543 374Z" fill="#0F0F0F" fill-rule="evenodd"/><path d="M599 364.5C599 360.358 602.134 357 606 357 609.866 357 613 360.358 613 364.5 613 368.642 609.866 372 606 372 602.134 372 599 368.642 599 364.5Z" fill="#0F0F0F" fill-rule="evenodd"/><path d="M610 438C610 434.134 613.134 431 617 431 620.866 431 624 434.134 624 438 624 441.866 620.866 445 617 445 613.134 445 610 441.866 610 438Z" fill="#0F0F0F" fill-rule="evenodd"/><path d="M581 513.5C581 509.358 584.134 506 588 506 591.866 506 595 509.358 595 513.5 595 517.642 591.866 521 588 521 584.134 521 581 517.642 581 513.5Z" fill="#0F0F0F" fill-rule="evenodd"/><path d="M677 497C677 493.134 680.358 490 684.5 490 688.642 490 692 493.134 692 497 692 500.866 688.642 504 684.5 504 680.358 504 677 500.866 677 497Z" fill="#0F0F0F" fill-rule="evenodd"/><path d="M687 570C687 566.134 690.134 563 694 563 697.866 563 701 566.134 701 570 701 573.866 697.866 577 694 577 690.134 577 687 573.866 687 570Z" fill="#0F0F0F" fill-rule="evenodd"/><path d="M738 553C738 549.134 741.358 546 745.5 546 749.642 546 753 549.134 753 553 753 556.866 749.642 560 745.5 560 741.358 560 738 556.866 738 553Z" fill="#0F0F0F" fill-rule="evenodd"/><path d="M758 504.5C758 500.358 761.134 497 765 497 768.866 497 772 500.358 772 504.5 772 508.642 768.866 512 765 512 761.134 512 758 508.642 758 504.5Z" fill="#0F0F0F" fill-rule="evenodd"/><path d="M680 424C680 420.134 683.134 417 687 417 690.866 417 694 420.134 694 424 694 427.866 690.866 431 687 431 683.134 431 680 427.866 680 424Z" fill="#0F0F0F" fill-rule="evenodd"/><path d="M677 383.5C677 379.358 680.358 376 684.5 376 688.642 376 692 379.358 692 383.5 692 387.642 688.642 391 684.5 391 680.358 391 677 387.642 677 383.5Z" fill="#0F0F0F" fill-rule="evenodd"/><path d="M716 396C716 392.134 719.358 389 723.5 389 727.642 389 731 392.134 731 396 731 399.866 727.642 403 723.5 403 719.358 403 716 399.866 716 396Z" fill="#0F0F0F" fill-rule="evenodd"/><path d="M733 427.5C733 423.358 736.358 420 740.5 420 744.642 420 748 423.358 748 427.5 748 431.642 744.642 435 740.5 435 736.358 435 733 431.642 733 427.5Z" fill="#0F0F0F" fill-rule="evenodd"/><path d="M364 474.5 441 474.5 441 465 460 484 441 503 441 493.5 364 493.5Z" fill="#F70146" fill-rule="evenodd"/><rect x="896" y="416" width="135" height="134" stroke="#0F0F0F" stroke-width="2" stroke-miterlimit="8" fill="none"/><path d="M889 415.5C889 411.358 892.134 408 896 408 899.866 408 903 411.358 903 415.5 903 419.642 899.866 423 896 423 892.134 423 889 419.642 889 415.5Z" fill="#0F0F0F" fill-rule="evenodd"/><path d="M889 550.5C889 546.358 892.134 543 896 543 899.866 543 903 546.358 903 550.5 903 554.642 899.866 558 896 558 892.134 558 889 554.642 889 550.5Z" fill="#0F0F0F" fill-rule="evenodd"/><path d="M1023 416C1023 412.134 1026.36 409 1030.5 409 1034.64 409 1038 412.134 1038 416 1038 419.866 1034.64 423 1030.5 423 1026.36 423 1023 419.866 1023 416Z" fill="#0F0F0F" fill-rule="evenodd"/><path d="M1023 550.5C1023 546.358 1026.36 543 1030.5 543 1034.64 543 1038 546.358 1038 550.5 1038 554.642 1034.64 558 1030.5 558 1026.36 558 1023 554.642 1023 550.5Z" fill="#0F0F0F" fill-rule="evenodd"/><path d="M4.6967e-07-0.5 105.1-0.499901 105.1 0.500099-4.6967e-07 0.5ZM103.767-3.9999 111.767 0.000104987 103.767 4.0001Z" fill="#0F0F0F" transform="matrix(1 0 0 -1 950.5 483.5)"/><path d="M0.5-4.66332e-07 0.500099 105.9-0.499901 105.9-0.5 4.66332e-07ZM4.0001 104.567 0.000104987 112.567-3.9999 104.567Z" fill="#0F0F0F" transform="matrix(1 0 0 -1 963.5 501.067)"/><text fill="#0F0F0F" font-family="Cambria Math,Cambria Math_MSFontService,sans-serif" font-weight="400" font-size="21" transform="translate(1070.81 491)">ğœ‰<tspan font-size="15" x="9.1333" y="5">1</tspan><tspan font-size="21" x="-110.849" y="-117">ğœ‰</tspan><tspan font-size="15" x="-101.223" y="-113">2</tspan><tspan font-family="Arial,Arial_MSFontService,sans-serif" font-size="21" x="146.616" y="-36">+</tspan><tspan font-family="Arial,Arial_MSFontService,sans-serif" font-size="21" x="213.895" y="-36">+</tspan><tspan font-family="Arial,Arial_MSFontService,sans-serif" font-size="21" x="146.616" y="36">+</tspan><tspan font-family="Arial,Arial_MSFontService,sans-serif" font-size="21" x="213.895" y="36">+</tspan><tspan font-size="16" x="-153.837" y="45">Î©</tspan><tspan font-size="12" x="-143.004" y="48">ğœ‰</tspan></text><rect x="1188" y="417" width="135" height="134" stroke="#0F0F0F" stroke-width="2" stroke-miterlimit="8" fill="none"/><text fill="#0F0F0F" font-family="Arial,Arial_MSFontService,sans-serif" font-weight="400" font-size="16" transform="translate(513.046 622)">mesh<tspan font-size="16" x="43.5" y="0">(with</tspan><tspan font-size="16" x="81.6667" y="0">nodes</tspan><tspan font-size="16" x="129.5" y="0">and</tspan><tspan font-size="16" x="160.5" y="0">element</tspan><tspan font-size="16" x="217.167" y="0">s</tspan>)<tspan font-size="16" x="428.936" y="-32">element</tspan><tspan font-size="16" x="382.436" y="-13">(with </tspan><tspan font-size="16" x="420.603" y="-13">nodes</tspan><tspan font-size="16" x="468.436" y="-13">and </tspan>basis<tspan font-size="16" x="424.936" y="6">function</tspan><tspan font-size="16" x="480.77" y="6">s</tspan>)<tspan font-size="16" x="701.03" y="-34">quadrature</tspan><tspan font-size="16" x="650.864" y="-15">(</tspan><tspan font-size="16" x="656.197" y="-15">integration</tspan><tspan font-size="16" x="735.03" y="-15">scheme</tspan><tspan font-size="16" x="795.364" y="-15">with </tspan><tspan font-size="16" x="670.864" y="4">points</tspan><tspan font-size="16" x="717.864" y="4">and </tspan>weights)<tspan font-family="Cambria Math,Cambria Math_MSFontService,sans-serif" font-size="21" x="391.852" y="-163">â„</tspan><tspan font-family="Cambria Math,Cambria Math_MSFontService,sans-serif" font-size="15" x="403.685" y="-158">ğ‘</tspan><tspan font-family="Cambria Math,Cambria Math_MSFontService,sans-serif" font-size="21" x="414.618" y="-163">(</tspan><tspan font-family="Cambria Math,Cambria Math_MSFontService,sans-serif" font-size="21" x="423.452" y="-163">ğœ‰</tspan><tspan font-family="Cambria Math,Cambria Math_MSFontService,sans-serif" font-size="15" x="432.585" y="-158">1</tspan><tspan font-size="21" x="442.472" y="-163">, </tspan><tspan font-family="Cambria Math,Cambria Math_MSFontService,sans-serif" font-size="21" x="454.472" y="-163">ğœ‰</tspan><tspan font-family="Cambria Math,Cambria Math_MSFontService,sans-serif" font-size="15" x="464.098" y="-158">2</tspan><tspan font-size="21" x="473.985" y="-163">)</tspan><tspan font-family="Cambria Math,Cambria Math_MSFontService,sans-serif" font-size="21" x="738.216" y="-132">ğƒ</tspan><tspan font-family="Cambria Math,Cambria Math_MSFontService,sans-serif" font-size="15" x="749.216" y="-128">ğ‘</tspan><tspan font-family="Cambria Math,Cambria Math_MSFontService,sans-serif" font-size="21" x="760.123" y="-132">,</tspan><tspan font-family="Cambria Math,Cambria Math_MSFontService,sans-serif" font-size="21" x="768.01" y="-132">ğ‘¤</tspan><tspan font-family="Cambria Math,Cambria Math_MSFontService,sans-serif" font-size="15" x="782.49" y="-128">ğ‘</tspan></text><path d="M1231.5 450.5C1236.13 452.625 1240.75 454.75 1244.59 457.583 1248.42 460.417 1251.46 463.958 1254.5 467.5" stroke="#0F0F0F" stroke-width="0.666667" stroke-miterlimit="8" fill="none" fill-rule="evenodd"/><path d="M800 475.056 821.056 475.056 821.056 454 840.944 454 840.944 475.056 862 475.056 862 492.944 840.944 492.944 840.944 514 821.056 514 821.056 492.944 800 492.944Z" fill="#F70146" fill-rule="evenodd"/><path d="M1104 472.056 1125.06 472.056 1125.06 451 1144.94 451 1144.94 472.056 1166 472.056 1166 489.944 1144.94 489.944 1144.94 511 1125.06 511 1125.06 489.944 1104 489.944Z" fill="#F70146" fill-rule="evenodd"/><path d="M1254.5 637.5C1254.5 644.68 1253.53 650.5 1252.33 650.5L967.858 650.5C966.662 650.5 965.692 656.32 965.692 663.5 965.692 656.32 964.722 650.5 963.526 650.5L668.666 650.5C667.47 650.5 666.5 644.68 666.5 637.5" stroke="#0F0F0F" stroke-width="1.33333" stroke-miterlimit="8" fill="none" fill-rule="evenodd"/></g></svg>