<svg width="1528" height="1423" xmlns="http://www.w3.org/2000/svg" xmlns:xlink="http://www.w3.org/1999/xlink" overflow="hidden"><defs><clipPath id="clip0"><rect x="1593" y="245" width="1528" height="1423"/></clipPath></defs><g clip-path="url(#clip0)" transform="translate(-1593 -245)"><path d="M1930 1314.68C2097.35 1343.31 2359.84 1364.21 2512.87 1343.89 2665.89 1323.56 2792.26 1240.53 2848.14 1192.71 2904.02 1144.9 2856.74 1089.64 2848.14 1057L2186.19 1058.72 1930 1314.68Z" fill="#FFF2CC" fill-rule="evenodd"/><path d="M2189 428.851C2350.26 453.617 2418.98 442.61 2507.85 442.61 2596.73 442.61 2714.93 394.454 2771.73 445.361 2828.54 496.269 2835.87 645.78 2848.7 748.053 2861.52 850.326 2857.86 936.089 2848.7 1059L2189 1056.25 2189 428.851Z" fill="#FFF2CC" fill-rule="evenodd"/><path d="M2186 426 2010.06 519.5C1955.08 554.333 1873.07 553.417 1856.11 635 1839.16 716.583 1896.43 895.333 1908.34 1009L1927.59 1317 2186 1061.25 2186 426Z" fill="#FFF2CC" fill-rule="evenodd"/><rect x="2007.5" y="706.75" width="531.75" height="531.75" fill="#A5A5A5"/><path d="M2539.25 706.75 2716.5 529.5 2716.5 1061.25 2539.25 1238.5Z" fill="#858585" fill-rule="evenodd"/><path d="M2007.5 706.75 2184.75 529.5 2716.5 529.5 2539.25 706.75Z" fill="#B7B7B7" fill-rule="evenodd"/><path d="M2007.5 706.75 2184.75 529.5 2716.5 529.5 2716.5 1061.25 2539.25 1238.5 2007.5 1238.5ZM2007.5 706.75 2539.25 706.75 2716.5 529.5M2539.25 706.75 2539.25 1238.5" stroke="#000000" stroke-width="4.58333" stroke-miterlimit="8" fill="none" fill-rule="evenodd"/><path d="M1.14583-5.30478e-07 1.14618 756.611-1.14548 756.611-1.14583 5.30478e-07ZM13.7503 752.028 0.000360892 779.528-13.7497 752.028Z" fill="#7F7F7F" transform="matrix(1 0 0 -1 2184 1109.53)"/><path d="M1.14583-5.30478e-07 1.14618 756.611-1.14548 756.611-1.14583 5.30478e-07ZM13.7503 752.028 0.000360892 779.528-13.7497 752.028Z" fill="#7F7F7F" transform="matrix(6.12323e-17 1 1 -6.12323e-17 2137 1059)"/><path d="M1.14583-7.95718e-07 1.14618 496.768-1.14549 496.768-1.14583 7.95718e-07ZM13.7503 492.185 0.000360892 519.685-13.7497 492.185Z" fill="#7F7F7F" transform="matrix(-0.707107 -0.707107 -0.707107 0.707107 2226.13 1022.16)"/><path d="M1963.53 910.839 1765.53 822.045 1766.47 819.954 1964.47 908.748ZM1969.63 897.248C1976.56 900.355 1979.65 908.491 1976.55 915.42 1973.44 922.349 1965.3 925.447 1958.37 922.34 1951.44 919.233 1948.35 911.096 1951.45 904.167 1954.56 897.238 1962.7 894.14 1969.63 897.248Z" fill="#A27B00"/><rect x="1594.5" y="780.5" width="170" height="66.9997" stroke="#A27B00" stroke-width="3.4375" stroke-linejoin="round" stroke-miterlimit="10" fill="#FFFFFF" fill-opacity="0.74902"/><path d="M1611.17 807.057C1611.72 807.057 1612.21 807.12 1612.63 807.245 1613.05 807.37 1613.42 807.563 1613.75 807.822 1614.07 808.082 1614.36 808.418 1614.61 808.829 1614.86 809.241 1615.1 809.801 1615.33 810.508 1615.56 811.215 1615.78 812.092 1615.99 813.14 1616.19 814.187 1616.38 815.275 1616.54 816.403L1616.81 816.403C1618.53 813.986 1619.83 812.218 1620.72 811.099 1621.6 809.98 1622.35 809.147 1622.96 808.601 1623.57 808.055 1624.15 807.67 1624.72 807.446 1625.28 807.223 1626.03 807.111 1626.96 807.111 1627.8 807.111 1628.49 807.218 1629.03 807.433L1627.95 812.294 1626.07 812.294C1625.97 811.542 1625.65 811.166 1625.13 811.166 1624.97 811.166 1624.8 811.193 1624.62 811.246 1624.44 811.3 1624.22 811.417 1623.96 811.596 1623.71 811.775 1623.32 812.124 1622.82 812.643 1622.32 813.162 1621.76 813.798 1621.13 814.55 1620.51 815.302 1619.86 816.089 1619.2 816.913L1617.37 819.196C1617.69 820.914 1618 822.4 1618.28 823.654 1618.57 824.907 1618.83 825.95 1619.05 826.782 1619.27 827.615 1619.47 828.273 1619.64 828.756 1619.81 829.24 1619.99 829.602 1620.19 829.844 1620.39 830.086 1620.59 830.256 1620.8 830.354 1621 830.453 1621.24 830.502 1621.51 830.502 1621.99 830.502 1622.46 830.314 1622.92 829.938 1623.37 829.562 1624.03 828.711 1624.89 827.387L1626.64 828.541C1625.38 830.403 1624.25 831.715 1623.24 832.476 1622.23 833.237 1621.02 833.617 1619.63 833.617 1618.86 833.617 1618.2 833.478 1617.67 833.201 1617.13 832.923 1616.66 832.48 1616.27 831.871 1615.88 831.263 1615.53 830.314 1615.22 829.025 1614.67 826.733 1614.33 824.979 1614.2 823.761L1613.93 823.761C1612.04 826.429 1610.63 828.344 1609.7 829.508 1608.78 830.672 1608.02 831.531 1607.42 832.086 1606.82 832.641 1606.24 833.031 1605.68 833.254 1605.11 833.478 1604.36 833.59 1603.43 833.59 1602.59 833.59 1601.9 833.483 1601.37 833.268L1602.44 828.407 1604.32 828.407C1604.43 829.159 1604.74 829.535 1605.26 829.535 1605.51 829.535 1605.77 829.468 1606.05 829.334 1606.33 829.199 1606.73 828.877 1607.25 828.367 1607.77 827.857 1608.48 827.055 1609.4 825.963 1610.31 824.871 1611.63 823.233 1613.37 821.049 1613.1 819.634 1612.82 818.274 1612.54 816.967 1612.25 815.66 1611.96 814.442 1611.65 813.314 1611.35 812.186 1611.1 811.448 1610.9 811.099 1610.7 810.75 1610.49 810.508 1610.27 810.374 1610.04 810.239 1609.76 810.172 1609.42 810.172 1609.05 810.172 1608.71 810.257 1608.4 810.427 1608.1 810.597 1607.77 810.893 1607.41 811.314 1607.05 811.734 1606.58 812.392 1605.99 813.287L1604.24 812.133C1605.37 810.432 1606.45 809.161 1607.49 808.319 1608.53 807.478 1609.75 807.057 1611.17 807.057Z" fill="#A27B00" fill-rule="evenodd"/><text fill="#000000" fill-opacity="0" font-family="Arial,Arial_MSFontService,sans-serif" font-size="26.5601" x="1601.37" y="830.297">ЁЭСе</text><path d="M1640.91 819.124C1642.27 819.124 1643.42 819.277 1644.38 819.583 1645.34 819.888 1646.11 820.302 1646.71 820.823 1647.31 821.344 1647.74 821.969 1648.01 822.698 1648.28 823.427 1648.41 824.215 1648.41 825.061 1648.41 825.569 1648.38 826.041 1648.3 826.477 1648.23 826.913 1648.11 827.343 1647.93 827.766 1647.76 828.189 1647.53 828.616 1647.24 829.045 1646.95 829.475 1646.6 829.931 1646.17 830.413 1645.84 830.829 1645.42 831.311 1644.9 831.858 1644.38 832.405 1643.81 832.991 1643.19 833.616 1642.57 834.241 1641.92 834.892 1641.24 835.569 1640.57 836.246 1639.91 836.917 1639.27 837.581 1638.63 838.245 1638.05 838.889 1637.51 839.514 1636.98 840.139 1636.54 840.712 1636.21 841.233L1643.43 841.233C1644.04 841.233 1644.53 841.21 1644.9 841.165 1645.26 841.119 1645.56 841.018 1645.8 840.862 1646.05 840.706 1646.25 840.468 1646.42 840.149 1646.59 839.83 1646.78 839.39 1647.01 838.831L1648.82 838.831C1648.76 839.755 1648.7 840.686 1648.64 841.624 1648.58 842.561 1648.52 843.492 1648.45 844.417L1631.91 844.417 1631.91 843.401C1632.22 842.698 1632.59 842.004 1633 841.321 1633.42 840.637 1633.89 839.944 1634.41 839.241 1634.93 838.538 1635.52 837.812 1636.19 837.063 1636.85 836.314 1637.59 835.536 1638.39 834.729 1639.62 833.505 1640.61 832.46 1641.38 831.594 1642.15 830.728 1642.75 829.957 1643.2 829.28 1643.64 828.603 1643.94 827.978 1644.11 827.405 1644.27 826.832 1644.35 826.22 1644.35 825.569 1644.35 824.905 1644.26 824.293 1644.07 823.733 1643.88 823.173 1643.61 822.698 1643.26 822.307 1642.9 821.917 1642.46 821.611 1641.92 821.389 1641.38 821.168 1640.76 821.057 1640.05 821.057 1638.84 821.057 1637.83 821.386 1637.01 822.043 1636.19 822.701 1635.55 823.655 1635.09 824.905L1632.53 824.905 1632.53 821.096C1634.2 820.406 1635.73 819.905 1637.13 819.592 1638.53 819.28 1639.79 819.124 1640.91 819.124Z" fill="#A27B00" fill-rule="evenodd"/><text fill="#000000" fill-opacity="0" font-family="Arial,Arial_MSFontService,sans-serif" font-size="25.293" x="1631.91" y="841.255">2</text><path d="M1674.32 821.263 1707.41 821.263 1707.41 824.835 1674.32 824.835ZM1674.32 810.118 1707.41 810.118 1707.41 813.69 1674.32 813.69Z" fill="#A27B00" fill-rule="evenodd"/><text fill="#000000" fill-opacity="0" font-family="Arial,Arial_MSFontService,sans-serif" font-size="14.7168" x="1674.32" y="822.996">=</text><path d="M1742.08 798.383C1740.85 798.383 1739.81 798.75 1738.98 799.484 1738.15 800.218 1737.48 801.274 1736.97 802.653 1736.45 804.031 1736.09 805.71 1735.88 807.688 1735.66 809.666 1735.56 811.9 1735.56 814.388 1735.56 820.225 1736.1 824.509 1737.18 827.239 1738.26 829.969 1739.94 831.334 1742.22 831.334 1744.38 831.334 1745.99 830.05 1747.04 827.481 1748.08 824.911 1748.61 820.932 1748.61 815.543 1748.61 811.425 1748.34 808.091 1747.8 805.54 1747.26 802.988 1746.52 801.158 1745.56 800.048 1744.6 798.938 1743.44 798.383 1742.08 798.383ZM1742.22 796.1C1746.14 796.1 1749.05 797.613 1750.97 800.638 1752.89 803.664 1753.84 808.239 1753.84 814.362 1753.84 820.7 1752.82 825.493 1750.77 828.743 1748.72 831.992 1745.72 833.617 1741.79 833.617 1737.92 833.617 1735.04 832.095 1733.15 829.052 1731.26 826.008 1730.32 821.389 1730.32 815.194 1730.32 811.9 1730.61 809.053 1731.19 806.654 1731.77 804.255 1732.59 802.272 1733.64 800.706 1734.68 799.139 1735.94 797.98 1737.41 797.228 1738.88 796.476 1740.48 796.1 1742.22 796.1Z" fill="#A27B00" fill-rule="evenodd"/><text fill="#000000" fill-opacity="0" font-family="Arial,Arial_MSFontService,sans-serif" font-size="37.5171" x="1730.32" y="828.927">0</text><path d="M0.761207-0.856445 139.005 122.014 137.482 123.727-0.761207 0.856445ZM-9.13448 10.2773C-14.8105 5.23251-15.3222-3.45846-10.2773-9.13448-5.23251-14.8105 3.45846-15.3222 9.13448-10.2773 14.8105-5.23251 15.3222 3.45846 10.2773 9.13448 5.23251 14.8105-3.45846 15.3222-9.13448 10.2773Z" fill="#A27B00" transform="matrix(1 0 0 -1 2719 473.87)"/><rect x="2821.5" y="284.5" width="170" height="66" stroke="#A27B00" stroke-width="3.4375" stroke-linejoin="round" stroke-miterlimit="10" fill="#FFFFFF" fill-opacity="0.74902"/><path d="M2838.81 310.413C2839.36 310.413 2839.85 310.475 2840.27 310.601 2840.69 310.726 2841.06 310.919 2841.39 311.178 2841.71 311.438 2841.99 311.773 2842.24 312.185 2842.5 312.597 2842.74 313.157 2842.97 313.864 2843.2 314.571 2843.42 315.448 2843.63 316.496 2843.83 317.543 2844.02 318.631 2844.18 319.758L2844.45 319.758C2846.17 317.341 2847.47 315.574 2848.35 314.455 2849.24 313.336 2849.99 312.503 2850.6 311.957 2851.21 311.411 2851.79 311.026 2852.36 310.802 2852.92 310.578 2853.67 310.466 2854.6 310.466 2855.44 310.466 2856.13 310.574 2856.67 310.789L2855.59 315.65 2853.71 315.65C2853.6 314.898 2853.29 314.522 2852.77 314.522 2852.61 314.522 2852.44 314.549 2852.26 314.602 2852.08 314.656 2851.86 314.772 2851.6 314.951 2851.34 315.13 2850.96 315.48 2850.46 315.999 2849.96 316.518 2849.4 317.154 2848.77 317.905 2848.14 318.657 2847.5 319.445 2846.84 320.269L2845.01 322.551C2845.33 324.27 2845.64 325.756 2845.92 327.009 2846.21 328.263 2846.47 329.306 2846.69 330.138 2846.91 330.971 2847.11 331.629 2847.28 332.112 2847.45 332.595 2847.63 332.958 2847.83 333.2 2848.03 333.441 2848.23 333.611 2848.43 333.71 2848.64 333.808 2848.88 333.858 2849.15 333.858 2849.63 333.858 2850.1 333.67 2850.56 333.294 2851.01 332.918 2851.67 332.067 2852.53 330.742L2854.28 331.897C2853.02 333.759 2851.89 335.071 2850.88 335.831 2849.87 336.592 2848.66 336.973 2847.27 336.973 2846.5 336.973 2845.84 336.834 2845.31 336.557 2844.77 336.279 2844.3 335.836 2843.91 335.227 2843.52 334.618 2843.17 333.67 2842.86 332.381 2842.31 330.089 2841.97 328.334 2841.84 327.117L2841.57 327.117C2839.68 329.785 2838.27 331.7 2837.34 332.864 2836.42 334.028 2835.66 334.887 2835.06 335.442 2834.46 335.997 2833.88 336.387 2833.31 336.61 2832.75 336.834 2832 336.946 2831.07 336.946 2830.23 336.946 2829.54 336.839 2829 336.624L2830.08 331.763 2831.96 331.763C2832.07 332.515 2832.38 332.891 2832.9 332.891 2833.15 332.891 2833.41 332.824 2833.69 332.689 2833.97 332.555 2834.37 332.233 2834.89 331.723 2835.41 331.212 2836.12 330.411 2837.03 329.319 2837.95 328.227 2839.27 326.589 2841.01 324.404 2840.74 322.99 2840.46 321.629 2840.18 320.322 2839.89 319.015 2839.59 317.798 2839.29 316.67 2838.99 315.542 2838.74 314.804 2838.54 314.455 2838.34 314.105 2838.13 313.864 2837.91 313.729 2837.68 313.595 2837.4 313.528 2837.06 313.528 2836.69 313.528 2836.35 313.613 2836.04 313.783 2835.74 313.953 2835.41 314.249 2835.05 314.669 2834.69 315.09 2834.21 315.748 2833.62 316.643L2831.88 315.488C2833.01 313.788 2834.09 312.516 2835.13 311.675 2836.17 310.834 2837.39 310.413 2838.81 310.413Z" fill="#A27B00" fill-rule="evenodd"/><text fill="#000000" fill-opacity="0" font-family="Arial,Arial_MSFontService,sans-serif" font-size="26.5601" x="2829" y="333.653">ЁЭСе</text><path d="M2868.79 322.616 2869.98 322.616C2869.96 323.332 2869.94 323.973 2869.92 324.54 2869.91 325.106 2869.9 325.656 2869.89 326.19 2869.89 326.724 2869.88 327.251 2869.88 327.772L2869.88 342.616C2869.88 343.02 2869.9 343.368 2869.92 343.661 2869.95 343.954 2869.99 344.201 2870.05 344.403 2870.11 344.605 2870.19 344.778 2870.29 344.921 2870.38 345.064 2870.5 345.188 2870.63 345.292 2870.78 345.448 2870.99 345.569 2871.25 345.653 2871.51 345.738 2871.84 345.809 2872.25 345.868 2872.65 345.927 2873.14 345.972 2873.7 346.005 2874.27 346.037 2874.95 346.06 2875.74 346.073L2875.74 347.772 2860.26 347.772 2860.26 346.073C2861.02 346.047 2861.68 346.018 2862.21 345.985 2862.74 345.953 2863.2 345.907 2863.58 345.848 2863.95 345.79 2864.26 345.725 2864.48 345.653 2864.71 345.582 2864.91 345.494 2865.08 345.389 2865.26 345.272 2865.42 345.145 2865.55 345.009 2865.68 344.872 2865.78 344.699 2865.86 344.491 2865.94 344.283 2866 344.029 2866.05 343.729 2866.09 343.43 2866.12 343.059 2866.12 342.616L2866.12 328.612C2866.12 328.104 2866.02 327.746 2865.82 327.538 2865.63 327.33 2865.35 327.225 2864.98 327.225 2864.58 327.225 2863.98 327.434 2863.19 327.85 2862.39 328.267 2861.36 328.886 2860.1 329.706 2859.93 329.406 2859.77 329.107 2859.63 328.807 2859.49 328.508 2859.34 328.202 2859.18 327.889 2860.8 327.004 2862.39 326.122 2863.98 325.243 2865.56 324.364 2867.16 323.488 2868.79 322.616Z" fill="#A27B00" fill-rule="evenodd"/><text fill="#000000" fill-opacity="0" font-family="Arial,Arial_MSFontService,sans-serif" font-size="25.1562" x="2859.18" y="344.628">1</text><path d="M2900.68 324.619 2933.76 324.619 2933.76 328.191 2900.68 328.191ZM2900.68 313.474 2933.76 313.474 2933.76 317.046 2900.68 317.046Z" fill="#A27B00" fill-rule="evenodd"/><text fill="#000000" fill-opacity="0" font-family="Arial,Arial_MSFontService,sans-serif" font-size="14.7168" x="2900.68" y="326.352">=</text><path d="M2968.44 301.738C2967.2 301.738 2966.17 302.105 2965.33 302.84 2964.5 303.574 2963.83 304.63 2963.32 306.008 2962.81 307.387 2962.45 309.066 2962.23 311.044 2962.02 313.022 2961.91 315.256 2961.91 317.744 2961.91 323.581 2962.45 327.864 2963.54 330.595 2964.62 333.325 2966.3 334.69 2968.57 334.69 2970.74 334.69 2972.34 333.406 2973.39 330.836 2974.44 328.267 2974.96 324.288 2974.96 318.899 2974.96 314.781 2974.69 311.447 2974.16 308.895 2973.62 306.344 2972.87 304.514 2971.91 303.404 2970.96 302.293 2969.8 301.738 2968.44 301.738ZM2968.57 299.456C2972.49 299.456 2975.41 300.969 2977.33 303.994 2979.24 307.02 2980.2 311.594 2980.2 317.717 2980.2 324.055 2979.17 328.849 2977.12 332.099 2975.07 335.348 2972.08 336.973 2968.14 336.973 2964.27 336.973 2961.4 335.451 2959.51 332.407 2957.62 329.364 2956.67 324.745 2956.67 318.55 2956.67 315.256 2956.96 312.409 2957.55 310.01 2958.13 307.611 2958.94 305.628 2959.99 304.061 2961.04 302.495 2962.3 301.336 2963.76 300.584 2965.23 299.832 2966.83 299.456 2968.57 299.456Z" fill="#A27B00" fill-rule="evenodd"/><text fill="#000000" fill-opacity="0" font-family="Arial,Arial_MSFontService,sans-serif" font-size="37.5171" x="2956.67" y="332.283">0</text><path d="M2292.02 1152.83 2379.49 1528.87 2369.44 1531.21 2281.98 1155.17ZM2271.93 1157.5C2270 1149.18 2275.17 1140.87 2283.5 1138.93 2291.82 1137 2300.13 1142.17 2302.07 1150.5 2304 1158.82 2298.83 1167.13 2290.5 1169.07 2282.18 1171 2273.87 1165.83 2271.93 1157.5Z" fill="#540000"/><rect x="2272.5" y="1530.5" width="371" height="136" stroke="#540000" stroke-width="3.4375" stroke-linejoin="round" stroke-miterlimit="10" fill="#FFFFFF" fill-opacity="0.74902"/><path d="M2311.16 1557.08C2312.3 1557.08 2313.21 1557.46 2313.87 1558.23 2314.53 1559 2314.86 1560.04 2314.86 1561.35 2314.86 1562.76 2314.59 1564.53 2314.03 1566.64L2312.85 1571.29C2312.54 1572.47 2312.33 1573.39 2312.19 1574.05 2312.06 1574.71 2311.96 1575.29 2311.9 1575.77 2311.83 1576.25 2311.8 1576.66 2311.8 1576.98 2311.8 1578.21 2312.01 1579.1 2312.42 1579.65 2312.83 1580.2 2313.5 1580.47 2314.43 1580.47 2315.19 1580.47 2316 1580.17 2316.86 1579.57 2317.73 1578.97 2318.65 1578.07 2319.63 1576.86 2320.61 1575.65 2321.39 1574.48 2321.98 1573.34 2322.57 1572.2 2323.05 1570.8 2323.43 1569.14L2325.98 1557.51 2330.63 1557.51 2326.71 1574.53C2326.31 1576.25 2326.12 1577.58 2326.12 1578.51 2326.12 1579.23 2326.23 1579.74 2326.47 1580.07 2326.7 1580.39 2327.06 1580.55 2327.57 1580.55 2328.1 1580.55 2328.68 1580.33 2329.28 1579.89 2329.89 1579.45 2330.75 1578.62 2331.86 1577.38L2333.39 1578.89C2331.76 1580.62 2330.38 1581.85 2329.23 1582.56 2328.09 1583.28 2326.87 1583.64 2325.58 1583.64 2324.47 1583.64 2323.58 1583.27 2322.92 1582.54 2322.26 1581.8 2321.93 1580.83 2321.93 1579.61 2321.93 1578.64 2322.14 1577.59 2322.57 1576.44L2322.25 1576.33C2320.48 1578.82 2318.8 1580.66 2317.21 1581.84 2315.63 1583.02 2314 1583.61 2312.34 1583.61 2310.67 1583.61 2309.39 1583.13 2308.5 1582.18 2307.6 1581.22 2307.16 1579.89 2307.16 1578.19 2307.16 1577.06 2307.42 1575.46 2307.93 1573.38L2309.68 1566.34C2310.16 1564.39 2310.41 1563.01 2310.41 1562.21 2310.41 1561.49 2310.29 1560.97 2310.06 1560.65 2309.82 1560.33 2309.46 1560.17 2308.96 1560.17 2308.4 1560.17 2307.81 1560.4 2307.2 1560.85 2306.58 1561.31 2305.73 1562.14 2304.66 1563.34L2303.13 1561.83C2304.65 1560.29 2305.8 1559.24 2306.57 1558.66 2307.33 1558.09 2308.07 1557.68 2308.78 1557.44 2309.49 1557.2 2310.28 1557.08 2311.16 1557.08Z" fill="#540000" fill-rule="evenodd"/><text fill="#000000" fill-opacity="0" font-family="Arial,Arial_MSFontService,sans-serif" font-size="26.5601" x="2303.13" y="1580.32">ЁЭСв</text><path d="M2345.65 1569.15C2347.01 1569.15 2348.16 1569.3 2349.12 1569.6 2350.08 1569.91 2350.86 1570.32 2351.45 1570.84 2352.05 1571.37 2352.49 1571.99 2352.75 1572.72 2353.02 1573.45 2353.15 1574.24 2353.15 1575.08 2353.15 1575.59 2353.12 1576.06 2353.05 1576.5 2352.97 1576.93 2352.85 1577.36 2352.68 1577.79 2352.5 1578.21 2352.27 1578.64 2351.98 1579.07 2351.7 1579.5 2351.34 1579.95 2350.91 1580.43 2350.58 1580.85 2350.16 1581.33 2349.64 1581.88 2349.12 1582.43 2348.55 1583.01 2347.93 1583.64 2347.31 1584.26 2346.66 1584.91 2345.99 1585.59 2345.31 1586.27 2344.65 1586.94 2344.01 1587.6 2343.38 1588.27 2342.79 1588.91 2342.26 1589.54 2341.72 1590.16 2341.29 1590.73 2340.95 1591.25L2348.17 1591.25C2348.79 1591.25 2349.27 1591.23 2349.64 1591.19 2350 1591.14 2350.31 1591.04 2350.55 1590.88 2350.79 1590.73 2350.99 1590.49 2351.16 1590.17 2351.33 1589.85 2351.53 1589.41 2351.75 1588.85L2353.56 1588.85C2353.5 1589.78 2353.44 1590.71 2353.38 1591.65 2353.32 1592.58 2353.26 1593.51 2353.19 1594.44L2336.65 1594.44 2336.65 1593.42C2336.96 1592.72 2337.33 1592.03 2337.74 1591.34 2338.16 1590.66 2338.63 1589.97 2339.15 1589.26 2339.67 1588.56 2340.26 1587.83 2340.93 1587.08 2341.59 1586.34 2342.33 1585.56 2343.13 1584.75 2344.36 1583.53 2345.35 1582.48 2346.12 1581.62 2346.89 1580.75 2347.5 1579.98 2347.94 1579.3 2348.38 1578.62 2348.68 1578 2348.85 1577.43 2349.01 1576.85 2349.09 1576.24 2349.09 1575.59 2349.09 1574.93 2349 1574.31 2348.81 1573.75 2348.62 1573.19 2348.35 1572.72 2348 1572.33 2347.65 1571.94 2347.2 1571.63 2346.66 1571.41 2346.12 1571.19 2345.5 1571.08 2344.79 1571.08 2343.58 1571.08 2342.57 1571.41 2341.75 1572.07 2340.93 1572.72 2340.29 1573.68 2339.83 1574.93L2337.27 1574.93 2337.27 1571.12C2338.94 1570.43 2340.47 1569.93 2341.87 1569.61 2343.27 1569.3 2344.53 1569.15 2345.65 1569.15Z" fill="#540000" fill-rule="evenodd"/><text fill="#000000" fill-opacity="0" font-family="Arial,Arial_MSFontService,sans-serif" font-size="25.293" x="2336.65" y="1591.28">2</text><path d="M2379.06 1571.29 2412.15 1571.29 2412.15 1574.86 2379.06 1574.86ZM2379.06 1560.14 2412.15 1560.14 2412.15 1563.71 2379.06 1563.71Z" fill="#540000" fill-rule="evenodd"/><text fill="#000000" fill-opacity="0" font-family="Arial,Arial_MSFontService,sans-serif" font-size="14.7168" x="2379.06" y="1573.02">=</text><path d="M2440.27 1557.08C2441.42 1557.08 2442.32 1557.46 2442.98 1558.23 2443.64 1559 2443.98 1560.04 2443.98 1561.35 2443.98 1562.76 2443.7 1564.53 2443.14 1566.64L2441.96 1571.29C2441.66 1572.47 2441.44 1573.39 2441.3 1574.05 2441.17 1574.71 2441.07 1575.29 2441.01 1575.77 2440.95 1576.25 2440.91 1576.66 2440.91 1576.98 2440.91 1578.21 2441.12 1579.1 2441.53 1579.65 2441.94 1580.2 2442.62 1580.47 2443.55 1580.47 2444.3 1580.47 2445.11 1580.17 2445.98 1579.57 2446.85 1578.97 2447.77 1578.07 2448.74 1576.86 2449.72 1575.65 2450.5 1574.48 2451.09 1573.34 2451.68 1572.2 2452.17 1570.8 2452.54 1569.14L2455.09 1557.51 2459.74 1557.51 2455.82 1574.53C2455.43 1576.25 2455.23 1577.58 2455.23 1578.51 2455.23 1579.23 2455.34 1579.74 2455.58 1580.07 2455.81 1580.39 2456.18 1580.55 2456.68 1580.55 2457.22 1580.55 2457.79 1580.33 2458.4 1579.89 2459.01 1579.45 2459.87 1578.62 2460.98 1577.38L2462.51 1578.89C2460.88 1580.62 2459.49 1581.85 2458.34 1582.56 2457.2 1583.28 2455.98 1583.64 2454.69 1583.64 2453.58 1583.64 2452.7 1583.27 2452.03 1582.54 2451.37 1581.8 2451.04 1580.83 2451.04 1579.61 2451.04 1578.64 2451.25 1577.59 2451.68 1576.44L2451.36 1576.33C2449.59 1578.82 2447.91 1580.66 2446.33 1581.84 2444.74 1583.02 2443.12 1583.61 2441.45 1583.61 2439.79 1583.61 2438.51 1583.13 2437.61 1582.18 2436.72 1581.22 2436.27 1579.89 2436.27 1578.19 2436.27 1577.06 2436.53 1575.46 2437.05 1573.38L2438.79 1566.34C2439.28 1564.39 2439.52 1563.01 2439.52 1562.21 2439.52 1561.49 2439.4 1560.97 2439.17 1560.65 2438.94 1560.33 2438.57 1560.17 2438.07 1560.17 2437.51 1560.17 2436.93 1560.4 2436.31 1560.85 2435.69 1561.31 2434.85 1562.14 2433.77 1563.34L2432.24 1561.83C2433.76 1560.29 2434.91 1559.24 2435.68 1558.66 2436.45 1558.09 2437.19 1557.68 2437.89 1557.44 2438.6 1557.2 2439.39 1557.08 2440.27 1557.08Z" fill="#540000" fill-rule="evenodd"/><text fill="#000000" fill-opacity="0" font-family="Arial,Arial_MSFontService,sans-serif" font-size="26.5601" x="2432.24" y="1580.32">ЁЭСв</text><path d="M2474.73 1569.15C2475.77 1569.15 2476.74 1569.26 2477.65 1569.48 2478.55 1569.7 2479.34 1570.03 2480 1570.48 2480.66 1570.93 2481.18 1571.49 2481.55 1572.16 2481.92 1572.83 2482.11 1573.61 2482.11 1574.5 2482.11 1575.33 2481.99 1576.07 2481.76 1576.7 2481.52 1577.34 2481.16 1577.92 2480.67 1578.44 2480.19 1578.96 2479.59 1579.43 2478.88 1579.86 2478.17 1580.28 2477.35 1580.69 2476.43 1581.08L2476.43 1581.31C2477.3 1581.47 2478.11 1581.72 2478.87 1582.07 2479.62 1582.41 2480.28 1582.85 2480.85 1583.37 2481.42 1583.9 2481.86 1584.51 2482.19 1585.2 2482.51 1585.89 2482.68 1586.65 2482.68 1587.49 2482.68 1588.53 2482.48 1589.49 2482.09 1590.39 2481.7 1591.28 2481.11 1592.05 2480.33 1592.7 2479.55 1593.35 2478.59 1593.86 2477.44 1594.22 2476.3 1594.59 2474.96 1594.77 2473.42 1594.77 2472.21 1594.77 2470.98 1594.65 2469.73 1594.41 2468.48 1594.17 2467.29 1593.85 2466.17 1593.46L2466.17 1589.24 2468.69 1589.24C2468.9 1589.89 2469.15 1590.45 2469.43 1590.91 2469.72 1591.38 2470.06 1591.75 2470.44 1592.05 2470.82 1592.34 2471.27 1592.55 2471.77 1592.68 2472.27 1592.81 2472.84 1592.88 2473.48 1592.88 2475.16 1592.88 2476.43 1592.48 2477.3 1591.67 2478.16 1590.87 2478.59 1589.66 2478.59 1588.03 2478.59 1586.3 2478.02 1584.99 2476.89 1584.1 2475.75 1583.2 2474.06 1582.76 2471.82 1582.76L2470.1 1582.76 2470.1 1580.88C2471.47 1580.82 2472.65 1580.63 2473.64 1580.31 2474.64 1579.99 2475.47 1579.57 2476.13 1579.07 2476.8 1578.56 2477.29 1577.97 2477.62 1577.29 2477.94 1576.61 2478.11 1575.89 2478.11 1575.12 2478.11 1573.87 2477.74 1572.89 2476.99 1572.16 2476.25 1571.44 2475.18 1571.08 2473.77 1571.08 2472.59 1571.08 2471.59 1571.4 2470.79 1572.06 2469.99 1572.71 2469.38 1573.68 2468.95 1574.97L2466.47 1574.97 2466.47 1571.12C2468 1570.47 2469.45 1569.98 2470.81 1569.64 2472.17 1569.31 2473.48 1569.15 2474.73 1569.15Z" fill="#540000" fill-rule="evenodd"/><text fill="#000000" fill-opacity="0" font-family="Arial,Arial_MSFontService,sans-serif" font-size="25.625" x="2466.17" y="1591.57">3</text><path d="M2508.17 1571.29 2541.26 1571.29 2541.26 1574.86 2508.17 1574.86ZM2508.17 1560.14 2541.26 1560.14 2541.26 1563.71 2508.17 1563.71Z" fill="#540000" fill-rule="evenodd"/><text fill="#000000" fill-opacity="0" font-family="Arial,Arial_MSFontService,sans-serif" font-size="14.7168" x="2508.17" y="1573.02">=</text><path d="M2575.94 1548.4C2574.7 1548.4 2573.67 1548.77 2572.83 1549.51 2572 1550.24 2571.33 1551.3 2570.82 1552.67 2570.31 1554.05 2569.95 1555.73 2569.73 1557.71 2569.52 1559.69 2569.41 1561.92 2569.41 1564.41 2569.41 1570.25 2569.95 1574.53 2571.03 1577.26 2572.12 1579.99 2573.8 1581.36 2576.07 1581.36 2578.24 1581.36 2579.84 1580.07 2580.89 1577.5 2581.94 1574.93 2582.46 1570.95 2582.46 1565.56 2582.46 1561.45 2582.19 1558.11 2581.66 1555.56 2581.12 1553.01 2580.37 1551.18 2579.41 1550.07 2578.46 1548.96 2577.3 1548.4 2575.94 1548.4ZM2576.07 1546.12C2579.99 1546.12 2582.91 1547.63 2584.82 1550.66 2586.74 1553.69 2587.7 1558.26 2587.7 1564.38 2587.7 1570.72 2586.67 1575.51 2584.62 1578.76 2582.57 1582.01 2579.58 1583.64 2575.64 1583.64 2571.77 1583.64 2568.89 1582.12 2567.01 1579.07 2565.12 1576.03 2564.17 1571.41 2564.17 1565.22 2564.17 1561.92 2564.46 1559.07 2565.05 1556.68 2565.63 1554.28 2566.44 1552.29 2567.49 1550.73 2568.54 1549.16 2569.79 1548 2571.26 1547.25 2572.73 1546.5 2574.33 1546.12 2576.07 1546.12Z" fill="#540000" fill-rule="evenodd"/><text fill="#000000" fill-opacity="0" font-family="Arial,Arial_MSFontService,sans-serif" font-size="37.5171" x="2564.17" y="1578.95">0</text><path d="M2311.16 1623.08C2312.3 1623.08 2313.21 1623.46 2313.87 1624.23 2314.53 1625 2314.86 1626.04 2314.86 1627.35 2314.86 1628.76 2314.59 1630.53 2314.03 1632.64L2312.85 1637.29C2312.54 1638.47 2312.33 1639.39 2312.19 1640.05 2312.06 1640.71 2311.96 1641.29 2311.9 1641.77 2311.83 1642.25 2311.8 1642.66 2311.8 1642.98 2311.8 1644.21 2312.01 1645.1 2312.42 1645.65 2312.83 1646.2 2313.5 1646.47 2314.43 1646.47 2315.19 1646.47 2316 1646.17 2316.86 1645.57 2317.73 1644.97 2318.65 1644.07 2319.63 1642.86 2320.61 1641.65 2321.39 1640.48 2321.98 1639.34 2322.57 1638.2 2323.05 1636.8 2323.43 1635.14L2325.98 1623.51 2330.63 1623.51 2326.71 1640.53C2326.31 1642.25 2326.12 1643.58 2326.12 1644.51 2326.12 1645.23 2326.23 1645.74 2326.47 1646.07 2326.7 1646.39 2327.06 1646.55 2327.57 1646.55 2328.1 1646.55 2328.68 1646.33 2329.28 1645.89 2329.89 1645.45 2330.75 1644.62 2331.86 1643.38L2333.39 1644.89C2331.76 1646.62 2330.38 1647.85 2329.23 1648.56 2328.09 1649.28 2326.87 1649.64 2325.58 1649.64 2324.47 1649.64 2323.58 1649.27 2322.92 1648.54 2322.26 1647.8 2321.93 1646.83 2321.93 1645.61 2321.93 1644.64 2322.14 1643.59 2322.57 1642.44L2322.25 1642.33C2320.48 1644.82 2318.8 1646.66 2317.21 1647.84 2315.63 1649.02 2314 1649.61 2312.34 1649.61 2310.67 1649.61 2309.39 1649.13 2308.5 1648.18 2307.6 1647.22 2307.16 1645.89 2307.16 1644.19 2307.16 1643.06 2307.42 1641.46 2307.93 1639.38L2309.68 1632.34C2310.16 1630.39 2310.41 1629.01 2310.41 1628.21 2310.41 1627.49 2310.29 1626.97 2310.06 1626.65 2309.82 1626.33 2309.46 1626.17 2308.96 1626.17 2308.4 1626.17 2307.81 1626.4 2307.2 1626.85 2306.58 1627.31 2305.73 1628.14 2304.66 1629.34L2303.13 1627.83C2304.65 1626.29 2305.8 1625.24 2306.57 1624.66 2307.33 1624.09 2308.07 1623.68 2308.78 1623.44 2309.49 1623.2 2310.28 1623.08 2311.16 1623.08Z" fill="#540000" fill-rule="evenodd"/><text fill="#000000" fill-opacity="0" font-family="Arial,Arial_MSFontService,sans-serif" font-size="26.5601" x="2303.13" y="1646.32">ЁЭСв</text><path d="M2345.89 1635.28 2347.09 1635.28C2347.06 1636 2347.04 1636.64 2347.03 1637.21 2347.01 1637.77 2347 1638.32 2347 1638.86 2346.99 1639.39 2346.99 1639.92 2346.99 1640.44L2346.99 1655.28C2346.99 1655.69 2347 1656.03 2347.03 1656.33 2347.05 1656.62 2347.09 1656.87 2347.15 1657.07 2347.21 1657.27 2347.29 1657.44 2347.39 1657.59 2347.49 1657.73 2347.6 1657.85 2347.73 1657.96 2347.89 1658.11 2348.09 1658.23 2348.35 1658.32 2348.62 1658.4 2348.95 1658.48 2349.35 1658.53 2349.75 1658.59 2350.24 1658.64 2350.81 1658.67 2351.37 1658.7 2352.05 1658.73 2352.85 1658.74L2352.85 1660.44 2337.36 1660.44 2337.36 1658.74C2338.13 1658.71 2338.78 1658.68 2339.31 1658.65 2339.85 1658.62 2340.3 1658.57 2340.68 1658.51 2341.06 1658.46 2341.36 1658.39 2341.59 1658.32 2341.81 1658.25 2342.01 1658.16 2342.18 1658.06 2342.37 1657.94 2342.52 1657.81 2342.65 1657.67 2342.78 1657.54 2342.89 1657.37 2342.96 1657.16 2343.04 1656.95 2343.1 1656.69 2343.15 1656.4 2343.2 1656.1 2343.22 1655.72 2343.22 1655.28L2343.22 1641.28C2343.22 1640.77 2343.12 1640.41 2342.93 1640.2 2342.73 1640 2342.45 1639.89 2342.09 1639.89 2341.68 1639.89 2341.08 1640.1 2340.29 1640.52 2339.49 1640.93 2338.47 1641.55 2337.2 1642.37 2337.03 1642.07 2336.88 1641.77 2336.73 1641.47 2336.59 1641.17 2336.44 1640.87 2336.28 1640.56 2337.9 1639.67 2339.5 1638.79 2341.08 1637.91 2342.66 1637.03 2344.27 1636.15 2345.89 1635.28Z" fill="#540000" fill-rule="evenodd"/><text fill="#000000" fill-opacity="0" font-family="Arial,Arial_MSFontService,sans-serif" font-size="25.1562" x="2336.28" y="1657.29">1</text><path d="M2377.78 1637.29 2410.86 1637.29 2410.86 1640.86 2377.78 1640.86ZM2377.78 1626.14 2410.86 1626.14 2410.86 1629.71 2377.78 1629.71Z" fill="#540000" fill-rule="evenodd"/><text fill="#000000" fill-opacity="0" font-family="Arial,Arial_MSFontService,sans-serif" font-size="14.7168" x="2377.78" y="1639.02">=</text><path d="M2438.99 1623.08C2440.13 1623.08 2441.04 1623.46 2441.7 1624.23 2442.36 1625 2442.69 1626.04 2442.69 1627.35 2442.69 1628.76 2442.42 1630.53 2441.86 1632.64L2440.68 1637.29C2440.37 1638.47 2440.15 1639.39 2440.02 1640.05 2439.89 1640.71 2439.79 1641.29 2439.73 1641.77 2439.66 1642.25 2439.63 1642.66 2439.63 1642.98 2439.63 1644.21 2439.84 1645.1 2440.25 1645.65 2440.66 1646.2 2441.33 1646.47 2442.26 1646.47 2443.01 1646.47 2443.82 1646.17 2444.69 1645.57 2445.56 1644.97 2446.48 1644.07 2447.46 1642.86 2448.44 1641.65 2449.22 1640.48 2449.81 1639.34 2450.4 1638.2 2450.88 1636.8 2451.26 1635.14L2453.81 1623.51 2458.46 1623.51 2454.54 1640.53C2454.14 1642.25 2453.95 1643.58 2453.95 1644.51 2453.95 1645.23 2454.06 1645.74 2454.29 1646.07 2454.53 1646.39 2454.89 1646.55 2455.4 1646.55 2455.93 1646.55 2456.51 1646.33 2457.11 1645.89 2457.72 1645.45 2458.58 1644.62 2459.69 1643.38L2461.22 1644.89C2459.59 1646.62 2458.21 1647.85 2457.06 1648.56 2455.91 1649.28 2454.7 1649.64 2453.41 1649.64 2452.3 1649.64 2451.41 1649.27 2450.75 1648.54 2450.09 1647.8 2449.76 1646.83 2449.76 1645.61 2449.76 1644.64 2449.97 1643.59 2450.4 1642.44L2450.08 1642.33C2448.31 1644.82 2446.63 1646.66 2445.04 1647.84 2443.46 1649.02 2441.83 1649.61 2440.17 1649.61 2438.5 1649.61 2437.22 1649.13 2436.33 1648.18 2435.43 1647.22 2434.99 1645.89 2434.99 1644.19 2434.99 1643.06 2435.24 1641.46 2435.76 1639.38L2437.51 1632.34C2437.99 1630.39 2438.23 1629.01 2438.23 1628.21 2438.23 1627.49 2438.12 1626.97 2437.89 1626.65 2437.65 1626.33 2437.29 1626.17 2436.78 1626.17 2436.23 1626.17 2435.64 1626.4 2435.03 1626.85 2434.41 1627.31 2433.56 1628.14 2432.49 1629.34L2430.96 1627.83C2432.48 1626.29 2433.62 1625.24 2434.39 1624.66 2435.16 1624.09 2435.9 1623.68 2436.61 1623.44 2437.32 1623.2 2438.11 1623.08 2438.99 1623.08Z" fill="#540000" fill-rule="evenodd"/><text fill="#000000" fill-opacity="0" font-family="Arial,Arial_MSFontService,sans-serif" font-size="26.5601" x="2430.96" y="1646.32">ЁЭСв</text><path d="M2557.46 1642.43C2556.76 1642.43 2556.13 1642.57 2555.56 1642.85 2554.99 1643.13 2554.5 1643.54 2554.07 1644.07 2553.65 1644.6 2553.31 1645.26 2553.04 1646.03 2552.77 1646.81 2552.6 1647.68 2552.52 1648.66L2561.58 1648.66C2561.45 1646.54 2561.07 1644.97 2560.42 1643.95 2559.78 1642.94 2558.79 1642.43 2557.46 1642.43ZM2510.81 1642.43C2509.15 1642.43 2507.86 1643.13 2506.96 1644.52 2506.05 1645.91 2505.6 1647.9 2505.6 1650.48 2505.6 1651.82 2505.72 1653.01 2505.95 1654.05 2506.19 1655.09 2506.53 1655.97 2506.98 1656.69 2507.43 1657.4 2507.98 1657.95 2508.63 1658.33 2509.28 1658.71 2510.02 1658.9 2510.85 1658.9 2511.79 1658.9 2512.59 1658.68 2513.25 1658.25 2513.9 1657.82 2514.43 1657.24 2514.84 1656.52 2515.24 1655.8 2515.53 1654.96 2515.72 1654 2515.9 1653.05 2515.99 1652.04 2515.99 1650.99 2515.99 1649.5 2515.86 1648.22 2515.59 1647.15 2515.32 1646.07 2514.96 1645.19 2514.5 1644.49 2514.03 1643.79 2513.49 1643.28 2512.86 1642.94 2512.22 1642.6 2511.54 1642.43 2510.81 1642.43ZM2523.62 1640.91 2532.57 1640.91 2532.57 1642.16C2531.76 1642.31 2531.19 1642.5 2530.85 1642.72 2530.51 1642.94 2530.34 1643.3 2530.34 1643.78 2530.34 1644.12 2530.39 1644.47 2530.49 1644.85 2530.59 1645.23 2530.74 1645.69 2530.95 1646.24 2531.56 1647.92 2532.17 1649.59 2532.76 1651.25 2533.36 1652.91 2533.97 1654.59 2534.58 1656.28 2535.3 1654.66 2536 1653.07 2536.7 1651.49 2537.4 1649.92 2538.12 1648.32 2538.86 1646.71 2539.12 1646.1 2539.31 1645.57 2539.44 1645.14 2539.57 1644.7 2539.64 1644.3 2539.64 1643.93 2539.64 1643.43 2539.46 1643.03 2539.09 1642.75 2538.73 1642.47 2538.14 1642.27 2537.31 1642.16L2537.31 1640.91 2545.44 1640.91 2545.44 1642.16C2545.05 1642.26 2544.72 1642.37 2544.44 1642.48 2544.17 1642.59 2543.92 1642.76 2543.68 1643 2543.45 1643.23 2543.21 1643.55 2542.97 1643.95 2542.73 1644.36 2542.45 1644.9 2542.14 1645.57 2540.94 1648.11 2539.76 1650.62 2538.59 1653.1 2537.43 1655.58 2536.25 1658.09 2535.07 1660.63L2532.35 1660.63C2531.4 1658.09 2530.46 1655.58 2529.51 1653.08 2528.57 1650.59 2527.62 1648.07 2526.67 1645.54 2526.38 1644.86 2526.14 1644.32 2525.94 1643.91 2525.74 1643.49 2525.53 1643.18 2525.32 1642.95 2525.11 1642.72 2524.88 1642.55 2524.62 1642.45 2524.36 1642.35 2524.03 1642.25 2523.62 1642.16ZM2557.7 1640.5C2559.08 1640.5 2560.27 1640.71 2561.27 1641.13 2562.27 1641.55 2563.09 1642.14 2563.71 1642.88 2564.03 1643.24 2564.31 1643.66 2564.55 1644.13 2564.8 1644.6 2565.01 1645.14 2565.19 1645.76 2565.36 1646.38 2565.5 1647.09 2565.6 1647.88 2565.7 1648.67 2565.76 1649.58 2565.78 1650.59L2552.4 1650.59 2552.4 1650.77C2552.4 1653.23 2552.86 1655.07 2553.78 1656.3 2554.7 1657.52 2556.15 1658.13 2558.15 1658.13 2558.68 1658.13 2559.19 1658.08 2559.68 1657.97 2560.17 1657.86 2560.65 1657.68 2561.14 1657.45 2561.62 1657.22 2562.1 1656.91 2562.59 1656.54 2563.08 1656.17 2563.59 1655.73 2564.12 1655.22L2565.49 1656.84C2564.76 1657.56 2564.07 1658.17 2563.41 1658.67 2562.75 1659.17 2562.1 1659.58 2561.45 1659.89 2560.8 1660.2 2560.13 1660.43 2559.46 1660.57 2558.78 1660.72 2558.06 1660.79 2557.31 1660.79 2554.34 1660.79 2552.11 1659.94 2550.61 1658.24 2549.11 1656.54 2548.36 1654.04 2548.36 1650.73 2548.36 1649.21 2548.58 1647.82 2549.03 1646.56 2549.47 1645.3 2550.1 1644.23 2550.92 1643.33 2551.74 1642.43 2552.72 1641.73 2553.87 1641.24 2555.02 1640.74 2556.29 1640.5 2557.7 1640.5ZM2510.89 1640.5C2512.52 1640.5 2513.92 1640.74 2515.09 1641.22 2516.26 1641.7 2517.23 1642.38 2517.98 1643.25 2518.74 1644.12 2519.29 1645.17 2519.65 1646.4 2520.01 1647.62 2520.19 1648.97 2520.19 1650.44 2520.19 1652.13 2519.97 1653.62 2519.52 1654.91 2519.07 1656.2 2518.42 1657.28 2517.58 1658.15 2516.74 1659.03 2515.73 1659.68 2514.55 1660.13 2513.36 1660.57 2512.04 1660.79 2510.58 1660.79 2509.14 1660.79 2507.84 1660.59 2506.7 1660.18 2505.56 1659.78 2504.6 1659.17 2503.8 1658.34 2503.01 1657.51 2502.4 1656.47 2501.99 1655.22 2501.57 1653.97 2501.36 1652.5 2501.36 1650.81 2501.36 1649.13 2501.6 1647.65 2502.08 1646.37 2502.57 1645.08 2503.23 1644.01 2504.09 1643.13 2504.94 1642.26 2505.95 1641.6 2507.1 1641.16 2508.26 1640.72 2509.53 1640.5 2510.89 1640.5ZM2476.82 1640.5C2478.26 1640.5 2479.4 1640.8 2480.27 1641.41 2481.14 1642.01 2481.77 1642.95 2482.17 1644.23 2482.9 1643.52 2483.56 1642.94 2484.14 1642.47 2484.72 1642 2485.26 1641.62 2485.78 1641.34 2486.29 1641.05 2486.8 1640.85 2487.31 1640.72 2487.82 1640.6 2488.37 1640.52 2488.97 1640.5 2489.86 1640.51 2490.65 1640.64 2491.35 1640.88 2492.06 1641.12 2492.65 1641.51 2493.14 1642.04 2493.63 1642.57 2494 1643.28 2494.26 1644.15 2494.52 1645.02 2494.65 1646.09 2494.64 1647.35L2494.64 1655.46C2494.64 1656.23 2494.65 1656.82 2494.66 1657.23 2494.68 1657.64 2494.77 1657.96 2494.91 1658.19 2495.05 1658.43 2495.28 1658.61 2495.6 1658.73 2495.92 1658.85 2496.38 1659.01 2496.98 1659.19L2496.98 1660.44 2488.44 1660.44 2488.44 1659.19C2488.96 1659.01 2489.38 1658.86 2489.69 1658.76 2490.01 1658.65 2490.24 1658.49 2490.41 1658.28 2490.57 1658.07 2490.67 1657.75 2490.72 1657.34 2490.76 1656.93 2490.79 1656.34 2490.79 1655.56L2490.79 1649.42C2490.79 1648.04 2490.71 1646.94 2490.56 1646.12 2490.41 1645.3 2490.19 1644.67 2489.9 1644.24 2489.61 1643.8 2489.23 1643.52 2488.78 1643.39 2488.32 1643.26 2487.79 1643.19 2487.19 1643.19 2486.74 1643.19 2486.24 1643.31 2485.69 1643.55 2485.14 1643.79 2484.64 1644.12 2484.17 1644.53 2483.7 1644.94 2483.3 1645.41 2482.98 1645.95 2482.67 1646.48 2482.51 1647.03 2482.51 1647.61L2482.51 1655.46C2482.51 1656.23 2482.52 1656.82 2482.55 1657.24 2482.57 1657.67 2482.66 1657.99 2482.81 1658.22 2482.96 1658.45 2483.19 1658.63 2483.51 1658.75 2483.83 1658.87 2484.29 1659.02 2484.89 1659.19L2484.89 1660.44 2476.31 1660.44 2476.31 1659.19C2476.84 1659.01 2477.25 1658.86 2477.56 1658.75 2477.86 1658.64 2478.1 1658.48 2478.26 1658.26 2478.42 1658.05 2478.53 1657.74 2478.57 1657.33 2478.62 1656.93 2478.64 1656.34 2478.64 1655.56L2478.64 1649.68C2478.64 1648.26 2478.56 1647.12 2478.41 1646.28 2478.26 1645.43 2478.04 1644.78 2477.75 1644.33 2477.46 1643.89 2477.08 1643.59 2476.63 1643.45 2476.17 1643.3 2475.64 1643.22 2475.05 1643.19 2474.52 1643.22 2473.98 1643.36 2473.42 1643.61 2472.86 1643.87 2472.35 1644.2 2471.89 1644.61 2471.43 1645.02 2471.05 1645.48 2470.77 1645.99 2470.48 1646.49 2470.35 1647 2470.38 1647.51L2470.38 1655.46C2470.38 1656.27 2470.39 1656.88 2470.43 1657.3 2470.46 1657.73 2470.55 1658.05 2470.71 1658.26 2470.87 1658.48 2471.1 1658.63 2471.42 1658.74 2471.74 1658.84 2472.19 1658.99 2472.78 1659.19L2472.78 1660.44 2464.21 1660.44 2464.21 1659.19C2464.71 1659.01 2465.12 1658.86 2465.43 1658.76 2465.73 1658.65 2465.97 1658.49 2466.13 1658.28 2466.29 1658.07 2466.4 1657.75 2466.44 1657.33 2466.49 1656.92 2466.51 1656.31 2466.51 1655.52L2466.51 1646.32C2466.51 1645.82 2466.5 1645.4 2466.48 1645.04 2466.46 1644.68 2466.44 1644.39 2466.41 1644.17 2466.39 1643.9 2466.34 1643.66 2466.27 1643.47 2466.19 1643.27 2466.07 1643.1 2465.9 1642.95 2465.72 1642.8 2465.47 1642.67 2465.15 1642.56 2464.83 1642.45 2464.42 1642.34 2463.91 1642.24L2463.91 1640.91 2469.03 1640.69 2470.42 1640.69C2470.38 1641.25 2470.33 1641.8 2470.28 1642.34 2470.23 1642.88 2470.18 1643.43 2470.14 1643.97 2470.18 1644 2470.22 1644.01 2470.26 1644.01 2470.3 1644.01 2470.34 1644.03 2470.38 1644.05 2471.07 1643.37 2471.7 1642.81 2472.27 1642.36 2472.84 1641.91 2473.39 1641.55 2473.89 1641.28 2474.4 1641 2474.89 1640.81 2475.37 1640.69 2475.84 1640.57 2476.33 1640.51 2476.82 1640.5Z" fill="#540000" fill-rule="evenodd"/><text fill="#000000" fill-opacity="0" font-family="Arial,Arial_MSFontService,sans-serif" font-size="20.293" x="2463.91" y="1658.25">move</text><path d="M2671.59 1247.02 2830.81 1342 2829.64 1343.97 2670.41 1248.98ZM2663.96 1259.81C2657.43 1255.92 2655.3 1247.48 2659.19 1240.96 2663.08 1234.43 2671.52 1232.3 2678.04 1236.19 2684.57 1240.08 2686.7 1248.52 2682.81 1255.04 2678.92 1261.57 2670.48 1263.7 2663.96 1259.81Z" fill="#A27B00"/><path d="M2948.74 1049.73C2949.3 1049.73 2949.78 1049.79 2950.2 1049.92 2950.62 1050.04 2951 1050.23 2951.32 1050.49 2951.64 1050.75 2951.93 1051.09 2952.18 1051.5 2952.43 1051.91 2952.67 1052.47 2952.9 1053.18 2953.14 1053.89 2953.36 1054.76 2953.56 1055.81 2953.77 1056.86 2953.95 1057.95 2954.11 1059.07L2954.38 1059.07C2956.1 1056.66 2957.4 1054.89 2958.29 1053.77 2959.17 1052.65 2959.92 1051.82 2960.53 1051.27 2961.14 1050.73 2961.73 1050.34 2962.29 1050.12 2962.85 1049.89 2963.6 1049.78 2964.53 1049.78 2965.37 1049.78 2966.06 1049.89 2966.6 1050.1L2965.53 1054.97 2963.65 1054.97C2963.54 1054.21 2963.22 1053.84 2962.71 1053.84 2962.54 1053.84 2962.37 1053.86 2962.2 1053.92 2962.02 1053.97 2961.8 1054.09 2961.54 1054.27 2961.28 1054.45 2960.9 1054.8 2960.4 1055.31 2959.89 1055.83 2959.33 1056.47 2958.7 1057.22 2958.08 1057.97 2957.43 1058.76 2956.77 1059.58L2954.94 1061.87C2955.27 1063.59 2955.57 1065.07 2955.86 1066.33 2956.14 1067.58 2956.4 1068.62 2956.62 1069.45 2956.85 1070.29 2957.04 1070.94 2957.21 1071.43 2957.38 1071.91 2957.57 1072.27 2957.76 1072.52 2957.96 1072.76 2958.16 1072.93 2958.37 1073.03 2958.57 1073.12 2958.81 1073.17 2959.08 1073.17 2959.56 1073.17 2960.03 1072.99 2960.49 1072.61 2960.95 1072.23 2961.6 1071.38 2962.46 1070.06L2964.21 1071.21C2962.96 1073.08 2961.82 1074.39 2960.81 1075.15 2959.8 1075.91 2958.6 1076.29 2957.2 1076.29 2956.43 1076.29 2955.78 1076.15 2955.24 1075.87 2954.7 1075.6 2954.24 1075.15 2953.84 1074.54 2953.45 1073.93 2953.1 1072.99 2952.8 1071.7 2952.24 1069.41 2951.9 1067.65 2951.78 1066.43L2951.51 1066.43C2949.61 1069.1 2948.2 1071.02 2947.28 1072.18 2946.35 1073.34 2945.59 1074.2 2944.99 1074.76 2944.39 1075.31 2943.81 1075.7 2943.25 1075.93 2942.68 1076.15 2941.94 1076.26 2941.01 1076.26 2940.16 1076.26 2939.48 1076.15 2938.94 1075.94L2940.01 1071.08 2941.89 1071.08C2942 1071.83 2942.31 1072.21 2942.83 1072.21 2943.08 1072.21 2943.35 1072.14 2943.62 1072.01 2943.9 1071.87 2944.3 1071.55 2944.82 1071.04 2945.34 1070.53 2946.06 1069.73 2946.97 1068.64 2947.88 1067.54 2949.21 1065.9 2950.94 1063.72 2950.67 1062.31 2950.4 1060.95 2950.11 1059.64 2949.82 1058.33 2949.53 1057.11 2949.22 1055.99 2948.92 1054.86 2948.67 1054.12 2948.47 1053.77 2948.28 1053.42 2948.06 1053.18 2947.84 1053.05 2947.62 1052.91 2947.34 1052.84 2947 1052.84 2946.62 1052.84 2946.28 1052.93 2945.97 1053.1 2945.67 1053.27 2945.34 1053.56 2944.98 1053.99 2944.62 1054.41 2944.15 1055.06 2943.56 1055.96L2941.81 1054.8C2942.94 1053.1 2944.02 1051.83 2945.06 1050.99 2946.1 1050.15 2947.33 1049.73 2948.74 1049.73Z" fill="#7F7F7F" fill-rule="evenodd"/><text fill="#000000" fill-opacity="0" font-family="Arial,Arial_MSFontService,sans-serif" font-size="26.5601" x="2938.94" y="1072.97">ЁЭСе</text><path d="M2978.48 1061.8C2979.84 1061.8 2980.99 1061.95 2981.95 1062.25 2982.91 1062.56 2983.69 1062.97 2984.29 1063.49 2984.88 1064.02 2985.32 1064.64 2985.58 1065.37 2985.85 1066.1 2985.98 1066.89 2985.98 1067.73 2985.98 1068.24 2985.95 1068.71 2985.88 1069.15 2985.81 1069.59 2985.68 1070.01 2985.51 1070.44 2985.33 1070.86 2985.1 1071.29 2984.81 1071.72 2984.53 1072.15 2984.17 1072.6 2983.74 1073.08 2983.41 1073.5 2982.99 1073.98 2982.47 1074.53 2981.95 1075.08 2981.38 1075.66 2980.76 1076.29 2980.14 1076.91 2979.49 1077.56 2978.82 1078.24 2978.14 1078.92 2977.48 1079.59 2976.84 1080.25 2976.21 1080.92 2975.62 1081.56 2975.09 1082.19 2974.55 1082.81 2974.12 1083.38 2973.78 1083.9L2981 1083.9C2981.62 1083.9 2982.1 1083.88 2982.47 1083.84 2982.83 1083.79 2983.14 1083.69 2983.38 1083.53 2983.62 1083.38 2983.82 1083.14 2983.99 1082.82 2984.16 1082.5 2984.36 1082.06 2984.58 1081.5L2986.39 1081.5C2986.33 1082.43 2986.27 1083.36 2986.21 1084.3 2986.15 1085.23 2986.09 1086.16 2986.02 1087.09L2969.48 1087.09 2969.48 1086.07C2969.79 1085.37 2970.16 1084.68 2970.57 1083.99 2970.99 1083.31 2971.46 1082.62 2971.98 1081.91 2972.5 1081.21 2973.09 1080.48 2973.76 1079.73 2974.42 1078.99 2975.16 1078.21 2975.97 1077.4 2977.19 1076.18 2978.19 1075.13 2978.95 1074.27 2979.72 1073.4 2980.33 1072.63 2980.77 1071.95 2981.21 1071.27 2981.52 1070.65 2981.68 1070.08 2981.84 1069.5 2981.92 1068.89 2981.92 1068.24 2981.92 1067.58 2981.83 1066.96 2981.64 1066.4 2981.45 1065.84 2981.18 1065.37 2980.83 1064.98 2980.48 1064.59 2980.03 1064.28 2979.49 1064.06 2978.95 1063.84 2978.33 1063.73 2977.63 1063.73 2976.41 1063.73 2975.4 1064.06 2974.58 1064.72 2973.76 1065.37 2973.12 1066.33 2972.66 1067.58L2970.11 1067.58 2970.11 1063.77C2971.77 1063.08 2973.31 1062.58 2974.71 1062.26 2976.1 1061.95 2977.36 1061.8 2978.48 1061.8Z" fill="#7F7F7F" fill-rule="evenodd"/><text fill="#000000" fill-opacity="0" font-family="Arial,Arial_MSFontService,sans-serif" font-size="25.293" x="2969.48" y="1083.93">2</text><path d="M1831.47 1413.13C1832.02 1413.13 1832.51 1413.19 1832.93 1413.32 1833.35 1413.44 1833.72 1413.63 1834.05 1413.89 1834.37 1414.15 1834.65 1414.49 1834.9 1414.9 1835.16 1415.31 1835.4 1415.87 1835.63 1416.58 1835.86 1417.29 1836.08 1418.16 1836.29 1419.21 1836.49 1420.26 1836.68 1421.35 1836.84 1422.47L1837.11 1422.47C1838.83 1420.06 1840.13 1418.29 1841.01 1417.17 1841.9 1416.05 1842.65 1415.22 1843.26 1414.67 1843.87 1414.13 1844.45 1413.74 1845.02 1413.52 1845.58 1413.29 1846.33 1413.18 1847.26 1413.18 1848.1 1413.18 1848.79 1413.29 1849.33 1413.5L1848.25 1418.36 1846.37 1418.36C1846.26 1417.61 1845.95 1417.24 1845.43 1417.24 1845.27 1417.24 1845.1 1417.26 1844.92 1417.32 1844.74 1417.37 1844.52 1417.49 1844.26 1417.67 1844 1417.85 1843.62 1418.19 1843.12 1418.71 1842.62 1419.23 1842.06 1419.87 1841.43 1420.62 1840.8 1421.37 1840.16 1422.16 1839.5 1422.98L1837.67 1425.27C1837.99 1426.99 1838.3 1428.47 1838.58 1429.72 1838.87 1430.98 1839.13 1432.02 1839.35 1432.85 1839.57 1433.69 1839.77 1434.34 1839.94 1434.83 1840.11 1435.31 1840.29 1435.67 1840.49 1435.91 1840.69 1436.16 1840.89 1436.33 1841.09 1436.43 1841.3 1436.52 1841.54 1436.57 1841.81 1436.57 1842.29 1436.57 1842.76 1436.38 1843.22 1436.01 1843.67 1435.63 1844.33 1434.78 1845.19 1433.46L1846.94 1434.61C1845.68 1436.47 1844.55 1437.79 1843.54 1438.55 1842.53 1439.31 1841.32 1439.69 1839.93 1439.69 1839.16 1439.69 1838.5 1439.55 1837.97 1439.27 1837.43 1438.99 1836.96 1438.55 1836.57 1437.94 1836.18 1437.33 1835.83 1436.38 1835.52 1435.1 1834.97 1432.8 1834.63 1431.05 1834.5 1429.83L1834.23 1429.83C1832.34 1432.5 1830.93 1434.42 1830 1435.58 1829.08 1436.74 1828.32 1437.6 1827.72 1438.16 1827.12 1438.71 1826.54 1439.1 1825.98 1439.33 1825.41 1439.55 1824.66 1439.66 1823.73 1439.66 1822.89 1439.66 1822.2 1439.55 1821.66 1439.34L1822.74 1434.48 1824.62 1434.48C1824.73 1435.23 1825.04 1435.61 1825.56 1435.61 1825.81 1435.61 1826.07 1435.54 1826.35 1435.4 1826.63 1435.27 1827.03 1434.95 1827.55 1434.44 1828.07 1433.93 1828.78 1433.13 1829.69 1432.03 1830.61 1430.94 1831.93 1429.3 1833.67 1427.12 1833.4 1425.71 1833.12 1424.34 1832.84 1423.04 1832.55 1421.73 1832.25 1420.51 1831.95 1419.39 1831.65 1418.26 1831.4 1417.52 1831.2 1417.17 1831 1416.82 1830.79 1416.58 1830.57 1416.44 1830.34 1416.31 1830.06 1416.24 1829.72 1416.24 1829.35 1416.24 1829.01 1416.33 1828.7 1416.5 1828.4 1416.67 1828.07 1416.96 1827.71 1417.38 1827.35 1417.81 1826.87 1418.46 1826.28 1419.36L1824.54 1418.2C1825.67 1416.5 1826.75 1415.23 1827.79 1414.39 1828.83 1413.55 1830.05 1413.13 1831.47 1413.13Z" fill="#7F7F7F" fill-rule="evenodd"/><text fill="#000000" fill-opacity="0" font-family="Arial,Arial_MSFontService,sans-serif" font-size="26.5601" x="1821.66" y="1436.37">ЁЭСе</text><path d="M1861.45 1425.33 1862.64 1425.33C1862.62 1426.05 1862.6 1426.69 1862.58 1427.26 1862.57 1427.82 1862.56 1428.37 1862.55 1428.91 1862.55 1429.44 1862.54 1429.97 1862.54 1430.49L1862.54 1445.33C1862.54 1445.73 1862.56 1446.08 1862.58 1446.38 1862.61 1446.67 1862.65 1446.92 1862.71 1447.12 1862.77 1447.32 1862.85 1447.49 1862.95 1447.64 1863.04 1447.78 1863.16 1447.9 1863.29 1448.01 1863.44 1448.16 1863.65 1448.28 1863.91 1448.37 1864.17 1448.45 1864.5 1448.52 1864.91 1448.58 1865.31 1448.64 1865.8 1448.69 1866.36 1448.72 1866.93 1448.75 1867.61 1448.78 1868.4 1448.79L1868.4 1450.49 1852.92 1450.49 1852.92 1448.79C1853.68 1448.76 1854.34 1448.73 1854.87 1448.7 1855.4 1448.67 1855.86 1448.62 1856.24 1448.56 1856.61 1448.51 1856.92 1448.44 1857.14 1448.37 1857.37 1448.3 1857.57 1448.21 1857.74 1448.1 1857.92 1447.99 1858.08 1447.86 1858.21 1447.72 1858.34 1447.59 1858.44 1447.41 1858.52 1447.21 1858.6 1447 1858.66 1446.74 1858.71 1446.44 1858.75 1446.15 1858.78 1445.77 1858.78 1445.33L1858.78 1431.33C1858.78 1430.82 1858.68 1430.46 1858.48 1430.25 1858.29 1430.04 1858.01 1429.94 1857.64 1429.94 1857.24 1429.94 1856.64 1430.15 1855.85 1430.57 1855.05 1430.98 1854.02 1431.6 1852.76 1432.42 1852.59 1432.12 1852.43 1431.82 1852.29 1431.52 1852.15 1431.22 1852 1430.92 1851.84 1430.6 1853.46 1429.72 1855.05 1428.84 1856.64 1427.96 1858.22 1427.08 1859.82 1426.2 1861.45 1425.33Z" fill="#7F7F7F" fill-rule="evenodd"/><text fill="#000000" fill-opacity="0" font-family="Arial,Arial_MSFontService,sans-serif" font-size="25.1562" x="1851.84" y="1447.34">1</text><rect x="2007" y="707" width="529" height="529" fill="#C00000" fill-opacity="0.25098"/><rect x="2833.5" y="1324.5" width="171" height="67" stroke="#A27B00" stroke-width="3.4375" stroke-linejoin="round" stroke-miterlimit="10" fill="#FFFFFF" fill-opacity="0.74902"/><path d="M2850.73 1350.77C2851.28 1350.77 2851.77 1350.83 2852.19 1350.96 2852.61 1351.08 2852.99 1351.28 2853.31 1351.54 2853.63 1351.8 2853.92 1352.13 2854.17 1352.54 2854.42 1352.96 2854.66 1353.51 2854.89 1354.22 2855.12 1354.93 2855.34 1355.81 2855.55 1356.85 2855.76 1357.9 2855.94 1358.99 2856.1 1360.12L2856.37 1360.12C2858.09 1357.7 2859.39 1355.93 2860.28 1354.81 2861.16 1353.69 2861.91 1352.86 2862.52 1352.32 2863.13 1351.77 2863.71 1351.38 2864.28 1351.16 2864.84 1350.94 2865.59 1350.82 2866.52 1350.82 2867.36 1350.82 2868.05 1350.93 2868.59 1351.15L2867.51 1356.01 2865.63 1356.01C2865.53 1355.26 2865.21 1354.88 2864.69 1354.88 2864.53 1354.88 2864.36 1354.91 2864.18 1354.96 2864 1355.01 2863.79 1355.13 2863.53 1355.31 2863.27 1355.49 2862.89 1355.84 2862.38 1356.36 2861.88 1356.88 2861.32 1357.51 2860.69 1358.26 2860.07 1359.02 2859.42 1359.8 2858.76 1360.63L2856.93 1362.91C2857.26 1364.63 2857.56 1366.11 2857.85 1367.37 2858.13 1368.62 2858.39 1369.66 2858.61 1370.5 2858.84 1371.33 2859.03 1371.99 2859.2 1372.47 2859.37 1372.95 2859.56 1373.32 2859.75 1373.56 2859.95 1373.8 2860.15 1373.97 2860.36 1374.07 2860.56 1374.17 2860.8 1374.22 2861.07 1374.22 2861.55 1374.22 2862.02 1374.03 2862.48 1373.65 2862.94 1373.28 2863.59 1372.43 2864.45 1371.1L2866.2 1372.26C2864.94 1374.12 2863.81 1375.43 2862.8 1376.19 2861.79 1376.95 2860.59 1377.33 2859.19 1377.33 2858.42 1377.33 2857.77 1377.19 2857.23 1376.91 2856.69 1376.64 2856.23 1376.19 2855.83 1375.59 2855.44 1374.98 2855.09 1374.03 2854.78 1372.74 2854.23 1370.45 2853.89 1368.69 2853.76 1367.47L2853.5 1367.47C2851.6 1370.14 2850.19 1372.06 2849.27 1373.22 2848.34 1374.39 2847.58 1375.25 2846.98 1375.8 2846.38 1376.36 2845.8 1376.74 2845.24 1376.97 2844.67 1377.19 2843.93 1377.3 2842.99 1377.3 2842.15 1377.3 2841.46 1377.2 2840.93 1376.98L2842 1372.12 2843.88 1372.12C2843.99 1372.87 2844.3 1373.25 2844.82 1373.25 2845.07 1373.25 2845.34 1373.18 2845.61 1373.05 2845.89 1372.91 2846.29 1372.59 2846.81 1372.08 2847.33 1371.57 2848.04 1370.77 2848.96 1369.68 2849.87 1368.58 2851.19 1366.95 2852.93 1364.76 2852.66 1363.35 2852.39 1361.99 2852.1 1360.68 2851.81 1359.37 2851.52 1358.16 2851.21 1357.03 2850.91 1355.9 2850.66 1355.16 2850.46 1354.81 2850.26 1354.46 2850.05 1354.22 2849.83 1354.09 2849.61 1353.95 2849.32 1353.89 2848.98 1353.89 2848.61 1353.89 2848.27 1353.97 2847.96 1354.14 2847.66 1354.31 2847.33 1354.61 2846.97 1355.03 2846.61 1355.45 2846.14 1356.11 2845.55 1357L2843.8 1355.85C2844.93 1354.15 2846.01 1352.87 2847.05 1352.03 2848.09 1351.19 2849.31 1350.77 2850.73 1350.77Z" fill="#A27B00" fill-rule="evenodd"/><text fill="#000000" fill-opacity="0" font-family="Arial,Arial_MSFontService,sans-serif" font-size="26.5601" x="2840.93" y="1374.01">ЁЭСе</text><path d="M2880.43 1362.84C2881.48 1362.84 2882.45 1362.95 2883.35 1363.17 2884.26 1363.39 2885.04 1363.73 2885.71 1364.18 2886.37 1364.62 2886.89 1365.18 2887.26 1365.86 2887.63 1366.53 2887.82 1367.3 2887.82 1368.19 2887.82 1369.02 2887.7 1369.76 2887.47 1370.4 2887.23 1371.03 2886.87 1371.61 2886.38 1372.13 2885.89 1372.66 2885.29 1373.13 2884.58 1373.55 2883.87 1373.97 2883.06 1374.38 2882.13 1374.77L2882.13 1375.01C2883.01 1375.16 2883.82 1375.41 2884.57 1375.76 2885.33 1376.1 2885.99 1376.54 2886.56 1377.07 2887.12 1377.59 2887.57 1378.2 2887.9 1378.89 2888.22 1379.58 2888.38 1380.34 2888.38 1381.18 2888.38 1382.22 2888.19 1383.19 2887.8 1384.08 2887.41 1384.97 2886.82 1385.74 2886.04 1386.39 2885.26 1387.04 2884.29 1387.55 2883.15 1387.92 2882 1388.28 2880.66 1388.46 2879.13 1388.46 2877.91 1388.46 2876.68 1388.34 2875.43 1388.1 2874.18 1387.86 2873 1387.54 2871.88 1387.15L2871.88 1382.94 2874.4 1382.94C2874.61 1383.59 2874.85 1384.14 2875.14 1384.61 2875.43 1385.07 2875.76 1385.44 2876.15 1385.74 2876.53 1386.03 2876.97 1386.24 2877.48 1386.37 2877.98 1386.5 2878.55 1386.57 2879.18 1386.57 2880.86 1386.57 2882.14 1386.17 2883 1385.37 2883.87 1384.57 2884.3 1383.35 2884.3 1381.72 2884.3 1379.99 2883.73 1378.68 2882.59 1377.79 2881.45 1376.9 2879.76 1376.45 2877.52 1376.45L2875.81 1376.45 2875.81 1374.58C2877.17 1374.51 2878.35 1374.32 2879.35 1374 2880.35 1373.68 2881.18 1373.27 2881.84 1372.76 2882.5 1372.25 2883 1371.66 2883.32 1370.98 2883.65 1370.3 2883.81 1369.58 2883.81 1368.81 2883.81 1367.56 2883.44 1366.58 2882.7 1365.86 2881.96 1365.13 2880.88 1364.77 2879.48 1364.77 2878.29 1364.77 2877.3 1365.1 2876.5 1365.75 2875.7 1366.4 2875.08 1367.37 2874.65 1368.66L2872.17 1368.66 2872.17 1364.81C2873.71 1364.16 2875.16 1363.67 2876.52 1363.34 2877.88 1363 2879.18 1362.84 2880.43 1362.84Z" fill="#A27B00" fill-rule="evenodd"/><text fill="#000000" fill-opacity="0" font-family="Arial,Arial_MSFontService,sans-serif" font-size="25.625" x="2871.88" y="1385.26">3</text><path d="M2913.88 1364.98 2946.97 1364.98 2946.97 1368.55 2913.88 1368.55ZM2913.88 1353.83 2946.97 1353.83 2946.97 1357.4 2913.88 1357.4Z" fill="#A27B00" fill-rule="evenodd"/><text fill="#000000" fill-opacity="0" font-family="Arial,Arial_MSFontService,sans-serif" font-size="14.7168" x="2913.88" y="1366.71">=</text><path d="M2981.64 1342.1C2980.41 1342.1 2979.37 1342.46 2978.54 1343.2 2977.71 1343.93 2977.04 1344.99 2976.53 1346.37 2976.02 1347.75 2975.65 1349.42 2975.44 1351.4 2975.22 1353.38 2975.12 1355.61 2975.12 1358.1 2975.12 1363.94 2975.66 1368.22 2976.74 1370.95 2977.82 1373.68 2979.5 1375.05 2981.78 1375.05 2983.94 1375.05 2985.55 1373.76 2986.6 1371.19 2987.64 1368.63 2988.17 1364.65 2988.17 1359.26 2988.17 1355.14 2987.9 1351.8 2987.36 1349.25 2986.83 1346.7 2986.08 1344.87 2985.12 1343.76 2984.16 1342.65 2983 1342.1 2981.64 1342.1ZM2981.78 1339.81C2985.7 1339.81 2988.62 1341.33 2990.53 1344.35 2992.45 1347.38 2993.4 1351.95 2993.4 1358.08 2993.4 1364.41 2992.38 1369.21 2990.33 1372.46 2988.28 1375.71 2985.29 1377.33 2981.35 1377.33 2977.48 1377.33 2974.6 1375.81 2972.71 1372.77 2970.82 1369.72 2969.88 1365.1 2969.88 1358.91 2969.88 1355.61 2970.17 1352.77 2970.75 1350.37 2971.33 1347.97 2972.15 1345.99 2973.2 1344.42 2974.24 1342.85 2975.5 1341.69 2976.97 1340.94 2978.44 1340.19 2980.04 1339.81 2981.78 1339.81Z" fill="#A27B00" fill-rule="evenodd"/><text fill="#000000" fill-opacity="0" font-family="Arial,Arial_MSFontService,sans-serif" font-size="37.5171" x="2969.88" y="1372.64">0</text><path d="M2172.34 271.8C2172.9 271.8 2173.38 271.862 2173.81 271.988 2174.23 272.113 2174.6 272.306 2174.92 272.565 2175.24 272.825 2175.53 273.16 2175.78 273.572 2176.03 273.984 2176.27 274.544 2176.5 275.251 2176.74 275.958 2176.96 276.835 2177.16 277.883 2177.37 278.93 2177.55 280.018 2177.71 281.146L2177.98 281.146C2179.7 278.729 2181 276.961 2181.89 275.842 2182.77 274.723 2183.52 273.89 2184.13 273.344 2184.74 272.798 2185.33 272.413 2185.89 272.189 2186.45 271.965 2187.2 271.854 2188.13 271.854 2188.97 271.854 2189.66 271.961 2190.2 272.176L2189.13 277.037 2187.25 277.037C2187.14 276.285 2186.83 275.909 2186.31 275.909 2186.15 275.909 2185.98 275.936 2185.8 275.989 2185.62 276.043 2185.4 276.159 2185.14 276.338 2184.88 276.517 2184.5 276.867 2184 277.386 2183.5 277.905 2182.93 278.541 2182.3 279.292 2181.68 280.044 2181.03 280.832 2180.37 281.656L2178.55 283.938C2178.87 285.657 2179.17 287.143 2179.46 288.396 2179.74 289.65 2180 290.693 2180.22 291.525 2180.45 292.358 2180.64 293.016 2180.81 293.499 2180.98 293.982 2181.17 294.345 2181.36 294.587 2181.56 294.828 2181.76 294.998 2181.97 295.097 2182.18 295.195 2182.41 295.245 2182.68 295.245 2183.16 295.245 2183.63 295.057 2184.09 294.681 2184.55 294.305 2185.21 293.454 2186.06 292.129L2187.81 293.284C2186.56 295.146 2185.42 296.458 2184.41 297.219 2183.4 297.979 2182.2 298.36 2180.8 298.36 2180.03 298.36 2179.38 298.221 2178.84 297.944 2178.3 297.666 2177.84 297.223 2177.44 296.614 2177.05 296.006 2176.7 295.057 2176.4 293.768 2175.84 291.476 2175.5 289.721 2175.38 288.504L2175.11 288.504C2173.21 291.172 2171.8 293.087 2170.88 294.251 2169.96 295.415 2169.2 296.274 2168.6 296.829 2168 297.384 2167.41 297.774 2166.85 297.997 2166.29 298.221 2165.54 298.333 2164.61 298.333 2163.77 298.333 2163.08 298.226 2162.54 298.011L2163.61 293.15 2165.49 293.15C2165.6 293.902 2165.91 294.278 2166.43 294.278 2166.68 294.278 2166.95 294.211 2167.23 294.076 2167.5 293.942 2167.9 293.62 2168.42 293.11 2168.94 292.599 2169.66 291.798 2170.57 290.706 2171.48 289.614 2172.81 287.976 2174.54 285.792 2174.28 284.377 2174 283.016 2173.71 281.709 2173.42 280.402 2173.13 279.185 2172.82 278.057 2172.52 276.929 2172.27 276.191 2172.07 275.842 2171.88 275.492 2171.67 275.251 2171.44 275.116 2171.22 274.982 2170.94 274.915 2170.6 274.915 2170.22 274.915 2169.88 275 2169.58 275.17 2169.27 275.34 2168.94 275.636 2168.58 276.056 2168.22 276.477 2167.75 277.135 2167.16 278.03L2165.41 276.875C2166.54 275.175 2167.62 273.903 2168.66 273.062 2169.7 272.221 2170.93 271.8 2172.34 271.8Z" fill="#7F7F7F" fill-rule="evenodd"/><text fill="#000000" fill-opacity="0" font-family="Arial,Arial_MSFontService,sans-serif" font-size="26.5601" x="2162.54" y="295.04">ЁЭСе</text><path d="M2202.05 283.866C2203.09 283.866 2204.06 283.977 2204.97 284.198 2205.87 284.42 2206.66 284.755 2207.32 285.204 2207.98 285.654 2208.5 286.213 2208.87 286.884 2209.24 287.555 2209.43 288.333 2209.43 289.218 2209.43 290.051 2209.31 290.787 2209.08 291.425 2208.84 292.063 2208.48 292.642 2207.99 293.163 2207.51 293.684 2206.91 294.156 2206.2 294.579 2205.49 295.002 2204.67 295.409 2203.75 295.8L2203.75 296.034C2204.62 296.191 2205.43 296.441 2206.19 296.786 2206.94 297.131 2207.6 297.568 2208.17 298.095 2208.74 298.622 2209.18 299.231 2209.51 299.921 2209.83 300.611 2210 301.373 2210 302.206 2210 303.248 2209.8 304.215 2209.41 305.107 2209.02 305.999 2208.43 306.77 2207.65 307.421 2206.87 308.072 2205.91 308.58 2204.76 308.945 2203.62 309.309 2202.27 309.491 2200.74 309.491 2199.53 309.491 2198.3 309.371 2197.05 309.13 2195.8 308.889 2194.61 308.573 2193.49 308.183L2193.49 303.964 2196.01 303.964C2196.22 304.615 2196.47 305.172 2196.75 305.634 2197.04 306.096 2197.38 306.474 2197.76 306.767 2198.14 307.06 2198.59 307.271 2199.09 307.402 2199.59 307.532 2200.16 307.597 2200.8 307.597 2202.48 307.597 2203.75 307.196 2204.61 306.396 2205.48 305.595 2205.91 304.381 2205.91 302.753 2205.91 301.021 2205.34 299.71 2204.2 298.818 2203.07 297.926 2201.38 297.48 2199.14 297.48L2197.42 297.48 2197.42 295.605C2198.78 295.54 2199.97 295.348 2200.96 295.029 2201.96 294.71 2202.79 294.296 2203.45 293.788 2204.12 293.28 2204.61 292.688 2204.94 292.011 2205.26 291.334 2205.43 290.611 2205.43 289.843 2205.43 288.593 2205.05 287.607 2204.31 286.884 2203.57 286.161 2202.5 285.8 2201.09 285.8 2199.9 285.8 2198.91 286.126 2198.11 286.777 2197.31 287.428 2196.69 288.398 2196.27 289.687L2193.78 289.687 2193.78 285.839C2195.32 285.188 2196.77 284.696 2198.13 284.364 2199.49 284.032 2200.8 283.866 2202.05 283.866Z" fill="#7F7F7F" fill-rule="evenodd"/><text fill="#000000" fill-opacity="0" font-family="Arial,Arial_MSFontService,sans-serif" font-size="25.625" x="2193.49" y="306.288">3</text></g></svg>