<svg width="2383" height="2022" xmlns="http://www.w3.org/2000/svg" xmlns:xlink="http://www.w3.org/1999/xlink" overflow="hidden"><defs><clipPath id="clip0"><rect x="2086" y="328" width="2383" height="2022"/></clipPath></defs><g clip-path="url(#clip0)" transform="translate(-2086 -328)"><path d="M4249.26 1233.69C4250.78 1233.69 4251.98 1234.2 4252.86 1235.22 4253.74 1236.24 4254.18 1237.62 4254.18 1239.36 4254.18 1241.23 4253.81 1243.57 4253.08 1246.38L4251.51 1252.54C4251.11 1254.11 4250.81 1255.34 4250.64 1256.22 4250.46 1257.1 4250.33 1257.86 4250.24 1258.5 4250.16 1259.14 4250.12 1259.67 4250.12 1260.1 4250.12 1261.74 4250.39 1262.92 4250.94 1263.65 4251.49 1264.37 4252.38 1264.74 4253.61 1264.74 4254.61 1264.74 4255.69 1264.34 4256.84 1263.54 4257.99 1262.75 4259.21 1261.55 4260.51 1259.94 4261.8 1258.34 4262.84 1256.78 4263.63 1255.27 4264.41 1253.76 4265.05 1251.9 4265.55 1249.69L4268.94 1234.26 4275.11 1234.26 4269.9 1256.86C4269.38 1259.14 4269.12 1260.9 4269.12 1262.13 4269.12 1263.08 4269.27 1263.77 4269.58 1264.2 4269.89 1264.63 4270.38 1264.84 4271.04 1264.84 4271.76 1264.84 4272.52 1264.55 4273.32 1263.97 4274.13 1263.39 4275.27 1262.28 4276.75 1260.64L4278.78 1262.63C4276.61 1264.94 4274.77 1266.56 4273.25 1267.52 4271.73 1268.47 4270.12 1268.94 4268.4 1268.94 4266.93 1268.94 4265.76 1268.45 4264.88 1267.48 4264 1266.51 4263.56 1265.21 4263.56 1263.59 4263.56 1262.31 4263.84 1260.91 4264.41 1259.39L4263.98 1259.25C4261.63 1262.55 4259.4 1264.98 4257.3 1266.55 4255.2 1268.12 4253.04 1268.91 4250.83 1268.91 4248.62 1268.91 4246.92 1268.27 4245.73 1267 4244.55 1265.73 4243.95 1263.96 4243.95 1261.71 4243.95 1260.21 4244.3 1258.08 4244.99 1255.33L4247.3 1245.99C4247.94 1243.4 4248.27 1241.57 4248.27 1240.5 4248.27 1239.55 4248.11 1238.86 4247.8 1238.43 4247.49 1238 4247.01 1237.79 4246.34 1237.79 4245.6 1237.79 4244.83 1238.09 4244.01 1238.7 4243.19 1239.3 4242.06 1240.4 4240.64 1241.99L4238.61 1240C4240.63 1237.95 4242.15 1236.55 4243.17 1235.79 4244.19 1235.03 4245.17 1234.49 4246.11 1234.17 4247.05 1233.85 4248.1 1233.69 4249.26 1233.69Z" fill="#7030A0" fill-rule="evenodd"/><text fill="#000000" fill-opacity="0" font-family="Arial,Arial_MSFontService,sans-serif" font-size="35.2524" x="4238.61" y="1264.53">𝑢</text><path d="M4298 1259.48C4297.05 1259.48 4296.11 1259.71 4295.19 1260.17 4294.27 1260.64 4293.4 1261.3 4292.58 1262.15 4291.76 1263.01 4291.01 1264.04 4290.34 1265.26 4289.67 1266.48 4289.11 1267.83 4288.66 1269.34 4290.85 1269.32 4292.73 1269.15 4294.31 1268.82 4295.89 1268.49 4297.18 1268.04 4298.19 1267.47 4299.2 1266.9 4299.94 1266.23 4300.42 1265.45 4300.89 1264.68 4301.13 1263.82 4301.13 1262.89 4301.13 1261.82 4300.86 1260.98 4300.33 1260.38 4299.79 1259.78 4299.02 1259.48 4298 1259.48ZM4320.06 1256.91C4321.01 1256.91 4321.79 1257.12 4322.39 1257.53 4323 1257.95 4323.5 1258.55 4323.89 1259.35 4324.29 1260.14 4324.62 1261.12 4324.88 1262.28 4325.14 1263.45 4325.41 1264.78 4325.71 1266.28L4326.04 1266.28C4327.08 1264.92 4327.97 1263.74 4328.73 1262.74 4329.49 1261.74 4330.17 1260.89 4330.76 1260.2 4331.36 1259.51 4331.89 1258.95 4332.37 1258.52 4332.84 1258.09 4333.3 1257.75 4333.75 1257.52 4334.2 1257.29 4334.66 1257.13 4335.14 1257.04 4335.61 1256.96 4336.14 1256.91 4336.73 1256.91 4337.59 1256.91 4338.38 1257.07 4339.08 1257.38L4337.79 1262.48 4335.64 1262.48C4335.59 1261.74 4335.31 1261.36 4334.81 1261.36 4334.62 1261.36 4334.42 1261.4 4334.19 1261.47 4333.97 1261.54 4333.7 1261.67 4333.39 1261.88 4333.08 1262.09 4332.72 1262.38 4332.32 1262.75 4331.91 1263.12 4331.43 1263.6 4330.88 1264.2 4330.33 1264.79 4329.7 1265.52 4328.99 1266.38 4328.28 1267.25 4327.47 1268.27 4326.56 1269.44 4327.02 1271.82 4327.43 1273.73 4327.76 1275.16 4328.1 1276.59 4328.42 1277.69 4328.73 1278.44 4329.04 1279.2 4329.35 1279.7 4329.66 1279.93 4329.98 1280.17 4330.33 1280.28 4330.73 1280.28 4331.02 1280.28 4331.29 1280.25 4331.54 1280.18 4331.79 1280.11 4332.05 1279.96 4332.32 1279.73 4332.58 1279.49 4332.88 1279.16 4333.21 1278.72 4333.54 1278.28 4333.93 1277.69 4334.37 1276.97L4336.32 1278.24C4335.56 1279.38 4334.88 1280.31 4334.3 1281.03 4333.71 1281.76 4333.14 1282.33 4332.59 1282.74 4332.04 1283.15 4331.47 1283.43 4330.88 1283.58 4330.29 1283.73 4329.62 1283.8 4328.86 1283.8 4328.21 1283.8 4327.62 1283.71 4327.1 1283.53 4326.58 1283.35 4326.14 1283.02 4325.76 1282.53 4325.5 1282.24 4325.26 1281.85 4325.03 1281.36 4324.81 1280.86 4324.6 1280.33 4324.41 1279.76 4324.22 1279.19 4324.05 1278.6 4323.89 1277.99 4323.74 1277.38 4323.61 1276.81 4323.51 1276.27 4323.4 1275.74 4323.32 1275.26 4323.26 1274.83 4323.2 1274.41 4323.16 1274.1 4323.14 1273.89L4322.86 1273.89C4321.82 1275.27 4320.92 1276.47 4320.15 1277.5 4319.39 1278.53 4318.69 1279.41 4318.07 1280.14 4317.45 1280.87 4316.89 1281.48 4316.39 1281.95 4315.89 1282.43 4315.4 1282.8 4314.91 1283.08 4314.43 1283.35 4313.93 1283.54 4313.43 1283.65 4312.92 1283.75 4312.35 1283.8 4311.73 1283.8 4310.83 1283.8 4310.07 1283.65 4309.43 1283.34L4310.62 1278.29 4312.82 1278.29C4312.87 1279.05 4313.15 1279.43 4313.67 1279.43 4313.86 1279.41 4314.05 1279.38 4314.23 1279.32 4314.41 1279.27 4314.62 1279.16 4314.86 1279 4315.1 1278.84 4315.41 1278.58 4315.78 1278.22 4316.15 1277.87 4316.62 1277.38 4317.19 1276.75 4317.76 1276.12 4318.46 1275.33 4319.29 1274.38 4320.12 1273.43 4321.11 1272.26 4322.26 1270.86 4321.95 1269.41 4321.68 1268.15 4321.45 1267.08 4321.21 1266.01 4321 1265.1 4320.8 1264.33 4320.6 1263.56 4320.41 1262.93 4320.22 1262.45 4320.03 1261.97 4319.83 1261.58 4319.64 1261.3 4319.44 1261.02 4319.22 1260.81 4318.99 1260.69 4318.76 1260.57 4318.48 1260.5 4318.17 1260.48 4317.88 1260.48 4317.61 1260.53 4317.36 1260.63 4317.11 1260.72 4316.85 1260.89 4316.58 1261.13 4316.32 1261.37 4316.02 1261.71 4315.7 1262.14 4315.38 1262.57 4315.02 1263.13 4314.6 1263.82L4312.61 1262.53C4313.32 1261.48 4313.96 1260.59 4314.53 1259.86 4315.09 1259.14 4315.66 1258.56 4316.21 1258.13 4316.76 1257.7 4317.34 1257.39 4317.95 1257.2 4318.57 1257.01 4319.27 1256.91 4320.06 1256.91ZM4299.11 1256.91C4301.32 1256.91 4303 1257.4 4304.15 1258.36 4305.29 1259.33 4305.87 1260.7 4305.87 1262.48 4305.87 1268.72 4299.96 1271.85 4288.14 1271.85 4288.05 1272.29 4287.98 1272.78 4287.93 1273.31 4287.88 1273.83 4287.85 1274.41 4287.85 1275.03 4287.85 1276.91 4288.24 1278.28 4289.01 1279.14 4289.77 1280.01 4290.97 1280.44 4292.59 1280.44 4293.44 1280.44 4294.24 1280.35 4295 1280.17 4295.76 1279.98 4296.5 1279.7 4297.24 1279.32 4297.97 1278.94 4298.71 1278.46 4299.45 1277.86 4300.19 1277.27 4300.97 1276.56 4301.78 1275.73L4303.72 1277.82C4301.72 1279.81 4299.72 1281.3 4297.73 1282.3 4295.73 1283.3 4293.59 1283.8 4291.3 1283.8 4289.95 1283.8 4288.76 1283.6 4287.71 1283.19 4286.67 1282.79 4285.79 1282.2 4285.07 1281.42 4284.36 1280.64 4283.81 1279.7 4283.44 1278.59 4283.07 1277.47 4282.89 1276.22 4282.89 1274.82 4282.89 1273.84 4282.97 1272.82 4283.14 1271.75 4283.32 1270.69 4283.58 1269.63 4283.95 1268.57 4284.31 1267.51 4284.76 1266.48 4285.29 1265.47 4285.83 1264.46 4286.46 1263.51 4287.18 1262.63 4288.63 1260.84 4290.38 1259.44 4292.42 1258.43 4294.47 1257.42 4296.7 1256.91 4299.11 1256.91ZM4351.7 1250.88 4355.74 1250.88 4354.26 1257.46 4363.06 1257.46 4362.47 1260.33 4353.69 1260.33 4351.05 1271.17C4350.88 1271.9 4350.74 1272.55 4350.63 1273.13 4350.52 1273.7 4350.42 1274.23 4350.36 1274.69 4350.29 1275.16 4350.24 1275.58 4350.21 1275.96 4350.19 1276.34 4350.17 1276.69 4350.17 1277.02 4350.17 1278.06 4350.39 1278.87 4350.82 1279.45 4351.25 1280.04 4351.96 1280.33 4352.94 1280.33 4353.77 1280.33 4354.65 1280.03 4355.58 1279.41 4356.51 1278.8 4357.58 1277.84 4358.77 1276.53L4360.55 1278.34C4359.67 1279.32 4358.83 1280.16 4358.04 1280.85 4357.25 1281.54 4356.47 1282.11 4355.71 1282.55 4354.95 1282.99 4354.2 1283.31 4353.46 1283.5 4352.72 1283.7 4351.96 1283.8 4351.18 1283.8 4349.13 1283.8 4347.6 1283.32 4346.59 1282.35 4345.58 1281.39 4345.08 1279.96 4345.08 1278.08 4345.08 1277.44 4345.12 1276.74 4345.22 1275.97 4345.31 1275.21 4345.45 1274.46 4345.62 1273.73L4348.7 1260.33 4344.25 1260.33 4344.77 1258.34C4345.8 1258.34 4346.61 1258.24 4347.19 1258.04 4347.76 1257.84 4348.25 1257.57 4348.65 1257.22 4348.91 1256.98 4349.16 1256.68 4349.4 1256.33 4349.64 1255.98 4349.88 1255.55 4350.12 1255.05 4350.36 1254.55 4350.61 1253.96 4350.86 1253.28 4351.11 1252.6 4351.39 1251.8 4351.7 1250.88Z" fill="#7030A0" fill-rule="evenodd"/><text fill="#000000" fill-opacity="0" font-family="Arial,Arial_MSFontService,sans-serif" font-size="32.918" x="4282.89" y="1279.69">𝑒𝑥𝑡</text><rect x="2335.5" y="549.5" width="1782" height="756" stroke="#0F0F0F" stroke-width="6.875" stroke-linejoin="round" stroke-miterlimit="10" fill="#E7E7E7"/><path d="M2.29168 22.9168 2.29202 717.634-2.29132 717.634-2.29166 22.9168ZM-13.75 27.5 0 0 13.75 27.5ZM13.7503 713.051 0.000360892 740.551-13.7497 713.051Z" fill="#0F0F0F" transform="matrix(1 0 0 -1 2938.5 1294.05)"/><path d="M3212.51 2283.79 3246.23 2283.79 3243.7 2295.27 3239.14 2295.27C3239.02 2293.01 3238.81 2291.43 3238.5 2290.53 3238.19 2289.62 3237.71 2288.97 3237.07 2288.57 3236.43 2288.16 3235.53 2287.96 3234.36 2287.96L3226.31 2287.96 3222.39 2305.78 3227.16 2305.78C3228.57 2305.78 3229.7 2305.33 3230.57 2304.43 3231.44 2303.53 3232.31 2302.06 3233.19 2300.04L3237.11 2300.04 3233.37 2315.94 3229.69 2315.94C3229.69 2314.28 3229.61 2313.04 3229.43 2312.23 3229.25 2311.43 3228.93 2310.84 3228.48 2310.49 3228.03 2310.13 3227.33 2309.95 3226.38 2309.95L3221.5 2309.95 3218.65 2322.82C3218.48 2323.58 3218.36 2324.24 3218.29 2324.8 3218.22 2325.36 3218.18 2326.09 3218.18 2326.99 3218.18 2328.08 3218.46 2328.86 3219.02 2329.31 3219.58 2329.76 3220.45 2330.02 3221.64 2330.09L3221.14 2332.44 3202.71 2332.44 3203.21 2330.09C3204.57 2329.71 3205.56 2329.05 3206.21 2328.1 3206.85 2327.15 3207.45 2325.39 3208.02 2322.82L3214.51 2293.41C3214.82 2292.01 3214.97 2290.62 3214.97 2289.24 3214.97 2288.25 3214.74 2287.51 3214.28 2287.05 3213.82 2286.59 3213.06 2286.29 3212.02 2286.14Z" fill="#F70146" fill-rule="evenodd"/><text fill="#000000" fill-opacity="0" font-family="Arial,Arial_MSFontService,sans-serif" font-size="48.6548" x="3202.71" y="2326.36">𝑭</text><rect x="2335.5" y="1381.5" width="1782" height="756" stroke="#0F0F0F" stroke-width="6.875" stroke-linejoin="round" stroke-miterlimit="10" fill="#E7E7E7"/><rect x="2335.5" y="1301.5" width="1782" height="80.0001" stroke="#0F0F0F" stroke-width="6.875" stroke-linejoin="round" stroke-miterlimit="10" fill="#878787"/><path d="M2358.42 1029.21 4094.99 1029.21 4094.99 1033.79 2358.42 1033.79ZM2363 1045.25 2335.5 1031.5 2363 1017.75ZM4090.41 1017.75 4117.91 1031.5 4090.41 1045.25Z" fill="#0F0F0F"/><path d="M2960.31 862.839 2974.57 862.839 2974.17 864.586C2973.27 864.776 2972.62 864.99 2972.23 865.227 2971.84 865.465 2971.49 865.821 2971.18 866.297 2970.87 866.772 2970.55 867.515 2970.22 868.524 2969.89 869.534 2969.47 871.18 2968.97 873.461L2966.55 884.368 2985.69 884.368 2988.11 873.426C2988.33 872.451 2988.51 871.412 2988.66 870.307 2988.82 869.202 2988.9 868.328 2988.9 867.687 2988.9 866.57 2988.62 865.792 2988.06 865.352 2987.5 864.912 2986.61 864.657 2985.4 864.586L2985.79 862.839 3000.05 862.839 2999.66 864.586C2998.76 864.776 2998.11 864.99 2997.72 865.227 2997.33 865.465 2996.98 865.821 2996.67 866.297 2996.36 866.772 2996.04 867.515 2995.7 868.524 2995.37 869.534 2994.96 871.18 2994.46 873.461L2988.36 901.121C2988.05 902.523 2987.85 903.634 2987.76 904.454 2987.66 905.274 2987.61 906.017 2987.61 906.682 2987.61 907.751 2987.88 908.506 2988.41 908.945 2988.95 909.385 2989.85 909.652 2991.11 909.747L2990.71 911.494 2976.46 911.494 2976.85 909.747C2977.75 909.605 2978.43 909.373 2978.88 909.052 2979.33 908.732 2979.71 908.286 2980.02 907.716 2980.33 907.145 2980.61 906.45 2980.88 905.63 2981.14 904.811 2981.53 903.224 2982.05 900.872L2984.97 887.648 2965.83 887.648 2962.88 901.121C2962.61 902.31 2962.42 903.29 2962.3 904.062 2962.19 904.834 2962.13 905.708 2962.13 906.682 2962.13 907.704 2962.36 908.44 2962.84 908.892 2963.31 909.343 2964.24 909.629 2965.62 909.747L2965.23 911.494 2950.97 911.494 2951.36 909.747C2952.27 909.605 2952.94 909.373 2953.39 909.052 2953.85 908.732 2954.23 908.286 2954.53 907.716 2954.84 907.145 2955.13 906.45 2955.39 905.63 2955.65 904.811 2956.04 903.224 2956.57 900.872L2962.63 873.426C2962.84 872.451 2963.02 871.412 2963.18 870.307 2963.33 869.202 2963.41 868.328 2963.41 867.687 2963.41 866.57 2963.13 865.792 2962.57 865.352 2962.01 864.912 2961.13 864.657 2959.92 864.586Z" fill-rule="evenodd"/><text fill="#000000" fill-opacity="0" font-family="Arial,Arial_MSFontService,sans-serif" font-size="48.6548" x="2950.97" y="905.412">𝐻</text><path d="M3213.85 964.145 3228.11 964.145 3227.72 965.892C3226.81 966.082 3226.17 966.296 3225.77 966.533 3225.38 966.771 3225.03 967.128 3224.72 967.603 3224.41 968.078 3224.09 968.821 3223.76 969.831 3223.43 970.841 3223.01 972.486 3222.51 974.767L3214.88 1009.52 3223.65 1009.52C3225.24 1009.52 3226.5 1009.37 3227.41 1009.06 3228.33 1008.75 3229.2 1008.18 3230.02 1007.36 3230.83 1006.54 3231.64 1005.43 3232.42 1004.03 3233.21 1002.63 3234 1000.88 3234.81 998.792L3238.27 998.792 3234.67 1012.8 3204.51 1012.8 3204.9 1011.05C3205.81 1010.91 3206.48 1010.68 3206.94 1010.36 3207.39 1010.04 3207.77 1009.59 3208.08 1009.02 3208.38 1008.45 3208.67 1007.76 3208.93 1006.94 3209.19 1006.12 3209.58 1004.53 3210.11 1002.18L3216.17 974.732C3216.69 972.355 3216.95 970.442 3216.95 968.993 3216.95 967.876 3216.67 967.098 3216.11 966.658 3215.56 966.219 3214.67 965.963 3213.46 965.892Z" fill-rule="evenodd"/><text fill="#000000" fill-opacity="0" font-family="Arial,Arial_MSFontService,sans-serif" font-size="48.6548" x="3204.51" y="1006.72">𝐿</text><path d="M2086 1343 4463.42 1343" stroke="#0F0F0F" stroke-width="10.3125" stroke-miterlimit="8" stroke-dasharray="82.5 30.9375 10.3125 30.9375" fill="none" fill-rule="evenodd"/><path d="M1.97127e-06-10.3125 1836.41-10.3121 1836.41 10.3129-1.97127e-06 10.3125ZM1826.1-30.9372 1887.97 0.000360892 1826.1 30.9378Z" fill="#7030A0" transform="matrix(1 0 0 -1 2415.5 1343.5)"/><path d="M2331.5 551.5 4117.56 551.5" stroke="#F70146" stroke-width="20.625" stroke-miterlimit="8" fill="none" fill-rule="evenodd"/><path d="M2.33143e-05-6.875 72.0461-6.87476 72.046 6.87524-2.33143e-05 6.875ZM65.1711-20.6248 106.421 0.000360892 65.171 20.6252Z" fill="#F70146" transform="matrix(1.83697e-16 1 1 -1.83697e-16 2417 434)"/><path d="M2.33143e-05-6.875 72.0461-6.87476 72.046 6.87524-2.33143e-05 6.875ZM65.1711-20.6248 106.421 0.000360892 65.171 20.6252Z" fill="#F70146" transform="matrix(1.83697e-16 1 1 -1.83697e-16 2540 434)"/><path d="M2.33143e-05-6.875 72.0461-6.87476 72.046 6.87524-2.33143e-05 6.875ZM65.1711-20.6248 106.421 0.000360892 65.171 20.6252Z" fill="#F70146" transform="matrix(1.83697e-16 1 1 -1.83697e-16 2912 434)"/><path d="M2.33143e-05-6.875 72.0461-6.87476 72.046 6.87524-2.33143e-05 6.875ZM65.1711-20.6248 106.421 0.000360892 65.171 20.6252Z" fill="#F70146" transform="matrix(1.83697e-16 1 1 -1.83697e-16 3283 434)"/><path d="M2.33143e-05-6.875 72.0461-6.87476 72.046 6.87524-2.33143e-05 6.875ZM65.1711-20.6248 106.421 0.000360892 65.171 20.6252Z" fill="#F70146" transform="matrix(1.83697e-16 1 1 -1.83697e-16 3655 434)"/><path d="M2.33143e-05-6.875 72.0461-6.87476 72.046 6.87524-2.33143e-05 6.875ZM65.1711-20.6248 106.421 0.000360892 65.171 20.6252Z" fill="#F70146" transform="matrix(1.83697e-16 1 1 -1.83697e-16 4026 434)"/><path d="M2.33143e-05-6.875 72.0461-6.87476 72.046 6.87524-2.33143e-05 6.875ZM65.1711-20.6248 106.421 0.000360892 65.171 20.6252Z" fill="#F70146" transform="matrix(1.83697e-16 1 1 -1.83697e-16 2664 434)"/><path d="M2.33143e-05-6.875 72.0461-6.87476 72.046 6.87524-2.33143e-05 6.875ZM65.1711-20.6248 106.421 0.000360892 65.171 20.6252Z" fill="#F70146" transform="matrix(1.83697e-16 1 1 -1.83697e-16 3036 434)"/><path d="M2.33143e-05-6.875 72.0461-6.87476 72.046 6.87524-2.33143e-05 6.875ZM65.1711-20.6248 106.421 0.000360892 65.171 20.6252Z" fill="#F70146" transform="matrix(1.83697e-16 1 1 -1.83697e-16 3407 434)"/><path d="M2.33143e-05-6.875 72.0461-6.87476 72.046 6.87524-2.33143e-05 6.875ZM65.1711-20.6248 106.421 0.000360892 65.171 20.6252Z" fill="#F70146" transform="matrix(1.83697e-16 1 1 -1.83697e-16 3779 434)"/><path d="M2.33143e-05-6.875 72.0461-6.87476 72.046 6.87524-2.33143e-05 6.875ZM65.1711-20.6248 106.421 0.000360892 65.171 20.6252Z" fill="#F70146" transform="matrix(1.83697e-16 1 1 -1.83697e-16 2788 434)"/><path d="M2.33143e-05-6.875 72.0461-6.87476 72.046 6.87524-2.33143e-05 6.875ZM65.1711-20.6248 106.421 0.000360892 65.171 20.6252Z" fill="#F70146" transform="matrix(1.83697e-16 1 1 -1.83697e-16 3159 434)"/><path d="M2.33143e-05-6.875 72.0461-6.87476 72.046 6.87524-2.33143e-05 6.875ZM65.1711-20.6248 106.421 0.000360892 65.171 20.6252Z" fill="#F70146" transform="matrix(1.83697e-16 1 1 -1.83697e-16 3531 434)"/><path d="M2.33143e-05-6.875 72.0461-6.87476 72.046 6.87524-2.33143e-05 6.875ZM65.1711-20.6248 106.421 0.000360892 65.171 20.6252Z" fill="#F70146" transform="matrix(1.83697e-16 1 1 -1.83697e-16 3902 434)"/><path d="M3213.37 349.936 3247.09 349.936 3244.56 361.414 3240 361.414C3239.88 359.156 3239.67 357.576 3239.36 356.673 3239.05 355.77 3238.57 355.116 3237.93 354.712 3237.29 354.308 3236.39 354.106 3235.22 354.106L3227.17 354.106 3223.25 371.929 3228.02 371.929C3229.42 371.929 3230.56 371.477 3231.43 370.574 3232.29 369.671 3233.17 368.21 3234.05 366.19L3237.97 366.19 3234.22 382.087 3230.55 382.087C3230.55 380.424 3230.46 379.188 3230.29 378.38 3230.11 377.572 3229.79 376.99 3229.34 376.634 3228.89 376.277 3228.19 376.099 3227.24 376.099L3222.35 376.099 3219.5 388.967C3219.34 389.727 3219.22 390.387 3219.15 390.945 3219.08 391.504 3219.04 392.234 3219.04 393.137 3219.04 394.23 3219.32 395.003 3219.88 395.454 3220.44 395.906 3221.31 396.167 3222.5 396.238L3222 398.591 3203.57 398.591 3204.07 396.238C3205.42 395.858 3206.42 395.193 3207.06 394.242 3207.7 393.292 3208.31 391.533 3208.88 388.967L3215.37 359.56C3215.68 358.158 3215.83 356.768 3215.83 355.39 3215.83 354.392 3215.6 353.661 3215.14 353.198 3214.67 352.734 3213.92 352.431 3212.87 352.289Z" fill="#F70146" fill-rule="evenodd"/><text fill="#000000" fill-opacity="0" font-family="Arial,Arial_MSFontService,sans-serif" font-size="48.6548" x="3203.57" y="392.509">𝑭</text><path d="M4117.56 2134.5 2331.5 2134.5" stroke="#F70146" stroke-width="20.625" stroke-miterlimit="8" fill="none" fill-rule="evenodd"/><path d="M2.33143e-05-6.875 72.0461-6.87476 72.046 6.87524-2.33143e-05 6.875ZM65.1711-20.6248 106.421 0.000360892 65.171 20.6252Z" fill="#F70146" transform="matrix(-6.12323e-17 -1 -1 6.12323e-17 4032 2251.42)"/><path d="M2.33143e-05-6.875 72.0461-6.87476 72.046 6.87524-2.33143e-05 6.875ZM65.1711-20.6248 106.421 0.000360892 65.171 20.6252Z" fill="#F70146" transform="matrix(-6.12323e-17 -1 -1 6.12323e-17 3908 2251.42)"/><path d="M2.33143e-05-6.875 72.0461-6.87476 72.046 6.87524-2.33143e-05 6.875ZM65.1711-20.6248 106.421 0.000360892 65.171 20.6252Z" fill="#F70146" transform="matrix(-6.12323e-17 -1 -1 6.12323e-17 3537 2251.42)"/><path d="M2.33143e-05-6.875 72.0461-6.87476 72.046 6.87524-2.33143e-05 6.875ZM65.1711-20.6248 106.421 0.000360892 65.171 20.6252Z" fill="#F70146" transform="matrix(-6.12323e-17 -1 -1 6.12323e-17 3165 2251.42)"/><path d="M2.33143e-05-6.875 72.0461-6.87476 72.046 6.87524-2.33143e-05 6.875ZM65.1711-20.6248 106.421 0.000360892 65.171 20.6252Z" fill="#F70146" transform="matrix(-6.12323e-17 -1 -1 6.12323e-17 2794 2251.42)"/><path d="M2.33143e-05-6.875 72.0461-6.87476 72.046 6.87524-2.33143e-05 6.875ZM65.1711-20.6248 106.421 0.000360892 65.171 20.6252Z" fill="#F70146" transform="matrix(-6.12323e-17 -1 -1 6.12323e-17 2422 2251.42)"/><path d="M2.33143e-05-6.875 72.0461-6.87476 72.046 6.87524-2.33143e-05 6.875ZM65.1711-20.6248 106.421 0.000360892 65.171 20.6252Z" fill="#F70146" transform="matrix(-6.12323e-17 -1 -1 6.12323e-17 3784 2251.42)"/><path d="M2.33143e-05-6.875 72.0461-6.87476 72.046 6.87524-2.33143e-05 6.875ZM65.1711-20.6248 106.421 0.000360892 65.171 20.6252Z" fill="#F70146" transform="matrix(-6.12323e-17 -1 -1 6.12323e-17 3413 2251.42)"/><path d="M2.33143e-05-6.875 72.0461-6.87476 72.046 6.87524-2.33143e-05 6.875ZM65.1711-20.6248 106.421 0.000360892 65.171 20.6252Z" fill="#F70146" transform="matrix(-6.12323e-17 -1 -1 6.12323e-17 3041 2251.42)"/><path d="M2.33143e-05-6.875 72.0461-6.87476 72.046 6.87524-2.33143e-05 6.875ZM65.1711-20.6248 106.421 0.000360892 65.171 20.6252Z" fill="#F70146" transform="matrix(-6.12323e-17 -1 -1 6.12323e-17 2670 2251.42)"/><path d="M2.33143e-05-6.875 72.0461-6.87476 72.046 6.87524-2.33143e-05 6.875ZM65.1711-20.6248 106.421 0.000360892 65.171 20.6252Z" fill="#F70146" transform="matrix(-6.12323e-17 -1 -1 6.12323e-17 3660 2251.42)"/><path d="M2.33143e-05-6.875 72.0461-6.87476 72.046 6.87524-2.33143e-05 6.875ZM65.1711-20.6248 106.421 0.000360892 65.171 20.6252Z" fill="#F70146" transform="matrix(-6.12323e-17 -1 -1 6.12323e-17 3289 2251.42)"/><path d="M2.33143e-05-6.875 72.0461-6.87476 72.046 6.87524-2.33143e-05 6.875ZM65.1711-20.6248 106.421 0.000360892 65.171 20.6252Z" fill="#F70146" transform="matrix(-6.12323e-17 -1 -1 6.12323e-17 2918 2251.42)"/><path d="M2.33143e-05-6.875 72.0461-6.87476 72.046 6.87524-2.33143e-05 6.875ZM65.1711-20.6248 106.421 0.000360892 65.171 20.6252Z" fill="#F70146" transform="matrix(-6.12323e-17 -1 -1 6.12323e-17 2546 2251.42)"/></g></svg>