<?xml version="1.0" encoding="utf-8" standalone="no"?>
<!DOCTYPE svg PUBLIC "-//W3C//DTD SVG 1.1//EN"
  "http://www.w3.org/Graphics/SVG/1.1/DTD/svg11.dtd">
<svg height="288pt" version="1.1" viewBox="0 0 432 288" width="432pt" xmlns="http://www.w3.org/2000/svg" xmlns:xlink="http://www.w3.org/1999/xlink">
 <metadata>
  <rdf:RDF xmlns:cc="http://creativecommons.org/ns#" xmlns:dc="http://purl.org/dc/elements/1.1/" xmlns:rdf="http://www.w3.org/1999/02/22-rdf-syntax-ns#">
   <cc:Work>
    <dc:type rdf:resource="http://purl.org/dc/dcmitype/StillImage"/>
    <dc:date>2021-12-02T15:52:29.009035</dc:date>
    <dc:format>image/svg+xml</dc:format>
    <dc:creator>
     <cc:Agent>
      <dc:title>Matplotlib v3.4.2, https://matplotlib.org/</dc:title>
     </cc:Agent>
    </dc:creator>
   </cc:Work>
  </rdf:RDF>
 </metadata>
 <defs>
  <style type="text/css">*{stroke-linecap:butt;stroke-linejoin:round;}</style>
 </defs>
 <g id="figure_1">
  <g id="patch_1">
   <path d="M 0 288 
L 432 288 
L 432 0 
L 0 0 
z
" style="fill:#ffffff;"/>
  </g>
  <g id="axes_1">
   <g id="patch_2">
    <path d="M 54.725 241.8 
L 207.4125 241.8 
L 207.4125 14.8 
L 54.725 14.8 
z
" style="fill:#ffffff;"/>
   </g>
   <g id="matplotlib.axis_1">
    <g id="xtick_1">
     <g id="line2d_1">
      <defs>
       <path d="M 0 0 
L 0 3.5 
" id="mc100b8b937" style="stroke:#000000;stroke-width:0.8;"/>
      </defs>
      <g>
       <use style="stroke:#000000;stroke-width:0.8;" x="54.725" xlink:href="#mc100b8b937" y="241.8"/>
      </g>
     </g>
     <g id="text_1">
      <!-- 0 -->
      <g transform="translate(51.54375 256.398438)scale(0.1 -0.1)">
       <defs>
        <path d="M 2034 4250 
Q 1547 4250 1301 3770 
Q 1056 3291 1056 2328 
Q 1056 1369 1301 889 
Q 1547 409 2034 409 
Q 2525 409 2770 889 
Q 3016 1369 3016 2328 
Q 3016 3291 2770 3770 
Q 2525 4250 2034 4250 
z
M 2034 4750 
Q 2819 4750 3233 4129 
Q 3647 3509 3647 2328 
Q 3647 1150 3233 529 
Q 2819 -91 2034 -91 
Q 1250 -91 836 529 
Q 422 1150 422 2328 
Q 422 3509 836 4129 
Q 1250 4750 2034 4750 
z
" id="DejaVuSans-30" transform="scale(0.015625)"/>
       </defs>
       <use xlink:href="#DejaVuSans-30"/>
      </g>
     </g>
    </g>
    <g id="xtick_2">
     <g id="line2d_2">
      <g>
       <use style="stroke:#000000;stroke-width:0.8;" x="105.620833" xlink:href="#mc100b8b937" y="241.8"/>
      </g>
     </g>
     <g id="text_2">
      <!-- 5 -->
      <g transform="translate(102.439583 256.398438)scale(0.1 -0.1)">
       <defs>
        <path d="M 691 4666 
L 3169 4666 
L 3169 4134 
L 1269 4134 
L 1269 2991 
Q 1406 3038 1543 3061 
Q 1681 3084 1819 3084 
Q 2600 3084 3056 2656 
Q 3513 2228 3513 1497 
Q 3513 744 3044 326 
Q 2575 -91 1722 -91 
Q 1428 -91 1123 -41 
Q 819 9 494 109 
L 494 744 
Q 775 591 1075 516 
Q 1375 441 1709 441 
Q 2250 441 2565 725 
Q 2881 1009 2881 1497 
Q 2881 1984 2565 2268 
Q 2250 2553 1709 2553 
Q 1456 2553 1204 2497 
Q 953 2441 691 2322 
L 691 4666 
z
" id="DejaVuSans-35" transform="scale(0.015625)"/>
       </defs>
       <use xlink:href="#DejaVuSans-35"/>
      </g>
     </g>
    </g>
    <g id="xtick_3">
     <g id="line2d_3">
      <g>
       <use style="stroke:#000000;stroke-width:0.8;" x="156.516667" xlink:href="#mc100b8b937" y="241.8"/>
      </g>
     </g>
     <g id="text_3">
      <!-- 10 -->
      <g transform="translate(150.154167 256.398438)scale(0.1 -0.1)">
       <defs>
        <path d="M 794 531 
L 1825 531 
L 1825 4091 
L 703 3866 
L 703 4441 
L 1819 4666 
L 2450 4666 
L 2450 531 
L 3481 531 
L 3481 0 
L 794 0 
L 794 531 
z
" id="DejaVuSans-31" transform="scale(0.015625)"/>
       </defs>
       <use xlink:href="#DejaVuSans-31"/>
       <use x="63.623047" xlink:href="#DejaVuSans-30"/>
      </g>
     </g>
    </g>
    <g id="xtick_4">
     <g id="line2d_4">
      <g>
       <use style="stroke:#000000;stroke-width:0.8;" x="207.4125" xlink:href="#mc100b8b937" y="241.8"/>
      </g>
     </g>
     <g id="text_4">
      <!-- 15 -->
      <g transform="translate(201.05 256.398438)scale(0.1 -0.1)">
       <use xlink:href="#DejaVuSans-31"/>
       <use x="63.623047" xlink:href="#DejaVuSans-35"/>
      </g>
     </g>
    </g>
    <g id="text_5">
     <!-- $u_x$ in mm -->
     <g transform="translate(108.16875 270.076563)scale(0.1 -0.1)">
      <defs>
       <path d="M 428 1388 
L 838 3500 
L 1416 3500 
L 1006 1409 
Q 975 1256 961 1147 
Q 947 1038 947 966 
Q 947 700 1109 554 
Q 1272 409 1569 409 
Q 2031 409 2368 721 
Q 2706 1034 2809 1563 
L 3194 3500 
L 3769 3500 
L 3091 0 
L 2516 0 
L 2631 550 
Q 2388 244 2052 76 
Q 1716 -91 1338 -91 
Q 878 -91 622 161 
Q 366 413 366 863 
Q 366 956 381 1097 
Q 397 1238 428 1388 
z
" id="DejaVuSans-Oblique-75" transform="scale(0.015625)"/>
       <path d="M 3841 3500 
L 2234 1784 
L 3219 0 
L 2559 0 
L 1819 1388 
L 531 0 
L -166 0 
L 1556 1844 
L 641 3500 
L 1300 3500 
L 1972 2234 
L 3144 3500 
L 3841 3500 
z
" id="DejaVuSans-Oblique-78" transform="scale(0.015625)"/>
       <path id="DejaVuSans-20" transform="scale(0.015625)"/>
       <path d="M 603 3500 
L 1178 3500 
L 1178 0 
L 603 0 
L 603 3500 
z
M 603 4863 
L 1178 4863 
L 1178 4134 
L 603 4134 
L 603 4863 
z
" id="DejaVuSans-69" transform="scale(0.015625)"/>
       <path d="M 3513 2113 
L 3513 0 
L 2938 0 
L 2938 2094 
Q 2938 2591 2744 2837 
Q 2550 3084 2163 3084 
Q 1697 3084 1428 2787 
Q 1159 2491 1159 1978 
L 1159 0 
L 581 0 
L 581 3500 
L 1159 3500 
L 1159 2956 
Q 1366 3272 1645 3428 
Q 1925 3584 2291 3584 
Q 2894 3584 3203 3211 
Q 3513 2838 3513 2113 
z
" id="DejaVuSans-6e" transform="scale(0.015625)"/>
       <path d="M 3328 2828 
Q 3544 3216 3844 3400 
Q 4144 3584 4550 3584 
Q 5097 3584 5394 3201 
Q 5691 2819 5691 2113 
L 5691 0 
L 5113 0 
L 5113 2094 
Q 5113 2597 4934 2840 
Q 4756 3084 4391 3084 
Q 3944 3084 3684 2787 
Q 3425 2491 3425 1978 
L 3425 0 
L 2847 0 
L 2847 2094 
Q 2847 2600 2669 2842 
Q 2491 3084 2119 3084 
Q 1678 3084 1418 2786 
Q 1159 2488 1159 1978 
L 1159 0 
L 581 0 
L 581 3500 
L 1159 3500 
L 1159 2956 
Q 1356 3278 1631 3431 
Q 1906 3584 2284 3584 
Q 2666 3584 2933 3390 
Q 3200 3197 3328 2828 
z
" id="DejaVuSans-6d" transform="scale(0.015625)"/>
      </defs>
      <use transform="translate(0 0.015625)" xlink:href="#DejaVuSans-Oblique-75"/>
      <use transform="translate(63.378906 -16.390625)scale(0.7)" xlink:href="#DejaVuSans-Oblique-78"/>
      <use transform="translate(107.539062 0.015625)" xlink:href="#DejaVuSans-20"/>
      <use transform="translate(139.326172 0.015625)" xlink:href="#DejaVuSans-69"/>
      <use transform="translate(167.109375 0.015625)" xlink:href="#DejaVuSans-6e"/>
      <use transform="translate(230.488281 0.015625)" xlink:href="#DejaVuSans-20"/>
      <use transform="translate(262.275391 0.015625)" xlink:href="#DejaVuSans-6d"/>
      <use transform="translate(359.6875 0.015625)" xlink:href="#DejaVuSans-6d"/>
     </g>
    </g>
   </g>
   <g id="matplotlib.axis_2">
    <g id="ytick_1">
     <g id="line2d_5">
      <defs>
       <path d="M 0 0 
L -3.5 0 
" id="mdd9e6d34fb" style="stroke:#000000;stroke-width:0.8;"/>
      </defs>
      <g>
       <use style="stroke:#000000;stroke-width:0.8;" x="54.725" xlink:href="#mdd9e6d34fb" y="241.8"/>
      </g>
     </g>
     <g id="text_6">
      <!-- 0 -->
      <g transform="translate(41.3625 245.599219)scale(0.1 -0.1)">
       <use xlink:href="#DejaVuSans-30"/>
      </g>
     </g>
    </g>
    <g id="ytick_2">
     <g id="line2d_6">
      <g>
       <use style="stroke:#000000;stroke-width:0.8;" x="54.725" xlink:href="#mdd9e6d34fb" y="203.966667"/>
      </g>
     </g>
     <g id="text_7">
      <!-- 50 -->
      <g transform="translate(35 207.765885)scale(0.1 -0.1)">
       <use xlink:href="#DejaVuSans-35"/>
       <use x="63.623047" xlink:href="#DejaVuSans-30"/>
      </g>
     </g>
    </g>
    <g id="ytick_3">
     <g id="line2d_7">
      <g>
       <use style="stroke:#000000;stroke-width:0.8;" x="54.725" xlink:href="#mdd9e6d34fb" y="166.133333"/>
      </g>
     </g>
     <g id="text_8">
      <!-- 100 -->
      <g transform="translate(28.6375 169.932552)scale(0.1 -0.1)">
       <use xlink:href="#DejaVuSans-31"/>
       <use x="63.623047" xlink:href="#DejaVuSans-30"/>
       <use x="127.246094" xlink:href="#DejaVuSans-30"/>
      </g>
     </g>
    </g>
    <g id="ytick_4">
     <g id="line2d_8">
      <g>
       <use style="stroke:#000000;stroke-width:0.8;" x="54.725" xlink:href="#mdd9e6d34fb" y="128.3"/>
      </g>
     </g>
     <g id="text_9">
      <!-- 150 -->
      <g transform="translate(28.6375 132.099219)scale(0.1 -0.1)">
       <use xlink:href="#DejaVuSans-31"/>
       <use x="63.623047" xlink:href="#DejaVuSans-35"/>
       <use x="127.246094" xlink:href="#DejaVuSans-30"/>
      </g>
     </g>
    </g>
    <g id="ytick_5">
     <g id="line2d_9">
      <g>
       <use style="stroke:#000000;stroke-width:0.8;" x="54.725" xlink:href="#mdd9e6d34fb" y="90.466667"/>
      </g>
     </g>
     <g id="text_10">
      <!-- 200 -->
      <g transform="translate(28.6375 94.265885)scale(0.1 -0.1)">
       <defs>
        <path d="M 1228 531 
L 3431 531 
L 3431 0 
L 469 0 
L 469 531 
Q 828 903 1448 1529 
Q 2069 2156 2228 2338 
Q 2531 2678 2651 2914 
Q 2772 3150 2772 3378 
Q 2772 3750 2511 3984 
Q 2250 4219 1831 4219 
Q 1534 4219 1204 4116 
Q 875 4013 500 3803 
L 500 4441 
Q 881 4594 1212 4672 
Q 1544 4750 1819 4750 
Q 2544 4750 2975 4387 
Q 3406 4025 3406 3419 
Q 3406 3131 3298 2873 
Q 3191 2616 2906 2266 
Q 2828 2175 2409 1742 
Q 1991 1309 1228 531 
z
" id="DejaVuSans-32" transform="scale(0.015625)"/>
       </defs>
       <use xlink:href="#DejaVuSans-32"/>
       <use x="63.623047" xlink:href="#DejaVuSans-30"/>
       <use x="127.246094" xlink:href="#DejaVuSans-30"/>
      </g>
     </g>
    </g>
    <g id="ytick_6">
     <g id="line2d_10">
      <g>
       <use style="stroke:#000000;stroke-width:0.8;" x="54.725" xlink:href="#mdd9e6d34fb" y="52.633333"/>
      </g>
     </g>
     <g id="text_11">
      <!-- 250 -->
      <g transform="translate(28.6375 56.432552)scale(0.1 -0.1)">
       <use xlink:href="#DejaVuSans-32"/>
       <use x="63.623047" xlink:href="#DejaVuSans-35"/>
       <use x="127.246094" xlink:href="#DejaVuSans-30"/>
      </g>
     </g>
    </g>
    <g id="ytick_7">
     <g id="line2d_11">
      <g>
       <use style="stroke:#000000;stroke-width:0.8;" x="54.725" xlink:href="#mdd9e6d34fb" y="14.8"/>
      </g>
     </g>
     <g id="text_12">
      <!-- 300 -->
      <g transform="translate(28.6375 18.599219)scale(0.1 -0.1)">
       <defs>
        <path d="M 2597 2516 
Q 3050 2419 3304 2112 
Q 3559 1806 3559 1356 
Q 3559 666 3084 287 
Q 2609 -91 1734 -91 
Q 1441 -91 1130 -33 
Q 819 25 488 141 
L 488 750 
Q 750 597 1062 519 
Q 1375 441 1716 441 
Q 2309 441 2620 675 
Q 2931 909 2931 1356 
Q 2931 1769 2642 2001 
Q 2353 2234 1838 2234 
L 1294 2234 
L 1294 2753 
L 1863 2753 
Q 2328 2753 2575 2939 
Q 2822 3125 2822 3475 
Q 2822 3834 2567 4026 
Q 2313 4219 1838 4219 
Q 1578 4219 1281 4162 
Q 984 4106 628 3988 
L 628 4550 
Q 988 4650 1302 4700 
Q 1616 4750 1894 4750 
Q 2613 4750 3031 4423 
Q 3450 4097 3450 3541 
Q 3450 3153 3228 2886 
Q 3006 2619 2597 2516 
z
" id="DejaVuSans-33" transform="scale(0.015625)"/>
       </defs>
       <use xlink:href="#DejaVuSans-33"/>
       <use x="63.623047" xlink:href="#DejaVuSans-30"/>
       <use x="127.246094" xlink:href="#DejaVuSans-30"/>
      </g>
     </g>
    </g>
    <g id="text_13">
     <!-- $F_x$ in N -->
     <g transform="translate(22.557812 144.9)rotate(-90)scale(0.1 -0.1)">
      <defs>
       <path d="M 1081 4666 
L 3756 4666 
L 3653 4134 
L 1606 4134 
L 1338 2759 
L 3188 2759 
L 3084 2228 
L 1234 2228 
L 800 0 
L 172 0 
L 1081 4666 
z
" id="DejaVuSans-Oblique-46" transform="scale(0.015625)"/>
       <path d="M 628 4666 
L 1478 4666 
L 3547 763 
L 3547 4666 
L 4159 4666 
L 4159 0 
L 3309 0 
L 1241 3903 
L 1241 0 
L 628 0 
L 628 4666 
z
" id="DejaVuSans-4e" transform="scale(0.015625)"/>
      </defs>
      <use transform="translate(0 0.015625)" xlink:href="#DejaVuSans-Oblique-46"/>
      <use transform="translate(57.519531 -16.390625)scale(0.7)" xlink:href="#DejaVuSans-Oblique-78"/>
      <use transform="translate(101.679688 0.015625)" xlink:href="#DejaVuSans-20"/>
      <use transform="translate(133.466797 0.015625)" xlink:href="#DejaVuSans-69"/>
      <use transform="translate(161.25 0.015625)" xlink:href="#DejaVuSans-6e"/>
      <use transform="translate(224.628906 0.015625)" xlink:href="#DejaVuSans-20"/>
      <use transform="translate(256.416016 0.015625)" xlink:href="#DejaVuSans-4e"/>
     </g>
    </g>
   </g>
   <g id="line2d_12">
    <path clip-path="url(#pc8d6cb574f)" d="M 54.725 241.8 
L 64.904167 226.881826 
L 75.083333 212.101247 
L 85.2625 197.542325 
L 95.441667 183.214314 
L 105.620833 169.058144 
L 115.8 154.958448 
L 125.979167 140.745768 
L 136.158333 126.185002 
L 146.3375 110.948297 
L 156.516667 94.56235 
L 166.695833 76.314394 
L 176.875 55.087652 
L 187.054167 29.038809 
L 195.997212 -1 
" style="fill:none;stroke:#1f77b4;stroke-linecap:square;stroke-width:1.5;"/>
    <defs>
     <path d="M 0 3 
C 0.795609 3 1.55874 2.683901 2.12132 2.12132 
C 2.683901 1.55874 3 0.795609 3 0 
C 3 -0.795609 2.683901 -1.55874 2.12132 -2.12132 
C 1.55874 -2.683901 0.795609 -3 0 -3 
C -0.795609 -3 -1.55874 -2.683901 -2.12132 -2.12132 
C -2.683901 -1.55874 -3 -0.795609 -3 0 
C -3 0.795609 -2.683901 1.55874 -2.12132 2.12132 
C -1.55874 2.683901 -0.795609 3 0 3 
z
" id="mfe31b3fd96" style="stroke:#1f77b4;"/>
    </defs>
    <g clip-path="url(#pc8d6cb574f)">
     <use style="fill:#1f77b4;stroke:#1f77b4;" x="54.725" xlink:href="#mfe31b3fd96" y="241.8"/>
     <use style="fill:#1f77b4;stroke:#1f77b4;" x="64.904167" xlink:href="#mfe31b3fd96" y="226.881826"/>
     <use style="fill:#1f77b4;stroke:#1f77b4;" x="75.083333" xlink:href="#mfe31b3fd96" y="212.101247"/>
     <use style="fill:#1f77b4;stroke:#1f77b4;" x="85.2625" xlink:href="#mfe31b3fd96" y="197.542325"/>
     <use style="fill:#1f77b4;stroke:#1f77b4;" x="95.441667" xlink:href="#mfe31b3fd96" y="183.214314"/>
     <use style="fill:#1f77b4;stroke:#1f77b4;" x="105.620833" xlink:href="#mfe31b3fd96" y="169.058144"/>
     <use style="fill:#1f77b4;stroke:#1f77b4;" x="115.8" xlink:href="#mfe31b3fd96" y="154.958448"/>
     <use style="fill:#1f77b4;stroke:#1f77b4;" x="125.979167" xlink:href="#mfe31b3fd96" y="140.745768"/>
     <use style="fill:#1f77b4;stroke:#1f77b4;" x="136.158333" xlink:href="#mfe31b3fd96" y="126.185002"/>
     <use style="fill:#1f77b4;stroke:#1f77b4;" x="146.3375" xlink:href="#mfe31b3fd96" y="110.948297"/>
     <use style="fill:#1f77b4;stroke:#1f77b4;" x="156.516667" xlink:href="#mfe31b3fd96" y="94.56235"/>
     <use style="fill:#1f77b4;stroke:#1f77b4;" x="166.695833" xlink:href="#mfe31b3fd96" y="76.314394"/>
     <use style="fill:#1f77b4;stroke:#1f77b4;" x="176.875" xlink:href="#mfe31b3fd96" y="55.087652"/>
     <use style="fill:#1f77b4;stroke:#1f77b4;" x="187.054167" xlink:href="#mfe31b3fd96" y="29.038809"/>
     <use style="fill:#1f77b4;stroke:#1f77b4;" x="195.997212" xlink:href="#mfe31b3fd96" y="-1"/>
    </g>
   </g>
   <g id="patch_3">
    <path d="M 54.725 241.8 
L 54.725 14.8 
" style="fill:none;stroke:#000000;stroke-linecap:square;stroke-linejoin:miter;stroke-width:0.8;"/>
   </g>
   <g id="patch_4">
    <path d="M 207.4125 241.8 
L 207.4125 14.8 
" style="fill:none;stroke:#000000;stroke-linecap:square;stroke-linejoin:miter;stroke-width:0.8;"/>
   </g>
   <g id="patch_5">
    <path d="M 54.725 241.8 
L 207.4125 241.8 
" style="fill:none;stroke:#000000;stroke-linecap:square;stroke-linejoin:miter;stroke-width:0.8;"/>
   </g>
   <g id="patch_6">
    <path d="M 54.725 14.8 
L 207.4125 14.8 
" style="fill:none;stroke:#000000;stroke-linecap:square;stroke-linejoin:miter;stroke-width:0.8;"/>
   </g>
  </g>
  <g id="axes_2">
   <g id="patch_7">
    <path d="M 268.5125 241.8 
L 421.2 241.8 
L 421.2 14.8 
L 268.5125 14.8 
z
" style="fill:#ffffff;"/>
   </g>
   <g id="matplotlib.axis_3">
    <g id="xtick_5">
     <g id="line2d_13">
      <g>
       <use style="stroke:#000000;stroke-width:0.8;" x="290.325" xlink:href="#mc100b8b937" y="241.8"/>
      </g>
     </g>
     <g id="text_14">
      <!-- −1.0 -->
      <g transform="translate(278.183594 256.398438)scale(0.1 -0.1)">
       <defs>
        <path d="M 678 2272 
L 4684 2272 
L 4684 1741 
L 678 1741 
L 678 2272 
z
" id="DejaVuSans-2212" transform="scale(0.015625)"/>
        <path d="M 684 794 
L 1344 794 
L 1344 0 
L 684 0 
L 684 794 
z
" id="DejaVuSans-2e" transform="scale(0.015625)"/>
       </defs>
       <use xlink:href="#DejaVuSans-2212"/>
       <use x="83.789062" xlink:href="#DejaVuSans-31"/>
       <use x="147.412109" xlink:href="#DejaVuSans-2e"/>
       <use x="179.199219" xlink:href="#DejaVuSans-30"/>
      </g>
     </g>
    </g>
    <g id="xtick_6">
     <g id="line2d_14">
      <g>
       <use style="stroke:#000000;stroke-width:0.8;" x="344.85625" xlink:href="#mc100b8b937" y="241.8"/>
      </g>
     </g>
     <g id="text_15">
      <!-- −0.5 -->
      <g transform="translate(332.714844 256.398438)scale(0.1 -0.1)">
       <use xlink:href="#DejaVuSans-2212"/>
       <use x="83.789062" xlink:href="#DejaVuSans-30"/>
       <use x="147.412109" xlink:href="#DejaVuSans-2e"/>
       <use x="179.199219" xlink:href="#DejaVuSans-35"/>
      </g>
     </g>
    </g>
    <g id="xtick_7">
     <g id="line2d_15">
      <g>
       <use style="stroke:#000000;stroke-width:0.8;" x="399.3875" xlink:href="#mc100b8b937" y="241.8"/>
      </g>
     </g>
     <g id="text_16">
      <!-- 0.0 -->
      <g transform="translate(391.435938 256.398438)scale(0.1 -0.1)">
       <use xlink:href="#DejaVuSans-30"/>
       <use x="63.623047" xlink:href="#DejaVuSans-2e"/>
       <use x="95.410156" xlink:href="#DejaVuSans-30"/>
      </g>
     </g>
    </g>
    <g id="text_17">
     <!-- $u_y$ in mm -->
     <g transform="translate(321.95625 270.078125)scale(0.1 -0.1)">
      <defs>
       <path d="M 1588 -325 
Q 1188 -997 936 -1164 
Q 684 -1331 294 -1331 
L -159 -1331 
L -63 -850 
L 269 -850 
Q 509 -850 678 -719 
Q 847 -588 1056 -206 
L 1234 128 
L 459 3500 
L 1069 3500 
L 1650 819 
L 3256 3500 
L 3859 3500 
L 1588 -325 
z
" id="DejaVuSans-Oblique-79" transform="scale(0.015625)"/>
      </defs>
      <use transform="translate(0 0.015625)" xlink:href="#DejaVuSans-Oblique-75"/>
      <use transform="translate(63.378906 -16.390625)scale(0.7)" xlink:href="#DejaVuSans-Oblique-79"/>
      <use transform="translate(107.539062 0.015625)" xlink:href="#DejaVuSans-20"/>
      <use transform="translate(139.326172 0.015625)" xlink:href="#DejaVuSans-69"/>
      <use transform="translate(167.109375 0.015625)" xlink:href="#DejaVuSans-6e"/>
      <use transform="translate(230.488281 0.015625)" xlink:href="#DejaVuSans-20"/>
      <use transform="translate(262.275391 0.015625)" xlink:href="#DejaVuSans-6d"/>
      <use transform="translate(359.6875 0.015625)" xlink:href="#DejaVuSans-6d"/>
     </g>
    </g>
   </g>
   <g id="matplotlib.axis_4">
    <g id="ytick_8">
     <g id="line2d_16">
      <g>
       <use style="stroke:#000000;stroke-width:0.8;" x="268.5125" xlink:href="#mdd9e6d34fb" y="241.8"/>
      </g>
     </g>
     <g id="text_18">
      <!-- 0 -->
      <g transform="translate(255.15 245.599219)scale(0.1 -0.1)">
       <use xlink:href="#DejaVuSans-30"/>
      </g>
     </g>
    </g>
    <g id="ytick_9">
     <g id="line2d_17">
      <g>
       <use style="stroke:#000000;stroke-width:0.8;" x="268.5125" xlink:href="#mdd9e6d34fb" y="203.966667"/>
      </g>
     </g>
     <g id="text_19">
      <!-- 50 -->
      <g transform="translate(248.7875 207.765885)scale(0.1 -0.1)">
       <use xlink:href="#DejaVuSans-35"/>
       <use x="63.623047" xlink:href="#DejaVuSans-30"/>
      </g>
     </g>
    </g>
    <g id="ytick_10">
     <g id="line2d_18">
      <g>
       <use style="stroke:#000000;stroke-width:0.8;" x="268.5125" xlink:href="#mdd9e6d34fb" y="166.133333"/>
      </g>
     </g>
     <g id="text_20">
      <!-- 100 -->
      <g transform="translate(242.425 169.932552)scale(0.1 -0.1)">
       <use xlink:href="#DejaVuSans-31"/>
       <use x="63.623047" xlink:href="#DejaVuSans-30"/>
       <use x="127.246094" xlink:href="#DejaVuSans-30"/>
      </g>
     </g>
    </g>
    <g id="ytick_11">
     <g id="line2d_19">
      <g>
       <use style="stroke:#000000;stroke-width:0.8;" x="268.5125" xlink:href="#mdd9e6d34fb" y="128.3"/>
      </g>
     </g>
     <g id="text_21">
      <!-- 150 -->
      <g transform="translate(242.425 132.099219)scale(0.1 -0.1)">
       <use xlink:href="#DejaVuSans-31"/>
       <use x="63.623047" xlink:href="#DejaVuSans-35"/>
       <use x="127.246094" xlink:href="#DejaVuSans-30"/>
      </g>
     </g>
    </g>
    <g id="ytick_12">
     <g id="line2d_20">
      <g>
       <use style="stroke:#000000;stroke-width:0.8;" x="268.5125" xlink:href="#mdd9e6d34fb" y="90.466667"/>
      </g>
     </g>
     <g id="text_22">
      <!-- 200 -->
      <g transform="translate(242.425 94.265885)scale(0.1 -0.1)">
       <use xlink:href="#DejaVuSans-32"/>
       <use x="63.623047" xlink:href="#DejaVuSans-30"/>
       <use x="127.246094" xlink:href="#DejaVuSans-30"/>
      </g>
     </g>
    </g>
    <g id="ytick_13">
     <g id="line2d_21">
      <g>
       <use style="stroke:#000000;stroke-width:0.8;" x="268.5125" xlink:href="#mdd9e6d34fb" y="52.633333"/>
      </g>
     </g>
     <g id="text_23">
      <!-- 250 -->
      <g transform="translate(242.425 56.432552)scale(0.1 -0.1)">
       <use xlink:href="#DejaVuSans-32"/>
       <use x="63.623047" xlink:href="#DejaVuSans-35"/>
       <use x="127.246094" xlink:href="#DejaVuSans-30"/>
      </g>
     </g>
    </g>
    <g id="ytick_14">
     <g id="line2d_22">
      <g>
       <use style="stroke:#000000;stroke-width:0.8;" x="268.5125" xlink:href="#mdd9e6d34fb" y="14.8"/>
      </g>
     </g>
     <g id="text_24">
      <!-- 300 -->
      <g transform="translate(242.425 18.599219)scale(0.1 -0.1)">
       <use xlink:href="#DejaVuSans-33"/>
       <use x="63.623047" xlink:href="#DejaVuSans-30"/>
       <use x="127.246094" xlink:href="#DejaVuSans-30"/>
      </g>
     </g>
    </g>
    <g id="text_25">
     <!-- $F_x$ in N -->
     <g transform="translate(236.345312 144.9)rotate(-90)scale(0.1 -0.1)">
      <use transform="translate(0 0.015625)" xlink:href="#DejaVuSans-Oblique-46"/>
      <use transform="translate(57.519531 -16.390625)scale(0.7)" xlink:href="#DejaVuSans-Oblique-78"/>
      <use transform="translate(101.679688 0.015625)" xlink:href="#DejaVuSans-20"/>
      <use transform="translate(133.466797 0.015625)" xlink:href="#DejaVuSans-69"/>
      <use transform="translate(161.25 0.015625)" xlink:href="#DejaVuSans-6e"/>
      <use transform="translate(224.628906 0.015625)" xlink:href="#DejaVuSans-20"/>
      <use transform="translate(256.416016 0.015625)" xlink:href="#DejaVuSans-4e"/>
     </g>
    </g>
   </g>
   <g id="line2d_23">
    <path clip-path="url(#p5bb9c07d94)" d="M 399.3875 241.8 
L 398.830712 226.881826 
L 397.178773 212.101247 
L 394.480779 197.542325 
L 390.805615 183.214314 
L 386.229867 169.058144 
L 380.826543 154.958448 
L 374.672008 140.745768 
L 367.889742 126.185002 
L 360.714056 110.948297 
L 353.526822 94.56235 
L 346.872032 76.314394 
L 341.476031 55.087652 
L 338.228349 29.038809 
L 338.072861 -1 
" style="fill:none;stroke:#1f77b4;stroke-linecap:square;stroke-width:1.5;"/>
    <g clip-path="url(#p5bb9c07d94)">
     <use style="fill:#1f77b4;stroke:#1f77b4;" x="399.3875" xlink:href="#mfe31b3fd96" y="241.8"/>
     <use style="fill:#1f77b4;stroke:#1f77b4;" x="398.830712" xlink:href="#mfe31b3fd96" y="226.881826"/>
     <use style="fill:#1f77b4;stroke:#1f77b4;" x="397.178773" xlink:href="#mfe31b3fd96" y="212.101247"/>
     <use style="fill:#1f77b4;stroke:#1f77b4;" x="394.480779" xlink:href="#mfe31b3fd96" y="197.542325"/>
     <use style="fill:#1f77b4;stroke:#1f77b4;" x="390.805615" xlink:href="#mfe31b3fd96" y="183.214314"/>
     <use style="fill:#1f77b4;stroke:#1f77b4;" x="386.229867" xlink:href="#mfe31b3fd96" y="169.058144"/>
     <use style="fill:#1f77b4;stroke:#1f77b4;" x="380.826543" xlink:href="#mfe31b3fd96" y="154.958448"/>
     <use style="fill:#1f77b4;stroke:#1f77b4;" x="374.672008" xlink:href="#mfe31b3fd96" y="140.745768"/>
     <use style="fill:#1f77b4;stroke:#1f77b4;" x="367.889742" xlink:href="#mfe31b3fd96" y="126.185002"/>
     <use style="fill:#1f77b4;stroke:#1f77b4;" x="360.714056" xlink:href="#mfe31b3fd96" y="110.948297"/>
     <use style="fill:#1f77b4;stroke:#1f77b4;" x="353.526822" xlink:href="#mfe31b3fd96" y="94.56235"/>
     <use style="fill:#1f77b4;stroke:#1f77b4;" x="346.872032" xlink:href="#mfe31b3fd96" y="76.314394"/>
     <use style="fill:#1f77b4;stroke:#1f77b4;" x="341.476031" xlink:href="#mfe31b3fd96" y="55.087652"/>
     <use style="fill:#1f77b4;stroke:#1f77b4;" x="338.228349" xlink:href="#mfe31b3fd96" y="29.038809"/>
     <use style="fill:#1f77b4;stroke:#1f77b4;" x="338.072861" xlink:href="#mfe31b3fd96" y="-1"/>
    </g>
   </g>
   <g id="patch_8">
    <path d="M 268.5125 241.8 
L 268.5125 14.8 
" style="fill:none;stroke:#000000;stroke-linecap:square;stroke-linejoin:miter;stroke-width:0.8;"/>
   </g>
   <g id="patch_9">
    <path d="M 421.2 241.8 
L 421.2 14.8 
" style="fill:none;stroke:#000000;stroke-linecap:square;stroke-linejoin:miter;stroke-width:0.8;"/>
   </g>
   <g id="patch_10">
    <path d="M 268.5125 241.8 
L 421.2 241.8 
" style="fill:none;stroke:#000000;stroke-linecap:square;stroke-linejoin:miter;stroke-width:0.8;"/>
   </g>
   <g id="patch_11">
    <path d="M 268.5125 14.8 
L 421.2 14.8 
" style="fill:none;stroke:#000000;stroke-linecap:square;stroke-linejoin:miter;stroke-width:0.8;"/>
   </g>
  </g>
 </g>
 <defs>
  <clipPath id="pc8d6cb574f">
   <rect height="227" width="152.6875" x="54.725" y="14.8"/>
  </clipPath>
  <clipPath id="p5bb9c07d94">
   <rect height="227" width="152.6875" x="268.5125" y="14.8"/>
  </clipPath>
 </defs>
</svg>
