<?xml version="1.0" encoding="utf-8" standalone="no"?>
<!DOCTYPE svg PUBLIC "-//W3C//DTD SVG 1.1//EN"
  "http://www.w3.org/Graphics/SVG/1.1/DTD/svg11.dtd">
<svg xmlns:xlink="http://www.w3.org/1999/xlink" width="432pt" height="288pt" viewBox="0 0 432 288" xmlns="http://www.w3.org/2000/svg" version="1.1">
 <metadata>
  <rdf:RDF xmlns:dc="http://purl.org/dc/elements/1.1/" xmlns:cc="http://creativecommons.org/ns#" xmlns:rdf="http://www.w3.org/1999/02/22-rdf-syntax-ns#">
   <cc:Work>
    <dc:type rdf:resource="http://purl.org/dc/dcmitype/StillImage"/>
    <dc:date>2024-02-23T00:28:09.630381</dc:date>
    <dc:format>image/svg+xml</dc:format>
    <dc:creator>
     <cc:Agent>
      <dc:title>Matplotlib v3.7.1, https://matplotlib.org/</dc:title>
     </cc:Agent>
    </dc:creator>
   </cc:Work>
  </rdf:RDF>
 </metadata>
 <defs>
  <style type="text/css">*{stroke-linejoin: round; stroke-linecap: butt}</style>
 </defs>
 <g id="figure_1">
  <g id="patch_1">
   <path d="M 0 288 
L 432 288 
L 432 0 
L 0 0 
z
" style="fill: #ffffff"/>
  </g>
  <g id="axes_1">
   <g id="patch_2">
    <path d="M 54 252 
L 388.8 252 
L 388.8 34.56 
L 54 34.56 
z
" style="fill: #ffffff"/>
   </g>
   <g id="matplotlib.axis_1">
    <g id="xtick_1">
     <g id="line2d_1">
      <defs>
       <path id="m811e71fae5" d="M 0 0 
L 0 3.5 
" style="stroke: #000000; stroke-width: 0.8"/>
      </defs>
      <g>
       <use xlink:href="#m811e71fae5" x="84.385672" y="252" style="stroke: #000000; stroke-width: 0.8"/>
      </g>
     </g>
     <g id="text_1">
      <!-- 100 -->
      <g transform="translate(74.841922 266.598437) scale(0.1 -0.1)">
       <defs>
        <path id="DejaVuSans-31" d="M 794 531 
L 1825 531 
L 1825 4091 
L 703 3866 
L 703 4441 
L 1819 4666 
L 2450 4666 
L 2450 531 
L 3481 531 
L 3481 0 
L 794 0 
L 794 531 
z
" transform="scale(0.015625)"/>
        <path id="DejaVuSans-30" d="M 2034 4250 
Q 1547 4250 1301 3770 
Q 1056 3291 1056 2328 
Q 1056 1369 1301 889 
Q 1547 409 2034 409 
Q 2525 409 2770 889 
Q 3016 1369 3016 2328 
Q 3016 3291 2770 3770 
Q 2525 4250 2034 4250 
z
M 2034 4750 
Q 2819 4750 3233 4129 
Q 3647 3509 3647 2328 
Q 3647 1150 3233 529 
Q 2819 -91 2034 -91 
Q 1250 -91 836 529 
Q 422 1150 422 2328 
Q 422 3509 836 4129 
Q 1250 4750 2034 4750 
z
" transform="scale(0.015625)"/>
       </defs>
       <use xlink:href="#DejaVuSans-31"/>
       <use xlink:href="#DejaVuSans-30" x="63.623047"/>
       <use xlink:href="#DejaVuSans-30" x="127.246094"/>
      </g>
     </g>
    </g>
    <g id="xtick_2">
     <g id="line2d_2">
      <g>
       <use xlink:href="#m811e71fae5" x="144.356997" y="252" style="stroke: #000000; stroke-width: 0.8"/>
      </g>
     </g>
     <g id="text_2">
      <!-- 150 -->
      <g transform="translate(134.813247 266.598437) scale(0.1 -0.1)">
       <defs>
        <path id="DejaVuSans-35" d="M 691 4666 
L 3169 4666 
L 3169 4134 
L 1269 4134 
L 1269 2991 
Q 1406 3038 1543 3061 
Q 1681 3084 1819 3084 
Q 2600 3084 3056 2656 
Q 3513 2228 3513 1497 
Q 3513 744 3044 326 
Q 2575 -91 1722 -91 
Q 1428 -91 1123 -41 
Q 819 9 494 109 
L 494 744 
Q 775 591 1075 516 
Q 1375 441 1709 441 
Q 2250 441 2565 725 
Q 2881 1009 2881 1497 
Q 2881 1984 2565 2268 
Q 2250 2553 1709 2553 
Q 1456 2553 1204 2497 
Q 953 2441 691 2322 
L 691 4666 
z
" transform="scale(0.015625)"/>
       </defs>
       <use xlink:href="#DejaVuSans-31"/>
       <use xlink:href="#DejaVuSans-35" x="63.623047"/>
       <use xlink:href="#DejaVuSans-30" x="127.246094"/>
      </g>
     </g>
    </g>
    <g id="xtick_3">
     <g id="line2d_3">
      <g>
       <use xlink:href="#m811e71fae5" x="204.328322" y="252" style="stroke: #000000; stroke-width: 0.8"/>
      </g>
     </g>
     <g id="text_3">
      <!-- 200 -->
      <g transform="translate(194.784572 266.598437) scale(0.1 -0.1)">
       <defs>
        <path id="DejaVuSans-32" d="M 1228 531 
L 3431 531 
L 3431 0 
L 469 0 
L 469 531 
Q 828 903 1448 1529 
Q 2069 2156 2228 2338 
Q 2531 2678 2651 2914 
Q 2772 3150 2772 3378 
Q 2772 3750 2511 3984 
Q 2250 4219 1831 4219 
Q 1534 4219 1204 4116 
Q 875 4013 500 3803 
L 500 4441 
Q 881 4594 1212 4672 
Q 1544 4750 1819 4750 
Q 2544 4750 2975 4387 
Q 3406 4025 3406 3419 
Q 3406 3131 3298 2873 
Q 3191 2616 2906 2266 
Q 2828 2175 2409 1742 
Q 1991 1309 1228 531 
z
" transform="scale(0.015625)"/>
       </defs>
       <use xlink:href="#DejaVuSans-32"/>
       <use xlink:href="#DejaVuSans-30" x="63.623047"/>
       <use xlink:href="#DejaVuSans-30" x="127.246094"/>
      </g>
     </g>
    </g>
    <g id="xtick_4">
     <g id="line2d_4">
      <g>
       <use xlink:href="#m811e71fae5" x="264.299647" y="252" style="stroke: #000000; stroke-width: 0.8"/>
      </g>
     </g>
     <g id="text_4">
      <!-- 250 -->
      <g transform="translate(254.755897 266.598437) scale(0.1 -0.1)">
       <use xlink:href="#DejaVuSans-32"/>
       <use xlink:href="#DejaVuSans-35" x="63.623047"/>
       <use xlink:href="#DejaVuSans-30" x="127.246094"/>
      </g>
     </g>
    </g>
    <g id="xtick_5">
     <g id="line2d_5">
      <g>
       <use xlink:href="#m811e71fae5" x="324.270973" y="252" style="stroke: #000000; stroke-width: 0.8"/>
      </g>
     </g>
     <g id="text_5">
      <!-- 300 -->
      <g transform="translate(314.727223 266.598437) scale(0.1 -0.1)">
       <defs>
        <path id="DejaVuSans-33" d="M 2597 2516 
Q 3050 2419 3304 2112 
Q 3559 1806 3559 1356 
Q 3559 666 3084 287 
Q 2609 -91 1734 -91 
Q 1441 -91 1130 -33 
Q 819 25 488 141 
L 488 750 
Q 750 597 1062 519 
Q 1375 441 1716 441 
Q 2309 441 2620 675 
Q 2931 909 2931 1356 
Q 2931 1769 2642 2001 
Q 2353 2234 1838 2234 
L 1294 2234 
L 1294 2753 
L 1863 2753 
Q 2328 2753 2575 2939 
Q 2822 3125 2822 3475 
Q 2822 3834 2567 4026 
Q 2313 4219 1838 4219 
Q 1578 4219 1281 4162 
Q 984 4106 628 3988 
L 628 4550 
Q 988 4650 1302 4700 
Q 1616 4750 1894 4750 
Q 2613 4750 3031 4423 
Q 3450 4097 3450 3541 
Q 3450 3153 3228 2886 
Q 3006 2619 2597 2516 
z
" transform="scale(0.015625)"/>
       </defs>
       <use xlink:href="#DejaVuSans-33"/>
       <use xlink:href="#DejaVuSans-30" x="63.623047"/>
       <use xlink:href="#DejaVuSans-30" x="127.246094"/>
      </g>
     </g>
    </g>
    <g id="xtick_6">
     <g id="line2d_6">
      <g>
       <use xlink:href="#m811e71fae5" x="384.242298" y="252" style="stroke: #000000; stroke-width: 0.8"/>
      </g>
     </g>
     <g id="text_6">
      <!-- 350 -->
      <g transform="translate(374.698548 266.598437) scale(0.1 -0.1)">
       <use xlink:href="#DejaVuSans-33"/>
       <use xlink:href="#DejaVuSans-35" x="63.623047"/>
       <use xlink:href="#DejaVuSans-30" x="127.246094"/>
      </g>
     </g>
    </g>
    <g id="text_7">
     <!-- $\sigma_{11}(x=0, y)$ in MPa $\longrightarrow$ -->
     <g transform="translate(163.1 280.278125) scale(0.1 -0.1)">
      <defs>
       <path id="DejaVuSans-Oblique-3c3" d="M 2219 3044 
Q 1744 3044 1422 2700 
Q 1081 2341 969 1747 
Q 844 1119 1044 756 
Q 1241 397 1706 397 
Q 2166 397 2503 759 
Q 2844 1122 2966 1747 
Q 3075 2319 2881 2700 
Q 2700 3044 2219 3044 
z
M 2309 3503 
L 4219 3500 
L 4106 2925 
L 3463 2925 
Q 3706 2438 3575 1747 
Q 3406 888 2884 400 
Q 2359 -91 1609 -91 
Q 856 -91 525 400 
Q 194 888 363 1747 
Q 528 2609 1050 3097 
Q 1484 3503 2309 3503 
z
" transform="scale(0.015625)"/>
       <path id="DejaVuSans-28" d="M 1984 4856 
Q 1566 4138 1362 3434 
Q 1159 2731 1159 2009 
Q 1159 1288 1364 580 
Q 1569 -128 1984 -844 
L 1484 -844 
Q 1016 -109 783 600 
Q 550 1309 550 2009 
Q 550 2706 781 3412 
Q 1013 4119 1484 4856 
L 1984 4856 
z
" transform="scale(0.015625)"/>
       <path id="DejaVuSans-Oblique-78" d="M 3841 3500 
L 2234 1784 
L 3219 0 
L 2559 0 
L 1819 1388 
L 531 0 
L -166 0 
L 1556 1844 
L 641 3500 
L 1300 3500 
L 1972 2234 
L 3144 3500 
L 3841 3500 
z
" transform="scale(0.015625)"/>
       <path id="DejaVuSans-3d" d="M 678 2906 
L 4684 2906 
L 4684 2381 
L 678 2381 
L 678 2906 
z
M 678 1631 
L 4684 1631 
L 4684 1100 
L 678 1100 
L 678 1631 
z
" transform="scale(0.015625)"/>
       <path id="DejaVuSans-2c" d="M 750 794 
L 1409 794 
L 1409 256 
L 897 -744 
L 494 -744 
L 750 256 
L 750 794 
z
" transform="scale(0.015625)"/>
       <path id="DejaVuSans-Oblique-79" d="M 1588 -325 
Q 1188 -997 936 -1164 
Q 684 -1331 294 -1331 
L -159 -1331 
L -63 -850 
L 269 -850 
Q 509 -850 678 -719 
Q 847 -588 1056 -206 
L 1234 128 
L 459 3500 
L 1069 3500 
L 1650 819 
L 3256 3500 
L 3859 3500 
L 1588 -325 
z
" transform="scale(0.015625)"/>
       <path id="DejaVuSans-29" d="M 513 4856 
L 1013 4856 
Q 1481 4119 1714 3412 
Q 1947 2706 1947 2009 
Q 1947 1309 1714 600 
Q 1481 -109 1013 -844 
L 513 -844 
Q 928 -128 1133 580 
Q 1338 1288 1338 2009 
Q 1338 2731 1133 3434 
Q 928 4138 513 4856 
z
" transform="scale(0.015625)"/>
       <path id="DejaVuSans-20" transform="scale(0.015625)"/>
       <path id="DejaVuSans-69" d="M 603 3500 
L 1178 3500 
L 1178 0 
L 603 0 
L 603 3500 
z
M 603 4863 
L 1178 4863 
L 1178 4134 
L 603 4134 
L 603 4863 
z
" transform="scale(0.015625)"/>
       <path id="DejaVuSans-6e" d="M 3513 2113 
L 3513 0 
L 2938 0 
L 2938 2094 
Q 2938 2591 2744 2837 
Q 2550 3084 2163 3084 
Q 1697 3084 1428 2787 
Q 1159 2491 1159 1978 
L 1159 0 
L 581 0 
L 581 3500 
L 1159 3500 
L 1159 2956 
Q 1366 3272 1645 3428 
Q 1925 3584 2291 3584 
Q 2894 3584 3203 3211 
Q 3513 2838 3513 2113 
z
" transform="scale(0.015625)"/>
       <path id="DejaVuSans-4d" d="M 628 4666 
L 1569 4666 
L 2759 1491 
L 3956 4666 
L 4897 4666 
L 4897 0 
L 4281 0 
L 4281 4097 
L 3078 897 
L 2444 897 
L 1241 4097 
L 1241 0 
L 628 0 
L 628 4666 
z
" transform="scale(0.015625)"/>
       <path id="DejaVuSans-50" d="M 1259 4147 
L 1259 2394 
L 2053 2394 
Q 2494 2394 2734 2622 
Q 2975 2850 2975 3272 
Q 2975 3691 2734 3919 
Q 2494 4147 2053 4147 
L 1259 4147 
z
M 628 4666 
L 2053 4666 
Q 2838 4666 3239 4311 
Q 3641 3956 3641 3272 
Q 3641 2581 3239 2228 
Q 2838 1875 2053 1875 
L 1259 1875 
L 1259 0 
L 628 0 
L 628 4666 
z
" transform="scale(0.015625)"/>
       <path id="DejaVuSans-61" d="M 2194 1759 
Q 1497 1759 1228 1600 
Q 959 1441 959 1056 
Q 959 750 1161 570 
Q 1363 391 1709 391 
Q 2188 391 2477 730 
Q 2766 1069 2766 1631 
L 2766 1759 
L 2194 1759 
z
M 3341 1997 
L 3341 0 
L 2766 0 
L 2766 531 
Q 2569 213 2275 61 
Q 1981 -91 1556 -91 
Q 1019 -91 701 211 
Q 384 513 384 1019 
Q 384 1609 779 1909 
Q 1175 2209 1959 2209 
L 2766 2209 
L 2766 2266 
Q 2766 2663 2505 2880 
Q 2244 3097 1772 3097 
Q 1472 3097 1187 3025 
Q 903 2953 641 2809 
L 641 3341 
Q 956 3463 1253 3523 
Q 1550 3584 1831 3584 
Q 2591 3584 2966 3190 
Q 3341 2797 3341 1997 
z
" transform="scale(0.015625)"/>
       <path id="DejaVuSans-27f6" d="M 8863 2147 
L 8863 1866 
L 7634 638 
L 7259 1013 
L 7988 1741 
L 366 1741 
L 366 2272 
L 7988 2272 
L 7259 3000 
L 7634 3375 
L 8863 2147 
z
" transform="scale(0.015625)"/>
      </defs>
      <use xlink:href="#DejaVuSans-Oblique-3c3" transform="translate(0 0.015625)"/>
      <use xlink:href="#DejaVuSans-31" transform="translate(63.378906 -16.390625) scale(0.7)"/>
      <use xlink:href="#DejaVuSans-31" transform="translate(107.915039 -16.390625) scale(0.7)"/>
      <use xlink:href="#DejaVuSans-28" transform="translate(155.185547 0.015625)"/>
      <use xlink:href="#DejaVuSans-Oblique-78" transform="translate(194.199219 0.015625)"/>
      <use xlink:href="#DejaVuSans-3d" transform="translate(272.861328 0.015625)"/>
      <use xlink:href="#DejaVuSans-30" transform="translate(376.132812 0.015625)"/>
      <use xlink:href="#DejaVuSans-2c" transform="translate(439.755859 0.015625)"/>
      <use xlink:href="#DejaVuSans-Oblique-79" transform="translate(491.025391 0.015625)"/>
      <use xlink:href="#DejaVuSans-29" transform="translate(550.205078 0.015625)"/>
      <use xlink:href="#DejaVuSans-20" transform="translate(589.21875 0.015625)"/>
      <use xlink:href="#DejaVuSans-69" transform="translate(621.005859 0.015625)"/>
      <use xlink:href="#DejaVuSans-6e" transform="translate(648.789062 0.015625)"/>
      <use xlink:href="#DejaVuSans-20" transform="translate(712.167969 0.015625)"/>
      <use xlink:href="#DejaVuSans-4d" transform="translate(743.955078 0.015625)"/>
      <use xlink:href="#DejaVuSans-50" transform="translate(830.234375 0.015625)"/>
      <use xlink:href="#DejaVuSans-61" transform="translate(890.537109 0.015625)"/>
      <use xlink:href="#DejaVuSans-20" transform="translate(951.816406 0.015625)"/>
      <use xlink:href="#DejaVuSans-27f6" transform="translate(1003.085938 0.015625)"/>
     </g>
    </g>
   </g>
   <g id="matplotlib.axis_2">
    <g id="ytick_1">
     <g id="line2d_7">
      <defs>
       <path id="mfd835bd3d2" d="M 0 0 
L -3.5 0 
" style="stroke: #000000; stroke-width: 0.8"/>
      </defs>
      <g>
       <use xlink:href="#mfd835bd3d2" x="54" y="242.116364" style="stroke: #000000; stroke-width: 0.8"/>
      </g>
     </g>
     <g id="text_8">
      <!-- 0.3 -->
      <g transform="translate(31.096875 245.915582) scale(0.1 -0.1)">
       <defs>
        <path id="DejaVuSans-2e" d="M 684 794 
L 1344 794 
L 1344 0 
L 684 0 
L 684 794 
z
" transform="scale(0.015625)"/>
       </defs>
       <use xlink:href="#DejaVuSans-30"/>
       <use xlink:href="#DejaVuSans-2e" x="63.623047"/>
       <use xlink:href="#DejaVuSans-33" x="95.410156"/>
      </g>
     </g>
    </g>
    <g id="ytick_2">
     <g id="line2d_8">
      <g>
       <use xlink:href="#mfd835bd3d2" x="54" y="213.877403" style="stroke: #000000; stroke-width: 0.8"/>
      </g>
     </g>
     <g id="text_9">
      <!-- 0.4 -->
      <g transform="translate(31.096875 217.676621) scale(0.1 -0.1)">
       <defs>
        <path id="DejaVuSans-34" d="M 2419 4116 
L 825 1625 
L 2419 1625 
L 2419 4116 
z
M 2253 4666 
L 3047 4666 
L 3047 1625 
L 3713 1625 
L 3713 1100 
L 3047 1100 
L 3047 0 
L 2419 0 
L 2419 1100 
L 313 1100 
L 313 1709 
L 2253 4666 
z
" transform="scale(0.015625)"/>
       </defs>
       <use xlink:href="#DejaVuSans-30"/>
       <use xlink:href="#DejaVuSans-2e" x="63.623047"/>
       <use xlink:href="#DejaVuSans-34" x="95.410156"/>
      </g>
     </g>
    </g>
    <g id="ytick_3">
     <g id="line2d_9">
      <g>
       <use xlink:href="#mfd835bd3d2" x="54" y="185.638442" style="stroke: #000000; stroke-width: 0.8"/>
      </g>
     </g>
     <g id="text_10">
      <!-- 0.5 -->
      <g transform="translate(31.096875 189.43766) scale(0.1 -0.1)">
       <use xlink:href="#DejaVuSans-30"/>
       <use xlink:href="#DejaVuSans-2e" x="63.623047"/>
       <use xlink:href="#DejaVuSans-35" x="95.410156"/>
      </g>
     </g>
    </g>
    <g id="ytick_4">
     <g id="line2d_10">
      <g>
       <use xlink:href="#mfd835bd3d2" x="54" y="157.399481" style="stroke: #000000; stroke-width: 0.8"/>
      </g>
     </g>
     <g id="text_11">
      <!-- 0.6 -->
      <g transform="translate(31.096875 161.198699) scale(0.1 -0.1)">
       <defs>
        <path id="DejaVuSans-36" d="M 2113 2584 
Q 1688 2584 1439 2293 
Q 1191 2003 1191 1497 
Q 1191 994 1439 701 
Q 1688 409 2113 409 
Q 2538 409 2786 701 
Q 3034 994 3034 1497 
Q 3034 2003 2786 2293 
Q 2538 2584 2113 2584 
z
M 3366 4563 
L 3366 3988 
Q 3128 4100 2886 4159 
Q 2644 4219 2406 4219 
Q 1781 4219 1451 3797 
Q 1122 3375 1075 2522 
Q 1259 2794 1537 2939 
Q 1816 3084 2150 3084 
Q 2853 3084 3261 2657 
Q 3669 2231 3669 1497 
Q 3669 778 3244 343 
Q 2819 -91 2113 -91 
Q 1303 -91 875 529 
Q 447 1150 447 2328 
Q 447 3434 972 4092 
Q 1497 4750 2381 4750 
Q 2619 4750 2861 4703 
Q 3103 4656 3366 4563 
z
" transform="scale(0.015625)"/>
       </defs>
       <use xlink:href="#DejaVuSans-30"/>
       <use xlink:href="#DejaVuSans-2e" x="63.623047"/>
       <use xlink:href="#DejaVuSans-36" x="95.410156"/>
      </g>
     </g>
    </g>
    <g id="ytick_5">
     <g id="line2d_11">
      <g>
       <use xlink:href="#mfd835bd3d2" x="54" y="129.160519" style="stroke: #000000; stroke-width: 0.8"/>
      </g>
     </g>
     <g id="text_12">
      <!-- 0.7 -->
      <g transform="translate(31.096875 132.959738) scale(0.1 -0.1)">
       <defs>
        <path id="DejaVuSans-37" d="M 525 4666 
L 3525 4666 
L 3525 4397 
L 1831 0 
L 1172 0 
L 2766 4134 
L 525 4134 
L 525 4666 
z
" transform="scale(0.015625)"/>
       </defs>
       <use xlink:href="#DejaVuSans-30"/>
       <use xlink:href="#DejaVuSans-2e" x="63.623047"/>
       <use xlink:href="#DejaVuSans-37" x="95.410156"/>
      </g>
     </g>
    </g>
    <g id="ytick_6">
     <g id="line2d_12">
      <g>
       <use xlink:href="#mfd835bd3d2" x="54" y="100.921558" style="stroke: #000000; stroke-width: 0.8"/>
      </g>
     </g>
     <g id="text_13">
      <!-- 0.8 -->
      <g transform="translate(31.096875 104.720777) scale(0.1 -0.1)">
       <defs>
        <path id="DejaVuSans-38" d="M 2034 2216 
Q 1584 2216 1326 1975 
Q 1069 1734 1069 1313 
Q 1069 891 1326 650 
Q 1584 409 2034 409 
Q 2484 409 2743 651 
Q 3003 894 3003 1313 
Q 3003 1734 2745 1975 
Q 2488 2216 2034 2216 
z
M 1403 2484 
Q 997 2584 770 2862 
Q 544 3141 544 3541 
Q 544 4100 942 4425 
Q 1341 4750 2034 4750 
Q 2731 4750 3128 4425 
Q 3525 4100 3525 3541 
Q 3525 3141 3298 2862 
Q 3072 2584 2669 2484 
Q 3125 2378 3379 2068 
Q 3634 1759 3634 1313 
Q 3634 634 3220 271 
Q 2806 -91 2034 -91 
Q 1263 -91 848 271 
Q 434 634 434 1313 
Q 434 1759 690 2068 
Q 947 2378 1403 2484 
z
M 1172 3481 
Q 1172 3119 1398 2916 
Q 1625 2713 2034 2713 
Q 2441 2713 2670 2916 
Q 2900 3119 2900 3481 
Q 2900 3844 2670 4047 
Q 2441 4250 2034 4250 
Q 1625 4250 1398 4047 
Q 1172 3844 1172 3481 
z
" transform="scale(0.015625)"/>
       </defs>
       <use xlink:href="#DejaVuSans-30"/>
       <use xlink:href="#DejaVuSans-2e" x="63.623047"/>
       <use xlink:href="#DejaVuSans-38" x="95.410156"/>
      </g>
     </g>
    </g>
    <g id="ytick_7">
     <g id="line2d_13">
      <g>
       <use xlink:href="#mfd835bd3d2" x="54" y="72.682597" style="stroke: #000000; stroke-width: 0.8"/>
      </g>
     </g>
     <g id="text_14">
      <!-- 0.9 -->
      <g transform="translate(31.096875 76.481816) scale(0.1 -0.1)">
       <defs>
        <path id="DejaVuSans-39" d="M 703 97 
L 703 672 
Q 941 559 1184 500 
Q 1428 441 1663 441 
Q 2288 441 2617 861 
Q 2947 1281 2994 2138 
Q 2813 1869 2534 1725 
Q 2256 1581 1919 1581 
Q 1219 1581 811 2004 
Q 403 2428 403 3163 
Q 403 3881 828 4315 
Q 1253 4750 1959 4750 
Q 2769 4750 3195 4129 
Q 3622 3509 3622 2328 
Q 3622 1225 3098 567 
Q 2575 -91 1691 -91 
Q 1453 -91 1209 -44 
Q 966 3 703 97 
z
M 1959 2075 
Q 2384 2075 2632 2365 
Q 2881 2656 2881 3163 
Q 2881 3666 2632 3958 
Q 2384 4250 1959 4250 
Q 1534 4250 1286 3958 
Q 1038 3666 1038 3163 
Q 1038 2656 1286 2365 
Q 1534 2075 1959 2075 
z
" transform="scale(0.015625)"/>
       </defs>
       <use xlink:href="#DejaVuSans-30"/>
       <use xlink:href="#DejaVuSans-2e" x="63.623047"/>
       <use xlink:href="#DejaVuSans-39" x="95.410156"/>
      </g>
     </g>
    </g>
    <g id="ytick_8">
     <g id="line2d_14">
      <g>
       <use xlink:href="#mfd835bd3d2" x="54" y="44.443636" style="stroke: #000000; stroke-width: 0.8"/>
      </g>
     </g>
     <g id="text_15">
      <!-- 1.0 -->
      <g transform="translate(31.096875 48.242855) scale(0.1 -0.1)">
       <use xlink:href="#DejaVuSans-31"/>
       <use xlink:href="#DejaVuSans-2e" x="63.623047"/>
       <use xlink:href="#DejaVuSans-30" x="95.410156"/>
      </g>
     </g>
    </g>
    <g id="text_16">
     <!-- $y/h$ $\longrightarrow$ -->
     <g transform="translate(24.996875 161.83) rotate(-90) scale(0.1 -0.1)">
      <defs>
       <path id="DejaVuSans-2f" d="M 1625 4666 
L 2156 4666 
L 531 -594 
L 0 -594 
L 1625 4666 
z
" transform="scale(0.015625)"/>
       <path id="DejaVuSans-Oblique-68" d="M 3566 2113 
L 3156 0 
L 2578 0 
L 2988 2091 
Q 3016 2238 3031 2350 
Q 3047 2463 3047 2528 
Q 3047 2791 2881 2937 
Q 2716 3084 2419 3084 
Q 1956 3084 1617 2771 
Q 1278 2459 1178 1941 
L 800 0 
L 225 0 
L 1172 4863 
L 1747 4863 
L 1375 2950 
Q 1594 3244 1934 3414 
Q 2275 3584 2650 3584 
Q 3113 3584 3367 3334 
Q 3622 3084 3622 2631 
Q 3622 2519 3608 2391 
Q 3594 2263 3566 2113 
z
" transform="scale(0.015625)"/>
      </defs>
      <use xlink:href="#DejaVuSans-Oblique-79" transform="translate(0 0.015625)"/>
      <use xlink:href="#DejaVuSans-2f" transform="translate(59.179688 0.015625)"/>
      <use xlink:href="#DejaVuSans-Oblique-68" transform="translate(92.871094 0.015625)"/>
      <use xlink:href="#DejaVuSans-20" transform="translate(156.25 0.015625)"/>
      <use xlink:href="#DejaVuSans-27f6" transform="translate(207.519531 0.015625)"/>
     </g>
    </g>
   </g>
   <g id="line2d_15">
    <path d="M 373.581818 242.116364 
L 334.291151 238.820877 
L 304.994312 235.528214 
L 280.365156 232.232727 
L 259.511179 228.937241 
L 241.6992 225.644578 
L 226.418597 222.349091 
L 213.23928 219.053604 
L 201.790358 215.760941 
L 191.803822 212.465455 
L 183.051775 209.169968 
L 175.349574 205.877305 
L 168.530665 202.581818 
L 162.473482 199.286331 
L 157.075139 195.993669 
L 152.235781 192.698182 
L 147.88427 189.402695 
L 143.960454 186.110032 
L 140.402408 182.814545 
L 137.1668 179.519059 
L 134.213098 176.226396 
L 131.509181 172.930909 
L 129.020648 169.635422 
L 126.723353 166.342759 
L 124.595313 163.047273 
L 122.614004 159.751786 
L 120.763963 156.459123 
L 119.027657 153.163636 
L 117.393233 149.86815 
L 115.845453 146.575487 
L 114.374375 143.28 
L 112.970793 139.984513 
L 111.623226 136.69185 
L 110.323277 133.396364 
L 109.064094 130.100877 
L 107.839025 126.808214 
L 106.63856 123.512727 
L 105.457096 120.217241 
L 104.290027 116.924578 
L 103.129064 113.629091 
L 101.968848 110.333604 
L 100.80424 107.040941 
L 99.629415 103.745455 
L 98.437969 100.449968 
L 97.225166 97.157305 
L 95.98511 93.861818 
L 94.710415 90.566331 
L 93.396498 87.273669 
L 92.037802 83.978182 
L 90.625364 80.682695 
L 89.153581 77.390032 
L 87.615385 74.094545 
L 86.00469 70.799059 
L 84.31041 67.506396 
L 82.524969 64.210909 
L 80.64145 60.915422 
L 78.647221 57.622759 
L 76.532125 54.327273 
L 74.285338 51.031786 
L 71.896559 47.739123 
L 69.218182 44.443636 
" clip-path="url(#pa7931d88e3)" style="fill: none; stroke: #1f77b4; stroke-width: 1.5; stroke-linecap: square"/>
    <defs>
     <path id="md517b67281" d="M 0 3 
C 0.795609 3 1.55874 2.683901 2.12132 2.12132 
C 2.683901 1.55874 3 0.795609 3 0 
C 3 -0.795609 2.683901 -1.55874 2.12132 -2.12132 
C 1.55874 -2.683901 0.795609 -3 0 -3 
C -0.795609 -3 -1.55874 -2.683901 -2.12132 -2.12132 
C -2.683901 -1.55874 -3 -0.795609 -3 0 
C -3 0.795609 -2.683901 1.55874 -2.12132 2.12132 
C -1.55874 2.683901 -0.795609 3 0 3 
z
" style="stroke: #1f77b4"/>
    </defs>
    <g clip-path="url(#pa7931d88e3)">
     <use xlink:href="#md517b67281" x="373.581818" y="242.116364" style="fill: #1f77b4; stroke: #1f77b4"/>
     <use xlink:href="#md517b67281" x="334.291151" y="238.820877" style="fill: #1f77b4; stroke: #1f77b4"/>
     <use xlink:href="#md517b67281" x="304.994312" y="235.528214" style="fill: #1f77b4; stroke: #1f77b4"/>
     <use xlink:href="#md517b67281" x="280.365156" y="232.232727" style="fill: #1f77b4; stroke: #1f77b4"/>
     <use xlink:href="#md517b67281" x="259.511179" y="228.937241" style="fill: #1f77b4; stroke: #1f77b4"/>
     <use xlink:href="#md517b67281" x="241.6992" y="225.644578" style="fill: #1f77b4; stroke: #1f77b4"/>
     <use xlink:href="#md517b67281" x="226.418597" y="222.349091" style="fill: #1f77b4; stroke: #1f77b4"/>
     <use xlink:href="#md517b67281" x="213.23928" y="219.053604" style="fill: #1f77b4; stroke: #1f77b4"/>
     <use xlink:href="#md517b67281" x="201.790358" y="215.760941" style="fill: #1f77b4; stroke: #1f77b4"/>
     <use xlink:href="#md517b67281" x="191.803822" y="212.465455" style="fill: #1f77b4; stroke: #1f77b4"/>
     <use xlink:href="#md517b67281" x="183.051775" y="209.169968" style="fill: #1f77b4; stroke: #1f77b4"/>
     <use xlink:href="#md517b67281" x="175.349574" y="205.877305" style="fill: #1f77b4; stroke: #1f77b4"/>
     <use xlink:href="#md517b67281" x="168.530665" y="202.581818" style="fill: #1f77b4; stroke: #1f77b4"/>
     <use xlink:href="#md517b67281" x="162.473482" y="199.286331" style="fill: #1f77b4; stroke: #1f77b4"/>
     <use xlink:href="#md517b67281" x="157.075139" y="195.993669" style="fill: #1f77b4; stroke: #1f77b4"/>
     <use xlink:href="#md517b67281" x="152.235781" y="192.698182" style="fill: #1f77b4; stroke: #1f77b4"/>
     <use xlink:href="#md517b67281" x="147.88427" y="189.402695" style="fill: #1f77b4; stroke: #1f77b4"/>
     <use xlink:href="#md517b67281" x="143.960454" y="186.110032" style="fill: #1f77b4; stroke: #1f77b4"/>
     <use xlink:href="#md517b67281" x="140.402408" y="182.814545" style="fill: #1f77b4; stroke: #1f77b4"/>
     <use xlink:href="#md517b67281" x="137.1668" y="179.519059" style="fill: #1f77b4; stroke: #1f77b4"/>
     <use xlink:href="#md517b67281" x="134.213098" y="176.226396" style="fill: #1f77b4; stroke: #1f77b4"/>
     <use xlink:href="#md517b67281" x="131.509181" y="172.930909" style="fill: #1f77b4; stroke: #1f77b4"/>
     <use xlink:href="#md517b67281" x="129.020648" y="169.635422" style="fill: #1f77b4; stroke: #1f77b4"/>
     <use xlink:href="#md517b67281" x="126.723353" y="166.342759" style="fill: #1f77b4; stroke: #1f77b4"/>
     <use xlink:href="#md517b67281" x="124.595313" y="163.047273" style="fill: #1f77b4; stroke: #1f77b4"/>
     <use xlink:href="#md517b67281" x="122.614004" y="159.751786" style="fill: #1f77b4; stroke: #1f77b4"/>
     <use xlink:href="#md517b67281" x="120.763963" y="156.459123" style="fill: #1f77b4; stroke: #1f77b4"/>
     <use xlink:href="#md517b67281" x="119.027657" y="153.163636" style="fill: #1f77b4; stroke: #1f77b4"/>
     <use xlink:href="#md517b67281" x="117.393233" y="149.86815" style="fill: #1f77b4; stroke: #1f77b4"/>
     <use xlink:href="#md517b67281" x="115.845453" y="146.575487" style="fill: #1f77b4; stroke: #1f77b4"/>
     <use xlink:href="#md517b67281" x="114.374375" y="143.28" style="fill: #1f77b4; stroke: #1f77b4"/>
     <use xlink:href="#md517b67281" x="112.970793" y="139.984513" style="fill: #1f77b4; stroke: #1f77b4"/>
     <use xlink:href="#md517b67281" x="111.623226" y="136.69185" style="fill: #1f77b4; stroke: #1f77b4"/>
     <use xlink:href="#md517b67281" x="110.323277" y="133.396364" style="fill: #1f77b4; stroke: #1f77b4"/>
     <use xlink:href="#md517b67281" x="109.064094" y="130.100877" style="fill: #1f77b4; stroke: #1f77b4"/>
     <use xlink:href="#md517b67281" x="107.839025" y="126.808214" style="fill: #1f77b4; stroke: #1f77b4"/>
     <use xlink:href="#md517b67281" x="106.63856" y="123.512727" style="fill: #1f77b4; stroke: #1f77b4"/>
     <use xlink:href="#md517b67281" x="105.457096" y="120.217241" style="fill: #1f77b4; stroke: #1f77b4"/>
     <use xlink:href="#md517b67281" x="104.290027" y="116.924578" style="fill: #1f77b4; stroke: #1f77b4"/>
     <use xlink:href="#md517b67281" x="103.129064" y="113.629091" style="fill: #1f77b4; stroke: #1f77b4"/>
     <use xlink:href="#md517b67281" x="101.968848" y="110.333604" style="fill: #1f77b4; stroke: #1f77b4"/>
     <use xlink:href="#md517b67281" x="100.80424" y="107.040941" style="fill: #1f77b4; stroke: #1f77b4"/>
     <use xlink:href="#md517b67281" x="99.629415" y="103.745455" style="fill: #1f77b4; stroke: #1f77b4"/>
     <use xlink:href="#md517b67281" x="98.437969" y="100.449968" style="fill: #1f77b4; stroke: #1f77b4"/>
     <use xlink:href="#md517b67281" x="97.225166" y="97.157305" style="fill: #1f77b4; stroke: #1f77b4"/>
     <use xlink:href="#md517b67281" x="95.98511" y="93.861818" style="fill: #1f77b4; stroke: #1f77b4"/>
     <use xlink:href="#md517b67281" x="94.710415" y="90.566331" style="fill: #1f77b4; stroke: #1f77b4"/>
     <use xlink:href="#md517b67281" x="93.396498" y="87.273669" style="fill: #1f77b4; stroke: #1f77b4"/>
     <use xlink:href="#md517b67281" x="92.037802" y="83.978182" style="fill: #1f77b4; stroke: #1f77b4"/>
     <use xlink:href="#md517b67281" x="90.625364" y="80.682695" style="fill: #1f77b4; stroke: #1f77b4"/>
     <use xlink:href="#md517b67281" x="89.153581" y="77.390032" style="fill: #1f77b4; stroke: #1f77b4"/>
     <use xlink:href="#md517b67281" x="87.615385" y="74.094545" style="fill: #1f77b4; stroke: #1f77b4"/>
     <use xlink:href="#md517b67281" x="86.00469" y="70.799059" style="fill: #1f77b4; stroke: #1f77b4"/>
     <use xlink:href="#md517b67281" x="84.31041" y="67.506396" style="fill: #1f77b4; stroke: #1f77b4"/>
     <use xlink:href="#md517b67281" x="82.524969" y="64.210909" style="fill: #1f77b4; stroke: #1f77b4"/>
     <use xlink:href="#md517b67281" x="80.64145" y="60.915422" style="fill: #1f77b4; stroke: #1f77b4"/>
     <use xlink:href="#md517b67281" x="78.647221" y="57.622759" style="fill: #1f77b4; stroke: #1f77b4"/>
     <use xlink:href="#md517b67281" x="76.532125" y="54.327273" style="fill: #1f77b4; stroke: #1f77b4"/>
     <use xlink:href="#md517b67281" x="74.285338" y="51.031786" style="fill: #1f77b4; stroke: #1f77b4"/>
     <use xlink:href="#md517b67281" x="71.896559" y="47.739123" style="fill: #1f77b4; stroke: #1f77b4"/>
     <use xlink:href="#md517b67281" x="69.218182" y="44.443636" style="fill: #1f77b4; stroke: #1f77b4"/>
    </g>
   </g>
   <g id="patch_3">
    <path d="M 54 252 
L 54 34.56 
" style="fill: none; stroke: #000000; stroke-width: 0.8; stroke-linejoin: miter; stroke-linecap: square"/>
   </g>
   <g id="patch_4">
    <path d="M 388.8 252 
L 388.8 34.56 
" style="fill: none; stroke: #000000; stroke-width: 0.8; stroke-linejoin: miter; stroke-linecap: square"/>
   </g>
   <g id="patch_5">
    <path d="M 54 252 
L 388.8 252 
" style="fill: none; stroke: #000000; stroke-width: 0.8; stroke-linejoin: miter; stroke-linecap: square"/>
   </g>
   <g id="patch_6">
    <path d="M 54 34.56 
L 388.8 34.56 
" style="fill: none; stroke: #000000; stroke-width: 0.8; stroke-linejoin: miter; stroke-linecap: square"/>
   </g>
  </g>
 </g>
 <defs>
  <clipPath id="pa7931d88e3">
   <rect x="54" y="34.56" width="334.8" height="217.44"/>
  </clipPath>
 </defs>
</svg>
