<svg width="2367" height="812" xmlns="http://www.w3.org/2000/svg" xmlns:xlink="http://www.w3.org/1999/xlink" xml:space="preserve" overflow="hidden"><defs><clipPath id="clip0"><rect x="2223" y="1465" width="2367" height="812"/></clipPath></defs><g clip-path="url(#clip0)" transform="translate(-2223 -1465)"><rect x="2639.5" y="1493.5" width="1533" height="756" stroke="#0F0F0F" stroke-width="6.875" stroke-linejoin="round" stroke-miterlimit="10" fill="#E7E7E7"/><path d="M3243.5 1871.5C3243.5 1782.03 3316.25 1709.5 3406 1709.5 3495.75 1709.5 3568.5 1782.03 3568.5 1871.5 3568.5 1960.97 3495.75 2033.5 3406 2033.5 3316.25 2033.5 3243.5 1960.97 3243.5 1871.5Z" stroke="#0F0F0F" stroke-width="6.875" stroke-miterlimit="8" fill="#FFFFFF" fill-rule="evenodd"/><path d="M17.8259 14.5829 215.115 211.847 211.874 215.088 14.5852 17.824ZM9.72456 29.1675 0 0 29.1688 9.72088ZM219.975 200.503 229.7 229.67 200.531 219.95Z" fill="#0F0F0F" transform="matrix(1 0 0 -1 3290.5 1986.17)"/><path d="M2.29168 22.9168 2.29202 732.853-2.29132 732.853-2.29166 22.9168ZM-13.75 27.5 0 0 13.75 27.5ZM13.7503 728.269 0.000360892 755.769-13.7497 728.269Z" fill="#0F0F0F" transform="matrix(1 0 0 -1 3141.5 2249.27)"/><path d="M2662.42 2123.21 4149.71 2123.21 4149.71 2127.79 2662.42 2127.79ZM2667 2139.25 2639.5 2125.5 2667 2111.75ZM4145.12 2111.75 4172.62 2125.5 4145.12 2139.25Z" fill="#0F0F0F"/><path d="M3389.11 1828.51C3390.61 1828.51 3391.79 1829.01 3392.66 1829.99 3393.52 1830.98 3393.96 1832.27 3393.96 1833.86 3393.96 1835.05 3393.73 1836.27 3393.28 1837.53L3393.74 1837.71C3396.07 1834.55 3398.31 1832.23 3400.46 1830.76 3402.61 1829.29 3404.79 1828.55 3407 1828.55 3408.74 1828.55 3410.19 1828.68 3411.35 1828.94L3409.64 1836.93 3405.97 1836.93C3405.83 1835.93 3405.63 1835.16 3405.36 1834.61 3405.1 1834.06 3404.79 1833.68 3404.44 1833.47 3404.08 1833.26 3403.63 1833.15 3403.08 1833.15 3402.23 1833.15 3401.29 1833.52 3400.28 1834.25 3399.27 1834.99 3398.14 1836.14 3396.88 1837.71 3395.62 1839.28 3394.62 1840.79 3393.87 1842.24 3393.12 1843.69 3392.5 1845.53 3392 1847.76L3388.61 1863.2 3382.44 1863.2 3387.61 1840.6C3387.95 1839.17 3388.16 1838.07 3388.25 1837.28 3388.35 1836.5 3388.4 1835.85 3388.4 1835.32 3388.4 1834.37 3388.24 1833.68 3387.93 1833.26 3387.62 1832.83 3387.14 1832.61 3386.47 1832.61 3385.74 1832.61 3384.96 1832.92 3384.14 1833.52 3383.32 1834.13 3382.19 1835.23 3380.77 1836.82L3378.74 1834.82C3380.92 1832.54 3382.75 1830.92 3384.23 1829.96 3385.7 1829 3387.33 1828.51 3389.11 1828.51ZM3357.41 1813.97C3361.83 1813.97 3365.17 1814.94 3367.43 1816.88 3369.69 1818.81 3370.82 1821.62 3370.82 1825.31 3370.82 1826.57 3370.69 1827.72 3370.44 1828.78 3370.19 1829.84 3369.8 1830.89 3369.26 1831.92 3368.73 1832.95 3368.01 1834.06 3367.11 1835.25 3366.21 1836.44 3365.21 1837.65 3364.11 1838.87 3363.02 1840.09 3361.13 1842.13 3358.45 1844.98 3353.93 1849.76 3350.62 1853.93 3348.5 1857.49L3361.94 1857.49C3363.1 1857.49 3364.04 1857.42 3364.76 1857.28 3365.47 1857.14 3366.04 1856.9 3366.47 1856.57 3366.89 1856.23 3367.23 1855.8 3367.48 1855.27 3367.73 1854.73 3368.05 1853.91 3368.43 1852.79L3371.46 1852.79 3370.85 1863.2 3341.52 1863.2 3341.52 1861.49C3342.54 1858.99 3343.92 1856.44 3345.65 1853.82 3347.39 1851.21 3349.84 1848.13 3353.03 1844.59 3355.79 1841.55 3357.77 1839.24 3358.98 1837.68 3360.31 1835.96 3361.3 1834.49 3361.96 1833.24 3362.61 1831.99 3363.08 1830.81 3363.37 1829.71 3363.65 1828.6 3363.79 1827.49 3363.79 1826.38 3363.79 1824.59 3363.51 1823.02 3362.94 1821.65 3362.37 1820.29 3361.49 1819.21 3360.32 1818.43 3359.14 1817.64 3357.66 1817.25 3355.88 1817.25 3351.44 1817.25 3348.44 1819.72 3346.9 1824.67L3342.58 1824.67 3342.58 1817.82C3345.46 1816.47 3348.15 1815.49 3350.66 1814.88 3353.17 1814.27 3355.42 1813.97 3357.41 1813.97Z" fill-rule="evenodd"/><text fill="#000000" fill-opacity="0" font-family="Arial,Arial_MSFontService,sans-serif" font-size="49.2251" x="3341.52" y="1857.04">2𝑟</text><path d="M3073.71 1848.33C3078.13 1848.33 3081.47 1849.3 3083.73 1851.23 3085.99 1853.17 3087.12 1855.98 3087.12 1859.66 3087.12 1860.92 3086.99 1862.08 3086.74 1863.14 3086.49 1864.2 3086.1 1865.24 3085.57 1866.28 3085.03 1867.31 3084.31 1868.42 3083.41 1869.61 3082.51 1870.8 3081.51 1872 3080.42 1873.23 3079.32 1874.45 3077.43 1876.49 3074.75 1879.34 3070.23 1884.12 3066.92 1888.29 3064.8 1891.85L3078.24 1891.85C3079.41 1891.85 3080.34 1891.78 3081.06 1891.64 3081.77 1891.49 3082.34 1891.26 3082.77 1890.92 3083.2 1890.59 3083.53 1890.16 3083.78 1889.62 3084.03 1889.09 3084.35 1888.26 3084.73 1887.15L3087.76 1887.15 3087.15 1897.55 3057.82 1897.55 3057.82 1895.84C3058.84 1893.35 3060.22 1890.79 3061.95 1888.18 3063.69 1885.57 3066.15 1882.49 3069.33 1878.95 3072.09 1875.91 3074.07 1873.6 3075.28 1872.03 3076.61 1870.32 3077.61 1868.84 3078.26 1867.6 3078.91 1866.35 3079.38 1865.17 3079.67 1864.07 3079.95 1862.96 3080.09 1861.85 3080.09 1860.73 3080.09 1858.95 3079.81 1857.38 3079.24 1856.01 3078.67 1854.64 3077.8 1853.57 3076.62 1852.78 3075.44 1852 3073.96 1851.61 3072.18 1851.61 3067.74 1851.61 3064.74 1854.08 3063.2 1859.02L3058.89 1859.02 3058.89 1852.18C3061.76 1850.82 3064.45 1849.84 3066.96 1849.24 3069.47 1848.63 3071.72 1848.33 3073.71 1848.33ZM3112.79 1846.58 3114.86 1846.58 3108.73 1871.28 3109.15 1871.43C3111.41 1868.43 3113.54 1866.26 3115.55 1864.92 3117.56 1863.58 3119.59 1862.91 3121.63 1862.91 3123.84 1862.91 3125.54 1863.54 3126.73 1864.81 3127.92 1866.09 3128.51 1867.85 3128.51 1870.11 3128.51 1871.61 3128.16 1873.73 3127.48 1876.49L3125.16 1885.83C3124.52 1888.42 3124.2 1890.25 3124.2 1891.32 3124.2 1892.27 3124.35 1892.96 3124.66 1893.38 3124.97 1893.81 3125.46 1894.03 3126.12 1894.03 3126.83 1894.03 3127.59 1893.73 3128.4 1893.15 3129.21 1892.57 3130.35 1891.46 3131.82 1889.82L3133.86 1891.82C3131.57 1894.22 3129.7 1895.87 3128.24 1896.77 3126.78 1897.67 3125.13 1898.12 3123.3 1898.12 3121.76 1898.12 3120.53 1897.58 3119.62 1896.49 3118.7 1895.39 3118.24 1893.98 3118.24 1892.24 3118.24 1890.7 3118.64 1888.43 3119.42 1885.44L3120.95 1879.27C3121.5 1877.06 3121.87 1875.4 3122.06 1874.3 3122.25 1873.19 3122.34 1872.33 3122.34 1871.71 3122.34 1870.03 3122.07 1868.83 3121.52 1868.13 3120.98 1867.43 3120.08 1867.08 3118.85 1867.08 3117.88 1867.08 3116.79 1867.48 3115.61 1868.29 3114.42 1869.1 3113.17 1870.33 3111.86 1871.98 3110.56 1873.63 3109.52 1875.21 3108.74 1876.72 3107.97 1878.23 3107.36 1880.03 3106.91 1882.12L3103.66 1897.55 3097.5 1897.55 3106.66 1856.81C3107.23 1854.27 3107.51 1852.51 3107.51 1851.54 3107.51 1850.54 3107.21 1849.84 3106.61 1849.43 3106 1849.03 3104.91 1848.8 3103.34 1848.76L3103.77 1846.9Z" fill-rule="evenodd"/><text fill="#000000" fill-opacity="0" font-family="Arial,Arial_MSFontService,sans-serif" font-size="51.542" x="3057.82" y="1891.68">2ℎ</text><path d="M3623.13 2061.32 3637.38 2061.32 3636.99 2063.07C3636.09 2063.26 3635.44 2063.47 3635.05 2063.71 3634.66 2063.95 3634.31 2064.3 3634 2064.78 3633.69 2065.26 3633.37 2066 3633.04 2067.01 3632.7 2068.02 3632.29 2069.66 3631.79 2071.94L3624.16 2106.7 3632.93 2106.7C3634.52 2106.7 3635.77 2106.54 3636.69 2106.23 3637.6 2105.93 3638.47 2105.36 3639.29 2104.54 3640.11 2103.72 3640.91 2102.61 3641.7 2101.21 3642.48 2099.81 3643.28 2098.06 3644.09 2095.97L3647.54 2095.97 3643.94 2109.98 3613.79 2109.98 3614.18 2108.23C3615.08 2108.09 3615.76 2107.86 3616.21 2107.54 3616.66 2107.21 3617.04 2106.77 3617.35 2106.2 3617.66 2105.63 3617.95 2104.93 3618.21 2104.11 3618.47 2103.29 3618.86 2101.71 3619.38 2099.35L3625.44 2071.91C3625.97 2069.53 3626.23 2067.62 3626.23 2066.17 3626.23 2065.05 3625.95 2064.27 3625.39 2063.84 3624.83 2063.4 3623.95 2063.14 3622.73 2063.07ZM3591.25 2060.75C3595.67 2060.75 3599.01 2061.72 3601.27 2063.66 3603.53 2065.59 3604.65 2068.4 3604.65 2072.09 3604.65 2073.35 3604.53 2074.5 3604.28 2075.56 3604.03 2076.62 3603.64 2077.67 3603.1 2078.7 3602.57 2079.73 3601.85 2080.84 3600.95 2082.03 3600.04 2083.22 3599.05 2084.43 3597.95 2085.65 3596.86 2086.87 3594.97 2088.91 3592.29 2091.76 3587.77 2096.54 3584.46 2100.71 3582.34 2104.27L3595.78 2104.27C3596.94 2104.27 3597.88 2104.2 3598.59 2104.06 3599.31 2103.92 3599.88 2103.68 3600.31 2103.35 3600.73 2103.01 3601.07 2102.58 3601.32 2102.05 3601.57 2101.51 3601.89 2100.69 3602.27 2099.57L3605.3 2099.57 3604.69 2109.98 3575.35 2109.98 3575.35 2108.27C3576.38 2105.77 3577.75 2103.22 3579.49 2100.6 3581.22 2097.99 3583.68 2094.91 3586.87 2091.37 3589.62 2088.33 3591.61 2086.02 3592.82 2084.46 3594.15 2082.74 3595.14 2081.27 3595.8 2080.02 3596.45 2078.77 3596.92 2077.59 3597.2 2076.49 3597.49 2075.38 3597.63 2074.27 3597.63 2073.16 3597.63 2071.37 3597.35 2069.8 3596.78 2068.43 3596.21 2067.07 3595.33 2065.99 3594.16 2065.21 3592.98 2064.42 3591.5 2064.03 3589.72 2064.03 3585.28 2064.03 3582.28 2066.5 3580.74 2071.45L3576.42 2071.45 3576.42 2064.6C3579.3 2063.25 3581.99 2062.27 3584.5 2061.66 3587 2061.05 3589.26 2060.75 3591.25 2060.75Z" fill-rule="evenodd"/><text fill="#000000" fill-opacity="0" font-family="Arial,Arial_MSFontService,sans-serif" font-size="49.2251" x="3575.35" y="2103.82">2𝐿</text><path d="M4192.5 1493.5 4192.5 2249.64" stroke="#F70146" stroke-width="20.625" stroke-miterlimit="8" fill="none" fill-rule="evenodd"/><path d="M2621.5 1496.5 2621.5 2252.64" stroke="#F70146" stroke-width="20.625" stroke-miterlimit="8" fill="none" fill-rule="evenodd"/><path d="M4192 1522.12 4264.05 1522.13 4264.05 1535.88 4192 1535.88ZM4257.17 1508.38 4298.42 1529 4257.17 1549.63Z" fill="#F70146"/><path d="M4192 1658.13 4264.05 1658.13 4264.05 1671.88 4192 1671.88ZM4257.17 1644.38 4298.42 1665 4257.17 1685.63Z" fill="#F70146"/><path d="M4192 1794.12 4264.05 1794.13 4264.05 1807.88 4192 1807.87ZM4257.17 1780.38 4298.42 1801 4257.17 1821.63Z" fill="#F70146"/><path d="M4192 1930.12 4264.05 1930.13 4264.05 1943.88 4192 1943.88ZM4257.17 1916.38 4298.42 1937 4257.17 1957.63Z" fill="#F70146"/><path d="M4192 2067.12 4264.05 2067.12 4264.05 2080.88 4192 2080.87ZM4257.17 2053.38 4298.42 2074 4257.17 2094.62Z" fill="#F70146"/><path d="M4192 2203.12 4264.05 2203.13 4264.05 2216.88 4192 2216.88ZM4257.17 2189.38 4298.42 2210 4257.17 2230.63Z" fill="#F70146"/><path d="M4403.4 1847.95C4401.76 1847.95 4400.39 1848.44 4399.28 1849.41 4398.18 1850.39 4397.29 1851.79 4396.61 1853.62 4395.93 1855.45 4395.45 1857.67 4395.17 1860.3 4394.88 1862.93 4394.74 1865.89 4394.74 1869.19 4394.74 1876.94 4395.46 1882.63 4396.9 1886.25 4398.33 1889.87 4400.56 1891.69 4403.58 1891.69 4406.45 1891.69 4408.59 1889.98 4409.98 1886.57 4411.37 1883.16 4412.06 1877.88 4412.06 1870.73 4412.06 1865.26 4411.71 1860.83 4410.99 1857.45 4410.28 1854.06 4409.29 1851.63 4408.02 1850.16 4406.75 1848.69 4405.21 1847.95 4403.4 1847.95ZM4363.4 1847.95C4361.76 1847.95 4360.39 1848.44 4359.28 1849.41 4358.18 1850.39 4357.29 1851.79 4356.61 1853.62 4355.93 1855.45 4355.45 1857.67 4355.17 1860.3 4354.88 1862.93 4354.74 1865.89 4354.74 1869.19 4354.74 1876.94 4355.46 1882.63 4356.9 1886.25 4358.33 1889.87 4360.56 1891.69 4363.58 1891.69 4366.45 1891.69 4368.59 1889.98 4369.98 1886.57 4371.37 1883.16 4372.06 1877.88 4372.06 1870.73 4372.06 1865.26 4371.71 1860.83 4370.99 1857.45 4370.28 1854.06 4369.29 1851.63 4368.02 1850.16 4366.75 1848.69 4365.21 1847.95 4363.4 1847.95ZM4403.58 1844.92C4408.78 1844.92 4412.66 1846.93 4415.2 1850.94 4417.74 1854.96 4419.01 1861.03 4419.01 1869.16 4419.01 1877.57 4417.65 1883.93 4414.93 1888.25 4412.21 1892.56 4408.24 1894.71 4403.01 1894.71 4397.88 1894.71 4394.06 1892.7 4391.55 1888.66 4389.04 1884.62 4387.79 1878.48 4387.79 1870.26 4387.79 1865.89 4388.17 1862.11 4388.95 1858.93 4389.72 1855.74 4390.8 1853.11 4392.19 1851.03 4393.58 1848.95 4395.25 1847.41 4397.2 1846.42 4399.15 1845.42 4401.27 1844.92 4403.58 1844.92ZM4363.58 1844.92C4368.78 1844.92 4372.66 1846.93 4375.2 1850.94 4377.74 1854.96 4379.01 1861.03 4379.01 1869.16 4379.01 1877.57 4377.65 1883.93 4374.93 1888.25 4372.21 1892.56 4368.24 1894.71 4363.01 1894.71 4357.88 1894.71 4354.06 1892.7 4351.55 1888.66 4349.04 1884.62 4347.79 1878.48 4347.79 1870.26 4347.79 1865.89 4348.17 1862.11 4348.95 1858.93 4349.72 1855.74 4350.8 1853.11 4352.19 1851.03 4353.58 1848.95 4355.25 1847.41 4357.2 1846.42 4359.15 1845.42 4361.27 1844.92 4363.58 1844.92ZM4325.22 1844.92 4327.18 1844.92C4327.03 1847.2 4326.96 1850.36 4326.96 1854.4L4326.96 1884.84C4326.96 1886.22 4327.04 1887.26 4327.19 1887.96 4327.35 1888.66 4327.62 1889.23 4328.01 1889.67 4328.41 1890.11 4328.97 1890.46 4329.71 1890.7 4330.44 1890.95 4331.37 1891.14 4332.49 1891.28 4333.6 1891.41 4335.08 1891.5 4336.91 1891.54L4336.91 1894.14 4310.57 1894.14 4310.57 1891.54C4313.2 1891.42 4315.09 1891.26 4316.22 1891.06 4317.34 1890.86 4318.21 1890.56 4318.8 1890.15 4319.39 1889.75 4319.83 1889.18 4320.1 1888.44 4320.37 1887.7 4320.51 1886.5 4320.51 1884.84L4320.51 1855.93C4320.51 1854.98 4320.34 1854.29 4320.01 1853.85 4319.68 1853.41 4319.19 1853.19 4318.55 1853.19 4317.79 1853.19 4316.71 1853.58 4315.31 1854.37 4313.91 1855.15 4312.17 1856.23 4310.1 1857.61L4308.53 1854.86Z" fill="#F70146" fill-rule="evenodd"/><text fill="#000000" fill-opacity="0" font-family="Arial,Arial_MSFontService,sans-serif" font-size="49.7954" x="4308.53" y="1888.49">100</text><path d="M4564.72 1877.89C4559.89 1877.94 4556.28 1878.58 4553.88 1879.82 4551.48 1881.05 4550.28 1882.92 4550.28 1885.41 4550.28 1886.77 4550.55 1887.84 4551.1 1888.62 4551.65 1889.4 4552.34 1889.94 4553.17 1890.24 4554 1890.54 4554.99 1890.69 4556.13 1890.69 4557.74 1890.69 4559.21 1890.3 4560.53 1889.51 4561.85 1888.73 4562.88 1887.73 4563.61 1886.52 4564.35 1885.3 4564.72 1884.1 4564.72 1882.92ZM4560.87 1859.46C4563.22 1859.46 4565.11 1859.84 4566.53 1860.59 4567.96 1861.33 4569.03 1862.48 4569.74 1864.03 4570.46 1865.57 4570.81 1867.9 4570.81 1871.01L4570.81 1883.42C4570.81 1885.17 4570.82 1886.42 4570.85 1887.14 4570.87 1887.87 4570.94 1888.54 4571.06 1889.15 4571.18 1889.77 4571.36 1890.27 4571.6 1890.63 4571.83 1891 4572.18 1891.32 4572.65 1891.58 4573.11 1891.84 4573.87 1892.11 4574.91 1892.4L4574.91 1894.14 4565.14 1894.14 4565.32 1889.05 4564.79 1888.9C4562.72 1891.02 4560.78 1892.52 4558.96 1893.4 4557.14 1894.28 4555.21 1894.71 4553.17 1894.71 4551.36 1894.71 4549.77 1894.36 4548.39 1893.66 4547.01 1892.96 4545.96 1891.98 4545.22 1890.7 4544.48 1889.43 4544.11 1887.97 4544.11 1886.3 4544.11 1882.83 4545.83 1880.15 4549.26 1878.27 4552.7 1876.38 4557.85 1875.28 4564.72 1874.97L4564.72 1872.65C4564.72 1870.18 4564.48 1868.23 4564 1866.81 4563.53 1865.38 4562.78 1864.33 4561.76 1863.67 4560.74 1863 4559.37 1862.67 4557.66 1862.67 4555.81 1862.67 4554.31 1863.16 4553.19 1864.13 4552.06 1865.11 4551.21 1866.57 4550.64 1868.52L4545.97 1868.52 4545.97 1863.88C4548.25 1862.69 4550.15 1861.82 4551.67 1861.26 4553.19 1860.7 4554.71 1860.26 4556.23 1859.94 4557.75 1859.62 4559.3 1859.46 4560.87 1859.46ZM4520.72 1848.63C4518.37 1848.63 4516.6 1848.67 4515.41 1848.77L4515.41 1870.33 4519.55 1870.33C4522.23 1870.33 4524.45 1869.98 4526.19 1869.28 4527.94 1868.58 4529.28 1867.42 4530.2 1865.79 4531.13 1864.16 4531.59 1862.01 4531.59 1859.32 4531.59 1857.28 4531.32 1855.57 4530.77 1854.2 4530.23 1852.84 4529.47 1851.74 4528.51 1850.91 4527.55 1850.08 4526.4 1849.49 4525.07 1849.14 4523.74 1848.8 4522.29 1848.63 4520.72 1848.63ZM4504.58 1845.49 4522.26 1845.49C4527.82 1845.49 4531.96 1846.55 4534.68 1848.68 4537.4 1850.81 4538.76 1854.04 4538.76 1858.39 4538.76 1860.86 4538.33 1863.09 4537.48 1865.06 4536.62 1867.03 4535.41 1868.65 4533.84 1869.91 4532.27 1871.17 4530.42 1872.07 4528.28 1872.62 4526.14 1873.16 4523.9 1873.44 4521.54 1873.44 4518.9 1873.44 4516.86 1873.39 4515.41 1873.29L4515.41 1885.13C4515.41 1886.53 4515.49 1887.65 4515.64 1888.48 4515.8 1889.31 4516.04 1889.97 4516.36 1890.46 4516.68 1890.94 4517.11 1891.32 4517.66 1891.6 4518.2 1891.87 4519.06 1892.14 4520.22 1892.4L4520.22 1894.14 4504.58 1894.14 4504.58 1892.4C4506.05 1892.02 4507.04 1891.6 4507.53 1891.13 4508.03 1890.67 4508.36 1890.01 4508.51 1889.15 4508.67 1888.3 4508.75 1886.99 4508.75 1885.23L4508.75 1854.4C4508.75 1852.76 4508.69 1851.57 4508.57 1850.82 4508.45 1850.07 4508.25 1849.49 4507.98 1849.07 4507.71 1848.66 4507.34 1848.32 4506.89 1848.07 4506.44 1847.82 4505.67 1847.55 4504.58 1847.24ZM4444.43 1845.49 4457.16 1845.49 4469.67 1880.17 4483.43 1845.49 4495.48 1845.49 4495.48 1847.24C4494.43 1847.5 4493.68 1847.76 4493.21 1848.02 4492.75 1848.28 4492.38 1848.61 4492.11 1849 4491.83 1849.39 4491.63 1849.98 4491.5 1850.77 4491.37 1851.55 4491.31 1852.76 4491.31 1854.4L4491.31 1885.23C4491.31 1886.83 4491.36 1887.99 4491.47 1888.73 4491.57 1889.46 4491.75 1890.05 4492 1890.47 4492.25 1890.9 4492.62 1891.26 4493.11 1891.54 4493.59 1891.83 4494.38 1892.11 4495.48 1892.4L4495.48 1894.14 4480.61 1894.14 4480.61 1892.4C4481.97 1892.07 4482.91 1891.69 4483.43 1891.26 4483.95 1890.83 4484.31 1890.2 4484.5 1889.37 4484.69 1888.54 4484.78 1887.16 4484.78 1885.23L4484.78 1871.58C4484.78 1867.99 4484.84 1864.36 4484.94 1860.69 4485.05 1857.02 4485.17 1854.51 4485.32 1853.15L4484.71 1853.15 4470.6 1888.48 4466.5 1888.48 4453.38 1852.58 4452.77 1852.58C4452.89 1854.03 4453.01 1856.66 4453.11 1860.46 4453.22 1864.26 4453.27 1868.17 4453.27 1872.19L4453.27 1885.23C4453.27 1886.83 4453.33 1887.99 4453.43 1888.73 4453.54 1889.46 4453.72 1890.05 4453.97 1890.47 4454.22 1890.9 4454.59 1891.26 4455.07 1891.54 4455.56 1891.83 4456.35 1892.11 4457.44 1892.4L4457.44 1894.14 4444.43 1894.14 4444.43 1892.4C4445.91 1892.02 4446.89 1891.6 4447.39 1891.13 4447.89 1890.67 4448.22 1890.01 4448.37 1889.15 4448.53 1888.3 4448.6 1886.99 4448.6 1885.23L4448.6 1854.4C4448.6 1852.76 4448.54 1851.57 4448.43 1850.82 4448.31 1850.07 4448.11 1849.49 4447.84 1849.07 4447.56 1848.66 4447.2 1848.32 4446.75 1848.07 4446.3 1847.82 4445.53 1847.55 4444.43 1847.24Z" fill="#F70146" fill-rule="evenodd"/><text fill="#000000" fill-opacity="0" font-family="Arial,Arial_MSFontService,sans-serif" font-size="49.2251" x="4444.43" y="1888.56">MPa</text><path d="M2.33143e-05-6.875 72.0461-6.87476 72.046 6.87524-2.33143e-05 6.875ZM65.1711-20.6248 106.421 0.000360892 65.171 20.6252Z" fill="#F70146" transform="matrix(-1 0 0 1 2621.42 1529)"/><path d="M2.33143e-05-6.875 72.0461-6.87476 72.046 6.87524-2.33143e-05 6.875ZM65.1711-20.6248 106.421 0.000360892 65.171 20.6252Z" fill="#F70146" transform="matrix(-1 0 0 1 2621.42 1666)"/><path d="M2.33143e-05-6.875 72.0461-6.87476 72.046 6.87524-2.33143e-05 6.875ZM65.1711-20.6248 106.421 0.000360892 65.171 20.6252Z" fill="#F70146" transform="matrix(-1 0 0 1 2621.42 1802)"/><path d="M2.33143e-05-6.875 72.0461-6.87476 72.046 6.87524-2.33143e-05 6.875ZM65.1711-20.6248 106.421 0.000360892 65.171 20.6252Z" fill="#F70146" transform="matrix(-1 0 0 1 2621.42 1938)"/><path d="M2.33143e-05-6.875 72.0461-6.87476 72.046 6.87524-2.33143e-05 6.875ZM65.1711-20.6248 106.421 0.000360892 65.171 20.6252Z" fill="#F70146" transform="matrix(-1 0 0 1 2621.42 2075)"/><path d="M2.33143e-05-6.875 72.0461-6.87476 72.046 6.87524-2.33143e-05 6.875ZM65.1711-20.6248 106.421 0.000360892 65.171 20.6252Z" fill="#F70146" transform="matrix(-1 0 0 1 2621.42 2211)"/><path d="M2336.39 1847.95C2334.75 1847.95 2333.38 1848.44 2332.27 1849.41 2331.17 1850.39 2330.27 1851.79 2329.6 1853.62 2328.92 1855.45 2328.44 1857.67 2328.15 1860.3 2327.87 1862.93 2327.73 1865.89 2327.73 1869.19 2327.73 1876.94 2328.44 1882.63 2329.88 1886.25 2331.32 1889.87 2333.55 1891.69 2336.57 1891.69 2339.44 1891.69 2341.57 1889.98 2342.96 1886.57 2344.35 1883.16 2345.05 1877.88 2345.05 1870.73 2345.05 1865.26 2344.69 1860.84 2343.98 1857.45 2343.27 1854.06 2342.27 1851.63 2341 1850.16 2339.73 1848.69 2338.19 1847.95 2336.39 1847.95ZM2296.39 1847.95C2294.75 1847.95 2293.38 1848.44 2292.27 1849.41 2291.17 1850.39 2290.27 1851.79 2289.6 1853.62 2288.92 1855.45 2288.44 1857.67 2288.15 1860.3 2287.87 1862.93 2287.73 1865.89 2287.73 1869.19 2287.73 1876.94 2288.44 1882.63 2289.88 1886.25 2291.32 1889.87 2293.55 1891.69 2296.57 1891.69 2299.44 1891.69 2301.57 1889.98 2302.96 1886.57 2304.35 1883.16 2305.05 1877.88 2305.05 1870.73 2305.05 1865.26 2304.69 1860.84 2303.98 1857.45 2303.27 1854.06 2302.27 1851.63 2301 1850.16 2299.73 1848.69 2298.19 1847.95 2296.39 1847.95ZM2336.57 1844.92C2341.77 1844.92 2345.64 1846.93 2348.19 1850.94 2350.73 1854.96 2352 1861.03 2352 1869.16 2352 1877.57 2350.64 1883.93 2347.92 1888.25 2345.2 1892.56 2341.22 1894.72 2336 1894.72 2330.86 1894.72 2327.04 1892.7 2324.54 1888.66 2322.03 1884.62 2320.77 1878.49 2320.77 1870.26 2320.77 1865.89 2321.16 1862.11 2321.93 1858.93 2322.71 1855.74 2323.79 1853.11 2325.18 1851.03 2326.57 1848.95 2328.24 1847.42 2330.19 1846.42 2332.13 1845.42 2334.26 1844.92 2336.57 1844.92ZM2296.57 1844.92C2301.77 1844.92 2305.64 1846.93 2308.19 1850.94 2310.73 1854.96 2312 1861.03 2312 1869.16 2312 1877.57 2310.64 1883.93 2307.92 1888.25 2305.2 1892.56 2301.22 1894.72 2296 1894.72 2290.86 1894.72 2287.04 1892.7 2284.54 1888.66 2282.03 1884.62 2280.77 1878.49 2280.77 1870.26 2280.77 1865.89 2281.16 1862.11 2281.93 1858.93 2282.71 1855.74 2283.79 1853.11 2285.18 1851.03 2286.57 1848.95 2288.24 1847.42 2290.19 1846.42 2292.13 1845.42 2294.26 1844.92 2296.57 1844.92ZM2258.2 1844.92 2260.16 1844.92C2260.02 1847.2 2259.95 1850.36 2259.95 1854.4L2259.95 1884.84C2259.95 1886.22 2260.03 1887.26 2260.18 1887.96 2260.34 1888.66 2260.61 1889.23 2261 1889.67 2261.39 1890.11 2261.96 1890.46 2262.69 1890.71 2263.43 1890.95 2264.36 1891.14 2265.47 1891.28 2266.59 1891.41 2268.06 1891.5 2269.89 1891.54L2269.89 1894.15 2243.55 1894.15 2243.55 1891.54C2246.19 1891.42 2248.07 1891.26 2249.2 1891.06 2250.33 1890.86 2251.19 1890.56 2251.79 1890.15 2252.38 1889.75 2252.81 1889.18 2253.09 1888.44 2253.36 1887.71 2253.5 1886.51 2253.5 1884.84L2253.5 1855.93C2253.5 1854.98 2253.33 1854.29 2253 1853.85 2252.67 1853.41 2252.18 1853.19 2251.54 1853.19 2250.78 1853.19 2249.7 1853.58 2248.29 1854.37 2246.89 1855.15 2245.16 1856.23 2243.09 1857.61L2241.52 1854.86Z" fill="#F70146" fill-rule="evenodd"/><text fill="#000000" fill-opacity="0" font-family="Arial,Arial_MSFontService,sans-serif" font-size="49.7954" x="2241.52" y="1888.49">100</text><path d="M2497.7 1877.89C2492.88 1877.94 2489.27 1878.58 2486.87 1879.82 2484.47 1881.05 2483.27 1882.92 2483.27 1885.41 2483.27 1886.77 2483.54 1887.84 2484.09 1888.62 2484.63 1889.4 2485.32 1889.94 2486.16 1890.24 2486.99 1890.54 2487.97 1890.69 2489.11 1890.69 2490.73 1890.69 2492.2 1890.3 2493.52 1889.51 2494.83 1888.73 2495.86 1887.73 2496.6 1886.52 2497.34 1885.31 2497.7 1884.11 2497.7 1882.92ZM2493.85 1859.46C2496.21 1859.46 2498.1 1859.84 2499.52 1860.59 2500.95 1861.33 2502.02 1862.48 2502.73 1864.03 2503.44 1865.57 2503.8 1867.9 2503.8 1871.01L2503.8 1883.42C2503.8 1885.17 2503.81 1886.42 2503.83 1887.14 2503.86 1887.87 2503.93 1888.54 2504.05 1889.15 2504.17 1889.77 2504.35 1890.27 2504.58 1890.63 2504.82 1891 2505.17 1891.32 2505.63 1891.58 2506.1 1891.84 2506.85 1892.11 2507.9 1892.4L2507.9 1894.15 2498.13 1894.15 2498.31 1889.05 2497.78 1888.91C2495.71 1891.02 2493.77 1892.52 2491.95 1893.4 2490.13 1894.28 2488.2 1894.72 2486.16 1894.72 2484.35 1894.72 2482.76 1894.36 2481.38 1893.66 2480 1892.96 2478.94 1891.98 2478.21 1890.71 2477.47 1889.43 2477.1 1887.97 2477.1 1886.3 2477.1 1882.83 2478.82 1880.15 2482.25 1878.27 2485.69 1876.38 2490.84 1875.28 2497.7 1874.97L2497.7 1872.65C2497.7 1870.18 2497.47 1868.23 2496.99 1866.81 2496.52 1865.38 2495.77 1864.33 2494.75 1863.67 2493.72 1863 2492.36 1862.67 2490.65 1862.67 2488.79 1862.67 2487.3 1863.16 2486.17 1864.13 2485.04 1865.11 2484.19 1866.57 2483.62 1868.52L2478.95 1868.52 2478.95 1863.88C2481.24 1862.69 2483.14 1861.82 2484.66 1861.26 2486.18 1860.7 2487.7 1860.26 2489.22 1859.94 2490.74 1859.62 2492.29 1859.46 2493.85 1859.46ZM2453.71 1848.63C2451.36 1848.63 2449.59 1848.67 2448.4 1848.77L2448.4 1870.33 2452.53 1870.33C2455.22 1870.33 2457.43 1869.98 2459.18 1869.28 2460.93 1868.58 2462.26 1867.42 2463.19 1865.79 2464.12 1864.16 2464.58 1862.01 2464.58 1859.32 2464.58 1857.28 2464.31 1855.57 2463.76 1854.21 2463.21 1852.84 2462.46 1851.74 2461.5 1850.91 2460.54 1850.08 2459.39 1849.49 2458.06 1849.14 2456.73 1848.8 2455.28 1848.63 2453.71 1848.63ZM2437.56 1845.49 2455.24 1845.49C2460.8 1845.49 2464.94 1846.55 2467.66 1848.68 2470.39 1850.81 2471.75 1854.04 2471.75 1858.39 2471.75 1860.86 2471.32 1863.09 2470.46 1865.06 2469.61 1867.03 2468.4 1868.65 2466.83 1869.91 2465.26 1871.17 2463.41 1872.07 2461.27 1872.62 2459.13 1873.16 2456.88 1873.44 2454.53 1873.44 2451.89 1873.44 2449.85 1873.39 2448.4 1873.29L2448.4 1885.13C2448.4 1886.53 2448.48 1887.65 2448.63 1888.48 2448.78 1889.31 2449.02 1889.97 2449.34 1890.46 2449.66 1890.94 2450.1 1891.32 2450.64 1891.6 2451.19 1891.87 2452.05 1892.14 2453.21 1892.4L2453.21 1894.15 2437.56 1894.15 2437.56 1892.4C2439.04 1892.02 2440.02 1891.6 2440.52 1891.13 2441.02 1890.67 2441.35 1890.01 2441.5 1889.15 2441.66 1888.3 2441.73 1886.99 2441.73 1885.23L2441.73 1854.4C2441.73 1852.76 2441.67 1851.57 2441.55 1850.82 2441.44 1850.07 2441.24 1849.49 2440.97 1849.07 2440.69 1848.66 2440.33 1848.32 2439.88 1848.07 2439.43 1847.82 2438.66 1847.55 2437.56 1847.24ZM2377.42 1845.49 2390.15 1845.49 2402.66 1880.17 2416.42 1845.49 2428.46 1845.49 2428.46 1847.24C2427.42 1847.5 2426.66 1847.76 2426.2 1848.02 2425.74 1848.28 2425.37 1848.61 2425.09 1849 2424.82 1849.39 2424.62 1849.98 2424.49 1850.77 2424.36 1851.55 2424.29 1852.76 2424.29 1854.4L2424.29 1885.23C2424.29 1886.83 2424.35 1887.99 2424.45 1888.73 2424.56 1889.46 2424.74 1890.05 2424.99 1890.47 2425.24 1890.9 2425.61 1891.26 2426.09 1891.54 2426.58 1891.83 2427.37 1892.11 2428.46 1892.4L2428.46 1894.15 2413.6 1894.15 2413.6 1892.4C2414.95 1892.07 2415.89 1891.69 2416.42 1891.26 2416.94 1890.83 2417.29 1890.2 2417.48 1889.37 2417.67 1888.54 2417.77 1887.16 2417.77 1885.23L2417.77 1871.58C2417.77 1867.99 2417.82 1864.36 2417.93 1860.69 2418.04 1857.02 2418.16 1854.51 2418.3 1853.15L2417.7 1853.15 2403.58 1888.48 2399.48 1888.48 2386.37 1852.58 2385.76 1852.58C2385.88 1854.03 2385.99 1856.66 2386.1 1860.46 2386.21 1864.26 2386.26 1868.17 2386.26 1872.19L2386.26 1885.23C2386.26 1886.83 2386.31 1887.99 2386.42 1888.73 2386.53 1889.46 2386.71 1890.05 2386.96 1890.47 2387.2 1890.9 2387.57 1891.26 2388.06 1891.54 2388.55 1891.83 2389.34 1892.11 2390.43 1892.4L2390.43 1894.15 2377.42 1894.15 2377.42 1892.4C2378.89 1892.02 2379.88 1891.6 2380.38 1891.13 2380.88 1890.67 2381.2 1890.01 2381.36 1889.15 2381.51 1888.3 2381.59 1886.99 2381.59 1885.23L2381.59 1854.4C2381.59 1852.76 2381.53 1851.57 2381.41 1850.82 2381.29 1850.07 2381.1 1849.49 2380.82 1849.07 2380.55 1848.66 2380.19 1848.32 2379.74 1848.07 2379.29 1847.82 2378.51 1847.55 2377.42 1847.24Z" fill="#F70146" fill-rule="evenodd"/><text fill="#000000" fill-opacity="0" font-family="Arial,Arial_MSFontService,sans-serif" font-size="49.2251" x="2377.42" y="1888.56">MPa</text></g></svg>