<svg width="2077" height="812" xmlns="http://www.w3.org/2000/svg" xmlns:xlink="http://www.w3.org/1999/xlink" overflow="hidden"><defs><clipPath id="clip0"><rect x="2527" y="442" width="2077" height="812"/></clipPath></defs><g clip-path="url(#clip0)" transform="translate(-2527 -442)"><rect x="2791.5" y="470.5" width="1533" height="756" stroke="#0F0F0F" stroke-width="6.875" stroke-linejoin="round" stroke-miterlimit="10" fill="#E7E7E7"/><path d="M3395.5 849C3395.5 759.254 3468.25 686.5 3558 686.5 3647.75 686.5 3720.5 759.254 3720.5 849 3720.5 938.746 3647.75 1011.5 3558 1011.5 3468.25 1011.5 3395.5 938.746 3395.5 849Z" stroke="#0F0F0F" stroke-width="6.875" stroke-miterlimit="8" fill="#FFFFFF" fill-rule="evenodd"/><path d="M17.8259 14.5829 215.115 211.847 211.874 215.088 14.5852 17.824ZM9.72456 29.1675 0 0 29.1688 9.72088ZM219.975 200.503 229.7 229.67 200.531 219.95Z" fill="#0F0F0F" transform="matrix(1 0 0 -1 3443.5 964.171)"/><path d="M2.29168 22.9168 2.29202 732.853-2.29132 732.853-2.29166 22.9168ZM-13.75 27.5 0 0 13.75 27.5ZM13.7503 728.269 0.000360892 755.769-13.7497 728.269Z" fill="#0F0F0F" transform="matrix(1 0 0 -1 3294.5 1226.27)"/><path d="M2814.42 1100.21 4301.71 1100.21 4301.71 1104.79 2814.42 1104.79ZM2819 1116.25 2791.5 1102.5 2819 1088.75ZM4297.12 1088.75 4324.62 1102.5 4297.12 1116.25Z" fill="#0F0F0F"/><path d="M3541.27 805.877C3542.77 805.877 3543.95 806.37 3544.82 807.356 3545.69 808.342 3546.12 809.631 3546.12 811.223 3546.12 812.411 3545.89 813.635 3545.44 814.895L3545.91 815.073C3548.23 811.912 3550.47 809.596 3552.62 808.122 3554.78 806.649 3556.96 805.912 3559.17 805.912 3560.9 805.912 3562.35 806.043 3563.51 806.304L3561.8 814.289 3558.13 814.289C3557.99 813.291 3557.79 812.518 3557.53 811.972 3557.26 811.425 3556.96 811.045 3556.6 810.831 3556.24 810.617 3555.79 810.51 3555.24 810.51 3554.39 810.51 3553.46 810.879 3552.45 811.615 3551.44 812.352 3550.3 813.505 3549.04 815.073 3547.78 816.641 3546.78 818.15 3546.03 819.6 3545.28 821.049 3544.66 822.891 3544.16 825.125L3540.77 840.559 3534.61 840.559 3539.77 817.96C3540.11 816.534 3540.32 815.429 3540.42 814.645 3540.51 813.861 3540.56 813.208 3540.56 812.685 3540.56 811.734 3540.4 811.045 3540.1 810.617 3539.79 810.19 3539.3 809.976 3538.63 809.976 3537.9 809.976 3537.12 810.279 3536.3 810.885 3535.48 811.491 3534.36 812.59 3532.93 814.182L3530.9 812.186C3533.09 809.904 3534.92 808.283 3536.39 807.32 3537.86 806.358 3539.49 805.877 3541.27 805.877ZM3509.57 791.334C3513.99 791.334 3517.33 792.302 3519.59 794.239 3521.85 796.175 3522.98 798.985 3522.98 802.669 3522.98 803.928 3522.85 805.087 3522.6 806.144 3522.35 807.201 3521.96 808.247 3521.43 809.281 3520.89 810.314 3520.17 811.425 3519.27 812.613 3518.37 813.802 3517.37 815.008 3516.28 816.231 3515.18 817.455 3513.29 819.493 3510.61 822.344 3506.09 827.121 3502.78 831.291 3500.66 834.856L3514.1 834.856C3515.27 834.856 3516.2 834.784 3516.92 834.642 3517.63 834.499 3518.2 834.262 3518.63 833.929 3519.06 833.596 3519.4 833.163 3519.64 832.628 3519.89 832.093 3520.21 831.267 3520.59 830.151L3523.62 830.151 3523.01 840.559 3493.68 840.559 3493.68 838.848C3494.7 836.353 3496.08 833.798 3497.81 831.184 3499.55 828.57 3502.01 825.493 3505.19 821.952 3507.95 818.911 3509.93 816.606 3511.14 815.037 3512.47 813.326 3513.47 811.847 3514.12 810.6 3514.77 809.352 3515.24 808.176 3515.53 807.071 3515.81 805.966 3515.96 804.855 3515.96 803.738 3515.96 801.956 3515.67 800.381 3515.1 799.015 3514.53 797.649 3513.66 796.573 3512.48 795.789 3511.3 795.005 3509.82 794.613 3508.04 794.613 3503.6 794.613 3500.6 797.084 3499.06 802.027L3494.75 802.027 3494.75 795.183C3497.62 793.829 3500.31 792.849 3502.82 792.243 3505.33 791.637 3507.58 791.334 3509.57 791.334Z" fill-rule="evenodd"/><text fill="#000000" fill-opacity="0" font-family="Arial,Arial_MSFontService,sans-serif" font-size="49.2251" x="3493.68" y="834.406">2𝑟</text><path d="M3225.88 825.691C3230.3 825.691 3233.64 826.659 3235.89 828.596 3238.15 830.533 3239.28 833.343 3239.28 837.026 3239.28 838.285 3239.15 839.444 3238.9 840.501 3238.66 841.559 3238.26 842.604 3237.73 843.638 3237.19 844.672 3236.48 845.783 3235.57 846.971 3234.67 848.159 3233.67 849.365 3232.58 850.589 3231.48 851.812 3229.6 853.85 3226.91 856.702 3222.4 861.478 3219.08 865.648 3216.97 869.213L3230.4 869.213C3231.57 869.213 3232.51 869.142 3233.22 868.999 3233.93 868.857 3234.5 868.619 3234.93 868.286 3235.36 867.953 3235.7 867.52 3235.95 866.985 3236.2 866.451 3236.51 865.625 3236.89 864.508L3239.92 864.508 3239.31 874.916 3209.98 874.916 3209.98 873.205C3211 870.71 3212.38 868.156 3214.11 865.542 3215.85 862.928 3218.31 859.85 3221.49 856.31 3224.25 853.268 3226.23 850.963 3227.45 849.395 3228.78 847.684 3229.77 846.204 3230.42 844.957 3231.07 843.709 3231.54 842.533 3231.83 841.428 3232.11 840.323 3232.26 839.212 3232.26 838.095 3232.26 836.313 3231.97 834.739 3231.4 833.372 3230.83 832.006 3229.96 830.931 3228.78 830.147 3227.61 829.362 3226.13 828.97 3224.34 828.97 3219.9 828.97 3216.91 831.442 3215.36 836.384L3211.05 836.384 3211.05 829.541C3213.92 828.186 3216.61 827.206 3219.12 826.6 3221.63 825.994 3223.88 825.691 3225.88 825.691ZM3264.95 823.944 3267.02 823.944 3260.89 848.646 3261.32 848.789C3263.57 845.794 3265.71 843.626 3267.71 842.284 3269.72 840.941 3271.75 840.27 3273.79 840.27 3276 840.27 3277.7 840.905 3278.89 842.177 3280.08 843.448 3280.67 845.212 3280.67 847.47 3280.67 848.967 3280.33 851.094 3279.64 853.85L3277.32 863.189C3276.68 865.779 3276.36 867.609 3276.36 868.678 3276.36 869.629 3276.51 870.318 3276.82 870.746 3277.13 871.173 3277.62 871.387 3278.28 871.387 3279 871.387 3279.76 871.096 3280.56 870.514 3281.37 869.932 3282.51 868.821 3283.99 867.181L3286.02 869.177C3283.74 871.577 3281.87 873.229 3280.4 874.132 3278.94 875.035 3277.3 875.486 3275.47 875.486 3273.92 875.486 3272.69 874.94 3271.78 873.847 3270.86 872.754 3270.41 871.34 3270.41 869.605 3270.41 868.06 3270.8 865.791 3271.58 862.797L3273.11 856.63C3273.66 854.42 3274.03 852.763 3274.22 851.658 3274.41 850.553 3274.5 849.692 3274.5 849.074 3274.5 847.387 3274.23 846.193 3273.68 845.492 3273.14 844.791 3272.25 844.44 3271.01 844.44 3270.04 844.44 3268.96 844.844 3267.77 845.652 3266.58 846.46 3265.33 847.69 3264.03 849.341 3262.72 850.993 3261.68 852.573 3260.91 854.082 3260.13 855.591 3259.52 857.391 3259.07 859.482L3255.83 874.916 3249.66 874.916 3258.82 834.174C3259.39 831.632 3259.68 829.873 3259.68 828.899 3259.68 827.901 3259.37 827.2 3258.77 826.796 3258.16 826.392 3257.07 826.166 3255.51 826.119L3255.93 824.265Z" fill-rule="evenodd"/><text fill="#000000" fill-opacity="0" font-family="Arial,Arial_MSFontService,sans-serif" font-size="51.542" x="3209.98" y="869.044">2ℎ</text><path d="M3775.29 1038.68 3789.55 1038.68 3789.15 1040.43C3788.25 1040.62 3787.6 1040.83 3787.21 1041.07 3786.82 1041.31 3786.47 1041.67 3786.16 1042.14 3785.85 1042.62 3785.53 1043.36 3785.2 1044.37 3784.86 1045.38 3784.45 1047.02 3783.95 1049.31L3776.32 1084.06 3785.09 1084.06C3786.68 1084.06 3787.94 1083.91 3788.85 1083.6 3789.77 1083.29 3790.63 1082.72 3791.45 1081.9 3792.27 1081.08 3793.08 1079.97 3793.86 1078.57 3794.64 1077.17 3795.44 1075.42 3796.25 1073.33L3799.71 1073.33 3796.1 1087.34 3765.95 1087.34 3766.34 1085.59C3767.24 1085.45 3767.92 1085.22 3768.37 1084.9 3768.82 1084.58 3769.21 1084.13 3769.51 1083.56 3769.82 1082.99 3770.11 1082.3 3770.37 1081.48 3770.63 1080.66 3771.02 1079.07 3771.55 1076.72L3777.61 1049.27C3778.13 1046.89 3778.39 1044.98 3778.39 1043.53 3778.39 1042.41 3778.11 1041.64 3777.55 1041.2 3776.99 1040.76 3776.11 1040.5 3774.9 1040.43ZM3743.41 1038.11C3747.83 1038.11 3751.17 1039.08 3753.43 1041.02 3755.69 1042.96 3756.82 1045.77 3756.82 1049.45 3756.82 1050.71 3756.69 1051.87 3756.44 1052.92 3756.19 1053.98 3755.8 1055.03 3755.27 1056.06 3754.73 1057.09 3754.01 1058.21 3753.11 1059.39 3752.21 1060.58 3751.21 1061.79 3750.11 1063.01 3749.02 1064.24 3747.13 1066.27 3744.45 1069.12 3739.93 1073.9 3736.62 1078.07 3734.5 1081.64L3747.94 1081.64C3749.1 1081.64 3750.04 1081.56 3750.76 1081.42 3751.47 1081.28 3752.04 1081.04 3752.47 1080.71 3752.9 1080.38 3753.23 1079.94 3753.48 1079.41 3753.73 1078.87 3754.05 1078.05 3754.43 1076.93L3757.46 1076.93 3756.85 1087.34 3727.52 1087.34 3727.52 1085.63C3728.54 1083.13 3729.92 1080.58 3731.65 1077.96 3733.39 1075.35 3735.84 1072.27 3739.03 1068.73 3741.79 1065.69 3743.77 1063.39 3744.98 1061.82 3746.31 1060.11 3747.3 1058.63 3747.96 1057.38 3748.61 1056.13 3749.08 1054.96 3749.37 1053.85 3749.65 1052.75 3749.79 1051.63 3749.79 1050.52 3749.79 1048.74 3749.51 1047.16 3748.94 1045.8 3748.37 1044.43 3747.49 1043.35 3746.32 1042.57 3745.14 1041.79 3743.66 1041.39 3741.88 1041.39 3737.44 1041.39 3734.44 1043.86 3732.9 1048.81L3728.59 1048.81 3728.59 1041.96C3731.46 1040.61 3734.15 1039.63 3736.66 1039.02 3739.17 1038.42 3741.42 1038.11 3743.41 1038.11Z" fill-rule="evenodd"/><text fill="#000000" fill-opacity="0" font-family="Arial,Arial_MSFontService,sans-serif" font-size="49.2251" x="3727.52" y="1081.19">2𝐿</text><path d="M4344.5 470.5 4344.5 1226.64" stroke="#F70146" stroke-width="20.625" stroke-miterlimit="8" fill="none" fill-rule="evenodd"/><path d="M2774.5 474.5 2774.5 1230.64" stroke="#F70146" stroke-width="20.625" stroke-miterlimit="8" fill="none" fill-rule="evenodd"/><path d="M4344 499.125 4416.05 499.125 4416.05 512.875 4344 512.875ZM4409.17 485.375 4450.42 506 4409.17 526.625Z" fill="#F70146"/><path d="M4344 635.125 4416.05 635.125 4416.05 648.875 4344 648.875ZM4409.17 621.375 4450.42 642 4409.17 662.625Z" fill="#F70146"/><path d="M4344 771.125 4416.05 771.125 4416.05 784.875 4344 784.875ZM4409.17 757.375 4450.42 778 4409.17 798.625Z" fill="#F70146"/><path d="M4344 908.125 4416.05 908.125 4416.05 921.875 4344 921.875ZM4409.17 894.375 4450.42 915 4409.17 935.625Z" fill="#F70146"/><path d="M4344 1044.12 4416.05 1044.13 4416.05 1057.88 4344 1057.87ZM4409.17 1030.38 4450.42 1051 4409.17 1071.63Z" fill="#F70146"/><path d="M4344 1180.12 4416.05 1180.13 4416.05 1193.88 4344 1193.88ZM4409.17 1166.38 4450.42 1187 4409.17 1207.63Z" fill="#F70146"/><path d="M4474.23 840.234C4475.75 840.234 4476.95 840.745 4477.83 841.766 4478.71 842.788 4479.15 844.166 4479.15 845.901 4479.15 847.778 4478.78 850.119 4478.04 852.923L4476.48 859.09C4476.07 860.658 4475.78 861.882 4475.6 862.761 4475.42 863.64 4475.29 864.401 4475.21 865.042 4475.13 865.684 4475.08 866.218 4475.08 866.646 4475.08 868.286 4475.36 869.468 4475.9 870.193 4476.45 870.918 4477.34 871.28 4478.58 871.28 4479.58 871.28 4480.65 870.882 4481.8 870.086 4482.96 869.29 4484.18 868.09 4485.48 866.486 4486.77 864.882 4487.81 863.325 4488.59 861.816 4489.38 860.307 4490.02 858.448 4490.52 856.238L4493.91 840.804 4500.07 840.804 4494.87 863.403C4494.34 865.684 4494.08 867.442 4494.08 868.678 4494.08 869.628 4494.24 870.318 4494.55 870.745 4494.86 871.173 4495.34 871.387 4496.01 871.387 4496.72 871.387 4497.48 871.096 4498.29 870.514 4499.1 869.931 4500.24 868.82 4501.71 867.181L4503.74 869.177C4501.58 871.482 4499.74 873.11 4498.22 874.06 4496.7 875.011 4495.08 875.486 4493.37 875.486 4491.9 875.486 4490.72 874.999 4489.84 874.025 4488.96 873.05 4488.52 871.755 4488.52 870.139 4488.52 868.856 4488.81 867.454 4489.38 865.933L4488.95 865.791C4486.6 869.094 4484.37 871.529 4482.27 873.098 4480.16 874.666 4478.01 875.45 4475.8 875.45 4473.59 875.45 4471.89 874.815 4470.7 873.543 4469.51 872.272 4468.92 870.508 4468.92 868.25 4468.92 866.753 4469.26 864.626 4469.95 861.87L4472.27 852.531C4472.91 849.941 4473.23 848.111 4473.23 847.042 4473.23 846.091 4473.08 845.402 4472.77 844.974 4472.46 844.547 4471.97 844.333 4471.31 844.333 4470.57 844.333 4469.79 844.636 4468.97 845.242 4468.15 845.848 4467.03 846.947 4465.6 848.539L4463.57 846.543C4465.59 844.499 4467.11 843.097 4468.13 842.337 4469.16 841.576 4470.14 841.036 4471.08 840.715 4472.01 840.394 4473.06 840.234 4474.23 840.234Z" fill="#F70146" fill-rule="evenodd"/><text fill="#000000" fill-opacity="0" font-family="Arial,Arial_MSFontService,sans-serif" font-size="35.2524" x="4463.57" y="871.079">𝑢</text><path d="M4522.96 866.02C4522.02 866.02 4521.08 866.253 4520.16 866.719 4519.23 867.185 4518.36 867.844 4517.54 868.698 4516.72 869.552 4515.98 870.588 4515.3 871.804 4514.63 873.02 4514.07 874.379 4513.62 875.88 4515.81 875.863 4517.7 875.69 4519.28 875.362 4520.86 875.034 4522.15 874.586 4523.16 874.017 4524.17 873.447 4524.91 872.774 4525.38 871.998 4525.86 871.222 4526.1 870.368 4526.1 869.436 4526.1 868.366 4525.83 867.53 4525.29 866.926 4524.76 866.322 4523.98 866.02 4522.96 866.02ZM4545.03 863.458C4545.98 863.458 4546.75 863.665 4547.36 864.079 4547.96 864.493 4548.46 865.097 4548.86 865.891 4549.26 866.684 4549.58 867.663 4549.84 868.828 4550.1 869.992 4550.38 871.325 4550.67 872.826L4551.01 872.826C4552.04 871.463 4552.94 870.281 4553.7 869.281 4554.46 868.28 4555.13 867.435 4555.73 866.745 4556.33 866.054 4556.86 865.494 4557.33 865.062 4557.81 864.631 4558.27 864.299 4558.72 864.066 4559.17 863.833 4559.63 863.674 4560.1 863.587 4560.58 863.501 4561.11 863.458 4561.7 863.458 4562.56 863.458 4563.34 863.613 4564.05 863.924L4562.76 869.022 4560.61 869.022C4560.56 868.28 4560.28 867.909 4559.78 867.909 4559.59 867.909 4559.38 867.944 4559.16 868.013 4558.94 868.082 4558.67 868.22 4558.36 868.427 4558.05 868.634 4557.69 868.923 4557.28 869.294 4556.88 869.665 4556.4 870.148 4555.85 870.743 4555.29 871.338 4554.67 872.067 4553.96 872.93 4553.25 873.792 4552.44 874.81 4551.52 875.983 4551.99 878.364 4552.39 880.271 4552.73 881.703 4553.06 883.135 4553.39 884.23 4553.7 884.989 4554.01 885.748 4554.32 886.244 4554.63 886.477 4554.94 886.71 4555.29 886.827 4555.69 886.827 4555.98 886.827 4556.26 886.792 4556.51 886.723 4556.76 886.654 4557.02 886.503 4557.28 886.27 4557.55 886.037 4557.85 885.701 4558.18 885.261 4558.5 884.821 4558.89 884.239 4559.34 883.514L4561.28 884.782C4560.52 885.921 4559.85 886.852 4559.26 887.577 4558.68 888.302 4558.11 888.871 4557.55 889.285 4557 889.699 4556.43 889.979 4555.85 890.126 4555.26 890.273 4554.59 890.346 4553.83 890.346 4553.17 890.346 4552.59 890.256 4552.07 890.074 4551.55 889.893 4551.1 889.561 4550.72 889.078 4550.46 888.785 4550.22 888.392 4550 887.901 4549.77 887.409 4549.57 886.878 4549.38 886.309 4549.19 885.74 4549.01 885.149 4548.86 884.536 4548.7 883.924 4548.57 883.35 4548.47 882.815 4548.37 882.281 4548.29 881.802 4548.23 881.379 4548.17 880.956 4548.13 880.642 4548.11 880.435L4547.82 880.435C4546.79 881.815 4545.89 883.018 4545.12 884.045 4544.35 885.071 4543.66 885.951 4543.04 886.684 4542.42 887.417 4541.85 888.021 4541.35 888.496 4540.85 888.97 4540.36 889.345 4539.88 889.622 4539.4 889.898 4538.9 890.087 4538.39 890.191 4537.88 890.294 4537.32 890.346 4536.7 890.346 4535.8 890.346 4535.03 890.191 4534.39 889.88L4535.58 884.834 4537.78 884.834C4537.83 885.593 4538.12 885.973 4538.64 885.973 4538.83 885.955 4539.01 885.921 4539.19 885.869 4539.37 885.817 4539.59 885.709 4539.83 885.546 4540.07 885.382 4540.38 885.123 4540.75 884.769 4541.12 884.416 4541.59 883.924 4542.16 883.294 4542.73 882.664 4543.42 881.875 4544.25 880.926 4545.08 879.977 4546.07 878.804 4547.23 877.407 4546.92 875.957 4546.65 874.698 4546.41 873.628 4546.18 872.559 4545.97 871.64 4545.77 870.872 4545.57 870.104 4545.37 869.479 4545.18 868.996 4544.99 868.513 4544.8 868.129 4544.6 867.844 4544.4 867.56 4544.19 867.357 4543.96 867.236 4543.72 867.115 4543.45 867.047 4543.14 867.029 4542.85 867.029 4542.58 867.077 4542.32 867.172 4542.07 867.266 4541.82 867.435 4541.55 867.676 4541.28 867.918 4540.99 868.254 4540.67 868.685 4540.35 869.117 4539.98 869.677 4539.57 870.368L4537.58 869.074C4538.28 868.021 4538.92 867.133 4539.49 866.408 4540.06 865.684 4540.62 865.106 4541.17 864.674 4541.73 864.243 4542.31 863.932 4542.92 863.743 4543.53 863.553 4544.24 863.458 4545.03 863.458ZM4524.08 863.458C4526.29 863.458 4527.96 863.941 4529.11 864.907 4530.26 865.873 4530.83 867.245 4530.83 869.022 4530.83 875.267 4524.92 878.39 4513.1 878.39 4513.02 878.839 4512.95 879.326 4512.9 879.852 4512.85 880.378 4512.82 880.952 4512.82 881.573 4512.82 883.454 4513.2 884.825 4513.97 885.688 4514.74 886.551 4515.93 886.982 4517.56 886.982 4518.4 886.982 4519.2 886.891 4519.96 886.71 4520.72 886.529 4521.47 886.249 4522.2 885.869 4522.93 885.49 4523.67 885.002 4524.41 884.407 4525.16 883.812 4525.93 883.1 4526.74 882.272L4528.68 884.368C4526.68 886.352 4524.69 887.844 4522.69 888.845 4520.7 889.846 4518.56 890.346 4516.26 890.346 4514.92 890.346 4513.72 890.143 4512.68 889.738 4511.63 889.333 4510.75 888.742 4510.04 887.965 4509.32 887.189 4508.78 886.244 4508.41 885.132 4508.04 884.019 4507.85 882.764 4507.85 881.366 4507.85 880.383 4507.94 879.361 4508.11 878.299 4508.28 877.238 4508.55 876.177 4508.91 875.116 4509.27 874.055 4509.72 873.02 4510.26 872.011 4510.79 871.002 4511.42 870.057 4512.15 869.177 4513.6 867.383 4515.34 865.981 4517.39 864.972 4519.43 863.963 4521.66 863.458 4524.08 863.458ZM4576.67 857.428 4580.7 857.428 4579.23 864.001 4588.03 864.001 4587.43 866.874 4578.66 866.874 4576.02 877.717C4575.85 878.442 4575.71 879.093 4575.59 879.671 4575.48 880.249 4575.39 880.771 4575.32 881.237 4575.25 881.703 4575.2 882.125 4575.18 882.505 4575.15 882.884 4575.14 883.238 4575.14 883.566 4575.14 884.601 4575.36 885.412 4575.79 885.998 4576.22 886.585 4576.93 886.878 4577.91 886.878 4578.74 886.878 4579.62 886.572 4580.55 885.96 4581.48 885.347 4582.54 884.385 4583.73 883.074L4585.52 884.886C4584.64 885.869 4583.8 886.706 4583.01 887.396 4582.21 888.086 4581.44 888.651 4580.68 889.091 4579.92 889.531 4579.17 889.85 4578.43 890.049 4577.69 890.247 4576.93 890.346 4576.15 890.346 4574.1 890.346 4572.56 889.863 4571.56 888.897 4570.55 887.931 4570.04 886.507 4570.04 884.627 4570.04 883.989 4570.09 883.286 4570.18 882.518 4570.28 881.75 4570.41 881.004 4570.59 880.279L4573.67 866.874 4569.21 866.874 4569.73 864.881C4570.77 864.881 4571.57 864.782 4572.15 864.584 4572.73 864.385 4573.22 864.114 4573.61 863.768 4573.87 863.527 4574.12 863.229 4574.36 862.876 4574.61 862.522 4574.85 862.095 4575.09 861.595 4575.33 861.094 4575.58 860.503 4575.83 859.822 4576.08 859.141 4576.36 858.343 4576.67 857.428Z" fill="#F70146" fill-rule="evenodd"/><text fill="#000000" fill-opacity="0" font-family="Arial,Arial_MSFontService,sans-serif" font-size="32.918" x="4507.85" y="886.231">𝑒𝑥𝑡</text><path d="M2.33143e-05-6.875 72.0461-6.87476 72.046 6.87524-2.33143e-05 6.875ZM65.1711-20.6248 106.421 0.000360892 65.171 20.6252Z" fill="#F70146" transform="matrix(-1 0 0 1 2773.42 507)"/><path d="M2.33143e-05-6.875 72.0461-6.87476 72.046 6.87524-2.33143e-05 6.875ZM65.1711-20.6248 106.421 0.000360892 65.171 20.6252Z" fill="#F70146" transform="matrix(-1 0 0 1 2773.42 643)"/><path d="M2.33143e-05-6.875 72.0461-6.87476 72.046 6.87524-2.33143e-05 6.875ZM65.1711-20.6248 106.421 0.000360892 65.171 20.6252Z" fill="#F70146" transform="matrix(-1 0 0 1 2773.42 779)"/><path d="M2.33143e-05-6.875 72.0461-6.87476 72.046 6.87524-2.33143e-05 6.875ZM65.1711-20.6248 106.421 0.000360892 65.171 20.6252Z" fill="#F70146" transform="matrix(-1 0 0 1 2773.42 916)"/><path d="M2.33143e-05-6.875 72.0461-6.87476 72.046 6.87524-2.33143e-05 6.875ZM65.1711-20.6248 106.421 0.000360892 65.171 20.6252Z" fill="#F70146" transform="matrix(-1 0 0 1 2773.42 1052)"/><path d="M2.33143e-05-6.875 72.0461-6.87476 72.046 6.87524-2.33143e-05 6.875ZM65.1711-20.6248 106.421 0.000360892 65.171 20.6252Z" fill="#F70146" transform="matrix(-1 0 0 1 2773.42 1188)"/><path d="M2549.27 840.234C2550.79 840.234 2551.99 840.745 2552.87 841.766 2553.75 842.788 2554.19 844.166 2554.19 845.901 2554.19 847.778 2553.82 850.119 2553.08 852.923L2551.52 859.09C2551.11 860.658 2550.82 861.882 2550.64 862.761 2550.46 863.64 2550.33 864.401 2550.25 865.042 2550.17 865.684 2550.13 866.218 2550.13 866.646 2550.13 868.286 2550.4 869.468 2550.95 870.193 2551.49 870.918 2552.38 871.28 2553.62 871.28 2554.62 871.28 2555.69 870.882 2556.84 870.086 2558 869.29 2559.22 868.09 2560.52 866.486 2561.81 864.882 2562.85 863.325 2563.64 861.816 2564.42 860.307 2565.06 858.448 2565.56 856.238L2568.95 840.804 2575.11 840.804 2569.91 863.403C2569.39 865.684 2569.12 867.442 2569.12 868.678 2569.12 869.628 2569.28 870.318 2569.59 870.745 2569.9 871.173 2570.38 871.387 2571.05 871.387 2571.76 871.387 2572.52 871.096 2573.33 870.514 2574.14 869.931 2575.28 868.82 2576.75 867.181L2578.78 869.177C2576.62 871.482 2574.78 873.11 2573.26 874.06 2571.74 875.011 2570.12 875.486 2568.41 875.486 2566.94 875.486 2565.76 874.999 2564.88 874.025 2564 873.05 2563.56 871.755 2563.56 870.139 2563.56 868.856 2563.85 867.454 2564.42 865.933L2563.99 865.791C2561.64 869.094 2559.41 871.529 2557.31 873.098 2555.21 874.666 2553.05 875.45 2550.84 875.45 2548.63 875.45 2546.93 874.815 2545.74 873.543 2544.55 872.272 2543.96 870.508 2543.96 868.25 2543.96 866.753 2544.3 864.626 2544.99 861.87L2547.31 852.531C2547.95 849.941 2548.27 848.111 2548.27 847.042 2548.27 846.091 2548.12 845.402 2547.81 844.974 2547.5 844.547 2547.01 844.333 2546.35 844.333 2545.61 844.333 2544.83 844.636 2544.01 845.242 2543.19 845.848 2542.07 846.947 2540.64 848.539L2538.61 846.543C2540.63 844.499 2542.15 843.097 2543.18 842.337 2544.2 841.576 2545.18 841.036 2546.12 840.715 2547.05 840.394 2548.11 840.234 2549.27 840.234Z" fill="#F70146" fill-rule="evenodd"/><text fill="#000000" fill-opacity="0" font-family="Arial,Arial_MSFontService,sans-serif" font-size="35.2524" x="2538.61" y="871.079">𝑢</text><path d="M2598.01 866.02C2597.06 866.02 2596.12 866.253 2595.2 866.719 2594.27 867.185 2593.4 867.844 2592.58 868.698 2591.76 869.552 2591.02 870.588 2590.35 871.804 2589.67 873.02 2589.11 874.379 2588.66 875.88 2590.85 875.863 2592.74 875.69 2594.32 875.362 2595.9 875.034 2597.19 874.586 2598.2 874.017 2599.21 873.447 2599.95 872.774 2600.43 871.998 2600.9 871.222 2601.14 870.368 2601.14 869.436 2601.14 868.366 2600.87 867.53 2600.33 866.926 2599.8 866.322 2599.02 866.02 2598.01 866.02ZM2620.07 863.458C2621.02 863.458 2621.8 863.665 2622.4 864.079 2623 864.493 2623.5 865.097 2623.9 865.891 2624.3 866.684 2624.62 867.663 2624.88 868.828 2625.14 869.992 2625.42 871.325 2625.71 872.826L2626.05 872.826C2627.08 871.463 2627.98 870.281 2628.74 869.281 2629.5 868.28 2630.18 867.435 2630.77 866.745 2631.37 866.054 2631.9 865.494 2632.38 865.062 2632.85 864.631 2633.31 864.299 2633.76 864.066 2634.21 863.833 2634.67 863.674 2635.14 863.587 2635.62 863.501 2636.15 863.458 2636.74 863.458 2637.6 863.458 2638.38 863.613 2639.09 863.924L2637.8 869.022 2635.65 869.022C2635.6 868.28 2635.32 867.909 2634.82 867.909 2634.63 867.909 2634.42 867.944 2634.2 868.013 2633.98 868.082 2633.71 868.22 2633.4 868.427 2633.09 868.634 2632.73 868.923 2632.32 869.294 2631.92 869.665 2631.44 870.148 2630.89 870.743 2630.34 871.338 2629.71 872.067 2629 872.93 2628.29 873.792 2627.48 874.81 2626.57 875.983 2627.03 878.364 2627.43 880.271 2627.77 881.703 2628.11 883.135 2628.43 884.23 2628.74 884.989 2629.05 885.748 2629.36 886.244 2629.67 886.477 2629.98 886.71 2630.34 886.827 2630.73 886.827 2631.03 886.827 2631.3 886.792 2631.55 886.723 2631.8 886.654 2632.06 886.503 2632.32 886.27 2632.59 886.037 2632.89 885.701 2633.22 885.261 2633.54 884.821 2633.93 884.239 2634.38 883.514L2636.32 884.782C2635.56 885.921 2634.89 886.852 2634.3 887.577 2633.72 888.302 2633.15 888.871 2632.6 889.285 2632.04 889.699 2631.47 889.979 2630.89 890.126 2630.3 890.273 2629.63 890.346 2628.87 890.346 2628.21 890.346 2627.63 890.256 2627.11 890.074 2626.59 889.893 2626.14 889.561 2625.76 889.078 2625.5 888.785 2625.26 888.392 2625.04 887.901 2624.81 887.409 2624.61 886.878 2624.42 886.309 2624.23 885.74 2624.06 885.149 2623.9 884.536 2623.75 883.924 2623.62 883.35 2623.51 882.815 2623.41 882.281 2623.33 881.802 2623.27 881.379 2623.21 880.956 2623.17 880.642 2623.15 880.435L2622.87 880.435C2621.83 881.815 2620.93 883.018 2620.16 884.045 2619.39 885.071 2618.7 885.951 2618.08 886.684 2617.46 887.417 2616.9 888.021 2616.4 888.496 2615.9 888.97 2615.4 889.345 2614.92 889.622 2614.44 889.898 2613.94 890.087 2613.43 890.191 2612.92 890.294 2612.36 890.346 2611.74 890.346 2610.84 890.346 2610.07 890.191 2609.43 889.88L2610.62 884.834 2612.82 884.834C2612.88 885.593 2613.16 885.973 2613.68 885.973 2613.87 885.955 2614.05 885.921 2614.23 885.869 2614.42 885.817 2614.63 885.709 2614.87 885.546 2615.11 885.382 2615.42 885.123 2615.79 884.769 2616.16 884.416 2616.63 883.924 2617.2 883.294 2617.77 882.664 2618.47 881.875 2619.29 880.926 2620.12 879.977 2621.11 878.804 2622.27 877.407 2621.96 875.957 2621.69 874.698 2621.45 873.628 2621.22 872.559 2621.01 871.64 2620.81 870.872 2620.61 870.104 2620.42 869.479 2620.23 868.996 2620.04 868.513 2619.84 868.129 2619.64 867.844 2619.44 867.56 2619.23 867.357 2619 867.236 2618.76 867.115 2618.49 867.047 2618.18 867.029 2617.89 867.029 2617.62 867.077 2617.37 867.172 2617.12 867.266 2616.86 867.435 2616.59 867.676 2616.32 867.918 2616.03 868.254 2615.71 868.685 2615.39 869.117 2615.02 869.677 2614.61 870.368L2612.62 869.074C2613.32 868.021 2613.96 867.133 2614.53 866.408 2615.1 865.684 2615.66 865.106 2616.21 864.674 2616.77 864.243 2617.35 863.932 2617.96 863.743 2618.57 863.553 2619.28 863.458 2620.07 863.458ZM2599.12 863.458C2601.33 863.458 2603 863.941 2604.15 864.907 2605.3 865.873 2605.87 867.245 2605.87 869.022 2605.87 875.267 2599.96 878.39 2588.15 878.39 2588.06 878.839 2587.99 879.326 2587.94 879.852 2587.89 880.378 2587.86 880.952 2587.86 881.573 2587.86 883.454 2588.25 884.825 2589.01 885.688 2589.78 886.551 2590.98 886.982 2592.6 886.982 2593.44 886.982 2594.24 886.891 2595 886.71 2595.76 886.529 2596.51 886.249 2597.24 885.869 2597.98 885.49 2598.71 885.002 2599.46 884.407 2600.2 883.812 2600.97 883.1 2601.78 882.272L2603.73 884.368C2601.72 886.352 2599.73 887.844 2597.73 888.845 2595.74 889.846 2593.6 890.346 2591.3 890.346 2589.96 890.346 2588.76 890.143 2587.72 889.738 2586.68 889.333 2585.8 888.742 2585.08 887.965 2584.36 887.189 2583.82 886.244 2583.45 885.132 2583.08 884.019 2582.89 882.764 2582.89 881.366 2582.89 880.383 2582.98 879.361 2583.15 878.299 2583.32 877.238 2583.59 876.177 2583.95 875.116 2584.32 874.055 2584.76 873.02 2585.3 872.011 2585.83 871.002 2586.46 870.057 2587.19 869.177 2588.64 867.383 2590.38 865.981 2592.43 864.972 2594.47 863.963 2596.7 863.458 2599.12 863.458ZM2651.71 857.428 2655.75 857.428 2654.27 864.001 2663.07 864.001 2662.47 866.874 2653.7 866.874 2651.06 877.717C2650.89 878.442 2650.75 879.093 2650.63 879.671 2650.52 880.249 2650.43 880.771 2650.36 881.237 2650.29 881.703 2650.25 882.125 2650.22 882.505 2650.19 882.884 2650.18 883.238 2650.18 883.566 2650.18 884.601 2650.4 885.412 2650.83 885.998 2651.26 886.585 2651.97 886.878 2652.95 886.878 2653.78 886.878 2654.66 886.572 2655.59 885.96 2656.52 885.347 2657.58 884.385 2658.77 883.074L2660.56 884.886C2659.68 885.869 2658.84 886.706 2658.05 887.396 2657.25 888.086 2656.48 888.651 2655.72 889.091 2654.96 889.531 2654.21 889.85 2653.47 890.049 2652.73 890.247 2651.97 890.346 2651.19 890.346 2649.14 890.346 2647.61 889.863 2646.6 888.897 2645.59 887.931 2645.08 886.507 2645.08 884.627 2645.08 883.989 2645.13 883.286 2645.23 882.518 2645.32 881.75 2645.45 881.004 2645.63 880.279L2648.71 866.874 2644.25 866.874 2644.77 864.881C2645.81 864.881 2646.61 864.782 2647.19 864.584 2647.77 864.385 2648.26 864.114 2648.65 863.768 2648.91 863.527 2649.16 863.229 2649.4 862.876 2649.65 862.522 2649.89 862.095 2650.13 861.595 2650.37 861.094 2650.62 860.503 2650.87 859.822 2651.12 859.141 2651.4 858.343 2651.71 857.428Z" fill="#F70146" fill-rule="evenodd"/><text fill="#000000" fill-opacity="0" font-family="Arial,Arial_MSFontService,sans-serif" font-size="32.918" x="2582.89" y="886.231">𝑒𝑥𝑡</text></g></svg>