<svg width="1295" height="1295" xmlns="http://www.w3.org/2000/svg" xmlns:xlink="http://www.w3.org/1999/xlink" overflow="hidden"><defs><clipPath id="clip0"><rect x="2008" y="63" width="1295" height="1295"/></clipPath></defs><g clip-path="url(#clip0)" transform="translate(-2008 -63)"><path d="M0 0 145.735 2.65364" stroke="#0F0F0F" stroke-width="4.58333" stroke-miterlimit="8" fill="none" fill-rule="evenodd" transform="matrix(1 0 0 -1 2283.5 485.154)"/><path d="M0 0 151.289 10.3739" stroke="#0F0F0F" stroke-width="4.58333" stroke-miterlimit="8" fill="none" fill-rule="evenodd" transform="matrix(1 0 0 -1 2460.5 482.874)"/><path d="M2256.5 590.5 2433.83 634.348" stroke="#0F0F0F" stroke-width="4.58333" stroke-miterlimit="8" fill="none" fill-rule="evenodd"/><path d="M0 0 149.651 16.8959" stroke="#0F0F0F" stroke-width="4.58333" stroke-miterlimit="8" fill="none" fill-rule="evenodd" transform="matrix(1 0 0 -1 2464.5 634.396)"/><path d="M0 0 161.189 26.3044" stroke="#0F0F0F" stroke-width="4.58333" stroke-miterlimit="8" fill="none" fill-rule="evenodd" transform="matrix(1 0 0 -1 2645.5 617.804)"/><path d="M2445.5 498.5 2449.33 619.448" stroke="#0F0F0F" stroke-width="4.58333" stroke-miterlimit="8" fill="none" fill-rule="evenodd"/><path d="M2627.5 487.5 2629.69 601.926" stroke="#0F0F0F" stroke-width="4.58333" stroke-miterlimit="8" fill="none" fill-rule="evenodd"/><path d="M0 0 105.488 22.0632" stroke="#0F0F0F" stroke-width="4.58333" stroke-miterlimit="8" fill="none" fill-rule="evenodd" transform="matrix(1 0 0 -1 2643.5 471.563)"/><path d="M0 0 26.2647 138.172" stroke="#0F0F0F" stroke-width="4.58333" stroke-miterlimit="8" fill="none" fill-rule="evenodd" transform="matrix(-1 0 0 1 2471.76 328.5)"/><path d="M0 0 125.503 15.4552" stroke="#0F0F0F" stroke-width="4.58333" stroke-miterlimit="8" fill="none" fill-rule="evenodd" transform="matrix(-1 0 0 1 2475 316.5)"/><path d="M0 0 79.2383 153.167" stroke="#0F0F0F" stroke-width="4.58333" stroke-miterlimit="8" fill="none" fill-rule="evenodd" transform="matrix(1 0 0 -1 2269.5 482.668)"/><path d="M2474.5 314.5 2642.26 352.983" stroke="#0F0F0F" stroke-width="4.58333" stroke-miterlimit="8" fill="none" fill-rule="evenodd"/><path d="M0 0 14.8024 86.6903" stroke="#0F0F0F" stroke-width="4.58333" stroke-miterlimit="8" fill="none" fill-rule="evenodd" transform="matrix(-1 0 0 1 2642.3 369.5)"/><path d="M2642.5 351.5 2729.81 385.533" stroke="#0F0F0F" stroke-width="4.58333" stroke-miterlimit="8" fill="none" fill-rule="evenodd"/><path d="M2728.5 385.5 2769.4 448.928" stroke="#0F0F0F" stroke-width="4.58333" stroke-miterlimit="8" fill="none" fill-rule="evenodd"/><path d="M2775.5 461.5 2822.31 576.262" stroke="#0F0F0F" stroke-width="4.58333" stroke-miterlimit="8" fill="none" fill-rule="evenodd"/><path d="M0 0 182.252 35.6591" stroke="#0F0F0F" stroke-width="4.58333" stroke-miterlimit="8" fill="none" fill-rule="evenodd" transform="matrix(1 0 0 -1 2483.5 798.159)"/><path d="M2630.5 633.5 2664.07 743.625" stroke="#0F0F0F" stroke-width="4.58333" stroke-miterlimit="8" fill="none" fill-rule="evenodd"/><path d="M2449.5 650.5 2481.02 781.229" stroke="#0F0F0F" stroke-width="4.58333" stroke-miterlimit="8" fill="none" fill-rule="evenodd"/><path d="M2237.5 714.5 2483.33 799.793" stroke="#0F0F0F" stroke-width="4.58333" stroke-miterlimit="8" fill="none" fill-rule="evenodd"/><path d="M0 0 0.933268 126.537" stroke="#0F0F0F" stroke-width="4.58333" stroke-miterlimit="8" fill="none" fill-rule="evenodd" transform="matrix(-1 0 0 1 2238.43 590.5)"/><path d="M0 0 47.6829 98.6987" stroke="#0F0F0F" stroke-width="4.58333" stroke-miterlimit="8" fill="none" fill-rule="evenodd" transform="matrix(-1 0 0 1 2822.18 607.5)"/><path d="M0 0 107.985 42.2067" stroke="#0F0F0F" stroke-width="4.58333" stroke-miterlimit="8" fill="none" fill-rule="evenodd" transform="matrix(-1 0 0 1 2774.49 716.5)"/><path d="M0 0 31.0988 109.74" stroke="#0F0F0F" stroke-width="4.58333" stroke-miterlimit="8" fill="none" fill-rule="evenodd" transform="matrix(-1 0 0 1 2269.6 480.5)"/><path d="M2224 713.5C2224 704.94 2231.16 698 2240 698 2248.84 698 2256 704.94 2256 713.5 2256 722.061 2248.84 729 2240 729 2231.16 729 2224 722.061 2224 713.5Z" fill="#0F0F0F" fill-rule="evenodd"/><path d="M2464 796C2464 787.163 2471.16 780 2480 780 2488.84 780 2496 787.163 2496 796 2496 804.836 2488.84 812 2480 812 2471.16 812 2464 804.836 2464 796Z" fill="#0F0F0F" fill-rule="evenodd"/><path d="M2224 590.5C2224 581.94 2231.16 575 2240 575 2248.84 575 2256 581.94 2256 590.5 2256 599.06 2248.84 606 2240 606 2231.16 606 2224 599.06 2224 590.5Z" fill="#0F0F0F" fill-rule="evenodd"/><path d="M2252 484.5C2252 475.94 2258.94 469 2267.5 469 2276.06 469 2283 475.94 2283 484.5 2283 493.061 2276.06 500 2267.5 500 2258.94 500 2252 493.061 2252 484.5Z" fill="#0F0F0F" fill-rule="evenodd"/><path d="M2333 333C2333 324.163 2339.94 317 2348.5 317 2357.06 317 2364 324.163 2364 333 2364 341.836 2357.06 349 2348.5 349 2339.94 349 2333 341.836 2333 333Z" fill="#0F0F0F" fill-rule="evenodd"/><path d="M2455 312.5C2455 303.94 2462.16 297 2471 297 2479.84 297 2487 303.94 2487 312.5 2487 321.06 2479.84 328 2471 328 2462.16 328 2455 321.06 2455 312.5Z" fill="#0F0F0F" fill-rule="evenodd"/><path d="M2429 482C2429 473.164 2435.94 466 2444.5 466 2453.06 466 2460 473.164 2460 482 2460 490.837 2453.06 498 2444.5 498 2435.94 498 2429 490.837 2429 482Z" fill="#0F0F0F" fill-rule="evenodd"/><path d="M2433 634C2433 625.164 2439.94 618 2448.5 618 2457.06 618 2464 625.164 2464 634 2464 642.837 2457.06 650 2448.5 650 2439.94 650 2433 642.837 2433 634Z" fill="#0F0F0F" fill-rule="evenodd"/><path d="M2614 617.5C2614 608.939 2620.94 602 2629.5 602 2638.06 602 2645 608.939 2645 617.5 2645 626.06 2638.06 633 2629.5 633 2620.94 633 2614 626.06 2614 617.5Z" fill="#0F0F0F" fill-rule="evenodd"/><path d="M2647 758.5C2647 749.939 2654.16 743 2663 743 2671.84 743 2679 749.939 2679 758.5 2679 767.06 2671.84 774 2663 774 2654.16 774 2647 767.06 2647 758.5Z" fill="#0F0F0F" fill-rule="evenodd"/><path d="M2759 720.5C2759 711.94 2765.94 705 2774.5 705 2783.06 705 2790 711.94 2790 720.5 2790 729.06 2783.06 736 2774.5 736 2765.94 736 2759 729.06 2759 720.5Z" fill="#0F0F0F" fill-rule="evenodd"/><path d="M2806 591C2806 582.164 2813.16 575 2822 575 2830.84 575 2838 582.164 2838 591 2838 599.837 2830.84 607 2822 607 2813.16 607 2806 599.837 2806 591Z" fill="#0F0F0F" fill-rule="evenodd"/><path d="M2612 471.5C2612 462.94 2618.94 456 2627.5 456 2636.06 456 2643 462.94 2643 471.5 2643 480.061 2636.06 487 2627.5 487 2618.94 487 2612 480.061 2612 471.5Z" fill="#0F0F0F" fill-rule="evenodd"/><path d="M2626 353.5C2626 344.939 2633.16 338 2642 338 2650.84 338 2658 344.939 2658 353.5 2658 362.06 2650.84 369 2642 369 2633.16 369 2626 362.06 2626 353.5Z" fill="#0F0F0F" fill-rule="evenodd"/><path d="M2711 380.5C2711 371.94 2718.16 365 2727 365 2735.84 365 2743 371.94 2743 380.5 2743 389.06 2735.84 396 2727 396 2718.16 396 2711 389.06 2711 380.5Z" fill="#0F0F0F" fill-rule="evenodd"/><path d="M2748 449.5C2748 440.94 2755.16 434 2764 434 2772.84 434 2780 440.94 2780 449.5 2780 458.061 2772.84 465 2764 465 2755.16 465 2748 458.061 2748 449.5Z" fill="#0F0F0F" fill-rule="evenodd"/><path d="M2969.81 898.005C2940.13 868.328 2891.57 869.677 2855.15 898.005L2798.49 841.349C2945.53 682.172 2936.08 435.312 2776.91 288.276 2617.73 141.24 2372.22 152.031 2225.18 311.208 2078.15 470.385 2088.94 717.245 2246.77 864.281 2397.85 1004.57 2631.22 1003.22 2780.95 861.583L2837.61 918.24C2825.47 933.078 2818.72 951.964 2816.03 970.849 2813.33 993.781 2821.42 1016.71 2837.61 1032.9L3027.81 1223.1C3042.65 1236.59 3061.54 1244.69 3081.77 1244.69 3108.75 1244.69 3133.03 1233.9 3151.92 1215.01 3169.45 1198.82 3180.24 1175.89 3181.59 1151.61 3184.29 1128.68 3176.2 1105.74 3160.01 1089.56L2969.81 898.005ZM2256.21 833.255C2114.57 691.615 2114.57 460.943 2256.21 317.953 2397.85 174.963 2628.52 176.312 2771.51 317.953 2914.5 459.594 2913.15 690.266 2771.51 833.255 2702.71 902.052 2610.98 939.823 2513.86 939.823 2418.08 939.823 2325.01 902.052 2256.21 833.255ZM3131.68 1193.43C3106.05 1219.06 3066.93 1223.1 3045.35 1201.52L2856.49 1012.67C2845.7 1001.88 2841.66 987.036 2843.01 972.198 2844.35 954.661 2852.45 938.474 2865.94 926.333 2879.43 912.844 2898.31 904.75 2917.2 903.401 2930.69 903.401 2942.83 907.448 2952.27 916.891L3141.12 1107.09C3151.92 1117.89 3155.96 1132.72 3154.61 1147.56 3151.92 1165.1 3145.17 1181.29 3131.68 1193.43 3131.68 1193.43 3131.68 1193.43 3131.68 1193.43Z"/></g></svg>