<?xml version="1.0" encoding="utf-8" standalone="no"?>
<!DOCTYPE svg PUBLIC "-//W3C//DTD SVG 1.1//EN"
  "http://www.w3.org/Graphics/SVG/1.1/DTD/svg11.dtd">
<!-- Created with matplotlib (https://matplotlib.org/) -->
<svg height="345.6pt" version="1.1" viewBox="0 0 460.8 345.6" width="460.8pt" xmlns="http://www.w3.org/2000/svg" xmlns:xlink="http://www.w3.org/1999/xlink">
 <metadata>
  <rdf:RDF xmlns:cc="http://creativecommons.org/ns#" xmlns:dc="http://purl.org/dc/elements/1.1/" xmlns:rdf="http://www.w3.org/1999/02/22-rdf-syntax-ns#">
   <cc:Work>
    <dc:type rdf:resource="http://purl.org/dc/dcmitype/StillImage"/>
    <dc:date>2021-07-14T17:30:25.457942</dc:date>
    <dc:format>image/svg+xml</dc:format>
    <dc:creator>
     <cc:Agent>
      <dc:title>Matplotlib v3.3.2, https://matplotlib.org/</dc:title>
     </cc:Agent>
    </dc:creator>
   </cc:Work>
  </rdf:RDF>
 </metadata>
 <defs>
  <style type="text/css">*{stroke-linecap:butt;stroke-linejoin:round;}</style>
 </defs>
 <g id="figure_1">
  <g id="patch_1">
   <path d="M 0 345.6 
L 460.8 345.6 
L 460.8 0 
L 0 0 
z
" style="fill:#ffffff;"/>
  </g>
  <g id="axes_1">
   <g id="patch_2">
    <path d="M 77.184 307.584 
L 343.296 307.584 
L 343.296 41.472 
L 77.184 41.472 
z
" style="fill:#ffffff;"/>
   </g>
   <g id="PathCollection_1">
    <path clip-path="url(#p3221226575)" d="M 82.50624 307.584 
L 87.82848 307.584 
L 93.15072 307.584 
L 98.47296 307.584 
L 103.7952 307.584 
L 109.11744 307.584 
L 114.43968 307.584 
L 119.76192 307.584 
L 125.08416 307.584 
L 130.4064 307.584 
L 135.72864 307.584 
L 141.05088 307.584 
L 146.37312 307.584 
L 151.69536 307.584 
L 157.0176 307.584 
L 162.33984 307.584 
L 167.66208 307.584 
L 172.98432 307.584 
L 178.30656 307.584 
L 183.6288 307.584 
L 188.95104 307.584 
L 194.27328 307.584 
L 199.59552 307.584 
L 204.91776 307.584 
L 210.24 307.584 
L 215.56224 307.584 
L 220.88448 307.584 
L 226.20672 307.584 
L 231.52896 307.584 
L 236.8512 307.584 
L 242.17344 307.584 
L 247.49568 307.584 
L 252.81792 307.584 
L 258.14016 307.584 
L 263.4624 307.584 
L 268.78464 307.584 
L 274.10688 307.584 
L 279.42912 307.584 
L 284.75136 307.584 
L 290.0736 307.584 
L 295.39584 307.584 
L 300.71808 307.584 
L 306.04032 307.584 
L 311.36256 307.584 
L 316.6848 307.584 
L 322.00704 307.584 
L 327.32928 307.584 
L 332.65152 307.584 
L 337.97376 307.584 
L 343.296 307.584 
L 343.296 302.26176 
L 343.296 296.93952 
L 343.296 291.61728 
L 343.296 286.29504 
L 343.296 280.9728 
L 343.296 275.65056 
L 343.296 270.32832 
L 343.296 265.00608 
L 343.296 259.68384 
L 343.296 254.3616 
L 343.296 249.03936 
L 343.296 243.71712 
L 343.296 238.39488 
L 343.296 233.07264 
L 343.296 227.7504 
L 343.296 222.42816 
L 343.296 217.10592 
L 343.296 211.78368 
L 343.296 206.46144 
L 343.296 201.1392 
L 343.296 195.81696 
L 343.296 190.49472 
L 343.296 185.17248 
L 343.296 179.85024 
L 343.296 174.528 
L 343.296 169.20576 
L 343.296 163.88352 
L 343.296 158.56128 
L 343.296 153.23904 
L 343.296 147.9168 
L 343.296 142.59456 
L 343.296 137.27232 
L 343.296 131.95008 
L 343.296 126.62784 
L 343.296 121.3056 
L 343.296 115.98336 
L 343.296 110.66112 
L 343.296 105.33888 
L 343.296 100.01664 
L 343.296 94.6944 
L 343.296 89.37216 
L 343.296 84.04992 
L 343.296 78.72768 
L 343.296 73.40544 
L 343.296 68.0832 
L 343.296 62.76096 
L 343.296 57.43872 
L 343.296 52.11648 
L 343.296 46.79424 
L 343.296 41.472 
L 337.97376 41.472 
L 332.65152 41.472 
L 327.32928 41.472 
L 322.00704 41.472 
L 316.6848 41.472 
L 311.36256 41.472 
L 306.04032 41.472 
L 300.71808 41.472 
L 295.39584 41.472 
L 290.0736 41.472 
L 284.75136 41.472 
L 279.42912 41.472 
L 274.10688 41.472 
L 268.78464 41.472 
L 263.4624 41.472 
L 258.14016 41.472 
L 252.81792 41.472 
L 247.49568 41.472 
L 242.17344 41.472 
L 236.8512 41.472 
L 231.52896 41.472 
L 226.20672 41.472 
L 220.88448 41.472 
L 215.56224 41.472 
L 210.24 41.472 
L 204.91776 41.472 
L 199.59552 41.472 
L 194.27328 41.472 
L 188.95104 41.472 
L 183.6288 41.472 
L 178.30656 41.472 
L 172.98432 41.472 
L 167.66208 41.472 
L 162.33984 41.472 
L 157.0176 41.472 
L 151.69536 41.472 
L 146.37312 41.472 
L 141.05088 41.472 
L 135.72864 41.472 
L 130.4064 41.472 
L 125.08416 41.472 
L 119.76192 41.472 
L 114.43968 41.472 
L 109.11744 41.472 
L 103.7952 41.472 
L 98.47296 41.472 
L 93.15072 41.472 
L 87.82848 41.472 
L 82.50624 41.472 
L 77.184 41.472 
L 77.184 46.79424 
L 77.184 52.11648 
L 77.184 57.43872 
L 77.184 62.76096 
L 77.184 68.0832 
L 77.184 73.40544 
L 77.184 78.72768 
L 77.184 84.04992 
L 77.184 89.37216 
L 77.184 94.6944 
L 77.184 100.01664 
L 77.184 105.33888 
L 77.184 110.66112 
L 77.184 115.98336 
L 77.184 121.3056 
L 77.184 126.62784 
L 77.184 131.95008 
L 77.184 137.27232 
L 77.184 142.59456 
L 77.184 147.9168 
L 77.184 153.23904 
L 77.184 158.56128 
L 77.184 163.88352 
L 77.184 169.20576 
L 77.184 174.528 
L 77.184 179.85024 
L 77.184 185.17248 
L 77.184 190.49472 
L 77.184 195.81696 
L 77.184 201.1392 
L 77.184 206.46144 
L 77.184 211.78368 
L 77.184 217.10592 
L 77.184 222.42816 
L 77.184 227.7504 
L 77.184 233.07264 
L 77.184 238.39488 
L 77.184 243.71712 
L 77.184 249.03936 
L 77.184 254.3616 
L 77.184 259.68384 
L 77.184 265.00608 
L 77.184 270.32832 
L 77.184 275.65056 
L 77.184 280.9728 
L 77.184 286.29504 
L 77.184 291.61728 
L 77.184 296.93952 
L 77.184 302.26176 
L 77.184 307.584 
z
M 137.478578 296.93952 
L 135.72864 296.768049 
L 130.4064 296.148391 
L 125.08416 295.376828 
L 119.76192 294.396125 
L 114.43968 293.115187 
L 109.779025 291.61728 
L 109.11744 291.354733 
L 103.7952 288.598164 
L 100.688958 286.29504 
L 98.47296 284.079042 
L 96.169836 280.9728 
L 93.413267 275.65056 
L 93.15072 274.988975 
L 91.652813 270.32832 
L 90.371875 265.00608 
L 89.391172 259.68384 
L 88.619609 254.3616 
L 87.999951 249.03936 
L 87.82848 247.289422 
L 87.518564 243.71712 
L 87.129894 238.39488 
L 86.805081 233.07264 
L 86.532389 227.7504 
L 86.303077 222.42816 
L 86.110527 217.10592 
L 85.949673 211.78368 
L 85.816613 206.46144 
L 85.708336 201.1392 
L 85.62253 195.81696 
L 85.557451 190.49472 
L 85.511825 185.17248 
L 85.484785 179.85024 
L 85.475827 174.528 
L 85.484785 169.20576 
L 85.511825 163.88352 
L 85.557451 158.56128 
L 85.62253 153.23904 
L 85.708336 147.9168 
L 85.816613 142.59456 
L 85.949673 137.27232 
L 86.110527 131.95008 
L 86.303077 126.62784 
L 86.532389 121.3056 
L 86.805081 115.98336 
L 87.129894 110.66112 
L 87.518564 105.33888 
L 87.82848 101.766578 
L 87.999951 100.01664 
L 88.619609 94.6944 
L 89.391172 89.37216 
L 90.371875 84.04992 
L 91.652813 78.72768 
L 93.15072 74.067025 
L 93.413267 73.40544 
L 96.169836 68.0832 
L 98.47296 64.976958 
L 100.688958 62.76096 
L 103.7952 60.457836 
L 109.11744 57.701267 
L 109.779025 57.43872 
L 114.43968 55.940813 
L 119.76192 54.659875 
L 125.08416 53.679172 
L 130.4064 52.907609 
L 135.72864 52.287951 
L 137.478578 52.11648 
L 141.05088 51.806564 
L 146.37312 51.417894 
L 151.69536 51.093081 
L 157.0176 50.820389 
L 162.33984 50.591077 
L 167.66208 50.398527 
L 172.98432 50.237673 
L 178.30656 50.104613 
L 183.6288 49.996336 
L 188.95104 49.91053 
L 194.27328 49.845451 
L 199.59552 49.799825 
L 204.91776 49.772785 
L 210.24 49.763827 
L 215.56224 49.772785 
L 220.88448 49.799825 
L 226.20672 49.845451 
L 231.52896 49.91053 
L 236.8512 49.996336 
L 242.17344 50.104613 
L 247.49568 50.237673 
L 252.81792 50.398527 
L 258.14016 50.591077 
L 263.4624 50.820389 
L 268.78464 51.093081 
L 274.10688 51.417894 
L 279.42912 51.806564 
L 283.001422 52.11648 
L 284.75136 52.287951 
L 290.0736 52.907609 
L 295.39584 53.679172 
L 300.71808 54.659875 
L 306.04032 55.940813 
L 310.700975 57.43872 
L 311.36256 57.701267 
L 316.6848 60.457836 
L 319.791042 62.76096 
L 322.00704 64.976958 
L 324.310164 68.0832 
L 327.066733 73.40544 
L 327.32928 74.067025 
L 328.827187 78.72768 
L 330.108125 84.04992 
L 331.088828 89.37216 
L 331.860391 94.6944 
L 332.480049 100.01664 
L 332.65152 101.766578 
L 332.961436 105.33888 
L 333.350106 110.66112 
L 333.674919 115.98336 
L 333.947611 121.3056 
L 334.176923 126.62784 
L 334.369473 131.95008 
L 334.530327 137.27232 
L 334.663387 142.59456 
L 334.771664 147.9168 
L 334.85747 153.23904 
L 334.922549 158.56128 
L 334.968175 163.88352 
L 334.995215 169.20576 
L 335.004173 174.528 
L 334.995215 179.85024 
L 334.968175 185.17248 
L 334.922549 190.49472 
L 334.85747 195.81696 
L 334.771664 201.1392 
L 334.663387 206.46144 
L 334.530327 211.78368 
L 334.369473 217.10592 
L 334.176923 222.42816 
L 333.947611 227.7504 
L 333.674919 233.07264 
L 333.350106 238.39488 
L 332.961436 243.71712 
L 332.65152 247.289422 
L 332.480049 249.03936 
L 331.860391 254.3616 
L 331.088828 259.68384 
L 330.108125 265.00608 
L 328.827187 270.32832 
L 327.32928 274.988975 
L 327.066733 275.65056 
L 324.310164 280.9728 
L 322.00704 284.079042 
L 319.791042 286.29504 
L 316.6848 288.598164 
L 311.36256 291.354733 
L 310.700975 291.61728 
L 306.04032 293.115187 
L 300.71808 294.396125 
L 295.39584 295.376828 
L 290.0736 296.148391 
L 284.75136 296.768049 
L 283.001422 296.93952 
L 279.42912 297.249436 
L 274.10688 297.638106 
L 268.78464 297.962919 
L 263.4624 298.235611 
L 258.14016 298.464923 
L 252.81792 298.657473 
L 247.49568 298.818327 
L 242.17344 298.951387 
L 236.8512 299.059664 
L 231.52896 299.14547 
L 226.20672 299.210549 
L 220.88448 299.256175 
L 215.56224 299.283215 
L 210.24 299.292173 
L 204.91776 299.283215 
L 199.59552 299.256175 
L 194.27328 299.210549 
L 188.95104 299.14547 
L 183.6288 299.059664 
L 178.30656 298.951387 
L 172.98432 298.818327 
L 167.66208 298.657473 
L 162.33984 298.464923 
L 157.0176 298.235611 
L 151.69536 297.962919 
L 146.37312 297.638106 
L 141.05088 297.249436 
z
" style="fill:#48186a;"/>
   </g>
   <g id="PathCollection_2">
    <path clip-path="url(#p3221226575)" d="M 141.05088 297.249436 
L 146.37312 297.638106 
L 151.69536 297.962919 
L 157.0176 298.235611 
L 162.33984 298.464923 
L 167.66208 298.657473 
L 172.98432 298.818327 
L 178.30656 298.951387 
L 183.6288 299.059664 
L 188.95104 299.14547 
L 194.27328 299.210549 
L 199.59552 299.256175 
L 204.91776 299.283215 
L 210.24 299.292173 
L 215.56224 299.283215 
L 220.88448 299.256175 
L 226.20672 299.210549 
L 231.52896 299.14547 
L 236.8512 299.059664 
L 242.17344 298.951387 
L 247.49568 298.818327 
L 252.81792 298.657473 
L 258.14016 298.464923 
L 263.4624 298.235611 
L 268.78464 297.962919 
L 274.10688 297.638106 
L 279.42912 297.249436 
L 283.001422 296.93952 
L 284.75136 296.768049 
L 290.0736 296.148391 
L 295.39584 295.376828 
L 300.71808 294.396125 
L 306.04032 293.115187 
L 310.700975 291.61728 
L 311.36256 291.354733 
L 316.6848 288.598164 
L 319.791042 286.29504 
L 322.00704 284.079042 
L 324.310164 280.9728 
L 327.066733 275.65056 
L 327.32928 274.988975 
L 328.827187 270.32832 
L 330.108125 265.00608 
L 331.088828 259.68384 
L 331.860391 254.3616 
L 332.480049 249.03936 
L 332.65152 247.289422 
L 332.961436 243.71712 
L 333.350106 238.39488 
L 333.674919 233.07264 
L 333.947611 227.7504 
L 334.176923 222.42816 
L 334.369473 217.10592 
L 334.530327 211.78368 
L 334.663387 206.46144 
L 334.771664 201.1392 
L 334.85747 195.81696 
L 334.922549 190.49472 
L 334.968175 185.17248 
L 334.995215 179.85024 
L 335.004173 174.528 
L 334.995215 169.20576 
L 334.968175 163.88352 
L 334.922549 158.56128 
L 334.85747 153.23904 
L 334.771664 147.9168 
L 334.663387 142.59456 
L 334.530327 137.27232 
L 334.369473 131.95008 
L 334.176923 126.62784 
L 333.947611 121.3056 
L 333.674919 115.98336 
L 333.350106 110.66112 
L 332.961436 105.33888 
L 332.65152 101.766578 
L 332.480049 100.01664 
L 331.860391 94.6944 
L 331.088828 89.37216 
L 330.108125 84.04992 
L 328.827187 78.72768 
L 327.32928 74.067025 
L 327.066733 73.40544 
L 324.310164 68.0832 
L 322.00704 64.976958 
L 319.791042 62.76096 
L 316.6848 60.457836 
L 311.36256 57.701267 
L 310.700975 57.43872 
L 306.04032 55.940813 
L 300.71808 54.659875 
L 295.39584 53.679172 
L 290.0736 52.907609 
L 284.75136 52.287951 
L 283.001422 52.11648 
L 279.42912 51.806564 
L 274.10688 51.417894 
L 268.78464 51.093081 
L 263.4624 50.820389 
L 258.14016 50.591077 
L 252.81792 50.398527 
L 247.49568 50.237673 
L 242.17344 50.104613 
L 236.8512 49.996336 
L 231.52896 49.91053 
L 226.20672 49.845451 
L 220.88448 49.799825 
L 215.56224 49.772785 
L 210.24 49.763827 
L 204.91776 49.772785 
L 199.59552 49.799825 
L 194.27328 49.845451 
L 188.95104 49.91053 
L 183.6288 49.996336 
L 178.30656 50.104613 
L 172.98432 50.237673 
L 167.66208 50.398527 
L 162.33984 50.591077 
L 157.0176 50.820389 
L 151.69536 51.093081 
L 146.37312 51.417894 
L 141.05088 51.806564 
L 137.478578 52.11648 
L 135.72864 52.287951 
L 130.4064 52.907609 
L 125.08416 53.679172 
L 119.76192 54.659875 
L 114.43968 55.940813 
L 109.779025 57.43872 
L 109.11744 57.701267 
L 103.7952 60.457836 
L 100.688958 62.76096 
L 98.47296 64.976958 
L 96.169836 68.0832 
L 93.413267 73.40544 
L 93.15072 74.067025 
L 91.652813 78.72768 
L 90.371875 84.04992 
L 89.391172 89.37216 
L 88.619609 94.6944 
L 87.999951 100.01664 
L 87.82848 101.766578 
L 87.518564 105.33888 
L 87.129894 110.66112 
L 86.805081 115.98336 
L 86.532389 121.3056 
L 86.303077 126.62784 
L 86.110527 131.95008 
L 85.949673 137.27232 
L 85.816613 142.59456 
L 85.708336 147.9168 
L 85.62253 153.23904 
L 85.557451 158.56128 
L 85.511825 163.88352 
L 85.484785 169.20576 
L 85.475827 174.528 
L 85.484785 179.85024 
L 85.511825 185.17248 
L 85.557451 190.49472 
L 85.62253 195.81696 
L 85.708336 201.1392 
L 85.816613 206.46144 
L 85.949673 211.78368 
L 86.110527 217.10592 
L 86.303077 222.42816 
L 86.532389 227.7504 
L 86.805081 233.07264 
L 87.129894 238.39488 
L 87.518564 243.71712 
L 87.82848 247.289422 
L 87.999951 249.03936 
L 88.619609 254.3616 
L 89.391172 259.68384 
L 90.371875 265.00608 
L 91.652813 270.32832 
L 93.15072 274.988975 
L 93.413267 275.65056 
L 96.169836 280.9728 
L 98.47296 284.079042 
L 100.688958 286.29504 
L 103.7952 288.598164 
L 109.11744 291.354733 
L 109.779025 291.61728 
L 114.43968 293.115187 
L 119.76192 294.396125 
L 125.08416 295.376828 
L 130.4064 296.148391 
L 135.72864 296.768049 
L 137.478578 296.93952 
z
M 147.079188 286.29504 
L 146.37312 286.177749 
L 141.05088 285.143204 
L 135.72864 283.880011 
L 130.4064 282.318006 
L 126.681221 280.9728 
L 125.08416 280.298326 
L 119.76192 277.536558 
L 116.892812 275.65056 
L 114.43968 273.689214 
L 111.078786 270.32832 
L 109.11744 267.875188 
L 107.231442 265.00608 
L 104.469674 259.68384 
L 103.7952 258.086779 
L 102.449994 254.3616 
L 100.887989 249.03936 
L 99.624796 243.71712 
L 98.590251 238.39488 
L 98.47296 237.688812 
L 97.787518 233.07264 
L 97.124925 227.7504 
L 96.570744 222.42816 
L 96.107561 217.10592 
L 95.722153 211.78368 
L 95.404401 206.46144 
L 95.146545 201.1392 
L 94.942662 195.81696 
L 94.7883 190.49472 
L 94.680219 185.17248 
L 94.616221 179.85024 
L 94.595028 174.528 
L 94.616221 169.20576 
L 94.680219 163.88352 
L 94.7883 158.56128 
L 94.942662 153.23904 
L 95.146545 147.9168 
L 95.404401 142.59456 
L 95.722153 137.27232 
L 96.107561 131.95008 
L 96.570744 126.62784 
L 97.124925 121.3056 
L 97.787518 115.98336 
L 98.47296 111.367188 
L 98.590251 110.66112 
L 99.624796 105.33888 
L 100.887989 100.01664 
L 102.449994 94.6944 
L 103.7952 90.969221 
L 104.469674 89.37216 
L 107.231442 84.04992 
L 109.11744 81.180812 
L 111.078786 78.72768 
L 114.43968 75.366786 
L 116.892812 73.40544 
L 119.76192 71.519442 
L 125.08416 68.757674 
L 126.681221 68.0832 
L 130.4064 66.737994 
L 135.72864 65.175989 
L 141.05088 63.912796 
L 146.37312 62.878251 
L 147.079188 62.76096 
L 151.69536 62.075518 
L 157.0176 61.412925 
L 162.33984 60.858744 
L 167.66208 60.395561 
L 172.98432 60.010153 
L 178.30656 59.692401 
L 183.6288 59.434545 
L 188.95104 59.230662 
L 194.27328 59.0763 
L 199.59552 58.968219 
L 204.91776 58.904221 
L 210.24 58.883028 
L 215.56224 58.904221 
L 220.88448 58.968219 
L 226.20672 59.0763 
L 231.52896 59.230662 
L 236.8512 59.434545 
L 242.17344 59.692401 
L 247.49568 60.010153 
L 252.81792 60.395561 
L 258.14016 60.858744 
L 263.4624 61.412925 
L 268.78464 62.075518 
L 273.400812 62.76096 
L 274.10688 62.878251 
L 279.42912 63.912796 
L 284.75136 65.175989 
L 290.0736 66.737994 
L 293.798779 68.0832 
L 295.39584 68.757674 
L 300.71808 71.519442 
L 303.587188 73.40544 
L 306.04032 75.366786 
L 309.401214 78.72768 
L 311.36256 81.180812 
L 313.248558 84.04992 
L 316.010326 89.37216 
L 316.6848 90.969221 
L 318.030006 94.6944 
L 319.592011 100.01664 
L 320.855204 105.33888 
L 321.889749 110.66112 
L 322.00704 111.367188 
L 322.692482 115.98336 
L 323.355075 121.3056 
L 323.909256 126.62784 
L 324.372439 131.95008 
L 324.757847 137.27232 
L 325.075599 142.59456 
L 325.333455 147.9168 
L 325.537338 153.23904 
L 325.6917 158.56128 
L 325.799781 163.88352 
L 325.863779 169.20576 
L 325.884972 174.528 
L 325.863779 179.85024 
L 325.799781 185.17248 
L 325.6917 190.49472 
L 325.537338 195.81696 
L 325.333455 201.1392 
L 325.075599 206.46144 
L 324.757847 211.78368 
L 324.372439 217.10592 
L 323.909256 222.42816 
L 323.355075 227.7504 
L 322.692482 233.07264 
L 322.00704 237.688812 
L 321.889749 238.39488 
L 320.855204 243.71712 
L 319.592011 249.03936 
L 318.030006 254.3616 
L 316.6848 258.086779 
L 316.010326 259.68384 
L 313.248558 265.00608 
L 311.36256 267.875188 
L 309.401214 270.32832 
L 306.04032 273.689214 
L 303.587188 275.65056 
L 300.71808 277.536558 
L 295.39584 280.298326 
L 293.798779 280.9728 
L 290.0736 282.318006 
L 284.75136 283.880011 
L 279.42912 285.143204 
L 274.10688 286.177749 
L 273.400812 286.29504 
L 268.78464 286.980482 
L 263.4624 287.643075 
L 258.14016 288.197256 
L 252.81792 288.660439 
L 247.49568 289.045847 
L 242.17344 289.363599 
L 236.8512 289.621455 
L 231.52896 289.825338 
L 226.20672 289.9797 
L 220.88448 290.087781 
L 215.56224 290.151779 
L 210.24 290.172972 
L 204.91776 290.151779 
L 199.59552 290.087781 
L 194.27328 289.9797 
L 188.95104 289.825338 
L 183.6288 289.621455 
L 178.30656 289.363599 
L 172.98432 289.045847 
L 167.66208 288.660439 
L 162.33984 288.197256 
L 157.0176 287.643075 
L 151.69536 286.980482 
z
" style="fill:#424086;"/>
   </g>
   <g id="PathCollection_3">
    <path clip-path="url(#p3221226575)" d="M 151.69536 286.980482 
L 157.0176 287.643075 
L 162.33984 288.197256 
L 167.66208 288.660439 
L 172.98432 289.045847 
L 178.30656 289.363599 
L 183.6288 289.621455 
L 188.95104 289.825338 
L 194.27328 289.9797 
L 199.59552 290.087781 
L 204.91776 290.151779 
L 210.24 290.172972 
L 215.56224 290.151779 
L 220.88448 290.087781 
L 226.20672 289.9797 
L 231.52896 289.825338 
L 236.8512 289.621455 
L 242.17344 289.363599 
L 247.49568 289.045847 
L 252.81792 288.660439 
L 258.14016 288.197256 
L 263.4624 287.643075 
L 268.78464 286.980482 
L 273.400812 286.29504 
L 274.10688 286.177749 
L 279.42912 285.143204 
L 284.75136 283.880011 
L 290.0736 282.318006 
L 293.798779 280.9728 
L 295.39584 280.298326 
L 300.71808 277.536558 
L 303.587188 275.65056 
L 306.04032 273.689214 
L 309.401214 270.32832 
L 311.36256 267.875188 
L 313.248558 265.00608 
L 316.010326 259.68384 
L 316.6848 258.086779 
L 318.030006 254.3616 
L 319.592011 249.03936 
L 320.855204 243.71712 
L 321.889749 238.39488 
L 322.00704 237.688812 
L 322.692482 233.07264 
L 323.355075 227.7504 
L 323.909256 222.42816 
L 324.372439 217.10592 
L 324.757847 211.78368 
L 325.075599 206.46144 
L 325.333455 201.1392 
L 325.537338 195.81696 
L 325.6917 190.49472 
L 325.799781 185.17248 
L 325.863779 179.85024 
L 325.884972 174.528 
L 325.863779 169.20576 
L 325.799781 163.88352 
L 325.6917 158.56128 
L 325.537338 153.23904 
L 325.333455 147.9168 
L 325.075599 142.59456 
L 324.757847 137.27232 
L 324.372439 131.95008 
L 323.909256 126.62784 
L 323.355075 121.3056 
L 322.692482 115.98336 
L 322.00704 111.367188 
L 321.889749 110.66112 
L 320.855204 105.33888 
L 319.592011 100.01664 
L 318.030006 94.6944 
L 316.6848 90.969221 
L 316.010326 89.37216 
L 313.248558 84.04992 
L 311.36256 81.180812 
L 309.401214 78.72768 
L 306.04032 75.366786 
L 303.587188 73.40544 
L 300.71808 71.519442 
L 295.39584 68.757674 
L 293.798779 68.0832 
L 290.0736 66.737994 
L 284.75136 65.175989 
L 279.42912 63.912796 
L 274.10688 62.878251 
L 273.400812 62.76096 
L 268.78464 62.075518 
L 263.4624 61.412925 
L 258.14016 60.858744 
L 252.81792 60.395561 
L 247.49568 60.010153 
L 242.17344 59.692401 
L 236.8512 59.434545 
L 231.52896 59.230662 
L 226.20672 59.0763 
L 220.88448 58.968219 
L 215.56224 58.904221 
L 210.24 58.883028 
L 204.91776 58.904221 
L 199.59552 58.968219 
L 194.27328 59.0763 
L 188.95104 59.230662 
L 183.6288 59.434545 
L 178.30656 59.692401 
L 172.98432 60.010153 
L 167.66208 60.395561 
L 162.33984 60.858744 
L 157.0176 61.412925 
L 151.69536 62.075518 
L 147.079188 62.76096 
L 146.37312 62.878251 
L 141.05088 63.912796 
L 135.72864 65.175989 
L 130.4064 66.737994 
L 126.681221 68.0832 
L 125.08416 68.757674 
L 119.76192 71.519442 
L 116.892812 73.40544 
L 114.43968 75.366786 
L 111.078786 78.72768 
L 109.11744 81.180812 
L 107.231442 84.04992 
L 104.469674 89.37216 
L 103.7952 90.969221 
L 102.449994 94.6944 
L 100.887989 100.01664 
L 99.624796 105.33888 
L 98.590251 110.66112 
L 98.47296 111.367188 
L 97.787518 115.98336 
L 97.124925 121.3056 
L 96.570744 126.62784 
L 96.107561 131.95008 
L 95.722153 137.27232 
L 95.404401 142.59456 
L 95.146545 147.9168 
L 94.942662 153.23904 
L 94.7883 158.56128 
L 94.680219 163.88352 
L 94.616221 169.20576 
L 94.595028 174.528 
L 94.616221 179.85024 
L 94.680219 185.17248 
L 94.7883 190.49472 
L 94.942662 195.81696 
L 95.146545 201.1392 
L 95.404401 206.46144 
L 95.722153 211.78368 
L 96.107561 217.10592 
L 96.570744 222.42816 
L 97.124925 227.7504 
L 97.787518 233.07264 
L 98.47296 237.688812 
L 98.590251 238.39488 
L 99.624796 243.71712 
L 100.887989 249.03936 
L 102.449994 254.3616 
L 103.7952 258.086779 
L 104.469674 259.68384 
L 107.231442 265.00608 
L 109.11744 267.875188 
L 111.078786 270.32832 
L 114.43968 273.689214 
L 116.892812 275.65056 
L 119.76192 277.536558 
L 125.08416 280.298326 
L 126.681221 280.9728 
L 130.4064 282.318006 
L 135.72864 283.880011 
L 141.05088 285.143204 
L 146.37312 286.177749 
L 147.079188 286.29504 
z
M 158.665701 275.65056 
L 157.0176 275.305922 
L 151.69536 273.994556 
L 146.37312 272.410658 
L 141.05088 270.485173 
L 140.678797 270.32832 
L 135.72864 267.929658 
L 130.84647 265.00608 
L 130.4064 264.698787 
L 125.08416 260.252351 
L 124.515649 259.68384 
L 120.069213 254.3616 
L 119.76192 253.92153 
L 116.838342 249.03936 
L 114.43968 244.089203 
L 114.282827 243.71712 
L 112.357342 238.39488 
L 110.773444 233.07264 
L 109.462078 227.7504 
L 109.11744 226.102299 
L 108.426177 222.42816 
L 107.584585 217.10592 
L 106.886614 211.78368 
L 106.312787 206.46144 
L 105.848227 201.1392 
L 105.481615 195.81696 
L 105.204473 190.49472 
L 105.010644 185.17248 
L 104.895958 179.85024 
L 104.857993 174.528 
L 104.895958 169.20576 
L 105.010644 163.88352 
L 105.204473 158.56128 
L 105.481615 153.23904 
L 105.848227 147.9168 
L 106.312787 142.59456 
L 106.886614 137.27232 
L 107.584585 131.95008 
L 108.426177 126.62784 
L 109.11744 122.953701 
L 109.462078 121.3056 
L 110.773444 115.98336 
L 112.357342 110.66112 
L 114.282827 105.33888 
L 114.43968 104.966797 
L 116.838342 100.01664 
L 119.76192 95.13447 
L 120.069213 94.6944 
L 124.515649 89.37216 
L 125.08416 88.803649 
L 130.4064 84.357213 
L 130.84647 84.04992 
L 135.72864 81.126342 
L 140.678797 78.72768 
L 141.05088 78.570827 
L 146.37312 76.645342 
L 151.69536 75.061444 
L 157.0176 73.750078 
L 158.665701 73.40544 
L 162.33984 72.714177 
L 167.66208 71.872585 
L 172.98432 71.174614 
L 178.30656 70.600787 
L 183.6288 70.136227 
L 188.95104 69.769615 
L 194.27328 69.492473 
L 199.59552 69.298644 
L 204.91776 69.183958 
L 210.24 69.145993 
L 215.56224 69.183958 
L 220.88448 69.298644 
L 226.20672 69.492473 
L 231.52896 69.769615 
L 236.8512 70.136227 
L 242.17344 70.600787 
L 247.49568 71.174614 
L 252.81792 71.872585 
L 258.14016 72.714177 
L 261.814299 73.40544 
L 263.4624 73.750078 
L 268.78464 75.061444 
L 274.10688 76.645342 
L 279.42912 78.570827 
L 279.801203 78.72768 
L 284.75136 81.126342 
L 289.63353 84.04992 
L 290.0736 84.357213 
L 295.39584 88.803649 
L 295.964351 89.37216 
L 300.410787 94.6944 
L 300.71808 95.13447 
L 303.641658 100.01664 
L 306.04032 104.966797 
L 306.197173 105.33888 
L 308.122658 110.66112 
L 309.706556 115.98336 
L 311.017922 121.3056 
L 311.36256 122.953701 
L 312.053823 126.62784 
L 312.895415 131.95008 
L 313.593386 137.27232 
L 314.167213 142.59456 
L 314.631773 147.9168 
L 314.998385 153.23904 
L 315.275527 158.56128 
L 315.469356 163.88352 
L 315.584042 169.20576 
L 315.622007 174.528 
L 315.584042 179.85024 
L 315.469356 185.17248 
L 315.275527 190.49472 
L 314.998385 195.81696 
L 314.631773 201.1392 
L 314.167213 206.46144 
L 313.593386 211.78368 
L 312.895415 217.10592 
L 312.053823 222.42816 
L 311.36256 226.102299 
L 311.017922 227.7504 
L 309.706556 233.07264 
L 308.122658 238.39488 
L 306.197173 243.71712 
L 306.04032 244.089203 
L 303.641658 249.03936 
L 300.71808 253.92153 
L 300.410787 254.3616 
L 295.964351 259.68384 
L 295.39584 260.252351 
L 290.0736 264.698787 
L 289.63353 265.00608 
L 284.75136 267.929658 
L 279.801203 270.32832 
L 279.42912 270.485173 
L 274.10688 272.410658 
L 268.78464 273.994556 
L 263.4624 275.305922 
L 261.814299 275.65056 
L 258.14016 276.341823 
L 252.81792 277.183415 
L 247.49568 277.881386 
L 242.17344 278.455213 
L 236.8512 278.919773 
L 231.52896 279.286385 
L 226.20672 279.563527 
L 220.88448 279.757356 
L 215.56224 279.872042 
L 210.24 279.910007 
L 204.91776 279.872042 
L 199.59552 279.757356 
L 194.27328 279.563527 
L 188.95104 279.286385 
L 183.6288 278.919773 
L 178.30656 278.455213 
L 172.98432 277.881386 
L 167.66208 277.183415 
L 162.33984 276.341823 
z
" style="fill:#33638d;"/>
   </g>
   <g id="PathCollection_4">
    <path clip-path="url(#p3221226575)" d="M 162.33984 276.341823 
L 167.66208 277.183415 
L 172.98432 277.881386 
L 178.30656 278.455213 
L 183.6288 278.919773 
L 188.95104 279.286385 
L 194.27328 279.563527 
L 199.59552 279.757356 
L 204.91776 279.872042 
L 210.24 279.910007 
L 215.56224 279.872042 
L 220.88448 279.757356 
L 226.20672 279.563527 
L 231.52896 279.286385 
L 236.8512 278.919773 
L 242.17344 278.455213 
L 247.49568 277.881386 
L 252.81792 277.183415 
L 258.14016 276.341823 
L 261.814299 275.65056 
L 263.4624 275.305922 
L 268.78464 273.994556 
L 274.10688 272.410658 
L 279.42912 270.485173 
L 279.801203 270.32832 
L 284.75136 267.929658 
L 289.63353 265.00608 
L 290.0736 264.698787 
L 295.39584 260.252351 
L 295.964351 259.68384 
L 300.410787 254.3616 
L 300.71808 253.92153 
L 303.641658 249.03936 
L 306.04032 244.089203 
L 306.197173 243.71712 
L 308.122658 238.39488 
L 309.706556 233.07264 
L 311.017922 227.7504 
L 311.36256 226.102299 
L 312.053823 222.42816 
L 312.895415 217.10592 
L 313.593386 211.78368 
L 314.167213 206.46144 
L 314.631773 201.1392 
L 314.998385 195.81696 
L 315.275527 190.49472 
L 315.469356 185.17248 
L 315.584042 179.85024 
L 315.622007 174.528 
L 315.584042 169.20576 
L 315.469356 163.88352 
L 315.275527 158.56128 
L 314.998385 153.23904 
L 314.631773 147.9168 
L 314.167213 142.59456 
L 313.593386 137.27232 
L 312.895415 131.95008 
L 312.053823 126.62784 
L 311.36256 122.953701 
L 311.017922 121.3056 
L 309.706556 115.98336 
L 308.122658 110.66112 
L 306.197173 105.33888 
L 306.04032 104.966797 
L 303.641658 100.01664 
L 300.71808 95.13447 
L 300.410787 94.6944 
L 295.964351 89.37216 
L 295.39584 88.803649 
L 290.0736 84.357213 
L 289.63353 84.04992 
L 284.75136 81.126342 
L 279.801203 78.72768 
L 279.42912 78.570827 
L 274.10688 76.645342 
L 268.78464 75.061444 
L 263.4624 73.750078 
L 261.814299 73.40544 
L 258.14016 72.714177 
L 252.81792 71.872585 
L 247.49568 71.174614 
L 242.17344 70.600787 
L 236.8512 70.136227 
L 231.52896 69.769615 
L 226.20672 69.492473 
L 220.88448 69.298644 
L 215.56224 69.183958 
L 210.24 69.145993 
L 204.91776 69.183958 
L 199.59552 69.298644 
L 194.27328 69.492473 
L 188.95104 69.769615 
L 183.6288 70.136227 
L 178.30656 70.600787 
L 172.98432 71.174614 
L 167.66208 71.872585 
L 162.33984 72.714177 
L 158.665701 73.40544 
L 157.0176 73.750078 
L 151.69536 75.061444 
L 146.37312 76.645342 
L 141.05088 78.570827 
L 140.678797 78.72768 
L 135.72864 81.126342 
L 130.84647 84.04992 
L 130.4064 84.357213 
L 125.08416 88.803649 
L 124.515649 89.37216 
L 120.069213 94.6944 
L 119.76192 95.13447 
L 116.838342 100.01664 
L 114.43968 104.966797 
L 114.282827 105.33888 
L 112.357342 110.66112 
L 110.773444 115.98336 
L 109.462078 121.3056 
L 109.11744 122.953701 
L 108.426177 126.62784 
L 107.584585 131.95008 
L 106.886614 137.27232 
L 106.312787 142.59456 
L 105.848227 147.9168 
L 105.481615 153.23904 
L 105.204473 158.56128 
L 105.010644 163.88352 
L 104.895958 169.20576 
L 104.857993 174.528 
L 104.895958 179.85024 
L 105.010644 185.17248 
L 105.204473 190.49472 
L 105.481615 195.81696 
L 105.848227 201.1392 
L 106.312787 206.46144 
L 106.886614 211.78368 
L 107.584585 217.10592 
L 108.426177 222.42816 
L 109.11744 226.102299 
L 109.462078 227.7504 
L 110.773444 233.07264 
L 112.357342 238.39488 
L 114.282827 243.71712 
L 114.43968 244.089203 
L 116.838342 249.03936 
L 119.76192 253.92153 
L 120.069213 254.3616 
L 124.515649 259.68384 
L 125.08416 260.252351 
L 130.4064 264.698787 
L 130.84647 265.00608 
L 135.72864 267.929658 
L 140.678797 270.32832 
L 141.05088 270.485173 
L 146.37312 272.410658 
L 151.69536 273.994556 
L 157.0176 275.305922 
L 158.665701 275.65056 
z
M 174.268852 265.00608 
L 172.98432 264.760328 
L 167.66208 263.536435 
L 162.33984 262.054736 
L 157.0176 260.267052 
L 155.538403 259.68384 
L 151.69536 257.971888 
L 146.37312 255.125135 
L 145.156513 254.3616 
L 141.05088 251.394511 
L 138.301861 249.03936 
L 135.72864 246.466139 
L 133.373489 243.71712 
L 130.4064 239.611487 
L 129.642865 238.39488 
L 126.796112 233.07264 
L 125.08416 229.229597 
L 124.500948 227.7504 
L 122.713264 222.42816 
L 121.231565 217.10592 
L 120.007672 211.78368 
L 119.76192 210.499148 
L 119.061093 206.46144 
L 118.31102 201.1392 
L 117.720012 195.81696 
L 117.273785 190.49472 
L 116.96199 185.17248 
L 116.777615 179.85024 
L 116.716601 174.528 
L 116.777615 169.20576 
L 116.96199 163.88352 
L 117.273785 158.56128 
L 117.720012 153.23904 
L 118.31102 147.9168 
L 119.061093 142.59456 
L 119.76192 138.556852 
L 120.007672 137.27232 
L 121.231565 131.95008 
L 122.713264 126.62784 
L 124.500948 121.3056 
L 125.08416 119.826403 
L 126.796112 115.98336 
L 129.642865 110.66112 
L 130.4064 109.444513 
L 133.373489 105.33888 
L 135.72864 102.589861 
L 138.301861 100.01664 
L 141.05088 97.661489 
L 145.156513 94.6944 
L 146.37312 93.930865 
L 151.69536 91.084112 
L 155.538403 89.37216 
L 157.0176 88.788948 
L 162.33984 87.001264 
L 167.66208 85.519565 
L 172.98432 84.295672 
L 174.268852 84.04992 
L 178.30656 83.349093 
L 183.6288 82.59902 
L 188.95104 82.008012 
L 194.27328 81.561785 
L 199.59552 81.24999 
L 204.91776 81.065615 
L 210.24 81.004601 
L 215.56224 81.065615 
L 220.88448 81.24999 
L 226.20672 81.561785 
L 231.52896 82.008012 
L 236.8512 82.59902 
L 242.17344 83.349093 
L 246.211148 84.04992 
L 247.49568 84.295672 
L 252.81792 85.519565 
L 258.14016 87.001264 
L 263.4624 88.788948 
L 264.941597 89.37216 
L 268.78464 91.084112 
L 274.10688 93.930865 
L 275.323487 94.6944 
L 279.42912 97.661489 
L 282.178139 100.01664 
L 284.75136 102.589861 
L 287.106511 105.33888 
L 290.0736 109.444513 
L 290.837135 110.66112 
L 293.683888 115.98336 
L 295.39584 119.826403 
L 295.979052 121.3056 
L 297.766736 126.62784 
L 299.248435 131.95008 
L 300.472328 137.27232 
L 300.71808 138.556852 
L 301.418907 142.59456 
L 302.16898 147.9168 
L 302.759988 153.23904 
L 303.206215 158.56128 
L 303.51801 163.88352 
L 303.702385 169.20576 
L 303.763399 174.528 
L 303.702385 179.85024 
L 303.51801 185.17248 
L 303.206215 190.49472 
L 302.759988 195.81696 
L 302.16898 201.1392 
L 301.418907 206.46144 
L 300.71808 210.499148 
L 300.472328 211.78368 
L 299.248435 217.10592 
L 297.766736 222.42816 
L 295.979052 227.7504 
L 295.39584 229.229597 
L 293.683888 233.07264 
L 290.837135 238.39488 
L 290.0736 239.611487 
L 287.106511 243.71712 
L 284.75136 246.466139 
L 282.178139 249.03936 
L 279.42912 251.394511 
L 275.323487 254.3616 
L 274.10688 255.125135 
L 268.78464 257.971888 
L 264.941597 259.68384 
L 263.4624 260.267052 
L 258.14016 262.054736 
L 252.81792 263.536435 
L 247.49568 264.760328 
L 246.211148 265.00608 
L 242.17344 265.706907 
L 236.8512 266.45698 
L 231.52896 267.047988 
L 226.20672 267.494215 
L 220.88448 267.80601 
L 215.56224 267.990385 
L 210.24 268.051399 
L 204.91776 267.990385 
L 199.59552 267.80601 
L 194.27328 267.494215 
L 188.95104 267.047988 
L 183.6288 266.45698 
L 178.30656 265.706907 
z
" style="fill:#26828e;"/>
   </g>
   <g id="PathCollection_5">
    <path clip-path="url(#p3221226575)" d="M 178.30656 265.706907 
L 183.6288 266.45698 
L 188.95104 267.047988 
L 194.27328 267.494215 
L 199.59552 267.80601 
L 204.91776 267.990385 
L 210.24 268.051399 
L 215.56224 267.990385 
L 220.88448 267.80601 
L 226.20672 267.494215 
L 231.52896 267.047988 
L 236.8512 266.45698 
L 242.17344 265.706907 
L 246.211148 265.00608 
L 247.49568 264.760328 
L 252.81792 263.536435 
L 258.14016 262.054736 
L 263.4624 260.267052 
L 264.941597 259.68384 
L 268.78464 257.971888 
L 274.10688 255.125135 
L 275.323487 254.3616 
L 279.42912 251.394511 
L 282.178139 249.03936 
L 284.75136 246.466139 
L 287.106511 243.71712 
L 290.0736 239.611487 
L 290.837135 238.39488 
L 293.683888 233.07264 
L 295.39584 229.229597 
L 295.979052 227.7504 
L 297.766736 222.42816 
L 299.248435 217.10592 
L 300.472328 211.78368 
L 300.71808 210.499148 
L 301.418907 206.46144 
L 302.16898 201.1392 
L 302.759988 195.81696 
L 303.206215 190.49472 
L 303.51801 185.17248 
L 303.702385 179.85024 
L 303.763399 174.528 
L 303.702385 169.20576 
L 303.51801 163.88352 
L 303.206215 158.56128 
L 302.759988 153.23904 
L 302.16898 147.9168 
L 301.418907 142.59456 
L 300.71808 138.556852 
L 300.472328 137.27232 
L 299.248435 131.95008 
L 297.766736 126.62784 
L 295.979052 121.3056 
L 295.39584 119.826403 
L 293.683888 115.98336 
L 290.837135 110.66112 
L 290.0736 109.444513 
L 287.106511 105.33888 
L 284.75136 102.589861 
L 282.178139 100.01664 
L 279.42912 97.661489 
L 275.323487 94.6944 
L 274.10688 93.930865 
L 268.78464 91.084112 
L 264.941597 89.37216 
L 263.4624 88.788948 
L 258.14016 87.001264 
L 252.81792 85.519565 
L 247.49568 84.295672 
L 246.211148 84.04992 
L 242.17344 83.349093 
L 236.8512 82.59902 
L 231.52896 82.008012 
L 226.20672 81.561785 
L 220.88448 81.24999 
L 215.56224 81.065615 
L 210.24 81.004601 
L 204.91776 81.065615 
L 199.59552 81.24999 
L 194.27328 81.561785 
L 188.95104 82.008012 
L 183.6288 82.59902 
L 178.30656 83.349093 
L 174.268852 84.04992 
L 172.98432 84.295672 
L 167.66208 85.519565 
L 162.33984 87.001264 
L 157.0176 88.788948 
L 155.538403 89.37216 
L 151.69536 91.084112 
L 146.37312 93.930865 
L 145.156513 94.6944 
L 141.05088 97.661489 
L 138.301861 100.01664 
L 135.72864 102.589861 
L 133.373489 105.33888 
L 130.4064 109.444513 
L 129.642865 110.66112 
L 126.796112 115.98336 
L 125.08416 119.826403 
L 124.500948 121.3056 
L 122.713264 126.62784 
L 121.231565 131.95008 
L 120.007672 137.27232 
L 119.76192 138.556852 
L 119.061093 142.59456 
L 118.31102 147.9168 
L 117.720012 153.23904 
L 117.273785 158.56128 
L 116.96199 163.88352 
L 116.777615 169.20576 
L 116.716601 174.528 
L 116.777615 179.85024 
L 116.96199 185.17248 
L 117.273785 190.49472 
L 117.720012 195.81696 
L 118.31102 201.1392 
L 119.061093 206.46144 
L 119.76192 210.499148 
L 120.007672 211.78368 
L 121.231565 217.10592 
L 122.713264 222.42816 
L 124.500948 227.7504 
L 125.08416 229.229597 
L 126.796112 233.07264 
L 129.642865 238.39488 
L 130.4064 239.611487 
L 133.373489 243.71712 
L 135.72864 246.466139 
L 138.301861 249.03936 
L 141.05088 251.394511 
L 145.156513 254.3616 
L 146.37312 255.125135 
L 151.69536 257.971888 
L 155.538403 259.68384 
L 157.0176 260.267052 
L 162.33984 262.054736 
L 167.66208 263.536435 
L 172.98432 264.760328 
L 174.268852 265.00608 
z
M 174.945325 249.03936 
L 172.98432 248.409318 
L 167.66208 246.345925 
L 162.33984 243.841538 
L 162.113742 243.71712 
L 157.0176 240.525568 
L 154.151117 238.39488 
L 151.69536 236.292234 
L 148.475766 233.07264 
L 146.37312 230.616883 
L 144.242432 227.7504 
L 141.05088 222.654258 
L 140.926462 222.42816 
L 138.422075 217.10592 
L 136.358682 211.78368 
L 135.72864 209.822675 
L 134.76034 206.46144 
L 133.514311 201.1392 
L 132.534372 195.81696 
L 131.795611 190.49472 
L 131.28 185.17248 
L 130.975335 179.85024 
L 130.874552 174.528 
L 130.975335 169.20576 
L 131.28 163.88352 
L 131.795611 158.56128 
L 132.534372 153.23904 
L 133.514311 147.9168 
L 134.76034 142.59456 
L 135.72864 139.233325 
L 136.358682 137.27232 
L 138.422075 131.95008 
L 140.926462 126.62784 
L 141.05088 126.401742 
L 144.242432 121.3056 
L 146.37312 118.439117 
L 148.475766 115.98336 
L 151.69536 112.763766 
L 154.151117 110.66112 
L 157.0176 108.530432 
L 162.113742 105.33888 
L 162.33984 105.214462 
L 167.66208 102.710075 
L 172.98432 100.646682 
L 174.945325 100.01664 
L 178.30656 99.04834 
L 183.6288 97.802311 
L 188.95104 96.822372 
L 194.27328 96.083611 
L 199.59552 95.568 
L 204.91776 95.263335 
L 210.24 95.162552 
L 215.56224 95.263335 
L 220.88448 95.568 
L 226.20672 96.083611 
L 231.52896 96.822372 
L 236.8512 97.802311 
L 242.17344 99.04834 
L 245.534675 100.01664 
L 247.49568 100.646682 
L 252.81792 102.710075 
L 258.14016 105.214462 
L 258.366258 105.33888 
L 263.4624 108.530432 
L 266.328883 110.66112 
L 268.78464 112.763766 
L 272.004234 115.98336 
L 274.10688 118.439117 
L 276.237568 121.3056 
L 279.42912 126.401742 
L 279.553538 126.62784 
L 282.057925 131.95008 
L 284.121318 137.27232 
L 284.75136 139.233325 
L 285.71966 142.59456 
L 286.965689 147.9168 
L 287.945628 153.23904 
L 288.684389 158.56128 
L 289.2 163.88352 
L 289.504665 169.20576 
L 289.605448 174.528 
L 289.504665 179.85024 
L 289.2 185.17248 
L 288.684389 190.49472 
L 287.945628 195.81696 
L 286.965689 201.1392 
L 285.71966 206.46144 
L 284.75136 209.822675 
L 284.121318 211.78368 
L 282.057925 217.10592 
L 279.553538 222.42816 
L 279.42912 222.654258 
L 276.237568 227.7504 
L 274.10688 230.616883 
L 272.004234 233.07264 
L 268.78464 236.292234 
L 266.328883 238.39488 
L 263.4624 240.525568 
L 258.366258 243.71712 
L 258.14016 243.841538 
L 252.81792 246.345925 
L 247.49568 248.409318 
L 245.534675 249.03936 
L 242.17344 250.00766 
L 236.8512 251.253689 
L 231.52896 252.233628 
L 226.20672 252.972389 
L 220.88448 253.488 
L 215.56224 253.792665 
L 210.24 253.893448 
L 204.91776 253.792665 
L 199.59552 253.488 
L 194.27328 252.972389 
L 188.95104 252.233628 
L 183.6288 251.253689 
L 178.30656 250.00766 
z
" style="fill:#1fa088;"/>
   </g>
   <g id="PathCollection_6">
    <path clip-path="url(#p3221226575)" d="M 178.30656 250.00766 
L 183.6288 251.253689 
L 188.95104 252.233628 
L 194.27328 252.972389 
L 199.59552 253.488 
L 204.91776 253.792665 
L 210.24 253.893448 
L 215.56224 253.792665 
L 220.88448 253.488 
L 226.20672 252.972389 
L 231.52896 252.233628 
L 236.8512 251.253689 
L 242.17344 250.00766 
L 245.534675 249.03936 
L 247.49568 248.409318 
L 252.81792 246.345925 
L 258.14016 243.841538 
L 258.366258 243.71712 
L 263.4624 240.525568 
L 266.328883 238.39488 
L 268.78464 236.292234 
L 272.004234 233.07264 
L 274.10688 230.616883 
L 276.237568 227.7504 
L 279.42912 222.654258 
L 279.553538 222.42816 
L 282.057925 217.10592 
L 284.121318 211.78368 
L 284.75136 209.822675 
L 285.71966 206.46144 
L 286.965689 201.1392 
L 287.945628 195.81696 
L 288.684389 190.49472 
L 289.2 185.17248 
L 289.504665 179.85024 
L 289.605448 174.528 
L 289.504665 169.20576 
L 289.2 163.88352 
L 288.684389 158.56128 
L 287.945628 153.23904 
L 286.965689 147.9168 
L 285.71966 142.59456 
L 284.75136 139.233325 
L 284.121318 137.27232 
L 282.057925 131.95008 
L 279.553538 126.62784 
L 279.42912 126.401742 
L 276.237568 121.3056 
L 274.10688 118.439117 
L 272.004234 115.98336 
L 268.78464 112.763766 
L 266.328883 110.66112 
L 263.4624 108.530432 
L 258.366258 105.33888 
L 258.14016 105.214462 
L 252.81792 102.710075 
L 247.49568 100.646682 
L 245.534675 100.01664 
L 242.17344 99.04834 
L 236.8512 97.802311 
L 231.52896 96.822372 
L 226.20672 96.083611 
L 220.88448 95.568 
L 215.56224 95.263335 
L 210.24 95.162552 
L 204.91776 95.263335 
L 199.59552 95.568 
L 194.27328 96.083611 
L 188.95104 96.822372 
L 183.6288 97.802311 
L 178.30656 99.04834 
L 174.945325 100.01664 
L 172.98432 100.646682 
L 167.66208 102.710075 
L 162.33984 105.214462 
L 162.113742 105.33888 
L 157.0176 108.530432 
L 154.151117 110.66112 
L 151.69536 112.763766 
L 148.475766 115.98336 
L 146.37312 118.439117 
L 144.242432 121.3056 
L 141.05088 126.401742 
L 140.926462 126.62784 
L 138.422075 131.95008 
L 136.358682 137.27232 
L 135.72864 139.233325 
L 134.76034 142.59456 
L 133.514311 147.9168 
L 132.534372 153.23904 
L 131.795611 158.56128 
L 131.28 163.88352 
L 130.975335 169.20576 
L 130.874552 174.528 
L 130.975335 179.85024 
L 131.28 185.17248 
L 131.795611 190.49472 
L 132.534372 195.81696 
L 133.514311 201.1392 
L 134.76034 206.46144 
L 135.72864 209.822675 
L 136.358682 211.78368 
L 138.422075 217.10592 
L 140.926462 222.42816 
L 141.05088 222.654258 
L 144.242432 227.7504 
L 146.37312 230.616883 
L 148.475766 233.07264 
L 151.69536 236.292234 
L 154.151117 238.39488 
L 157.0176 240.525568 
L 162.113742 243.71712 
L 162.33984 243.841538 
L 167.66208 246.345925 
L 172.98432 248.409318 
L 174.945325 249.03936 
z
M 189.961316 233.07264 
L 188.95104 232.814133 
L 183.6288 231.022327 
L 178.30656 228.740271 
L 176.420836 227.7504 
L 172.98432 225.685259 
L 168.505646 222.42816 
L 167.66208 221.715256 
L 163.052744 217.10592 
L 162.33984 216.262354 
L 159.082741 211.78368 
L 157.0176 208.347164 
L 156.027729 206.46144 
L 153.745673 201.1392 
L 151.953867 195.81696 
L 151.69536 194.806684 
L 150.71172 190.49472 
L 149.86308 185.17248 
L 149.361872 179.85024 
L 149.19611 174.528 
L 149.361872 169.20576 
L 149.86308 163.88352 
L 150.71172 158.56128 
L 151.69536 154.249316 
L 151.953867 153.23904 
L 153.745673 147.9168 
L 156.027729 142.59456 
L 157.0176 140.708836 
L 159.082741 137.27232 
L 162.33984 132.793646 
L 163.052744 131.95008 
L 167.66208 127.340744 
L 168.505646 126.62784 
L 172.98432 123.370741 
L 176.420836 121.3056 
L 178.30656 120.315729 
L 183.6288 118.033673 
L 188.95104 116.241867 
L 189.961316 115.98336 
L 194.27328 114.99972 
L 199.59552 114.15108 
L 204.91776 113.649872 
L 210.24 113.48411 
L 215.56224 113.649872 
L 220.88448 114.15108 
L 226.20672 114.99972 
L 230.518684 115.98336 
L 231.52896 116.241867 
L 236.8512 118.033673 
L 242.17344 120.315729 
L 244.059164 121.3056 
L 247.49568 123.370741 
L 251.974354 126.62784 
L 252.81792 127.340744 
L 257.427256 131.95008 
L 258.14016 132.793646 
L 261.397259 137.27232 
L 263.4624 140.708836 
L 264.452271 142.59456 
L 266.734327 147.9168 
L 268.526133 153.23904 
L 268.78464 154.249316 
L 269.76828 158.56128 
L 270.61692 163.88352 
L 271.118128 169.20576 
L 271.28389 174.528 
L 271.118128 179.85024 
L 270.61692 185.17248 
L 269.76828 190.49472 
L 268.78464 194.806684 
L 268.526133 195.81696 
L 266.734327 201.1392 
L 264.452271 206.46144 
L 263.4624 208.347164 
L 261.397259 211.78368 
L 258.14016 216.262354 
L 257.427256 217.10592 
L 252.81792 221.715256 
L 251.974354 222.42816 
L 247.49568 225.685259 
L 244.059164 227.7504 
L 242.17344 228.740271 
L 236.8512 231.022327 
L 231.52896 232.814133 
L 230.518684 233.07264 
L 226.20672 234.05628 
L 220.88448 234.90492 
L 215.56224 235.406128 
L 210.24 235.57189 
L 204.91776 235.406128 
L 199.59552 234.90492 
L 194.27328 234.05628 
z
" style="fill:#3fbc73;"/>
   </g>
   <g id="PathCollection_7">
    <path clip-path="url(#p3221226575)" d="M 194.27328 234.05628 
L 199.59552 234.90492 
L 204.91776 235.406128 
L 210.24 235.57189 
L 215.56224 235.406128 
L 220.88448 234.90492 
L 226.20672 234.05628 
L 230.518684 233.07264 
L 231.52896 232.814133 
L 236.8512 231.022327 
L 242.17344 228.740271 
L 244.059164 227.7504 
L 247.49568 225.685259 
L 251.974354 222.42816 
L 252.81792 221.715256 
L 257.427256 217.10592 
L 258.14016 216.262354 
L 261.397259 211.78368 
L 263.4624 208.347164 
L 264.452271 206.46144 
L 266.734327 201.1392 
L 268.526133 195.81696 
L 268.78464 194.806684 
L 269.76828 190.49472 
L 270.61692 185.17248 
L 271.118128 179.85024 
L 271.28389 174.528 
L 271.118128 169.20576 
L 270.61692 163.88352 
L 269.76828 158.56128 
L 268.78464 154.249316 
L 268.526133 153.23904 
L 266.734327 147.9168 
L 264.452271 142.59456 
L 263.4624 140.708836 
L 261.397259 137.27232 
L 258.14016 132.793646 
L 257.427256 131.95008 
L 252.81792 127.340744 
L 251.974354 126.62784 
L 247.49568 123.370741 
L 244.059164 121.3056 
L 242.17344 120.315729 
L 236.8512 118.033673 
L 231.52896 116.241867 
L 230.518684 115.98336 
L 226.20672 114.99972 
L 220.88448 114.15108 
L 215.56224 113.649872 
L 210.24 113.48411 
L 204.91776 113.649872 
L 199.59552 114.15108 
L 194.27328 114.99972 
L 189.961316 115.98336 
L 188.95104 116.241867 
L 183.6288 118.033673 
L 178.30656 120.315729 
L 176.420836 121.3056 
L 172.98432 123.370741 
L 168.505646 126.62784 
L 167.66208 127.340744 
L 163.052744 131.95008 
L 162.33984 132.793646 
L 159.082741 137.27232 
L 157.0176 140.708836 
L 156.027729 142.59456 
L 153.745673 147.9168 
L 151.953867 153.23904 
L 151.69536 154.249316 
L 150.71172 158.56128 
L 149.86308 163.88352 
L 149.361872 169.20576 
L 149.19611 174.528 
L 149.361872 179.85024 
L 149.86308 185.17248 
L 150.71172 190.49472 
L 151.69536 194.806684 
L 151.953867 195.81696 
L 153.745673 201.1392 
L 156.027729 206.46144 
L 157.0176 208.347164 
L 159.082741 211.78368 
L 162.33984 216.262354 
L 163.052744 217.10592 
L 167.66208 221.715256 
L 168.505646 222.42816 
L 172.98432 225.685259 
L 176.420836 227.7504 
L 178.30656 228.740271 
L 183.6288 231.022327 
L 188.95104 232.814133 
L 189.961316 233.07264 
z
M 207.078856 206.46144 
L 204.91776 206.280217 
L 199.59552 204.931725 
L 194.27328 202.647194 
L 191.808756 201.1392 
L 188.95104 198.962713 
L 185.805287 195.81696 
L 183.6288 192.959244 
L 182.120806 190.49472 
L 179.836275 185.17248 
L 178.487783 179.85024 
L 178.30656 177.689144 
L 178.084174 174.528 
L 178.30656 171.366856 
L 178.487783 169.20576 
L 179.836275 163.88352 
L 182.120806 158.56128 
L 183.6288 156.096756 
L 185.805287 153.23904 
L 188.95104 150.093287 
L 191.808756 147.9168 
L 194.27328 146.408806 
L 199.59552 144.124275 
L 204.91776 142.775783 
L 207.078856 142.59456 
L 210.24 142.372174 
L 213.401144 142.59456 
L 215.56224 142.775783 
L 220.88448 144.124275 
L 226.20672 146.408806 
L 228.671244 147.9168 
L 231.52896 150.093287 
L 234.674713 153.23904 
L 236.8512 156.096756 
L 238.359194 158.56128 
L 240.643725 163.88352 
L 241.992217 169.20576 
L 242.17344 171.366856 
L 242.395826 174.528 
L 242.17344 177.689144 
L 241.992217 179.85024 
L 240.643725 185.17248 
L 238.359194 190.49472 
L 236.8512 192.959244 
L 234.674713 195.81696 
L 231.52896 198.962713 
L 228.671244 201.1392 
L 226.20672 202.647194 
L 220.88448 204.931725 
L 215.56224 206.280217 
L 213.401144 206.46144 
L 210.24 206.683826 
z
" style="fill:#84d44b;"/>
   </g>
   <g id="PathCollection_8">
    <path clip-path="url(#p3221226575)" d="M 210.24 206.683826 
L 213.401144 206.46144 
L 215.56224 206.280217 
L 220.88448 204.931725 
L 226.20672 202.647194 
L 228.671244 201.1392 
L 231.52896 198.962713 
L 234.674713 195.81696 
L 236.8512 192.959244 
L 238.359194 190.49472 
L 240.643725 185.17248 
L 241.992217 179.85024 
L 242.17344 177.689144 
L 242.395826 174.528 
L 242.17344 171.366856 
L 241.992217 169.20576 
L 240.643725 163.88352 
L 238.359194 158.56128 
L 236.8512 156.096756 
L 234.674713 153.23904 
L 231.52896 150.093287 
L 228.671244 147.9168 
L 226.20672 146.408806 
L 220.88448 144.124275 
L 215.56224 142.775783 
L 213.401144 142.59456 
L 210.24 142.372174 
L 207.078856 142.59456 
L 204.91776 142.775783 
L 199.59552 144.124275 
L 194.27328 146.408806 
L 191.808756 147.9168 
L 188.95104 150.093287 
L 185.805287 153.23904 
L 183.6288 156.096756 
L 182.120806 158.56128 
L 179.836275 163.88352 
L 178.487783 169.20576 
L 178.30656 171.366856 
L 178.084174 174.528 
L 178.30656 177.689144 
L 178.487783 179.85024 
L 179.836275 185.17248 
L 182.120806 190.49472 
L 183.6288 192.959244 
L 185.805287 195.81696 
L 188.95104 198.962713 
L 191.808756 201.1392 
L 194.27328 202.647194 
L 199.59552 204.931725 
L 204.91776 206.280217 
L 207.078856 206.46144 
z
" style="fill:#d8e219;"/>
   </g>
   <g id="matplotlib.axis_1">
    <g id="xtick_1">
     <g id="line2d_1">
      <defs>
       <path d="M 0 0 
L 0 3.5 
" id="m6cb5fcc669" style="stroke:#000000;stroke-width:0.8;"/>
      </defs>
      <g>
       <use style="stroke:#000000;stroke-width:0.8;" x="77.184" xlink:href="#m6cb5fcc669" y="307.584"/>
      </g>
     </g>
     <g id="text_1">
      <!-- 0.0 -->
      <g transform="translate(69.232438 322.182437)scale(0.1 -0.1)">
       <defs>
        <path d="M 31.78125 66.40625 
Q 24.171875 66.40625 20.328125 58.90625 
Q 16.5 51.421875 16.5 36.375 
Q 16.5 21.390625 20.328125 13.890625 
Q 24.171875 6.390625 31.78125 6.390625 
Q 39.453125 6.390625 43.28125 13.890625 
Q 47.125 21.390625 47.125 36.375 
Q 47.125 51.421875 43.28125 58.90625 
Q 39.453125 66.40625 31.78125 66.40625 
z
M 31.78125 74.21875 
Q 44.046875 74.21875 50.515625 64.515625 
Q 56.984375 54.828125 56.984375 36.375 
Q 56.984375 17.96875 50.515625 8.265625 
Q 44.046875 -1.421875 31.78125 -1.421875 
Q 19.53125 -1.421875 13.0625 8.265625 
Q 6.59375 17.96875 6.59375 36.375 
Q 6.59375 54.828125 13.0625 64.515625 
Q 19.53125 74.21875 31.78125 74.21875 
z
" id="DejaVuSans-48"/>
        <path d="M 10.6875 12.40625 
L 21 12.40625 
L 21 0 
L 10.6875 0 
z
" id="DejaVuSans-46"/>
       </defs>
       <use xlink:href="#DejaVuSans-48"/>
       <use x="63.623047" xlink:href="#DejaVuSans-46"/>
       <use x="95.410156" xlink:href="#DejaVuSans-48"/>
      </g>
     </g>
    </g>
    <g id="xtick_2">
     <g id="line2d_2">
      <g>
       <use style="stroke:#000000;stroke-width:0.8;" x="130.4064" xlink:href="#m6cb5fcc669" y="307.584"/>
      </g>
     </g>
     <g id="text_2">
      <!-- 0.2 -->
      <g transform="translate(122.454838 322.182437)scale(0.1 -0.1)">
       <defs>
        <path d="M 19.1875 8.296875 
L 53.609375 8.296875 
L 53.609375 0 
L 7.328125 0 
L 7.328125 8.296875 
Q 12.9375 14.109375 22.625 23.890625 
Q 32.328125 33.6875 34.8125 36.53125 
Q 39.546875 41.84375 41.421875 45.53125 
Q 43.3125 49.21875 43.3125 52.78125 
Q 43.3125 58.59375 39.234375 62.25 
Q 35.15625 65.921875 28.609375 65.921875 
Q 23.96875 65.921875 18.8125 64.3125 
Q 13.671875 62.703125 7.8125 59.421875 
L 7.8125 69.390625 
Q 13.765625 71.78125 18.9375 73 
Q 24.125 74.21875 28.421875 74.21875 
Q 39.75 74.21875 46.484375 68.546875 
Q 53.21875 62.890625 53.21875 53.421875 
Q 53.21875 48.921875 51.53125 44.890625 
Q 49.859375 40.875 45.40625 35.40625 
Q 44.1875 33.984375 37.640625 27.21875 
Q 31.109375 20.453125 19.1875 8.296875 
z
" id="DejaVuSans-50"/>
       </defs>
       <use xlink:href="#DejaVuSans-48"/>
       <use x="63.623047" xlink:href="#DejaVuSans-46"/>
       <use x="95.410156" xlink:href="#DejaVuSans-50"/>
      </g>
     </g>
    </g>
    <g id="xtick_3">
     <g id="line2d_3">
      <g>
       <use style="stroke:#000000;stroke-width:0.8;" x="183.6288" xlink:href="#m6cb5fcc669" y="307.584"/>
      </g>
     </g>
     <g id="text_3">
      <!-- 0.4 -->
      <g transform="translate(175.677238 322.182437)scale(0.1 -0.1)">
       <defs>
        <path d="M 37.796875 64.3125 
L 12.890625 25.390625 
L 37.796875 25.390625 
z
M 35.203125 72.90625 
L 47.609375 72.90625 
L 47.609375 25.390625 
L 58.015625 25.390625 
L 58.015625 17.1875 
L 47.609375 17.1875 
L 47.609375 0 
L 37.796875 0 
L 37.796875 17.1875 
L 4.890625 17.1875 
L 4.890625 26.703125 
z
" id="DejaVuSans-52"/>
       </defs>
       <use xlink:href="#DejaVuSans-48"/>
       <use x="63.623047" xlink:href="#DejaVuSans-46"/>
       <use x="95.410156" xlink:href="#DejaVuSans-52"/>
      </g>
     </g>
    </g>
    <g id="xtick_4">
     <g id="line2d_4">
      <g>
       <use style="stroke:#000000;stroke-width:0.8;" x="236.8512" xlink:href="#m6cb5fcc669" y="307.584"/>
      </g>
     </g>
     <g id="text_4">
      <!-- 0.6 -->
      <g transform="translate(228.899638 322.182437)scale(0.1 -0.1)">
       <defs>
        <path d="M 33.015625 40.375 
Q 26.375 40.375 22.484375 35.828125 
Q 18.609375 31.296875 18.609375 23.390625 
Q 18.609375 15.53125 22.484375 10.953125 
Q 26.375 6.390625 33.015625 6.390625 
Q 39.65625 6.390625 43.53125 10.953125 
Q 47.40625 15.53125 47.40625 23.390625 
Q 47.40625 31.296875 43.53125 35.828125 
Q 39.65625 40.375 33.015625 40.375 
z
M 52.59375 71.296875 
L 52.59375 62.3125 
Q 48.875 64.0625 45.09375 64.984375 
Q 41.3125 65.921875 37.59375 65.921875 
Q 27.828125 65.921875 22.671875 59.328125 
Q 17.53125 52.734375 16.796875 39.40625 
Q 19.671875 43.65625 24.015625 45.921875 
Q 28.375 48.1875 33.59375 48.1875 
Q 44.578125 48.1875 50.953125 41.515625 
Q 57.328125 34.859375 57.328125 23.390625 
Q 57.328125 12.15625 50.6875 5.359375 
Q 44.046875 -1.421875 33.015625 -1.421875 
Q 20.359375 -1.421875 13.671875 8.265625 
Q 6.984375 17.96875 6.984375 36.375 
Q 6.984375 53.65625 15.1875 63.9375 
Q 23.390625 74.21875 37.203125 74.21875 
Q 40.921875 74.21875 44.703125 73.484375 
Q 48.484375 72.75 52.59375 71.296875 
z
" id="DejaVuSans-54"/>
       </defs>
       <use xlink:href="#DejaVuSans-48"/>
       <use x="63.623047" xlink:href="#DejaVuSans-46"/>
       <use x="95.410156" xlink:href="#DejaVuSans-54"/>
      </g>
     </g>
    </g>
    <g id="xtick_5">
     <g id="line2d_5">
      <g>
       <use style="stroke:#000000;stroke-width:0.8;" x="290.0736" xlink:href="#m6cb5fcc669" y="307.584"/>
      </g>
     </g>
     <g id="text_5">
      <!-- 0.8 -->
      <g transform="translate(282.122038 322.182437)scale(0.1 -0.1)">
       <defs>
        <path d="M 31.78125 34.625 
Q 24.75 34.625 20.71875 30.859375 
Q 16.703125 27.09375 16.703125 20.515625 
Q 16.703125 13.921875 20.71875 10.15625 
Q 24.75 6.390625 31.78125 6.390625 
Q 38.8125 6.390625 42.859375 10.171875 
Q 46.921875 13.96875 46.921875 20.515625 
Q 46.921875 27.09375 42.890625 30.859375 
Q 38.875 34.625 31.78125 34.625 
z
M 21.921875 38.8125 
Q 15.578125 40.375 12.03125 44.71875 
Q 8.5 49.078125 8.5 55.328125 
Q 8.5 64.0625 14.71875 69.140625 
Q 20.953125 74.21875 31.78125 74.21875 
Q 42.671875 74.21875 48.875 69.140625 
Q 55.078125 64.0625 55.078125 55.328125 
Q 55.078125 49.078125 51.53125 44.71875 
Q 48 40.375 41.703125 38.8125 
Q 48.828125 37.15625 52.796875 32.3125 
Q 56.78125 27.484375 56.78125 20.515625 
Q 56.78125 9.90625 50.3125 4.234375 
Q 43.84375 -1.421875 31.78125 -1.421875 
Q 19.734375 -1.421875 13.25 4.234375 
Q 6.78125 9.90625 6.78125 20.515625 
Q 6.78125 27.484375 10.78125 32.3125 
Q 14.796875 37.15625 21.921875 38.8125 
z
M 18.3125 54.390625 
Q 18.3125 48.734375 21.84375 45.5625 
Q 25.390625 42.390625 31.78125 42.390625 
Q 38.140625 42.390625 41.71875 45.5625 
Q 45.3125 48.734375 45.3125 54.390625 
Q 45.3125 60.0625 41.71875 63.234375 
Q 38.140625 66.40625 31.78125 66.40625 
Q 25.390625 66.40625 21.84375 63.234375 
Q 18.3125 60.0625 18.3125 54.390625 
z
" id="DejaVuSans-56"/>
       </defs>
       <use xlink:href="#DejaVuSans-48"/>
       <use x="63.623047" xlink:href="#DejaVuSans-46"/>
       <use x="95.410156" xlink:href="#DejaVuSans-56"/>
      </g>
     </g>
    </g>
    <g id="xtick_6">
     <g id="line2d_6">
      <g>
       <use style="stroke:#000000;stroke-width:0.8;" x="343.296" xlink:href="#m6cb5fcc669" y="307.584"/>
      </g>
     </g>
     <g id="text_6">
      <!-- 1.0 -->
      <g transform="translate(335.344438 322.182437)scale(0.1 -0.1)">
       <defs>
        <path d="M 12.40625 8.296875 
L 28.515625 8.296875 
L 28.515625 63.921875 
L 10.984375 60.40625 
L 10.984375 69.390625 
L 28.421875 72.90625 
L 38.28125 72.90625 
L 38.28125 8.296875 
L 54.390625 8.296875 
L 54.390625 0 
L 12.40625 0 
z
" id="DejaVuSans-49"/>
       </defs>
       <use xlink:href="#DejaVuSans-49"/>
       <use x="63.623047" xlink:href="#DejaVuSans-46"/>
       <use x="95.410156" xlink:href="#DejaVuSans-48"/>
      </g>
     </g>
    </g>
   </g>
   <g id="matplotlib.axis_2">
    <g id="ytick_1">
     <g id="line2d_7">
      <defs>
       <path d="M 0 0 
L -3.5 0 
" id="m7bec0c7d23" style="stroke:#000000;stroke-width:0.8;"/>
      </defs>
      <g>
       <use style="stroke:#000000;stroke-width:0.8;" x="77.184" xlink:href="#m7bec0c7d23" y="307.584"/>
      </g>
     </g>
     <g id="text_7">
      <!-- 0.0 -->
      <g transform="translate(54.280875 311.383219)scale(0.1 -0.1)">
       <use xlink:href="#DejaVuSans-48"/>
       <use x="63.623047" xlink:href="#DejaVuSans-46"/>
       <use x="95.410156" xlink:href="#DejaVuSans-48"/>
      </g>
     </g>
    </g>
    <g id="ytick_2">
     <g id="line2d_8">
      <g>
       <use style="stroke:#000000;stroke-width:0.8;" x="77.184" xlink:href="#m7bec0c7d23" y="254.3616"/>
      </g>
     </g>
     <g id="text_8">
      <!-- 0.2 -->
      <g transform="translate(54.280875 258.160819)scale(0.1 -0.1)">
       <use xlink:href="#DejaVuSans-48"/>
       <use x="63.623047" xlink:href="#DejaVuSans-46"/>
       <use x="95.410156" xlink:href="#DejaVuSans-50"/>
      </g>
     </g>
    </g>
    <g id="ytick_3">
     <g id="line2d_9">
      <g>
       <use style="stroke:#000000;stroke-width:0.8;" x="77.184" xlink:href="#m7bec0c7d23" y="201.1392"/>
      </g>
     </g>
     <g id="text_9">
      <!-- 0.4 -->
      <g transform="translate(54.280875 204.938419)scale(0.1 -0.1)">
       <use xlink:href="#DejaVuSans-48"/>
       <use x="63.623047" xlink:href="#DejaVuSans-46"/>
       <use x="95.410156" xlink:href="#DejaVuSans-52"/>
      </g>
     </g>
    </g>
    <g id="ytick_4">
     <g id="line2d_10">
      <g>
       <use style="stroke:#000000;stroke-width:0.8;" x="77.184" xlink:href="#m7bec0c7d23" y="147.9168"/>
      </g>
     </g>
     <g id="text_10">
      <!-- 0.6 -->
      <g transform="translate(54.280875 151.716019)scale(0.1 -0.1)">
       <use xlink:href="#DejaVuSans-48"/>
       <use x="63.623047" xlink:href="#DejaVuSans-46"/>
       <use x="95.410156" xlink:href="#DejaVuSans-54"/>
      </g>
     </g>
    </g>
    <g id="ytick_5">
     <g id="line2d_11">
      <g>
       <use style="stroke:#000000;stroke-width:0.8;" x="77.184" xlink:href="#m7bec0c7d23" y="94.6944"/>
      </g>
     </g>
     <g id="text_11">
      <!-- 0.8 -->
      <g transform="translate(54.280875 98.493619)scale(0.1 -0.1)">
       <use xlink:href="#DejaVuSans-48"/>
       <use x="63.623047" xlink:href="#DejaVuSans-46"/>
       <use x="95.410156" xlink:href="#DejaVuSans-56"/>
      </g>
     </g>
    </g>
    <g id="ytick_6">
     <g id="line2d_12">
      <g>
       <use style="stroke:#000000;stroke-width:0.8;" x="77.184" xlink:href="#m7bec0c7d23" y="41.472"/>
      </g>
     </g>
     <g id="text_12">
      <!-- 1.0 -->
      <g transform="translate(54.280875 45.271219)scale(0.1 -0.1)">
       <use xlink:href="#DejaVuSans-49"/>
       <use x="63.623047" xlink:href="#DejaVuSans-46"/>
       <use x="95.410156" xlink:href="#DejaVuSans-48"/>
      </g>
     </g>
    </g>
   </g>
   <g id="patch_3">
    <path d="M 77.184 307.584 
L 77.184 41.472 
" style="fill:none;stroke:#000000;stroke-linecap:square;stroke-linejoin:miter;stroke-width:0.8;"/>
   </g>
   <g id="patch_4">
    <path d="M 343.296 307.584 
L 343.296 41.472 
" style="fill:none;stroke:#000000;stroke-linecap:square;stroke-linejoin:miter;stroke-width:0.8;"/>
   </g>
   <g id="patch_5">
    <path d="M 77.184 307.584 
L 343.296 307.584 
" style="fill:none;stroke:#000000;stroke-linecap:square;stroke-linejoin:miter;stroke-width:0.8;"/>
   </g>
   <g id="patch_6">
    <path d="M 77.184 41.472 
L 343.296 41.472 
" style="fill:none;stroke:#000000;stroke-linecap:square;stroke-linejoin:miter;stroke-width:0.8;"/>
   </g>
  </g>
  <g id="axes_2">
   <g id="patch_7">
    <path clip-path="url(#pe7e5391095)" d="M 361.152 294.2784 
L 361.152 264.3408 
L 361.152 84.7152 
L 361.152 54.7776 
L 373.12704 54.7776 
L 373.12704 84.7152 
L 373.12704 264.3408 
L 373.12704 294.2784 
z
" style="fill:#ffffff;stroke:#ffffff;stroke-linejoin:miter;stroke-width:0.01;"/>
   </g>
   <g id="QuadMesh_1">
    <path clip-path="url(#pe7e5391095)" d="M 361.152 294.2784 
L 373.12704 294.2784 
L 373.12704 264.3408 
L 361.152 264.3408 
L 361.152 294.2784 
" style="fill:#48186a;"/>
    <path clip-path="url(#pe7e5391095)" d="M 361.152 264.3408 
L 373.12704 264.3408 
L 373.12704 234.4032 
L 361.152 234.4032 
L 361.152 264.3408 
" style="fill:#424086;"/>
    <path clip-path="url(#pe7e5391095)" d="M 361.152 234.4032 
L 373.12704 234.4032 
L 373.12704 204.4656 
L 361.152 204.4656 
L 361.152 234.4032 
" style="fill:#33638d;"/>
    <path clip-path="url(#pe7e5391095)" d="M 361.152 204.4656 
L 373.12704 204.4656 
L 373.12704 174.528 
L 361.152 174.528 
L 361.152 204.4656 
" style="fill:#26828e;"/>
    <path clip-path="url(#pe7e5391095)" d="M 361.152 174.528 
L 373.12704 174.528 
L 373.12704 144.5904 
L 361.152 144.5904 
L 361.152 174.528 
" style="fill:#1fa088;"/>
    <path clip-path="url(#pe7e5391095)" d="M 361.152 144.5904 
L 373.12704 144.5904 
L 373.12704 114.6528 
L 361.152 114.6528 
L 361.152 144.5904 
" style="fill:#3fbc73;"/>
    <path clip-path="url(#pe7e5391095)" d="M 361.152 114.6528 
L 373.12704 114.6528 
L 373.12704 84.7152 
L 361.152 84.7152 
L 361.152 114.6528 
" style="fill:#84d44b;"/>
    <path clip-path="url(#pe7e5391095)" d="M 361.152 84.7152 
L 373.12704 84.7152 
L 373.12704 54.7776 
L 361.152 54.7776 
L 361.152 84.7152 
" style="fill:#d8e219;"/>
   </g>
   <g id="matplotlib.axis_3"/>
   <g id="matplotlib.axis_4">
    <g id="ytick_7">
     <g id="line2d_13">
      <defs>
       <path d="M 0 0 
L 3.5 0 
" id="m307476f6de" style="stroke:#000000;stroke-width:0.8;"/>
      </defs>
      <g>
       <use style="stroke:#000000;stroke-width:0.8;" x="373.12704" xlink:href="#m307476f6de" y="294.2784"/>
      </g>
     </g>
     <g id="text_13">
      <!-- 0.00 -->
      <g transform="translate(380.12704 298.077619)scale(0.1 -0.1)">
       <use xlink:href="#DejaVuSans-48"/>
       <use x="63.623047" xlink:href="#DejaVuSans-46"/>
       <use x="95.410156" xlink:href="#DejaVuSans-48"/>
       <use x="159.033203" xlink:href="#DejaVuSans-48"/>
      </g>
     </g>
    </g>
    <g id="ytick_8">
     <g id="line2d_14">
      <g>
       <use style="stroke:#000000;stroke-width:0.8;" x="373.12704" xlink:href="#m307476f6de" y="264.3408"/>
      </g>
     </g>
     <g id="text_14">
      <!-- 0.01 -->
      <g transform="translate(380.12704 268.140019)scale(0.1 -0.1)">
       <use xlink:href="#DejaVuSans-48"/>
       <use x="63.623047" xlink:href="#DejaVuSans-46"/>
       <use x="95.410156" xlink:href="#DejaVuSans-48"/>
       <use x="159.033203" xlink:href="#DejaVuSans-49"/>
      </g>
     </g>
    </g>
    <g id="ytick_9">
     <g id="line2d_15">
      <g>
       <use style="stroke:#000000;stroke-width:0.8;" x="373.12704" xlink:href="#m307476f6de" y="234.4032"/>
      </g>
     </g>
     <g id="text_15">
      <!-- 0.02 -->
      <g transform="translate(380.12704 238.202419)scale(0.1 -0.1)">
       <use xlink:href="#DejaVuSans-48"/>
       <use x="63.623047" xlink:href="#DejaVuSans-46"/>
       <use x="95.410156" xlink:href="#DejaVuSans-48"/>
       <use x="159.033203" xlink:href="#DejaVuSans-50"/>
      </g>
     </g>
    </g>
    <g id="ytick_10">
     <g id="line2d_16">
      <g>
       <use style="stroke:#000000;stroke-width:0.8;" x="373.12704" xlink:href="#m307476f6de" y="204.4656"/>
      </g>
     </g>
     <g id="text_16">
      <!-- 0.03 -->
      <g transform="translate(380.12704 208.264819)scale(0.1 -0.1)">
       <defs>
        <path d="M 40.578125 39.3125 
Q 47.65625 37.796875 51.625 33 
Q 55.609375 28.21875 55.609375 21.1875 
Q 55.609375 10.40625 48.1875 4.484375 
Q 40.765625 -1.421875 27.09375 -1.421875 
Q 22.515625 -1.421875 17.65625 -0.515625 
Q 12.796875 0.390625 7.625 2.203125 
L 7.625 11.71875 
Q 11.71875 9.328125 16.59375 8.109375 
Q 21.484375 6.890625 26.8125 6.890625 
Q 36.078125 6.890625 40.9375 10.546875 
Q 45.796875 14.203125 45.796875 21.1875 
Q 45.796875 27.640625 41.28125 31.265625 
Q 36.765625 34.90625 28.71875 34.90625 
L 20.21875 34.90625 
L 20.21875 43.015625 
L 29.109375 43.015625 
Q 36.375 43.015625 40.234375 45.921875 
Q 44.09375 48.828125 44.09375 54.296875 
Q 44.09375 59.90625 40.109375 62.90625 
Q 36.140625 65.921875 28.71875 65.921875 
Q 24.65625 65.921875 20.015625 65.03125 
Q 15.375 64.15625 9.8125 62.3125 
L 9.8125 71.09375 
Q 15.4375 72.65625 20.34375 73.4375 
Q 25.25 74.21875 29.59375 74.21875 
Q 40.828125 74.21875 47.359375 69.109375 
Q 53.90625 64.015625 53.90625 55.328125 
Q 53.90625 49.265625 50.4375 45.09375 
Q 46.96875 40.921875 40.578125 39.3125 
z
" id="DejaVuSans-51"/>
       </defs>
       <use xlink:href="#DejaVuSans-48"/>
       <use x="63.623047" xlink:href="#DejaVuSans-46"/>
       <use x="95.410156" xlink:href="#DejaVuSans-48"/>
       <use x="159.033203" xlink:href="#DejaVuSans-51"/>
      </g>
     </g>
    </g>
    <g id="ytick_11">
     <g id="line2d_17">
      <g>
       <use style="stroke:#000000;stroke-width:0.8;" x="373.12704" xlink:href="#m307476f6de" y="174.528"/>
      </g>
     </g>
     <g id="text_17">
      <!-- 0.04 -->
      <g transform="translate(380.12704 178.327219)scale(0.1 -0.1)">
       <use xlink:href="#DejaVuSans-48"/>
       <use x="63.623047" xlink:href="#DejaVuSans-46"/>
       <use x="95.410156" xlink:href="#DejaVuSans-48"/>
       <use x="159.033203" xlink:href="#DejaVuSans-52"/>
      </g>
     </g>
    </g>
    <g id="ytick_12">
     <g id="line2d_18">
      <g>
       <use style="stroke:#000000;stroke-width:0.8;" x="373.12704" xlink:href="#m307476f6de" y="144.5904"/>
      </g>
     </g>
     <g id="text_18">
      <!-- 0.05 -->
      <g transform="translate(380.12704 148.389619)scale(0.1 -0.1)">
       <defs>
        <path d="M 10.796875 72.90625 
L 49.515625 72.90625 
L 49.515625 64.59375 
L 19.828125 64.59375 
L 19.828125 46.734375 
Q 21.96875 47.46875 24.109375 47.828125 
Q 26.265625 48.1875 28.421875 48.1875 
Q 40.625 48.1875 47.75 41.5 
Q 54.890625 34.8125 54.890625 23.390625 
Q 54.890625 11.625 47.5625 5.09375 
Q 40.234375 -1.421875 26.90625 -1.421875 
Q 22.3125 -1.421875 17.546875 -0.640625 
Q 12.796875 0.140625 7.71875 1.703125 
L 7.71875 11.625 
Q 12.109375 9.234375 16.796875 8.0625 
Q 21.484375 6.890625 26.703125 6.890625 
Q 35.15625 6.890625 40.078125 11.328125 
Q 45.015625 15.765625 45.015625 23.390625 
Q 45.015625 31 40.078125 35.4375 
Q 35.15625 39.890625 26.703125 39.890625 
Q 22.75 39.890625 18.8125 39.015625 
Q 14.890625 38.140625 10.796875 36.28125 
z
" id="DejaVuSans-53"/>
       </defs>
       <use xlink:href="#DejaVuSans-48"/>
       <use x="63.623047" xlink:href="#DejaVuSans-46"/>
       <use x="95.410156" xlink:href="#DejaVuSans-48"/>
       <use x="159.033203" xlink:href="#DejaVuSans-53"/>
      </g>
     </g>
    </g>
    <g id="ytick_13">
     <g id="line2d_19">
      <g>
       <use style="stroke:#000000;stroke-width:0.8;" x="373.12704" xlink:href="#m307476f6de" y="114.6528"/>
      </g>
     </g>
     <g id="text_19">
      <!-- 0.06 -->
      <g transform="translate(380.12704 118.452019)scale(0.1 -0.1)">
       <use xlink:href="#DejaVuSans-48"/>
       <use x="63.623047" xlink:href="#DejaVuSans-46"/>
       <use x="95.410156" xlink:href="#DejaVuSans-48"/>
       <use x="159.033203" xlink:href="#DejaVuSans-54"/>
      </g>
     </g>
    </g>
    <g id="ytick_14">
     <g id="line2d_20">
      <g>
       <use style="stroke:#000000;stroke-width:0.8;" x="373.12704" xlink:href="#m307476f6de" y="84.7152"/>
      </g>
     </g>
     <g id="text_20">
      <!-- 0.07 -->
      <g transform="translate(380.12704 88.514419)scale(0.1 -0.1)">
       <defs>
        <path d="M 8.203125 72.90625 
L 55.078125 72.90625 
L 55.078125 68.703125 
L 28.609375 0 
L 18.3125 0 
L 43.21875 64.59375 
L 8.203125 64.59375 
z
" id="DejaVuSans-55"/>
       </defs>
       <use xlink:href="#DejaVuSans-48"/>
       <use x="63.623047" xlink:href="#DejaVuSans-46"/>
       <use x="95.410156" xlink:href="#DejaVuSans-48"/>
       <use x="159.033203" xlink:href="#DejaVuSans-55"/>
      </g>
     </g>
    </g>
    <g id="ytick_15">
     <g id="line2d_21">
      <g>
       <use style="stroke:#000000;stroke-width:0.8;" x="373.12704" xlink:href="#m307476f6de" y="54.7776"/>
      </g>
     </g>
     <g id="text_21">
      <!-- 0.08 -->
      <g transform="translate(380.12704 58.576819)scale(0.1 -0.1)">
       <use xlink:href="#DejaVuSans-48"/>
       <use x="63.623047" xlink:href="#DejaVuSans-46"/>
       <use x="95.410156" xlink:href="#DejaVuSans-48"/>
       <use x="159.033203" xlink:href="#DejaVuSans-56"/>
      </g>
     </g>
    </g>
   </g>
   <g id="patch_8">
    <path d="M 361.152 294.2784 
L 361.152 264.3408 
L 361.152 84.7152 
L 361.152 54.7776 
L 373.12704 54.7776 
L 373.12704 84.7152 
L 373.12704 264.3408 
L 373.12704 294.2784 
z
" style="fill:none;stroke:#000000;stroke-linejoin:miter;stroke-width:0.8;"/>
   </g>
  </g>
 </g>
 <defs>
  <clipPath id="p3221226575">
   <rect height="266.112" width="266.112" x="77.184" y="41.472"/>
  </clipPath>
  <clipPath id="pe7e5391095">
   <rect height="239.5008" width="11.97504" x="361.152" y="54.7776"/>
  </clipPath>
 </defs>
</svg>
