<?xml version="1.0" encoding="UTF-8"?>
<svg width="55mm" height="34mm" version="1.1" viewBox="0 0 55 34" xmlns="http://www.w3.org/2000/svg">
 <rect x="1.3461" y="1.9087" width="25.345" height="25.345" ry="2.28" fill="none" stroke="#666" stroke-width="1.3069"/>
 <rect transform="rotate(15)" x="39.232" y="12.738" width="18.833" height="5.3157" ry="1.5114" fill="none" stroke="#666" stroke-width="1.307"/>
 <g transform="matrix(1.2357 0 0 1.2357 -14.501 40.254)">
  <rect x="14.397" y="-29.177" width="5" height="5" fill="#ff7f2a"/>
  <g fill="#ccc">
   <rect x="20.527" y="-29.177" width="5" height="5"/>
   <rect x="26.657" y="-29.177" width="5" height="5"/>
   <rect x="14.397" y="-23.295" width="5" height="5"/>
   <rect x="20.527" y="-23.295" width="5" height="5"/>
   <rect x="26.657" y="-23.295" width="5" height="5"/>
   <rect x="14.397" y="-17.412" width="5" height="5"/>
   <rect x="20.527" y="-17.412" width="5" height="5"/>
   <rect x="26.657" y="-17.412" width="5" height="5"/>
  </g>
 </g>
 <path d="m26.814 22.967c2.4817 0.62747 4.963 1.2549 7.4441 1.8822" fill="none" stroke="#666" stroke-width="1.3069"/>
</svg>
