<?xml version="1.0" encoding="UTF-8" standalone="no"?>
<svg
   width="1295"
   height="1295"
   overflow="hidden"
   version="1.1"
   id="svg91"
   sodipodi:docname="logo_dark.svg"
   inkscape:version="1.1.2 (b8e25be833, 2022-02-05)"
   xmlns:inkscape="http://www.inkscape.org/namespaces/inkscape"
   xmlns:sodipodi="http://sodipodi.sourceforge.net/DTD/sodipodi-0.dtd"
   xmlns="http://www.w3.org/2000/svg"
   xmlns:svg="http://www.w3.org/2000/svg">
  <sodipodi:namedview
     id="namedview93"
     pagecolor="#a5a5a5"
     bordercolor="#666666"
     borderopacity="1.0"
     inkscape:pageshadow="2"
     inkscape:pageopacity="0"
     inkscape:pagecheckerboard="true"
     showgrid="false"
     inkscape:zoom="0.55521236"
     inkscape:cx="557.44437"
     inkscape:cy="648.40056"
     inkscape:window-width="1920"
     inkscape:window-height="1017"
     inkscape:window-x="-8"
     inkscape:window-y="-8"
     inkscape:window-maximized="1"
     inkscape:current-layer="svg91" />
  <defs
     id="defs5">
    <clipPath
       id="clip0">
      <rect
         x="2008"
         y="63"
         width="1295"
         height="1295"
         id="rect2" />
    </clipPath>
  </defs>
  <g
     id="g20165">
    <g
       id="g17424"
       style="fill:#ffffff;stroke:#ffffff;stroke-opacity:1">
      <path
         d="m 275.5,422.154 145.735,-2.65364"
         stroke="#0f0f0f"
         stroke-width="4.58333"
         stroke-miterlimit="8"
         fill="none"
         fill-rule="evenodd"
         id="path7"
         style="fill:#ffffff;stroke:#ffffff;stroke-opacity:1" />
      <path
         d="M 452.5,419.874 603.789,409.5001"
         stroke="#0f0f0f"
         stroke-width="4.58333"
         stroke-miterlimit="8"
         fill="none"
         fill-rule="evenodd"
         id="path9"
         style="fill:#ffffff;stroke:#ffffff;stroke-opacity:1" />
      <path
         d="m 248.5,527.5 177.33,43.848"
         stroke="#0f0f0f"
         stroke-width="4.58333"
         stroke-miterlimit="8"
         fill="none"
         fill-rule="evenodd"
         id="path11"
         style="fill:#ffffff;stroke:#ffffff;stroke-opacity:1" />
      <path
         d="M 456.5,571.396 606.151,554.5001"
         stroke="#0f0f0f"
         stroke-width="4.58333"
         stroke-miterlimit="8"
         fill="none"
         fill-rule="evenodd"
         id="path13"
         style="fill:#ffffff;stroke:#ffffff;stroke-opacity:1" />
      <path
         d="M 637.5,554.804 798.689,528.4996"
         stroke="#0f0f0f"
         stroke-width="4.58333"
         stroke-miterlimit="8"
         fill="none"
         fill-rule="evenodd"
         id="path15"
         style="fill:#ffffff;stroke:#ffffff;stroke-opacity:1" />
      <path
         d="m 437.5,435.5 3.83,120.948"
         stroke="#0f0f0f"
         stroke-width="4.58333"
         stroke-miterlimit="8"
         fill="none"
         fill-rule="evenodd"
         id="path17"
         style="fill:#ffffff;stroke:#ffffff;stroke-opacity:1" />
      <path
         d="m 619.5,424.5 2.19,114.426"
         stroke="#0f0f0f"
         stroke-width="4.58333"
         stroke-miterlimit="8"
         fill="none"
         fill-rule="evenodd"
         id="path19"
         style="fill:#ffffff;stroke:#ffffff;stroke-opacity:1" />
      <path
         d="M 635.5,408.563 740.988,386.4998"
         stroke="#0f0f0f"
         stroke-width="4.58333"
         stroke-miterlimit="8"
         fill="none"
         fill-rule="evenodd"
         id="path21"
         style="fill:#ffffff;stroke:#ffffff;stroke-opacity:1" />
      <path
         d="M 463.76,265.5 437.4953,403.672"
         stroke="#0f0f0f"
         stroke-width="4.58333"
         stroke-miterlimit="8"
         fill="none"
         fill-rule="evenodd"
         id="path23"
         style="fill:#ffffff;stroke:#ffffff;stroke-opacity:1" />
      <path
         d="M 467,253.5 341.497,268.9552"
         stroke="#0f0f0f"
         stroke-width="4.58333"
         stroke-miterlimit="8"
         fill="none"
         fill-rule="evenodd"
         id="path25"
         style="fill:#ffffff;stroke:#ffffff;stroke-opacity:1" />
      <path
         d="M 261.5,419.668 340.7383,266.501"
         stroke="#0f0f0f"
         stroke-width="4.58333"
         stroke-miterlimit="8"
         fill="none"
         fill-rule="evenodd"
         id="path27"
         style="fill:#ffffff;stroke:#ffffff;stroke-opacity:1" />
      <path
         d="m 466.5,251.5 167.76,38.483"
         stroke="#0f0f0f"
         stroke-width="4.58333"
         stroke-miterlimit="8"
         fill="none"
         fill-rule="evenodd"
         id="path29"
         style="fill:#ffffff;stroke:#ffffff;stroke-opacity:1" />
      <path
         d="m 634.3,306.5 -14.8024,86.6903"
         stroke="#0f0f0f"
         stroke-width="4.58333"
         stroke-miterlimit="8"
         fill="none"
         fill-rule="evenodd"
         id="path31"
         style="fill:#ffffff;stroke:#ffffff;stroke-opacity:1" />
      <path
         d="m 634.5,288.5 87.31,34.033"
         stroke="#0f0f0f"
         stroke-width="4.58333"
         stroke-miterlimit="8"
         fill="none"
         fill-rule="evenodd"
         id="path33"
         style="fill:#ffffff;stroke:#ffffff;stroke-opacity:1" />
      <path
         d="m 720.5,322.5 40.9,63.428"
         stroke="#0f0f0f"
         stroke-width="4.58333"
         stroke-miterlimit="8"
         fill="none"
         fill-rule="evenodd"
         id="path35"
         style="fill:#ffffff;stroke:#ffffff;stroke-opacity:1" />
      <path
         d="m 767.5,398.5 46.81,114.762"
         stroke="#0f0f0f"
         stroke-width="4.58333"
         stroke-miterlimit="8"
         fill="none"
         fill-rule="evenodd"
         id="path37"
         style="fill:#ffffff;stroke:#ffffff;stroke-opacity:1" />
      <path
         d="M 475.5,735.159 657.752,699.4999"
         stroke="#0f0f0f"
         stroke-width="4.58333"
         stroke-miterlimit="8"
         fill="none"
         fill-rule="evenodd"
         id="path39"
         style="fill:#ffffff;stroke:#ffffff;stroke-opacity:1" />
      <path
         d="m 622.5,570.5 33.57,110.125"
         stroke="#0f0f0f"
         stroke-width="4.58333"
         stroke-miterlimit="8"
         fill="none"
         fill-rule="evenodd"
         id="path41"
         style="fill:#ffffff;stroke:#ffffff;stroke-opacity:1" />
      <path
         d="m 441.5,587.5 31.52,130.729"
         stroke="#0f0f0f"
         stroke-width="4.58333"
         stroke-miterlimit="8"
         fill="none"
         fill-rule="evenodd"
         id="path43"
         style="fill:#ffffff;stroke:#ffffff;stroke-opacity:1" />
      <path
         d="m 229.5,651.5 245.83,85.293"
         stroke="#0f0f0f"
         stroke-width="4.58333"
         stroke-miterlimit="8"
         fill="none"
         fill-rule="evenodd"
         id="path45"
         style="fill:#ffffff;stroke:#ffffff;stroke-opacity:1" />
      <path
         d="m 230.43,527.5 -0.93327,126.537"
         stroke="#0f0f0f"
         stroke-width="4.58333"
         stroke-miterlimit="8"
         fill="none"
         fill-rule="evenodd"
         id="path47"
         style="fill:#ffffff;stroke:#ffffff;stroke-opacity:1" />
      <path
         d="m 814.18,544.5 -47.6829,98.6987"
         stroke="#0f0f0f"
         stroke-width="4.58333"
         stroke-miterlimit="8"
         fill="none"
         fill-rule="evenodd"
         id="path49"
         style="fill:#ffffff;stroke:#ffffff;stroke-opacity:1" />
      <path
         d="M 766.49,653.5 658.505,695.7067"
         stroke="#0f0f0f"
         stroke-width="4.58333"
         stroke-miterlimit="8"
         fill="none"
         fill-rule="evenodd"
         id="path51"
         style="fill:#ffffff;stroke:#ffffff;stroke-opacity:1" />
      <path
         d="M 261.6,417.5 230.5012,527.24"
         stroke="#0f0f0f"
         stroke-width="4.58333"
         stroke-miterlimit="8"
         fill="none"
         fill-rule="evenodd"
         id="path53"
         style="fill:#ffffff;stroke:#ffffff;stroke-opacity:1" />
      <path
         d="m 216,650.5 c 0,-8.56 7.16,-15.5 16,-15.5 8.84,0 16,6.94 16,15.5 0,8.561 -7.16,15.5 -16,15.5 -8.84,0 -16,-6.939 -16,-15.5 z"
         fill="#0f0f0f"
         fill-rule="evenodd"
         id="path55"
         style="fill:#ffffff;stroke:#ffffff;stroke-opacity:1" />
      <path
         d="m 456,733 c 0,-8.837 7.16,-16 16,-16 8.84,0 16,7.163 16,16 0,8.836 -7.16,16 -16,16 -8.84,0 -16,-7.164 -16,-16 z"
         fill="#0f0f0f"
         fill-rule="evenodd"
         id="path57"
         style="fill:#ffffff;stroke:#ffffff;stroke-opacity:1" />
      <path
         d="m 216,527.5 c 0,-8.56 7.16,-15.5 16,-15.5 8.84,0 16,6.94 16,15.5 0,8.56 -7.16,15.5 -16,15.5 -8.84,0 -16,-6.94 -16,-15.5 z"
         fill="#0f0f0f"
         fill-rule="evenodd"
         id="path59"
         style="fill:#ffffff;stroke:#ffffff;stroke-opacity:1" />
      <path
         d="m 244,421.5 c 0,-8.56 6.94,-15.5 15.5,-15.5 8.56,0 15.5,6.94 15.5,15.5 0,8.561 -6.94,15.5 -15.5,15.5 -8.56,0 -15.5,-6.939 -15.5,-15.5 z"
         fill="#0f0f0f"
         fill-rule="evenodd"
         id="path61"
         style="fill:#ffffff;stroke:#ffffff;stroke-opacity:1" />
      <path
         d="m 325,270 c 0,-8.837 6.94,-16 15.5,-16 8.56,0 15.5,7.163 15.5,16 0,8.836 -6.94,16 -15.5,16 -8.56,0 -15.5,-7.164 -15.5,-16 z"
         fill="#0f0f0f"
         fill-rule="evenodd"
         id="path63"
         style="fill:#ffffff;stroke:#ffffff;stroke-opacity:1" />
      <path
         d="m 447,249.5 c 0,-8.56 7.16,-15.5 16,-15.5 8.84,0 16,6.94 16,15.5 0,8.56 -7.16,15.5 -16,15.5 -8.84,0 -16,-6.94 -16,-15.5 z"
         fill="#0f0f0f"
         fill-rule="evenodd"
         id="path65"
         style="fill:#ffffff;stroke:#ffffff;stroke-opacity:1" />
      <path
         d="m 421,419 c 0,-8.836 6.94,-16 15.5,-16 8.56,0 15.5,7.164 15.5,16 0,8.837 -6.94,16 -15.5,16 -8.56,0 -15.5,-7.163 -15.5,-16 z"
         fill="#0f0f0f"
         fill-rule="evenodd"
         id="path67"
         style="fill:#ffffff;stroke:#ffffff;stroke-opacity:1" />
      <path
         d="m 425,571 c 0,-8.836 6.94,-16 15.5,-16 8.56,0 15.5,7.164 15.5,16 0,8.837 -6.94,16 -15.5,16 -8.56,0 -15.5,-7.163 -15.5,-16 z"
         fill="#0f0f0f"
         fill-rule="evenodd"
         id="path69"
         style="fill:#ffffff;stroke:#ffffff;stroke-opacity:1" />
      <path
         d="m 606,554.5 c 0,-8.561 6.94,-15.5 15.5,-15.5 8.56,0 15.5,6.939 15.5,15.5 0,8.56 -6.94,15.5 -15.5,15.5 -8.56,0 -15.5,-6.94 -15.5,-15.5 z"
         fill="#0f0f0f"
         fill-rule="evenodd"
         id="path71"
         style="fill:#ffffff;stroke:#ffffff;stroke-opacity:1" />
      <path
         d="m 639,695.5 c 0,-8.561 7.16,-15.5 16,-15.5 8.84,0 16,6.939 16,15.5 0,8.56 -7.16,15.5 -16,15.5 -8.84,0 -16,-6.94 -16,-15.5 z"
         fill="#0f0f0f"
         fill-rule="evenodd"
         id="path73"
         style="fill:#ffffff;stroke:#ffffff;stroke-opacity:1" />
      <path
         d="m 751,657.5 c 0,-8.56 6.94,-15.5 15.5,-15.5 8.56,0 15.5,6.94 15.5,15.5 0,8.56 -6.94,15.5 -15.5,15.5 -8.56,0 -15.5,-6.94 -15.5,-15.5 z"
         fill="#0f0f0f"
         fill-rule="evenodd"
         id="path75"
         style="fill:#ffffff;stroke:#ffffff;stroke-opacity:1" />
      <path
         d="m 798,528 c 0,-8.836 7.16,-16 16,-16 8.84,0 16,7.164 16,16 0,8.837 -7.16,16 -16,16 -8.84,0 -16,-7.163 -16,-16 z"
         fill="#0f0f0f"
         fill-rule="evenodd"
         id="path77"
         style="fill:#ffffff;stroke:#ffffff;stroke-opacity:1" />
      <path
         d="m 604,408.5 c 0,-8.56 6.94,-15.5 15.5,-15.5 8.56,0 15.5,6.94 15.5,15.5 0,8.561 -6.94,15.5 -15.5,15.5 -8.56,0 -15.5,-6.939 -15.5,-15.5 z"
         fill="#0f0f0f"
         fill-rule="evenodd"
         id="path79"
         style="fill:#ffffff;stroke:#ffffff;stroke-opacity:1" />
      <path
         d="m 618,290.5 c 0,-8.561 7.16,-15.5 16,-15.5 8.84,0 16,6.939 16,15.5 0,8.56 -7.16,15.5 -16,15.5 -8.84,0 -16,-6.94 -16,-15.5 z"
         fill="#0f0f0f"
         fill-rule="evenodd"
         id="path81"
         style="fill:#ffffff;stroke:#ffffff;stroke-opacity:1" />
      <path
         d="m 703,317.5 c 0,-8.56 7.16,-15.5 16,-15.5 8.84,0 16,6.94 16,15.5 0,8.56 -7.16,15.5 -16,15.5 -8.84,0 -16,-6.94 -16,-15.5 z"
         fill="#0f0f0f"
         fill-rule="evenodd"
         id="path83"
         style="fill:#ffffff;stroke:#ffffff;stroke-opacity:1" />
      <path
         d="m 740,386.5 c 0,-8.56 7.16,-15.5 16,-15.5 8.84,0 16,6.94 16,15.5 0,8.561 -7.16,15.5 -16,15.5 -8.84,0 -16,-6.939 -16,-15.5 z"
         fill="#0f0f0f"
         fill-rule="evenodd"
         id="path85"
         style="fill:#ffffff;stroke:#ffffff;stroke-opacity:1" />
    </g>
    <path
       d="m 961.81,835.005 c -29.68,-29.677 -78.24,-28.328 -114.66,0 L 790.49,778.349 C 937.53,619.172 928.08,372.312 768.91,225.276 609.73,78.24 364.22,89.031 217.18,248.208 70.15,407.385 80.94,654.245 238.77,801.281 389.85,941.57 623.22,940.22 772.95,798.583 l 56.66,56.657 c -12.14,14.838 -18.89,33.724 -21.58,52.609 -2.7,22.932 5.39,45.861 21.58,62.051 l 190.2,190.2 c 14.84,13.49 33.73,21.59 53.96,21.59 26.98,0 51.26,-10.79 70.15,-29.68 17.53,-16.19 28.32,-39.12 29.67,-63.4 2.7,-22.93 -5.39,-45.87 -21.58,-62.05 z m -713.6,-64.75 c -141.64,-141.64 -141.64,-372.312 0,-515.302 141.64,-142.99 372.31,-141.641 515.3,0 142.99,141.641 141.64,372.313 0,515.302 -68.8,68.797 -160.53,106.568 -257.65,106.568 -95.78,0 -188.85,-37.771 -257.65,-106.568 z m 875.47,360.175 c -25.63,25.63 -64.75,29.67 -86.33,8.09 L 848.49,949.67 c -10.79,-10.79 -14.83,-25.634 -13.48,-40.472 1.34,-17.537 9.44,-33.724 22.93,-45.865 13.49,-13.489 32.37,-21.583 51.26,-22.932 13.49,0 25.63,4.047 35.07,13.49 l 188.85,190.199 c 10.8,10.8 14.84,25.63 13.49,40.47 -2.69,17.54 -9.44,33.73 -22.93,45.87 0,0 0,0 0,0 z"
       id="path87"
       style="fill:#ffffff" />
  </g>
</svg>
