<svg width="1684" height="1297" xmlns="http://www.w3.org/2000/svg" xmlns:xlink="http://www.w3.org/1999/xlink" xml:space="preserve" overflow="hidden"><g transform="translate(-702 -232)"><path d="M1808.14 1147.14C1839.53 1092.77 1909.06 1074.14 1963.43 1105.53L2329.1 1316.65C2383.48 1348.05 2402.11 1417.57 2370.72 1471.95L2370.72 1471.95C2339.32 1526.32 2269.8 1544.95 2215.42 1513.56L1849.75 1302.43C1795.38 1271.04 1776.75 1201.52 1808.14 1147.14Z" fill="#4D5A62" fill-rule="evenodd"/><path d="M1114 1120 1353.89 1164.28" stroke="#4D5A62" stroke-width="13.75" stroke-miterlimit="8" fill="none" fill-rule="evenodd"/><path d="M0 0 239.891 44.279" stroke="#4D5A62" stroke-width="13.75" stroke-miterlimit="8" fill="none" fill-rule="evenodd" transform="matrix(1 0 0 -1 1347 1164.28)"/><path d="M0 0 239.891 44.279" stroke="#4D5A62" stroke-width="13.75" stroke-miterlimit="8" fill="none" fill-rule="evenodd" transform="matrix(1 0 0 -1 1112 643.279)"/><path d="M1345 599 1584.89 643.279" stroke="#4D5A62" stroke-width="13.75" stroke-miterlimit="8" fill="none" fill-rule="evenodd"/><path d="M0 0 239.891 44.279" stroke="#4D5A62" stroke-width="13.75" stroke-miterlimit="8" fill="none" fill-rule="evenodd" transform="matrix(6.12323e-17 1 1 -6.12323e-17 1584 647)"/><path d="M1628.28 880 1584 1119.89" stroke="#4D5A62" stroke-width="13.75" stroke-miterlimit="8" fill="none" fill-rule="evenodd"/><path d="M1114.28 644 1070 883.89" stroke="#4D5A62" stroke-width="13.75" stroke-miterlimit="8" fill="none" fill-rule="evenodd"/><path d="M0 0 239.891 44.279" stroke="#4D5A62" stroke-width="13.75" stroke-miterlimit="8" fill="none" fill-rule="evenodd" transform="matrix(1.83697e-16 1 1 -1.83697e-16 1070 877)"/><path d="M1220 883C1220 811.203 1278.2 753 1350 753 1421.8 753 1480 811.203 1480 883 1480 954.797 1421.8 1013 1350 1013 1278.2 1013 1220 954.797 1220 883Z" fill="#E6943A" fill-rule="evenodd"/><path d="M1018 645C1018 591.428 1061.65 548 1115.5 548 1169.35 548 1213 591.428 1213 645 1213 698.572 1169.35 742 1115.5 742 1061.65 742 1018 698.572 1018 645Z" fill="#4D5A62" fill-rule="evenodd"/><path d="M1252 607.5C1252 553.652 1295.65 510 1349.5 510 1403.35 510 1447 553.652 1447 607.5 1447 661.348 1403.35 705 1349.5 705 1295.65 705 1252 661.348 1252 607.5Z" fill="#4D5A62" fill-rule="evenodd"/><path d="M1486 645C1486 591.428 1529.65 548 1583.5 548 1637.35 548 1681 591.428 1681 645 1681 698.572 1637.35 742 1583.5 742 1529.65 742 1486 698.572 1486 645Z" fill="#4D5A62" fill-rule="evenodd"/><path d="M981 880.5C981 826.652 1024.65 783 1078.5 783 1132.35 783 1176 826.652 1176 880.5 1176 934.348 1132.35 978 1078.5 978 1024.65 978 981 934.348 981 880.5Z" fill="#4D5A62" fill-rule="evenodd"/><path d="M1523 880.5C1523 826.652 1566.65 783 1620.5 783 1674.35 783 1718 826.652 1718 880.5 1718 934.348 1674.35 978 1620.5 978 1566.65 978 1523 934.348 1523 880.5Z" fill="#4D5A62" fill-rule="evenodd"/><path d="M1018 1116.5C1018 1062.65 1061.65 1019 1115.5 1019 1169.35 1019 1213 1062.65 1213 1116.5 1213 1170.35 1169.35 1214 1115.5 1214 1061.65 1214 1018 1170.35 1018 1116.5Z" fill="#4D5A62" fill-rule="evenodd"/><path d="M1252 1153.5C1252 1099.65 1295.65 1056 1349.5 1056 1403.35 1056 1447 1099.65 1447 1153.5 1447 1207.35 1403.35 1251 1349.5 1251 1295.65 1251 1252 1207.35 1252 1153.5Z" fill="#4D5A62" fill-rule="evenodd"/><path d="M1486 1116.5C1486 1062.65 1529.65 1019 1583.5 1019 1637.35 1019 1681 1062.65 1681 1116.5 1681 1170.35 1637.35 1214 1583.5 1214 1529.65 1214 1486 1170.35 1486 1116.5Z" fill="#4D5A62" fill-rule="evenodd"/><path d="M766 880.5C766 557.69 1027.91 296 1351 296 1674.09 296 1936 557.69 1936 880.5 1936 1203.31 1674.09 1465 1351 1465 1027.91 1465 766 1203.31 766 880.5Z" stroke="#4D5A62" stroke-width="128.333" stroke-miterlimit="8" fill="none" fill-rule="evenodd"/></g></svg>