<?xml version="1.0" encoding="UTF-8" standalone="no"?>
<svg
   width="1280"
   height="640"
   xml:space="preserve"
   overflow="hidden"
   version="1.1"
   id="svg3"
   sodipodi:docname="social_preview.svg"
   inkscape:version="1.4.2 (ebf0e940d0, 2025-05-08)"
   inkscape:export-filename="logo.png"
   inkscape:export-xdpi="31.135136"
   inkscape:export-ydpi="31.135136"
   xmlns:inkscape="http://www.inkscape.org/namespaces/inkscape"
   xmlns:sodipodi="http://sodipodi.sourceforge.net/DTD/sodipodi-0.dtd"
   xmlns="http://www.w3.org/2000/svg"
   xmlns:svg="http://www.w3.org/2000/svg"><sodipodi:namedview
     id="namedview3"
     pagecolor="#ffffff"
     bordercolor="#000000"
     borderopacity="0.25"
     inkscape:showpageshadow="2"
     inkscape:pageopacity="0.0"
     inkscape:pagecheckerboard="0"
     inkscape:deskcolor="#d1d1d1"
     inkscape:zoom="0.46229206"
     inkscape:cx="546.19151"
     inkscape:cy="262.82087"
     inkscape:window-width="1368"
     inkscape:window-height="840"
     inkscape:window-x="0"
     inkscape:window-y="0"
     inkscape:window-maximized="1"
     inkscape:current-layer="svg3" /><defs
     id="defs1" /><g
     id="g1"
     transform="matrix(0.91667511,0,0,0.91667511,35.416625,149.50627)"><text
       fill="#49565f"
       font-family="Arial, Arial_MSFontService, sans-serif"
       font-weight="700"
       font-size="275px"
       id="text2"
       x="-12.838564"
       y="253.51117"
       style="font-size:266.667px"><tspan
   style="font-style:normal;font-variant:normal;font-weight:bold;font-stretch:normal;font-size:266.667px;font-family:Arial;-inkscape-font-specification:'Arial Bold'"
   id="tspan3">FE</tspan>      <tspan
   style="font-style:normal;font-variant:normal;font-weight:bold;font-stretch:normal;font-size:266.667px;font-family:Arial;-inkscape-font-specification:'Arial Bold'"
   id="tspan4">lupe</tspan></text><g
       id="g4"
       transform="translate(-48.760997)"><path
         d="m 726.91877,259.42006 c 8.79381,-15.23158 28.2724,-20.45071 43.50398,-11.6569 l 102.44123,59.14456 c 15.23437,8.7966 20.4535,28.2724 11.6597,43.50677 v 0 c -8.79661,15.23158 -28.2724,20.45071 -43.50678,11.65691 L 738.57567,302.92403 c -15.23157,-8.7938 -20.4507,-28.2696 -11.6569,-43.50397 z"
         fill="#4d5a62"
         fill-rule="evenodd"
         id="path1"
         style="fill:#49565f;fill-opacity:1;stroke-width:0.28;stroke-dasharray:none" /><path
         d="m 532.45777,251.81688 67.20438,12.40489"
         stroke="#4d5a62"
         stroke-width="3.85202"
         stroke-miterlimit="8"
         fill="none"
         fill-rule="evenodd"
         id="path2"
         style="fill:#49565f;fill-opacity:1" /><path
         d="M 597.73194,264.22177 664.9366,251.81716"
         stroke="#4d5a62"
         stroke-width="3.85202"
         stroke-miterlimit="8"
         fill="none"
         fill-rule="evenodd"
         id="path3"
         style="fill:#49565f;fill-opacity:1" /><path
         d="m 531.89748,118.26508 67.20466,-12.40461"
         stroke="#4d5a62"
         stroke-width="3.85202"
         stroke-miterlimit="8"
         fill="none"
         fill-rule="evenodd"
         id="path4"
         style="fill:#49565f;fill-opacity:1" /><path
         d="m 597.17165,105.86047 67.20438,12.40461"
         stroke="#4d5a62"
         stroke-width="3.85202"
         stroke-miterlimit="8"
         fill="none"
         fill-rule="evenodd"
         id="path5"
         style="fill:#49565f;fill-opacity:1" /><path
         d="m 664.1267,119.30751 12.40461,67.20466"
         stroke="#4d5a62"
         stroke-width="3.85202"
         stroke-miterlimit="8"
         fill="none"
         fill-rule="evenodd"
         id="path6"
         style="fill:#49565f;fill-opacity:1" /><path
         d="M 676.53159,184.58168 664.1267,251.78606"
         stroke="#4d5a62"
         stroke-width="3.85202"
         stroke-miterlimit="8"
         fill="none"
         fill-rule="evenodd"
         id="path7"
         style="fill:#49565f;fill-opacity:1" /><path
         d="m 532.53621,118.46707 -12.40489,67.20438"
         stroke="#4d5a62"
         stroke-width="3.85202"
         stroke-miterlimit="8"
         fill="none"
         fill-rule="evenodd"
         id="path8"
         style="fill:#49565f;fill-opacity:1" /><path
         d="m 520.13132,183.74124 12.40461,67.20466"
         stroke="#4d5a62"
         stroke-width="3.85202"
         stroke-miterlimit="8"
         fill="none"
         fill-rule="evenodd"
         id="path9"
         style="fill:#49565f;fill-opacity:1" /><path
         d="m 562.15332,185.42212 c 0,-20.11369 16.30453,-36.41907 36.41906,-36.41907 20.11453,0 36.41907,16.30538 36.41907,36.41907 0,20.11369 -16.30454,36.41906 -36.41907,36.41906 -20.11453,0 -36.41906,-16.30537 -36.41906,-36.41906 z"
         fill="#e6943a"
         fill-rule="evenodd"
         id="path10"
         style="fill:#e59139;fill-opacity:1;stroke-width:0.280147" /><path
         d="m 505.56369,118.74721 c 0,-15.00801 12.2284,-27.174222 27.3143,-27.174222 15.0859,0 27.3143,12.166212 27.3143,27.174222 0,15.00802 -12.2284,27.17423 -27.3143,27.17423 -15.0859,0 -27.3143,-12.16621 -27.3143,-27.17423 z"
         fill="#4d5a62"
         fill-rule="evenodd"
         id="path11"
         style="fill:#49565f;fill-opacity:1;stroke-width:0.280147" /><path
         d="m 571.11801,108.24171 c 0,-15.085333 12.2284,-27.314295 27.3143,-27.314295 15.0859,0 27.3143,12.228962 27.3143,27.314295 0,15.08534 -12.2284,27.3143 -27.3143,27.3143 -15.0859,0 -27.3143,-12.22896 -27.3143,-27.3143 z"
         fill="#4d5a62"
         fill-rule="evenodd"
         id="path12"
         style="fill:#49565f;fill-opacity:1;stroke-width:0.280147" /><path
         d="m 636.67233,118.74721 c 0,-15.00801 12.2284,-27.174222 27.3143,-27.174222 15.08589,0 27.3143,12.166212 27.3143,27.174222 0,15.00802 -12.22841,27.17423 -27.3143,27.17423 -15.0859,0 -27.3143,-12.16621 -27.3143,-27.17423 z"
         fill="#4d5a62"
         fill-rule="evenodd"
         id="path13"
         style="fill:#49565f;fill-opacity:1;stroke-width:0.280147" /><path
         d="m 495.19826,184.72175 c 0,-15.08534 12.22841,-27.3143 27.3143,-27.3143 15.0859,0 27.3143,12.22896 27.3143,27.3143 0,15.08534 -12.2284,27.3143 -27.3143,27.3143 -15.08589,0 -27.3143,-12.22896 -27.3143,-27.3143 z"
         fill="#4d5a62"
         fill-rule="evenodd"
         id="path14"
         style="fill:#49565f;fill-opacity:1;stroke-width:0.280147" /><path
         d="m 647.03775,184.72175 c 0,-15.08534 12.2284,-27.3143 27.3143,-27.3143 15.0859,0 27.3143,12.22896 27.3143,27.3143 0,15.08534 -12.2284,27.3143 -27.3143,27.3143 -15.0859,0 -27.3143,-12.22896 -27.3143,-27.3143 z"
         fill="#4d5a62"
         fill-rule="evenodd"
         id="path15"
         style="fill:#49565f;fill-opacity:1;stroke-width:0.280147" /><path
         d="m 505.56369,250.83636 c 0,-15.08589 12.2284,-27.3143 27.3143,-27.3143 15.0859,0 27.3143,12.22841 27.3143,27.3143 0,15.0859 -12.2284,27.3143 -27.3143,27.3143 -15.0859,0 -27.3143,-12.2284 -27.3143,-27.3143 z"
         fill="#4d5a62"
         fill-rule="evenodd"
         id="path16"
         style="fill:#49565f;fill-opacity:1;stroke-width:0.280147" /><path
         d="m 571.11801,261.20179 c 0,-15.0859 12.2284,-27.3143 27.3143,-27.3143 15.0859,0 27.3143,12.2284 27.3143,27.3143 0,15.0859 -12.2284,27.3143 -27.3143,27.3143 -15.0859,0 -27.3143,-12.2284 -27.3143,-27.3143 z"
         fill="#4d5a62"
         fill-rule="evenodd"
         id="path17"
         style="fill:#49565f;fill-opacity:1;stroke-width:0.280147" /><path
         d="m 636.67233,250.83636 c 0,-15.08589 12.2284,-27.3143 27.3143,-27.3143 15.08589,0 27.3143,12.22841 27.3143,27.3143 0,15.0859 -12.22841,27.3143 -27.3143,27.3143 -15.0859,0 -27.3143,-12.2284 -27.3143,-27.3143 z"
         fill="#4d5a62"
         fill-rule="evenodd"
         id="path18"
         style="fill:#49565f;fill-opacity:1;stroke-width:0.280147" /><path
         d="m 434.96673,184.72175 c 0,-90.434141 73.37321,-163.745721 163.8858,-163.745721 90.51258,0 163.88579,73.31158 163.88579,163.745721 0,90.43415 -73.37321,163.74572 -163.88579,163.74572 -90.51259,0 -163.8858,-73.31157 -163.8858,-163.74572 z"
         stroke="#4d5a62"
         stroke-width="35.9521"
         stroke-miterlimit="8"
         fill="none"
         fill-rule="evenodd"
         id="path19"
         style="stroke:#49565f;stroke-width:35.952;stroke-dasharray:none;stroke-opacity:1" /></g></g></svg>
